<svg width="135" height="94" viewBox="0 0 135 94" fill="none" xmlns="http://www.w3.org/2000/svg">
<path fill-rule="evenodd" clip-rule="evenodd" d="M60.7666 92.7558C64.5696 93.012 68.3725 93.0547 72.2182 93.012C72.8592 93.012 73.6711 93.012 74.4829 93.012C76.1067 93.012 77.7731 93.012 79.3969 93.012C86.4473 92.7985 92.9851 91.5601 98.9673 88.998C104.949 86.4359 110.333 82.55 115.119 77.0414C117.811 73.9668 120.29 70.7641 122.469 67.3906C124.648 64.0598 126.528 60.5582 128.109 56.8431C129.519 53.555 130.63 50.0962 131.741 46.68C132.339 44.8011 132.98 42.9649 133.621 41.086C134.134 39.6341 134.433 38.1395 134.561 36.6449C134.689 35.1503 134.689 33.613 134.647 32.0758C134.647 31.179 134.39 30.3677 133.963 29.6844C133.536 29.0012 132.938 28.4033 132.126 27.8909C130.972 27.165 129.776 26.5244 128.536 26.0974C127.297 25.6277 126.015 25.3288 124.648 25.2434C123.793 25.158 123.067 24.9872 122.383 24.6028C121.742 24.2185 121.187 23.6634 120.759 22.8093C120.204 21.6137 119.435 20.6315 118.538 19.7775C117.64 18.9234 116.572 18.2402 115.376 17.6424C114.521 17.2153 113.88 16.6602 113.41 15.977C112.94 15.2937 112.598 14.4397 112.513 13.3721C112.256 10.9808 111.145 8.97376 109.522 7.47918C107.855 5.94189 105.59 4.95975 103.155 4.78894C101.83 4.70353 100.591 4.91706 99.4372 5.30138C98.2408 5.7284 97.1298 6.32623 95.9761 6.96677L95.6343 7.18026C94.8652 7.64999 94.1388 8.11971 92.9423 7.90619C91.3186 7.60728 89.6521 7.35106 87.9856 7.13755C84.9945 6.71053 82.0461 6.32623 79.1405 5.42948C77.8158 5.00246 76.4058 4.70354 75.0384 4.53273C73.6711 4.36192 72.2609 4.3619 70.8509 4.57541C69.569 4.78893 68.4153 4.74624 67.3043 4.49002C66.1933 4.19111 65.1678 3.63597 64.0568 2.78192C63.4158 2.26949 62.7749 1.84248 62.0913 1.45816C59.6984 0.134384 57.1772 -0.20723 54.8271 0.262496C52.477 0.732223 50.2978 2.09869 48.5886 4.19111C48.1185 4.78894 47.6485 5.47218 47.2639 6.19812C46.7512 7.18028 46.1102 7.82079 45.3838 8.20511C44.6574 8.63213 43.8028 8.80295 42.8628 8.84565C40.8117 8.97376 38.8034 9.35807 36.966 10.0413C35.0859 10.7246 33.334 11.664 31.6675 12.9024C30.5565 13.7564 29.4028 14.4824 28.1636 15.1229C26.9245 15.7634 25.6426 16.3186 24.318 16.7029C23.3779 17.0018 22.4378 17.3861 21.5832 17.8986C20.7286 18.411 20.0022 19.0515 19.3185 19.8202C18.4212 20.9304 17.4384 21.7845 16.2847 22.3823C15.131 22.9802 13.849 23.3218 12.3535 23.3218C10.687 23.3645 9.02061 23.8342 7.35414 24.3466C6.88411 24.4747 6.45678 24.6028 6.11494 24.6882C3.6366 25.3715 2.0128 26.4818 1.11547 28.019C0.218139 29.5563 0.0900114 31.5633 0.645501 34.0828C1.75648 39.1644 3.89302 43.8616 6.02952 48.5589C6.37136 49.3275 6.7132 50.0535 7.09777 50.8648C9.23427 55.6475 11.6698 60.1739 14.49 64.4869C17.3102 68.7998 20.4723 72.8565 24.0616 76.657C27.6082 80.4148 31.582 83.6175 35.8977 86.0943C40.0853 88.4856 44.6147 90.2364 49.5714 91.2612C53.2889 92.0299 57.0918 92.4996 60.8948 92.7558H60.7666ZM36.3677 21.1012C35.1285 22.1688 34.4449 23.7488 34.4022 25.7131C34.3594 27.4212 35.0004 28.9585 36.1113 30.0687C37.2651 31.179 38.8888 31.905 40.7689 31.9904H40.9826C42.7773 31.9904 44.3583 31.3498 45.5548 30.2823C46.7512 29.172 47.4776 27.6774 47.5631 25.9266V25.7558C47.5631 24.1331 46.7939 22.5958 45.6829 21.4429C44.572 20.2472 43.0337 19.4786 41.5381 19.4786H41.4954C39.3589 19.4786 37.6069 20.0764 36.3677 21.1866V21.1012ZM37.137 25.7985V25.6704C37.137 24.6028 37.5215 23.7488 38.2052 23.1937C38.8461 22.6385 39.7861 22.3823 40.9399 22.3823C42.0508 22.3823 43.0336 22.7666 43.7173 23.3218C44.401 23.9196 44.8283 24.731 44.7855 25.7131C44.7855 26.6953 44.3583 27.592 43.6746 28.2325C43.0337 28.8731 42.0936 29.2574 41.068 29.2574H40.8972C39.829 29.2574 38.9315 28.8731 38.2478 28.2752C37.5642 27.6774 37.1797 26.7807 37.137 25.7985ZM80.2515 32.033C81.4052 32.2466 82.687 32.3747 84.1826 32.5028C84.8235 32.5028 85.6355 32.332 86.4046 31.8622C86.9601 31.5206 87.5583 31.0082 87.9856 30.2823C88.4984 29.3855 88.7547 28.5315 88.7547 27.6347C88.7547 26.738 88.4557 25.8412 87.9856 24.859C87.131 23.1509 85.9345 22.0834 84.5671 21.3575C83.1571 20.6315 81.5334 20.2472 79.867 19.9483C78.6278 19.7348 77.3459 20.1191 76.2349 20.8877C75.0812 21.6991 74.2265 22.8947 73.8846 24.2185C73.5001 25.7131 73.6711 27.165 74.2266 28.3606C74.7821 29.5563 75.8075 30.5385 77.1322 31.0936C78.115 31.4779 79.1404 31.7769 80.2941 31.9904L80.2515 32.033ZM84.5671 29.599C84.0544 29.7698 83.499 29.7698 82.8153 29.7698H82.7298C82.3452 29.6844 82.0035 29.599 81.6189 29.5136C80.6361 29.3001 79.525 29.0866 78.4568 28.7023C77.6022 28.4033 77.0467 27.9336 76.7048 27.2931C76.363 26.6525 76.3204 25.8412 76.534 25.0299C76.7477 24.2612 77.2177 23.578 77.8586 23.1083C78.4569 22.6812 79.226 22.5104 79.9951 22.6385C81.0634 22.852 82.0462 23.151 82.9435 23.6634C83.8408 24.1758 84.6526 24.9018 85.2508 25.8839L85.3364 26.012C85.8064 26.7807 86.2337 27.4639 85.8064 28.4461C85.55 29.0439 85.1226 29.3855 84.5671 29.5563V29.599ZM8.46503 26.9088C9.44782 26.6526 10.5588 26.5245 11.7126 26.6099H12.1827L12.0545 27.0796C11.8408 28.019 11.4562 28.7023 10.9007 29.172C10.3452 29.6417 9.74704 29.8979 8.9779 29.9833C8.59333 30.0261 8.29413 30.1541 8.08048 30.3677C7.90956 30.5385 7.78147 30.8374 7.78147 31.179C7.78147 31.606 7.9096 31.9476 8.12325 32.1611C8.37963 32.4174 8.76416 32.5455 9.14873 32.6736C11.7553 33.4849 14.3618 34.2536 17.011 34.8941C19.6603 35.5773 22.3097 36.1752 25.0016 36.8157C28.7192 37.6698 32.4793 38.2249 36.2823 38.5665C40.0425 38.9508 43.8883 39.1217 47.6913 39.2498C55.169 39.506 62.6467 39.5914 70.0817 39.506C77.5168 39.4206 84.9945 39.0789 92.4722 38.4384C94.9506 38.2249 97.4717 38.1822 99.9927 38.0968C103.069 38.0114 106.146 37.926 109.222 37.5844C110.547 37.4136 111.914 37.2855 113.282 37.1573C117.256 36.773 121.187 36.3887 125.075 35.3638C125.588 35.2357 126.058 35.1076 126.528 34.9368C126.998 34.766 127.468 34.6379 127.938 34.4244C128.323 34.2536 128.622 33.9974 128.835 33.6984C129.006 33.3995 129.092 33.0579 129.049 32.6309C129.049 32.2466 128.878 31.9904 128.707 31.8196C128.707 31.8196 128.195 31.5206 127.81 31.4352H127.682C127.255 31.3498 126.784 31.2644 126.4 31.0082C126.101 30.7947 125.844 30.4958 125.759 30.1115C125.631 29.7698 125.631 29.4282 125.802 29.0439C126.144 28.2752 126.742 28.446 127.297 28.5315H127.425C129.135 28.9585 130.288 29.5136 130.972 30.4531C131.698 31.3925 131.955 32.6736 131.955 34.3817C131.955 35.4492 131.827 36.4741 131.656 37.4989C131.485 38.5238 131.228 39.5487 130.844 40.5308C130.203 42.3243 129.647 44.0324 129.049 45.7405C128.066 48.7724 127.041 51.7616 125.887 54.7507C124.178 59.1918 121.999 63.3339 119.392 67.2198C116.786 71.063 113.709 74.65 110.205 77.9381C108.282 79.7743 106.274 81.4824 104.138 83.0197C102.001 84.557 99.7364 85.8808 97.2153 86.9056C94.6515 87.9732 92.0449 88.6564 89.3957 89.1261C86.7464 89.5958 84.0544 89.8521 81.4052 90.0656C76.0212 90.4499 70.6373 90.578 65.296 90.3218C59.912 90.0656 54.5708 89.4251 49.2723 88.3148C44.6147 87.3327 40.3844 85.6245 36.4533 83.2759C32.5648 80.97 29.0182 78.0235 25.7708 74.6073C21.6259 70.209 18.122 65.4263 15.0455 60.3447C11.9689 55.2632 9.36247 49.9254 6.96959 44.4595C6.11499 42.5378 5.38849 40.6162 4.74754 38.6946C4.10659 36.7303 3.55117 34.766 3.08114 32.759C2.78203 31.4779 2.82476 30.4531 3.20933 29.599C3.63663 28.745 4.40576 28.1044 5.6022 27.6774C6.49953 27.3358 7.39687 26.9942 8.42239 26.7807L8.46503 26.9088ZM121.742 29.0012C122.383 29.9833 122.981 31.0082 123.622 31.9477L123.793 32.2466L123.537 32.4601C122.127 33.613 120.717 33.7411 119.392 33.8265H118.794L116.529 34.1255C109.906 34.8514 103.283 35.5346 96.5744 35.6627C91.6604 35.7481 86.7464 36.0471 81.8325 36.346C80.3797 36.4314 78.9269 36.5168 77.4313 36.6022C65.5096 37.2854 53.588 36.773 41.6663 36.2606L39.4016 36.1752C35.0859 36.0044 30.8556 35.3638 26.5826 34.5098C22.3096 33.613 17.9939 32.5028 13.5927 31.3498L13.0372 31.179L13.4217 30.7093C14.1481 29.8125 14.8745 28.9158 15.5582 28.019C18.5921 24.1331 21.455 20.4607 26.4545 18.9234C27.7364 18.5391 28.9755 17.9413 30.1719 17.3007C31.3257 16.6175 32.4366 15.8489 33.4621 14.9948C36.4532 12.5608 39.8716 12.0484 43.3327 11.5359C44.1873 11.4078 45.0419 11.2797 45.8538 11.1089C46.8793 10.9381 47.3921 11.5359 47.8621 12.1338C48.4176 12.817 49.0586 13.244 49.785 13.5429C50.5114 13.8418 51.3232 13.9699 52.1351 14.0126C54.9125 14.1407 57.6473 13.97 60.0829 13.2013C62.5185 12.4327 64.7833 11.0662 66.6634 8.84565C67.0907 8.33322 67.5179 8.03431 67.9452 7.77809C68.4153 7.56458 68.8853 7.43648 69.4408 7.35107C70.8509 7.09486 72.2183 7.05214 73.5856 7.13755C74.9957 7.22295 76.3631 7.47919 77.7304 7.86351C81.6189 9.01648 85.6355 9.52889 89.6094 10.084L90.0793 10.1694C90.8058 10.2549 91.4467 10.3829 91.9167 10.7246C92.4295 11.0662 92.7286 11.664 92.7714 12.6462C92.7714 13.4575 93.1133 14.1834 93.626 14.7813C94.1388 15.3791 94.8225 15.9343 95.5061 16.3613C97.3435 17.5569 99.2663 18.4537 101.275 19.0515C103.283 19.6921 105.377 20.0764 107.556 20.2472C107.812 20.2472 108.111 20.2472 108.368 20.2472C108.581 20.2472 108.838 20.2045 109.009 20.0764C110.932 18.9234 112.513 19.0088 113.88 19.6493C115.205 20.2899 116.316 21.4856 117.256 22.6385C118.879 24.5601 120.204 26.7379 121.614 28.9585L121.742 29.0012ZM99.5654 8.03433C100.505 7.65001 101.574 7.47919 102.727 7.52189C103.026 7.52189 103.283 7.5219 103.582 7.5646C105.334 7.77811 106.915 8.63215 108.026 9.82782C109.18 11.0235 109.863 12.6035 109.863 14.3116C109.863 14.5251 109.863 14.7813 109.863 15.0375C109.778 15.8062 109.564 16.4894 109.137 16.9591C108.667 17.4288 108.026 17.685 107.086 17.5569C105.377 17.3434 103.668 17.0445 102.044 16.5321C100.42 16.0197 98.8391 15.3364 97.3435 14.3116C96.318 13.5856 95.7197 12.8597 95.677 12.0483C95.5915 11.237 96.0616 10.4683 97.0444 9.6143C97.8135 8.97376 98.6681 8.41865 99.6082 8.03433H99.5654ZM58.5019 10.81C57.0919 11.1943 55.7244 11.3651 54.4425 11.5359C53.5879 11.5359 52.9043 11.5359 52.306 11.4505C51.6651 11.3651 51.1524 11.1943 50.6396 10.8954C50.0414 10.5111 49.5713 10.084 49.3577 9.5289C49.144 8.97377 49.1441 8.29054 49.5286 7.5646C50.1268 6.32623 50.8533 5.21594 51.8361 4.4046C52.8189 3.59325 54.0152 3.03815 55.5108 2.99545C56.9636 2.95274 58.4592 2.99544 59.8266 3.42246C61.1939 3.84949 62.4758 4.61814 63.5441 5.89921C64.0995 6.58245 64.185 7.18027 63.9714 7.6927C63.8005 8.20513 63.3303 8.58943 62.8176 8.97375C61.4502 9.8705 59.9974 10.4256 58.5446 10.81H58.5019Z" fill="#D5CBC1"/>
</svg>
