<svg width="148" height="128" viewBox="0 0 148 128" fill="none" xmlns="http://www.w3.org/2000/svg">
<path fill-rule="evenodd" clip-rule="evenodd" d="M112.157 109.696C108.499 109.151 96.2726 95.5765 92.9995 92.2071C90.5606 89.704 87.5763 88.26 89.4054 85.3398C91.5233 86.2063 93.7054 88.9018 95.4062 90.6668L107.632 102.508C109.783 104.69 112.446 105.845 112.157 109.696Z" fill="#E4DED8"/>
<path fill-rule="evenodd" clip-rule="evenodd" d="M114.531 95.7387C112.317 95.7708 112.349 95.5141 107.407 90.7327C105.097 88.4864 102.562 86.9461 102.145 83.2557C106.284 83.0953 107.985 86.3364 109.846 88.2939C111.964 90.4439 115.173 92.0163 114.531 95.7387Z" fill="#E4DED8"/>
<path fill-rule="evenodd" clip-rule="evenodd" d="M96.5288 110.437C93.1594 110.308 89.6295 104.853 85.7787 101.163C84.0458 99.4941 82.9548 99.43 83.1152 96.2852C86.613 96.7344 96.7535 107.035 96.5288 110.437Z" fill="#E4DED8"/>
<path fill-rule="evenodd" clip-rule="evenodd" d="M75.512 53.413C76.3464 56.2369 75.8329 55.5951 73.5225 58.9324L58.1513 80.6574C55.2953 77.3201 57.7984 76.5178 64.7619 66.4736C66.6231 63.8101 73.0411 52.2577 75.512 53.413Z" fill="#E4DED8"/>
<path fill-rule="evenodd" clip-rule="evenodd" d="M41.8158 91.0849C47.1427 92.8177 53.5287 89.705 59.5937 84.4744C67.4557 77.7355 74.8043 67.4345 78.623 59.5725C82.1208 52.3843 82.6343 49.3037 83.0193 46.8006C83.4686 44.0088 83.7895 42.0192 88.25 35.6654C90.6568 32.2318 93.0635 28.7661 95.4382 25.2683C98.7435 20.4548 102.081 15.6412 105.45 10.8919C105.771 10.4427 106.124 9.99342 106.413 9.60834C107.825 7.77921 108.852 6.46353 107.889 4.50604C106.638 2.03511 105.065 1.65005 103.396 2.51648C100.765 3.83217 97.9091 8.42104 95.5665 12.1435C94.8285 13.3308 94.1225 14.4219 93.5448 15.2883C89.9187 20.5511 84.7522 27.8033 79.0402 35.8579C64.7922 55.9463 47.1427 80.816 41.5912 90.6035L41.3986 90.9565L41.8158 91.0849ZM12.2288 105.878C7.83248 104.884 4.88022 105.846 3.27572 107.772C2.31302 108.927 1.83165 110.435 1.79956 112.072C1.76747 113.676 2.18465 115.441 3.01899 117.11C5.13693 121.41 9.91833 125.325 16.8177 125.453L124.351 125.421C125.474 125.421 126.565 125.453 127.56 125.453C133.978 125.582 138.407 125.646 142.322 120.961C143.477 119.581 144.728 116.821 145.274 114.061C145.563 112.585 145.659 111.109 145.434 109.793C145.21 108.446 144.664 107.258 143.702 106.424C143.092 105.943 142.354 105.557 141.423 105.365C135.487 104.21 134.813 107.098 134.075 110.275C133.561 112.457 133.016 114.799 130.448 115.794C127.689 116.885 62.7385 116.596 34.5635 116.468C29.6216 116.436 25.8029 116.436 23.6529 116.436C15.7587 116.436 15.2132 114.479 14.2184 110.949C13.8333 109.569 13.352 107.932 12.3893 106.071L12.3251 105.943L12.2288 105.878ZM97.7166 114.222C99.642 114.222 101.407 114.254 103.011 114.286C116.746 114.511 119.249 114.543 119.281 96.9894C119.313 79.8855 116.586 79.9497 103.108 80.1422C101.503 80.1743 99.7383 80.2063 97.7487 80.2063H67.5199H67.3594L67.2632 80.3347C62.1609 85.9184 56.5451 90.3468 51.0577 92.4006C46.4368 94.1335 41.9442 94.1334 37.965 91.6625L45.5703 80.7519L45.9233 80.2063H45.2815H38.4143C33.6008 80.2063 30.5201 80.9444 28.5947 82.9019C26.6693 84.8594 25.9954 87.9722 25.9954 92.6894C25.9954 94.3581 25.9954 95.7379 25.9633 97.0536C25.835 110.852 25.8029 114.222 40.115 114.222H97.7166ZM70.055 77.8959H71.6274H72.7827C79.8104 77.8959 85.8754 77.7354 91.106 77.5749C95.6307 77.4466 99.5136 77.3503 102.851 77.3824C117.548 77.4787 121.592 80.1422 121.463 95.2566C121.463 96.9894 121.463 98.4976 121.495 99.8454C121.592 105.686 121.656 108.478 118.222 113.708L117.869 114.222H118.479C119.153 114.222 119.955 114.254 120.821 114.318C123.838 114.478 127.496 114.671 129.133 113.323C131.636 111.59 132.085 109.729 132.47 107.996C132.887 106.135 133.272 104.434 136.674 103.439C140.974 102.156 144.055 103.215 145.884 105.461C146.975 106.777 147.617 108.542 147.873 110.467C148.13 112.425 147.937 114.543 147.328 116.629C145.787 121.827 141.552 126.673 134.588 127.475L34.9164 127.635C33.1194 127.635 31.0977 127.732 28.9477 127.796C20.6685 128.149 10.7206 128.534 5.81081 124.394C3.40406 122.373 1.15776 118.233 0.323419 114.125C0.00251909 112.489 -0.0937499 110.852 0.0987901 109.376C0.29133 107.9 0.80477 106.584 1.70329 105.557C2.6339 104.466 3.94959 103.664 5.81081 103.311C8.98772 102.669 11.1698 103.022 12.7102 104.081C14.2505 105.14 15.1811 106.937 15.8229 109.184C17.4595 114.928 19.3528 114.767 25.8992 114.222L26.7656 114.158L27.3432 114.125L26.9902 113.644C23.3961 108.574 23.4924 105.846 23.6529 100.134C23.685 98.7543 23.7491 97.182 23.7491 95.3849C23.7491 91.5662 23.8775 88.2288 24.7439 85.5012C25.5782 82.8056 27.0865 80.7197 29.8462 79.2757C30.6806 78.8585 32.7022 78.5377 35.3978 78.313C38.7351 78.0242 42.2971 77.8959 46.6614 77.8638H46.8218L46.9181 77.7354C60.428 58.5777 73.9379 39.42 87.4478 20.2622C88.8276 18.3048 92.1329 12.9137 95.5345 8.16435C97.877 4.89117 101.664 -1.81572 106.477 0.462671C107.344 0.879841 108.114 1.45746 108.756 2.16344C109.686 3.15823 110.296 4.40976 110.328 5.59709V5.62921C110.745 9.12702 105.322 16.2189 99.4173 23.9526C93.224 32.0393 86.5493 40.7999 85.3619 47.0574C84.4955 51.6463 82.538 56.8449 79.8745 62.1076C77.1469 67.4346 73.6491 72.7615 69.7662 77.5108L69.3169 78.0564H70.055V77.8959Z" fill="#E4DED8"/>
<path d="M35.6558 80.1713L45.5074 80.0751H45.7321L45.9246 79.9788C49.4866 78.2139 52.0538 74.2347 53.2411 69.4854C54.1075 66.116 54.3001 62.3293 53.6583 58.7352C53.0165 55.1091 51.5725 51.6754 49.1657 49.012C46.4381 45.9955 42.5231 43.9739 37.1961 43.8134C34.4364 43.7492 31.8692 44.038 29.6229 44.7119C27.3445 45.3858 25.3549 46.4448 23.7504 47.8568C22.8198 48.6911 21.9855 49.6859 21.3116 50.7449C19.9959 52.8628 19.2578 55.3659 19.2578 57.8047C19.2578 60.2756 20.028 62.7144 21.7288 64.6398C22.3385 65.3458 23.0765 65.9555 23.975 66.5011C25.5154 67.4638 27.2803 68.0413 28.9811 68.266C30.7781 68.4906 32.5752 68.3302 33.955 67.7846L39.2499 65.6346H33.602C32.4147 65.4099 31.2595 64.8003 30.4572 63.9018C29.6871 63.0354 29.2378 61.8801 29.4303 60.5644L29.4624 60.4681C29.6871 59.3129 30.6498 58.4464 31.9334 57.933C33.3453 57.3233 35.1103 57.1308 36.7469 57.3875L37.0357 57.4517C39.3462 57.9009 40.8544 59.0562 41.7529 60.5644C42.8761 62.4577 43.1007 64.9286 42.7477 67.2391C42.3626 69.6779 41.2715 72.1489 39.8596 74.1705C38.4155 76.2885 36.7148 77.8609 35.2707 78.3743L35.6558 80.1713ZM45.1865 77.861L39.5066 78.1176C40.3088 77.3475 41.079 76.4168 41.7529 75.39C43.3253 73.1116 44.5447 70.3198 44.994 67.528C45.4433 64.7361 45.1544 61.7517 43.7425 59.3771C42.5231 57.3554 40.5335 55.7829 37.517 55.2053H37.4849L37.1961 55.1412H37.164C35.1424 54.8203 32.9281 55.077 31.1311 55.815C29.2057 56.6494 27.7296 58.0293 27.3445 59.9868V60.0188L27.3124 60.1472L27.2803 60.2435V60.2756C26.9915 62.2652 27.6654 63.9981 28.8527 65.3138C29.0773 65.5705 29.3341 65.8272 29.5908 66.0197L29.2699 65.9876C27.8579 65.7951 26.4139 65.3137 25.1303 64.5435C24.4564 64.1264 23.8788 63.6451 23.3974 63.0995C22.0817 61.5913 21.472 59.6979 21.5041 57.7083C21.5041 55.6867 22.1459 53.6009 23.237 51.8359C23.7825 50.9374 24.4564 50.1351 25.2587 49.4292C26.6064 48.2418 28.3072 47.3434 30.2647 46.7657C32.3184 46.156 34.6289 45.8993 37.164 45.9635C41.785 46.0918 45.1865 47.8247 47.5291 50.4239C49.647 52.7665 50.8985 55.8151 51.4762 59.0562C52.0538 62.3293 51.8612 65.7951 51.0911 68.8757C50.0963 72.9511 48.0105 76.3527 45.1865 77.861Z" fill="#E4DED8"/>
</svg>
