<svg width="93" height="104" viewBox="0 0 93 104" fill="none" xmlns="http://www.w3.org/2000/svg">
<path fill-rule="evenodd" clip-rule="evenodd" d="M8.34817 58.8806C6.85262 56.7882 2.96421 52.2191 3.98973 49.5288C6.04077 49.6996 5.99803 50.938 7.15174 53.0731C12.9203 63.8768 25.6111 75.6627 35.439 82.6659C52.1037 94.5798 60.9488 97.3982 78.6817 99.149C78.0835 101.498 77.1862 101.156 74.6651 101.071C50.3945 99.9176 22.0218 78.054 8.39091 58.8806H8.34817ZM89.7061 4.307C90.4752 7.25347 86.4586 34.5403 85.7749 40.5186C85.4331 43.5078 85.0913 46.497 84.7067 49.6142C84.023 55.379 82.8693 52.4753 79.5363 56.7455C72.6568 65.4568 81.1173 73.1859 81.2028 73.1432C81.3737 73.0578 81.4165 73.3994 81.7583 73.6129L78.5108 96.5441C58.7269 97.9533 33.9434 81.214 19.928 66.4389C11.0829 57.0871 12.0229 55.5498 6.63897 48.205L53.4283 23.2242C58.5132 28.6047 62.4016 30.0138 67.6147 27.1101C73.9387 23.6085 74.1096 17.4593 73.5969 12.9329L89.6634 4.34968L89.7061 4.307ZM70.9049 11.908C71.2468 14.7264 72.315 15.1107 71.4604 18.6123C69.3239 27.4517 57.3167 29.1598 55.0521 20.3204L0.400391 49.2299C8.21998 64.5173 16.9796 74.7232 33.5589 86.509C47.4461 96.416 67.4865 106.28 80.391 102.352L84.1085 71.9475C75.5197 64.6027 78.4681 60.0763 85.2194 55.0374C87.5268 53.2866 87.9114 41.0737 88.4242 37.1451C89.236 30.697 89.7916 24.8041 90.6034 18.5696C91.0735 14.8972 93.0818 3.70916 92.6118 0.292969L70.8621 11.8653L70.9049 11.908Z" fill="#D5CBC1"/>
<path fill-rule="evenodd" clip-rule="evenodd" d="M38.943 46.9231C48.8563 48.5885 43.6005 61.0576 35.7809 59.6057C26.2521 57.8549 30.6961 45.5567 38.943 46.9231ZM40.994 45.1296C29.8415 41.3291 22.6201 57.4706 33.8153 61.3138C44.4124 64.9862 52.4456 49.0156 40.994 45.1296Z" fill="#D5CBC1"/>
<path fill-rule="evenodd" clip-rule="evenodd" d="M59.3672 36.9741C64.7084 36.6752 62.5292 43.6357 58.6835 43.5503C54.8378 43.4648 54.6241 37.2303 59.3672 36.9741ZM61.0336 34.8817C53.2568 33.0882 50.7357 44.02 57.7007 45.6854C64.1102 47.2227 67.614 36.4617 61.0336 34.8817Z" fill="#D5CBC1"/>
<path d="M83.8514 23.0965C84.7488 23.6944 85.3043 24.5911 85.5179 25.5733C85.6888 26.5554 85.5179 27.623 84.9197 28.5198C84.3215 29.4165 83.4241 29.9716 82.4413 30.1852C81.4585 30.356 80.3903 30.1852 79.493 29.5873C78.5956 28.9895 78.0401 28.0927 77.8265 27.1106C77.6556 26.1284 77.8265 25.0609 78.4247 24.1641C79.0229 23.2674 79.9203 22.7122 80.9031 22.4987C81.8858 22.2852 82.9541 22.4987 83.8514 23.0965ZM83.766 25.9149C83.6805 25.4025 83.3386 24.8901 82.8686 24.5484C82.3986 24.2068 81.8004 24.1214 81.2876 24.2068C80.7748 24.2922 80.2621 24.6338 79.9203 25.1036C79.5784 25.5733 79.493 26.1711 79.5784 26.6836C79.6639 27.196 80.0057 27.7084 80.4757 28.05C80.9458 28.3917 81.544 28.4771 82.0568 28.3917C82.5695 28.3063 83.0823 27.9646 83.4241 27.4949C83.7659 27.0252 83.8514 26.4273 83.766 25.9149Z" fill="#D5CBC1"/>
<path d="M66.0758 56.1893C67.0159 56.8299 67.6141 57.7693 67.8278 58.8369C68.0414 59.8617 67.8277 60.972 67.1868 61.9115C66.5458 62.8509 65.6058 63.4487 64.5375 63.6622C63.512 63.8758 62.401 63.6623 61.461 63.0217C60.5209 62.3812 59.9227 61.4417 59.709 60.3742C59.4954 59.3493 59.7091 58.2391 60.35 57.2996C60.991 56.3601 61.931 55.7623 62.9992 55.5488C64.0248 55.3353 65.1358 55.5488 66.0758 56.1893ZM66.0758 59.1785C65.9476 58.5807 65.6058 58.0256 65.093 57.6839C64.5375 57.2996 63.9393 57.2142 63.3411 57.3423C62.7429 57.4704 62.1874 57.812 61.8455 58.3244C61.5037 58.8369 61.3755 59.4774 61.5037 60.0753C61.6319 60.6731 61.9737 61.2282 62.4865 61.5698C63.042 61.9542 63.6402 62.0396 64.2384 61.9115C64.8366 61.7834 65.3921 61.4417 65.734 60.9293C66.0758 60.4169 66.204 59.7763 66.0758 59.1785Z" fill="#D5CBC1"/>
<path d="M70.9055 72.5869C71.9311 73.2701 72.6147 74.3377 72.8284 75.4906C73.042 76.6436 72.8284 77.8393 72.1447 78.9068C71.461 79.9317 70.3928 80.6149 69.2391 80.8284C68.0854 81.0419 66.8462 80.8285 65.8207 80.1452C64.7951 79.462 64.1115 78.3944 63.8978 77.2414C63.6842 76.0885 63.8978 74.8501 64.5815 73.8253C65.2651 72.8004 66.3334 72.1171 67.4871 71.9036C68.6408 71.6901 69.88 71.9036 70.9055 72.5869ZM71.0764 75.8323C70.9482 75.149 70.521 74.5085 69.88 74.0815C69.2391 73.6544 68.5126 73.5263 67.7862 73.6544C67.1025 73.7825 66.4616 74.1669 66.0343 74.8074C65.607 75.4479 65.4788 76.2166 65.607 76.8998C65.7352 77.5831 66.1625 78.2236 66.7607 78.6506C67.4017 79.0776 68.1281 79.2057 68.8545 79.0776C69.5381 78.9495 70.1791 78.5225 70.6064 77.882C71.0337 77.2414 71.1619 76.5155 71.0337 75.7896L71.0764 75.8323Z" fill="#D5CBC1"/>
<path d="M48.0873 66.2676C49.412 67.1643 50.2238 68.4881 50.4802 69.8973C50.7793 71.3492 50.4802 72.8865 49.6256 74.1676C48.7283 75.4486 47.4037 76.3027 45.9936 76.5589C44.5408 76.8578 43.0025 76.5589 41.7206 75.7048C40.396 74.8508 39.5841 73.4843 39.3277 72.0751C39.0286 70.6232 39.3277 69.0859 40.1823 67.8049C41.0369 66.5238 42.4043 65.6698 43.8143 65.4136C45.2672 65.1146 46.8054 65.4135 48.0873 66.2676ZM48.5146 70.2816C48.3437 69.3422 47.7882 68.4881 46.9764 67.933C46.1218 67.3778 45.139 67.207 44.2416 67.3779C43.3443 67.5487 42.4897 68.1038 41.8915 68.9579C41.336 69.8119 41.1651 70.7941 41.336 71.6908C41.5069 72.5876 42.0624 73.4416 42.8743 74.0394C43.7289 74.5946 44.7117 74.7654 45.609 74.5946C46.5491 74.4238 47.3609 73.8686 47.9592 73.0573C48.5147 72.2032 48.6856 71.2211 48.5146 70.3243V70.2816Z" fill="#D5CBC1"/>
</svg>
