<svg width="164" height="164" viewBox="0 0 164 164" fill="none" xmlns="http://www.w3.org/2000/svg">
<path d="M82.1856 163.062C54.2417 163.062 29.5277 155.514 21.5801 144.663H21.4712L21.0719 143.973C20.6002 143.247 20.1284 142.413 19.7655 141.578L9.45898 122.38H10.0033C11.2009 123.396 12.5436 124.376 14.0315 125.32L22.1969 140.489C22.4873 141.179 22.8502 141.868 23.2494 142.485L23.3221 142.594C30.3625 153.082 54.5683 160.449 82.1493 160.449C107.516 160.449 130.488 154.134 139.307 144.699L139.416 144.59C140.868 143.029 141.847 141.396 142.392 139.763L142.428 139.618L152.227 123.977C153.932 122.743 155.456 121.437 156.763 120.094H157.779L144.86 140.779C144.17 142.739 143.009 144.626 141.376 146.405L141.049 146.949H140.868C131.214 156.747 108.315 163.062 82.1856 163.062Z" fill="#E4DED8"/>
<path d="M82.1846 141.941C60.6642 141.941 40.414 138.566 25.1719 132.433C9.53056 126.155 0.929688 117.663 0.929688 108.517C0.929688 99.372 9.53056 90.88 25.1719 84.6017C28.5469 83.259 32.1398 82.0251 35.914 80.9727C35.6962 81.9162 35.4784 82.8961 35.3695 83.876C32.1397 84.8195 29.055 85.8719 26.1518 87.0695C11.5629 92.9123 3.54262 100.533 3.54262 108.517C3.54262 116.501 11.5629 124.122 26.1518 129.965C41.1035 135.953 61.0271 139.256 82.2209 139.256C103.415 139.256 123.338 135.953 138.29 129.965C152.879 124.122 160.899 116.501 160.899 108.517C160.899 100.533 152.879 92.9123 138.29 87.0695C135.387 85.9082 132.302 84.8558 129.072 83.876C128.927 82.8961 128.746 81.9162 128.528 80.9727C132.338 82.0251 135.931 83.259 139.27 84.6017C154.911 90.88 163.512 99.372 163.512 108.517C163.512 117.663 154.911 126.155 139.27 132.433C123.991 138.566 103.741 141.941 82.1846 141.941Z" fill="#E4DED8"/>
<path d="M82.1859 127.57C46.6573 127.57 18.8223 116.066 18.8223 101.368C18.8223 95.0171 24.1933 88.9203 33.9918 84.2388C35.1168 74.7306 40.887 66.2749 49.4516 60.1781L49.9234 61.049C49.2702 62.0289 48.7622 63.1176 48.363 64.3152C41.6492 69.9402 37.2942 77.1984 36.4958 85.2912L36.4233 86.0533L35.7337 86.38C26.4796 90.6623 21.399 96.0333 21.399 101.441C21.399 114.215 49.2339 125.03 82.1496 125.03C115.065 125.03 142.9 114.215 142.9 101.441C142.9 95.997 137.82 90.6623 128.565 86.38L127.876 86.0533L127.803 85.2912C126.098 67.1096 106.029 52.8836 82.1496 52.8836C75.6899 52.8836 69.5204 53.936 63.8954 55.7868C63.0244 55.6054 62.1897 55.4965 61.3188 55.4602L60.5929 54.19C67.0889 51.6497 74.4197 50.2344 82.1496 50.2344C107.045 50.2344 128.057 65.1136 130.344 84.2751C140.142 88.9929 145.513 95.0534 145.513 101.404C145.586 116.066 117.751 127.57 82.1859 127.57Z" fill="#E4DED8"/>
<path d="M57.6519 91.8976C55.293 90.1193 53.1156 87.8693 51.301 85.2563C45.7123 77.2361 44.5872 67.5829 48.434 60.9779L19.8369 11.4774C18.8208 9.69913 18.5305 7.63053 19.0749 5.67084C19.6192 3.71114 20.8894 2.04177 22.6314 1.02563C26.2967 -1.07923 30.9782 0.154725 33.083 3.82009L62.1519 54.1553C68.6117 54.7359 75.3255 58.982 79.7892 65.4054C83.2369 70.3772 85.0514 76.0385 84.9062 81.4095C84.87 81.9176 84.8699 82.4257 84.7973 82.8975C83.9263 82.8249 83.0191 82.8249 82.1481 82.8975C82.2207 82.3894 82.257 81.845 82.257 81.337C82.4021 76.5466 80.7691 71.4296 77.6118 66.9296C73.4383 60.9416 67.1601 57.0585 61.281 56.7682L60.5551 56.7319L30.7968 5.16282C29.8532 3.56603 28.1838 2.65876 26.4419 2.65876C25.6072 2.65876 24.7362 2.87651 23.9378 3.34829C21.5426 4.72734 20.7079 7.81199 22.0869 10.2072L51.4824 61.0868L51.047 61.7763C47.3453 67.4014 48.3252 76.474 53.4422 83.8047C55.8373 87.2523 58.8858 90.0105 62.2246 91.7887L59.9382 93.3855L57.6519 91.8976Z" fill="#E4DED8"/>
<path d="M96.1557 111.347C95.7565 111.347 95.3936 111.202 95.1396 110.875C93.3976 108.734 91.438 107.572 89.2969 107.5C85.196 107.318 81.6032 110.948 81.5669 110.984C81.0588 111.492 80.2241 111.528 79.716 111.02C79.208 110.512 79.1718 109.677 79.6798 109.169C79.8613 108.988 84.1436 104.669 89.4057 104.887C92.309 105.032 94.9218 106.484 97.1719 109.242C97.6074 109.786 97.5348 110.621 96.9905 111.093C96.7364 111.238 96.4461 111.347 96.1557 111.347Z" fill="#E4DED8"/>
<path d="M126.894 98.5407C126.495 98.5407 126.132 98.3957 125.878 98.0691C124.136 95.9279 122.176 94.7665 120.035 94.6939C115.934 94.5125 112.341 98.1416 112.305 98.1779C111.797 98.686 110.962 98.7222 110.454 98.2141C109.946 97.7061 109.91 96.8715 110.418 96.3634C110.6 96.1819 114.846 91.827 120.144 92.081C123.047 92.2262 125.66 93.6778 127.91 96.4359C128.382 97.0166 128.273 97.815 127.729 98.2868C127.475 98.432 127.184 98.5407 126.894 98.5407Z" fill="#E4DED8"/>
<path d="M43.7152 103.004C43.316 103.004 42.9531 102.823 42.6991 102.496C40.9571 100.355 38.9974 99.2298 36.8926 99.1209C32.7917 98.9394 29.1989 102.569 29.1626 102.605C28.6545 103.113 27.8198 103.113 27.3118 102.641C26.8037 102.133 26.7675 101.298 27.2755 100.79C27.457 100.609 31.703 96.2902 37.0014 96.508C39.9047 96.6531 42.5175 98.1048 44.7676 100.863C45.2394 101.444 45.1305 102.242 44.5862 102.714C44.2958 102.931 44.0055 103.004 43.7152 103.004Z" fill="#E4DED8"/>
<path d="M42.736 102.385C42.3005 101.841 42.3731 101.042 42.9175 100.607C43.4619 100.171 44.2602 100.244 44.6594 100.788C45.24 101.514 46.0022 101.986 46.8006 102.24C47.7442 102.567 48.7966 102.603 49.849 102.458C53.7321 101.913 55.5467 98.502 57.4338 94.9455C58.1233 93.6027 58.8491 92.2962 59.7201 90.9535C60.9903 89.0301 62.5145 87.3607 64.2201 85.9454C65.9621 84.4937 67.8855 83.3325 69.9178 82.4615C72.1315 81.5179 74.4904 80.901 76.9219 80.6833C79.3171 80.4655 81.7485 80.5744 84.18 81.1187C85.7042 81.4454 87.1559 81.8446 88.6075 82.2801L88.7164 82.3163C92.1277 83.2961 95.7567 84.3124 100.22 84.0946C101.636 84.022 103.051 83.9132 104.249 83.768C105.846 83.5866 107.079 83.4051 107.733 83.2962C108.422 83.151 109.075 83.5865 109.184 84.276C109.329 84.9655 108.894 85.6188 108.204 85.7276C107.479 85.8728 106.136 86.0906 104.503 86.2357C103.269 86.3809 101.817 86.4898 100.329 86.5623C95.4302 86.7801 91.6196 85.7277 87.9905 84.6753L87.8816 84.6389C86.43 84.2397 85.0147 83.8043 83.5994 83.5139C81.4219 83.0422 79.2081 82.9332 77.1033 83.1147C74.9258 83.3324 72.821 83.8768 70.8613 84.7115C69.0467 85.5099 67.3048 86.5624 65.7806 87.8325C64.2564 89.1027 62.9137 90.5906 61.7524 92.2962C60.9903 93.4575 60.2644 94.764 59.5749 96.0705C57.3975 100.171 55.2926 104.127 50.1393 104.889C48.7603 105.071 47.2723 104.998 45.9296 104.563C44.7683 104.2 43.6432 103.474 42.736 102.385Z" fill="#E4DED8"/>
</svg>
