<svg width="327" height="77" viewBox="0 0 327 77" fill="none" xmlns="http://www.w3.org/2000/svg">
<path d="M325.678 54.134C325.067 51.1605 320.546 52.4232 321.116 55.3967C321.646 58.085 322.582 64.1542 320.098 66.2723C317.857 68.1867 313.295 67.82 310.607 67.82C310.24 67.82 209.59 68.8384 159.571 69.0013C115.783 69.1235 70.4073 65.8649 26.4976 69.2865C23.3204 69.5309 9.63436 71.038 9.10483 71.0787C8.49385 71.0787 7.27186 71.3231 6.74234 70.9157C6.00915 70.3862 6.33499 69.0829 6.33499 68.0645C6.41645 64.032 6.4572 59.9995 6.53866 55.9262C6.5794 52.912 1.85441 52.8713 1.81368 55.9262C1.77294 59.5107 1.69151 63.0951 1.65077 66.7203C1.61004 68.9199 1.08047 71.8118 2.30245 73.8077C3.64662 75.9665 6.74232 76.2924 9.83799 76.0073C11.5488 75.8444 21.6504 74.4188 25.1127 74.1336C69.4704 70.5492 115.295 73.8892 159.571 73.7263C211.138 73.5634 262.746 73.2782 314.314 72.708C319.324 72.6673 322.175 71.2824 324.212 68.7977C327.267 65.1318 326.533 58.4516 325.678 54.134Z" fill="#141E1F"/>
<path d="M5.64276 26.1512C5.96862 22.3631 6.21302 18.3306 7.10914 14.5832C7.92379 11.2431 10.5307 9.98036 13.5449 9.81743C109.714 4.48147 207.024 4.1149 303.275 6.15153C315.332 6.39592 318.713 6.4366 319.487 9.65447C320.22 12.5872 320.22 16.0902 320.505 19.1044C320.79 22.0779 325.515 22.1187 325.23 19.1044C324.823 15.0312 325.271 9.16576 322.827 5.66276C320.994 3.01514 319.365 1.58942 310.241 1.50796C213.582 0.367449 115.458 -0.406394 18.8808 4.76664C18.1884 4.80737 13.6263 4.9703 10.4085 5.66276C7.51645 6.31448 4.46149 7.53641 3.19879 9.81743C0.551171 14.5017 0.591943 20.8966 0.184618 26.0697C-0.10051 29.1246 5.35764 29.1654 5.64276 26.1512Z" fill="#141E1F"/>
<path d="M95.0919 46.8836C96.2324 51.7308 99.3688 54.297 104.379 54.5414C105.56 54.5821 106.741 54.6227 107.882 54.4598C111.426 54.0118 114.929 53.2786 117.943 51.1605C119.287 50.2236 119.857 48.7573 119.083 47.3316C118.187 45.7431 116.762 46.5985 115.621 47.1688C112.77 48.5944 109.756 49.2868 106.619 49.5312C102.913 49.8163 101.487 49.0424 100.754 44.3989C100.183 40.0405 100.835 40.5293 102.505 40.2442C105.519 39.7554 110.53 39.1445 113.544 38.7779C115.214 38.5742 116.314 37.7596 116.232 35.9673C116.11 33.8492 114.44 34.175 113.136 34.2157C110.733 34.2565 108.33 34.3787 105.927 34.6639C104.297 34.8675 102.75 34.9897 100.998 35.234C102.22 29.0834 102.424 27.9022 101.405 27.0061C105.764 26.11 110.204 25.947 114.643 25.7026C116.273 25.6212 117.373 24.9696 117.332 23.2588C117.332 21.548 116.069 21.1406 114.643 21.1406C111.059 21.1814 107.556 21.1407 103.931 21.4666C101.12 21.7517 98.3098 22.1997 95.4992 22.6885C94.1958 22.8921 93.1367 23.6254 93.1367 25.1325C93.1775 26.5581 94.1143 27.332 95.4177 27.6986C95.8251 27.8208 96.2731 27.8208 96.7212 27.9022C96.3953 28.9613 96.1102 29.9389 95.8658 30.8758C94.4809 36.171 93.8292 41.4662 95.0919 46.8836Z" fill="#141E1F"/>
<path d="M42.5473 53.7696C43.3212 54.7879 44.5839 54.8286 45.6429 54.5028C46.9871 54.0954 47.924 53.1587 48.8201 52.0181C51.7121 48.3522 54.1153 44.3604 56.0705 40.1242C58.433 34.9512 60.3881 29.6559 60.9991 23.9534C61.162 22.6499 60.8362 21.4687 59.2476 21.1428C57.6183 20.817 56.3149 21.1835 55.6632 22.7721C55.2558 23.7089 55.0522 24.7273 54.8485 25.7048C53.9117 30.104 52.5675 34.381 50.4087 38.6579C50.0421 38.1284 49.8791 37.884 49.7162 37.6396C47.0686 33.159 45.3171 28.3118 43.8915 23.3832C43.4027 21.7131 42.3436 20.6133 40.5106 21.0614C38.6369 21.5095 38.1074 23.0165 38.3925 24.8087C38.474 25.379 38.637 25.9493 38.7999 26.5195C40.5107 32.3443 42.9953 37.8432 46.7427 42.6496C47.4352 43.5864 47.5981 43.6679 47.5981 43.6679C46.254 45.6638 43.9729 48.8002 42.6695 50.6739C42.0177 51.6922 41.7734 52.792 42.5473 53.7696Z" fill="#141E1F"/>
<path d="M81.6914 26.4765C83.5651 26.4357 85.4388 26.4765 87.3125 26.3951C88.7381 26.3136 89.8379 25.5396 89.9193 23.9511C89.9601 22.3218 88.901 21.6701 87.4347 21.5479C80.9582 20.9369 74.6446 21.0999 68.2089 21.5886C65.8871 21.7516 64.4615 22.1996 64.0542 23.4215C63.7283 24.562 64.0135 25.8248 64.9096 26.3951C65.8872 27.0468 67.435 26.9652 68.5348 26.843C70.0011 26.7209 73.9929 26.4765 73.9929 26.4765C73.83 30.2646 73.8707 35.3562 73.8707 39.1444C73.9115 43.2176 74.1966 47.2908 74.7261 51.3233C75.052 53.971 77.2108 55.2336 79.166 53.9709C80.3472 53.197 80.4694 51.9343 80.4287 50.6716C80.1843 46.3947 79.9398 42.077 79.6954 37.5557C79.6547 34.4601 79.5733 29.8165 79.8177 26.4765C79.8177 26.5172 80.4287 26.5172 81.6914 26.4765Z" fill="#141E1F"/>
<path d="M254.803 62.8071C256.27 63.2959 257.614 62.8886 258.632 61.6259C261.158 58.4487 260.384 52.3388 256.84 49.8949C256.025 49.3246 255.414 49.0395 255.414 49.0395C255.862 44.6811 256.188 39.9969 256.188 35.6793C256.188 33.439 256.311 31.1579 256.148 28.9176C255.944 26.1478 254.763 23.7854 252.115 22.6042C247.309 20.4453 242.421 21.1377 237.696 22.8892C235.904 23.5409 235.089 25.9034 236.474 27.1254C236.881 27.492 237.492 27.5328 237.492 27.5328C237.614 34.2944 236.963 39.4673 235.007 46.9621C234.844 47.6546 234.478 48.9988 234.478 48.9988C233.745 48.6322 232.889 48.3878 231.871 48.7544C230.445 49.2432 230.323 50.6281 230.242 51.8093C229.997 54.3347 230.12 56.9009 230.282 59.467C230.364 60.9334 231.097 61.9925 232.849 62.0332C234.519 62.0332 235.293 61.3407 235.537 59.6707C235.7 58.4487 235.7 56.2492 235.741 54.7828C235.741 54.7828 235.904 54.6606 236.881 54.5384C241.851 54.0089 246.616 53.9274 251.586 54.3755C253.541 54.5384 254.355 55.8011 254.315 57.634C254.315 58.3672 254.111 59.0598 253.948 59.793C253.704 60.852 253.215 62.2776 254.803 62.8071ZM250.364 31.4838C250.119 36.779 249.793 43.6221 249.508 48.9173C249.508 48.9173 243.113 48.9173 240.506 48.9173C242.706 41.9521 243.235 27.0847 243.439 26.881C244.865 25.6998 249.101 26.5144 250.038 28.6733C250.527 29.6916 250.404 30.547 250.364 31.4838Z" fill="#141E1F"/>
<path d="M314.886 26.6435C314.275 23.6293 312.238 21.9186 309.265 21.2262C306.454 20.5744 303.807 20.9003 301.159 21.9593C300.589 22.163 299.937 22.4073 299.937 22.4073C299.082 21.7149 298.267 21.389 296.882 21.6742C295.742 21.9186 295.131 22.774 294.805 24.6477C293.705 30.4724 293.664 36.3786 294.194 42.2848C294.438 45.2583 294.805 48.2318 295.701 51.0831C296.516 53.6899 297.208 55.1564 299.856 54.7083C301.77 54.3825 302.055 52.6309 302.055 52.6309C303.847 56.0932 310.324 54.6268 312.483 53.527C316.719 51.3682 319.122 46.3581 317.574 41.959C316.352 38.5782 313.623 37.0711 310.12 36.0527C310.935 35.4418 311.505 34.9123 312.116 34.4642C314.601 32.4276 315.497 29.7392 314.886 26.6435ZM300.1 34.953C300.1 34.0162 300.059 30.4724 300.385 27.2953C300.385 27.2953 301.689 25.7474 305.843 25.7066C307.961 25.6659 308.857 26.8065 308.613 28.9245C308.206 32.2646 303.684 34.7493 300.792 34.953C300.426 34.953 300.1 34.953 300.1 34.953ZM311.424 44.7288C311.383 46.7247 310.161 47.9874 308.45 48.965C307.024 49.7389 304.621 49.4945 303.073 49.6982C302.34 49.7796 301.933 50.1462 301.729 50.4313C301.729 50.4313 300.426 45.0954 300.263 39.6372C300.263 39.6372 301.2 39.4336 303.073 39.3928C305.069 39.3521 306.78 39.5965 308.572 40.5333C310.283 41.348 311.464 42.6922 311.424 44.7288Z" fill="#141E1F"/>
<path d="M214.032 20.4874C212.28 20.2022 211.14 21.1798 210.162 22.4018C205.967 27.6563 203.889 33.644 203.971 40.6092C203.93 42.3607 204.093 44.3159 204.46 46.2304C205.722 52.5439 209.959 55.884 215.865 55.0694C219.734 54.5398 222.545 52.2588 224.419 48.9595C227.637 43.2977 228.777 35.3548 226.252 28.3081C225.274 25.579 222.83 22.8499 219.001 22.3204C217.901 22.1574 215.702 22.1982 215.702 22.1982C215.743 21.8723 215.661 20.7725 214.032 20.4874ZM219.449 29.082C220.631 30.6298 220.997 32.5035 221.242 34.3772C221.69 38.369 221.201 42.1979 219.694 45.9046C219.246 46.9636 218.594 47.9411 217.779 48.7965C215.132 51.4441 212.199 50.7924 210.936 47.2079C210.162 44.9676 209.755 42.6459 209.836 39.7539C209.959 36.1694 210.651 33.2367 212.362 29.9373C214.276 26.3936 217.331 26.2307 219.449 29.082Z" fill="#141E1F"/>
<path d="M273.786 20.4913C272.034 20.2061 270.894 21.1837 269.916 22.4057C265.721 27.6602 263.643 33.6479 263.725 40.6132C263.684 42.3647 263.847 44.3198 264.214 46.2343C265.476 52.5478 269.713 55.8879 275.619 55.0733C279.529 54.5438 282.299 52.2627 284.173 48.9634C287.39 43.3016 288.531 35.3587 286.006 28.312C285.028 25.5829 282.584 22.8538 278.755 22.3243C277.655 22.1614 275.415 22.2021 275.415 22.2021C275.497 21.8762 275.456 20.7764 273.786 20.4913ZM279.203 29.0859C280.384 30.6337 280.751 32.5074 280.995 34.3811C281.444 38.3729 280.955 42.2018 279.448 45.9085C279 46.9675 278.348 47.945 277.533 48.8004C274.886 51.448 271.953 50.7963 270.69 47.2118C269.916 44.9715 269.509 42.6498 269.59 39.7578C269.713 36.1733 270.405 33.2406 272.116 29.9412C274.03 26.3975 277.085 26.2346 279.203 29.0859Z" fill="#141E1F"/>
<path d="M199.978 33.7691C201.77 28.1887 199.489 22.9342 194.56 21.5086C191.709 20.6939 188.613 20.5718 184.988 21.8345C184.988 21.8345 184.296 20.7346 182.3 20.979C180.508 21.1827 180.141 22.0788 179.897 24.3191C179.448 28.148 179.286 32.0176 179.448 35.8465C179.448 38.1682 179.978 49.2068 180.956 52.2617C181.567 54.2169 183.277 55.1536 185.029 54.5834C186.903 53.9724 186.414 52.4246 186.292 51.1212C186.088 49.329 185.803 46.5999 185.681 44.7669C185.681 44.7669 186.373 44.6854 186.862 44.604C192.931 43.5856 198.226 39.2272 199.978 33.7691ZM185.232 39.9197C185.232 36.376 184.947 30.7141 185.436 26.2335C185.436 26.2335 186.129 25.9892 187.106 25.9077C188.206 25.8263 189.306 25.6633 190.365 25.7855C193.012 26.0299 194.52 27.8222 194.357 30.5105C194.153 34.7467 190.691 38.7385 185.232 39.9197Z" fill="#141E1F"/>
<path d="M145.071 33.7691C146.864 28.1887 144.583 22.9342 139.654 21.5086C136.803 20.6939 133.707 20.5718 130.082 21.8345C130.082 21.8345 129.389 20.7346 127.393 20.979C125.601 21.1827 125.235 22.0788 124.99 24.3191C124.542 28.148 124.379 32.0176 124.542 35.8465C124.542 38.1682 125.072 49.2068 126.049 52.2617C126.66 54.2169 128.371 55.1536 130.123 54.5834C131.996 53.9724 131.507 52.4246 131.385 51.1212C131.182 49.329 130.896 46.5999 130.774 44.7669C130.774 44.7669 131.467 44.6854 131.996 44.604C138.025 43.5856 143.32 39.2272 145.071 33.7691ZM130.286 39.9197C130.286 36.376 130 30.7141 130.489 26.2335C130.489 26.2335 131.182 25.9892 132.159 25.9077C133.259 25.8263 134.359 25.6633 135.418 25.7855C138.065 26.0299 139.572 27.8222 139.41 30.5105C139.206 34.7467 135.784 38.7385 130.286 39.9197Z" fill="#141E1F"/>
<path d="M14.8098 51.5698C15.0949 53.525 15.5837 54.1767 16.9279 54.3804C18.9238 54.6655 20.2272 53.6472 20.2272 53.6472C22.0194 54.136 24.219 54.1767 26.0112 53.8509C32.2433 52.7918 35.8685 47.6596 34.9724 41.1831C34.2392 35.6435 29.9623 32.7514 23.4858 33.4032C22.8341 33.4846 20.7567 33.7697 20.1457 34.0141C20.1457 34.0141 20.105 33.4846 20.1457 32.3848C20.2272 30.7963 20.3494 28.6782 20.5531 26.1528C20.5531 26.1528 21.5714 26.0713 22.8341 26.112C24.8707 26.1527 26.3778 26.0306 28.4144 26.0306C31.062 26.0306 32.3655 25.3381 32.3248 23.7088C32.2433 21.1019 30.0437 21.3871 28.3737 21.3464C24.7892 21.2649 21.4899 21.3463 18.0276 21.6314C16.6834 21.7536 15.38 21.7944 14.4024 22.5683C13.4248 23.3829 13.4249 25.1752 14.3617 26.0306C14.5246 26.1935 14.932 26.4379 14.932 26.4379C14.1988 34.0956 13.7914 43.9121 14.8098 51.5698ZM20.2679 38.8205C20.2679 38.8205 20.2272 38.5354 23.3228 38.0466C26.3371 37.5578 28.1293 38.6577 28.781 41.0609C30.0844 46.0303 26.5407 49.6961 21.4084 49.2481C20.8382 49.2073 20.5531 49.1259 20.5531 49.1259C20.105 45.908 20.0642 40.4091 20.2679 38.8205Z" fill="#141E1F"/>
<path d="M152.483 51.5698C152.768 53.525 153.257 54.1767 154.601 54.3804C156.597 54.6655 157.901 53.6472 157.901 53.6472C159.693 54.136 161.892 54.1767 163.685 53.8509C169.917 52.7918 173.542 47.6596 172.646 41.1831C171.913 35.6435 167.636 32.7514 161.159 33.4032C160.507 33.4846 158.43 33.7697 157.819 34.0141C157.819 34.0141 157.778 33.4846 157.819 32.3848C157.901 30.7963 158.023 28.6782 158.226 26.1528C158.226 26.1528 159.245 26.0713 160.507 26.112C162.544 26.1527 164.051 26.0306 166.088 26.0306C168.735 26.0306 170.039 25.3381 169.998 23.7088C169.876 21.1019 167.717 21.3871 166.047 21.3464C162.463 21.2649 159.163 21.3463 155.701 21.6314C154.357 21.7536 153.053 21.7944 152.076 22.5683C151.057 23.3829 151.098 25.1752 152.035 26.0306C152.198 26.1935 152.605 26.4379 152.605 26.4379C151.872 34.0956 151.465 43.9121 152.483 51.5698ZM157.941 38.8205C157.941 38.8205 157.901 38.5354 160.996 38.0466C164.01 37.5578 165.803 38.6577 166.454 41.0609C167.758 46.0303 164.214 49.6961 159.082 49.2481C158.512 49.2073 158.226 49.1259 158.226 49.1259C157.778 45.908 157.738 40.4091 157.941 38.8205Z" fill="#141E1F"/>
</svg>
