<svg width="359" height="211" viewBox="0 0 359 211" fill="none" xmlns="http://www.w3.org/2000/svg">
<path fill-rule="evenodd" clip-rule="evenodd" d="M278.39 126.528H357.97L357.314 128.485L343.329 169.937L357.3 208.775L358.012 210.76H0.681641L1.39418 208.775L15.3655 169.937L1.38021 128.485L0.723555 126.528H80.3043C78.4042 118.741 77.3842 110.591 77.3842 102.216C77.3842 74.0458 88.7988 48.5316 107.255 30.0775C125.697 11.6095 151.195 0.1875 179.347 0.1875C207.499 0.1875 232.997 11.6095 251.439 30.0775C269.895 48.5456 281.31 74.0458 281.31 102.216C281.31 110.591 280.304 118.741 278.39 126.528Z" fill="white"/>
<path fill-rule="evenodd" clip-rule="evenodd" d="M179.348 0.1875C207.5 0.1875 232.997 11.6095 251.44 30.0775C269.896 48.5456 281.31 74.0458 281.31 102.216C281.31 111.122 280.165 119.776 278.027 128.01H269.784C272.117 119.818 273.361 111.164 273.361 102.216C273.361 76.2407 262.84 52.7257 245.823 35.6977C228.806 18.6696 205.306 8.14233 179.348 8.14233C153.389 8.14233 129.889 18.6696 112.872 35.6977C95.8549 52.7257 85.3345 76.2407 85.3345 102.216C85.3345 111.164 86.5779 119.818 88.9111 128.01H80.668C78.5164 119.776 77.3848 111.122 77.3848 102.216C77.3848 74.0458 88.7993 48.5316 107.255 30.0775C125.698 11.6095 151.195 0.1875 179.348 0.1875Z" fill="#A75300"/>
<path fill-rule="evenodd" clip-rule="evenodd" d="M108.484 129.491H4.8451L18.3274 169.475L18.4951 169.964L18.3274 170.454L4.88701 207.781H166.242H192.452H353.807L340.367 170.454L340.199 169.964L340.367 169.475L353.849 129.491H250.21V126.527H355.917H357.97L357.314 128.485L343.329 169.936L357.3 208.774L358.012 210.759H355.917H192.452H166.242H2.77734H0.681641L1.39418 208.774L15.3655 169.936L1.38021 128.485L0.723555 126.527H2.77734H108.484V129.491Z" fill="#A75300"/>
<path d="M22.9805 141.055H108.136" stroke="#A75300" stroke-width="2.13" stroke-miterlimit="22.93"/>
<path d="M250.209 141.055H334.316" stroke="#A75300" stroke-width="2.13" stroke-miterlimit="22.93"/>
<path d="M22.9941 195.953H334.247" stroke="#A75300" stroke-width="2.13" stroke-miterlimit="22.93"/>
<path d="M50.2094 159.971C50.2094 161.201 50.5587 162.208 51.2433 162.991C51.9279 163.774 52.9198 164.151 54.2331 164.151C55.5464 164.151 56.5244 163.76 57.195 162.991C57.8657 162.208 58.201 161.215 58.201 159.971V156.154C58.201 154.533 57.5723 153.247 56.3009 152.296C53.9677 150.492 50.5587 149.598 46.0459 149.598C40.8626 149.598 36.7131 151.303 33.6114 154.7C30.5098 158.112 28.959 162.683 28.959 168.429C28.959 174.175 30.3841 178.956 33.2202 182.242C36.0564 185.527 40.2059 187.163 45.6827 187.163C50.1675 187.163 53.7441 186.1 56.4266 183.989C58.1171 182.647 58.9694 181.109 58.9694 179.39V176.216C58.9694 175.014 58.6341 174.035 57.9635 173.252C57.2928 172.47 56.3009 172.092 55.0015 172.092C53.7022 172.092 52.6963 172.484 52.0117 173.252C51.3271 174.035 50.9778 175.014 50.9778 176.216V177.642C49.5667 178.341 48.0857 178.705 46.5349 178.705C44.3833 178.705 42.595 177.838 41.1699 176.09C39.7449 174.343 39.0323 171.812 39.0323 168.499C39.0323 165.186 39.675 162.655 40.9604 160.824C42.2457 158.992 44.0201 158.07 46.2695 158.07C47.7504 158.07 49.0777 158.252 50.2373 158.601V159.971H50.2094Z" fill="#A75300"/>
<path d="M66.5988 150.113C65.2576 150.113 64.2237 150.435 63.4832 151.092C62.7428 151.749 62.3655 152.686 62.3655 153.93C62.3655 155.09 62.7428 156.027 63.4972 156.74C64.2517 157.439 65.2855 157.802 66.5849 157.802V178.969C65.2436 178.969 64.2098 179.29 63.4693 179.947C62.7288 180.604 62.3516 181.541 62.3516 182.785C62.3516 183.946 62.7288 184.882 63.4832 185.595C64.2377 186.294 65.2716 186.658 66.5709 186.658H73.9757C75.8479 186.84 77.6921 186.924 79.5363 186.924C83.6998 186.924 87.0529 185.805 89.6096 183.582C92.1664 181.359 93.4378 178.2 93.4378 174.104C93.4378 170.007 92.2502 167.225 89.8891 165.24C87.5279 163.241 84.2586 162.248 80.1091 162.248C78.7679 162.248 77.4266 162.332 76.0854 162.514V157.802C77.3847 157.802 78.4186 157.453 79.173 156.74C79.9275 156.041 80.3047 155.104 80.3047 153.93C80.3047 152.7 79.9415 151.749 79.201 151.092C78.4605 150.435 77.4266 150.113 76.0854 150.113H66.5709H66.5988ZM97.1122 150.113C95.771 150.113 94.7371 150.435 93.9966 151.092C93.2562 151.749 92.8789 152.686 92.8789 153.93C92.8789 155.09 93.2561 156.027 94.0106 156.74C94.765 157.439 95.7989 157.802 97.0983 157.802V179.025C94.6672 179.206 93.4517 180.451 93.4517 182.785C93.4517 183.946 93.829 184.882 94.5834 185.595C95.3379 186.294 96.3718 186.658 97.6711 186.658H106.613C107.912 186.658 108.946 186.308 109.7 185.595C110.455 184.896 110.832 183.96 110.832 182.785C110.832 181.555 110.455 180.604 109.714 179.947C108.974 179.29 107.94 178.969 106.599 178.969V157.802C107.898 157.802 108.932 157.453 109.686 156.74C110.441 156.041 110.818 155.104 110.818 153.93C110.818 152.7 110.441 151.749 109.7 151.092C108.96 150.435 107.926 150.113 106.585 150.113H97.0703H97.1122ZM79.187 178.424C77.7759 178.424 76.756 178.382 76.1133 178.312V170.846C76.9656 170.734 77.9575 170.692 79.1311 170.692C80.7518 170.692 81.9673 170.986 82.7497 171.587C83.5461 172.188 83.9373 173.153 83.9373 174.495C83.9373 177.109 82.3445 178.41 79.173 178.41L79.187 178.424Z" fill="#A75300"/>
<path d="M127.696 178.969V175.152C128.827 175.334 129.973 175.418 131.133 175.418C135.436 175.418 138.957 174.327 141.709 172.132C144.461 169.937 145.83 166.722 145.83 162.444C145.83 158.166 144.475 155.09 141.779 152.993C139.082 150.896 135.492 149.848 131.021 149.848C129.33 149.848 127.472 149.932 125.46 150.113H118.167C116.826 150.113 115.792 150.435 115.052 151.092C114.311 151.749 113.934 152.686 113.934 153.93C113.934 155.09 114.311 156.027 115.066 156.74C115.82 157.439 116.854 157.802 118.153 157.802V178.969C116.812 178.969 115.778 179.29 115.038 179.947C114.297 180.604 113.92 181.541 113.92 182.785C113.92 183.946 114.297 184.882 115.052 185.595C115.806 186.294 116.84 186.658 118.139 186.658H128.185C129.484 186.658 130.518 186.308 131.286 185.595C132.041 184.896 132.418 183.96 132.418 182.785C132.418 181.555 132.041 180.604 131.3 179.947C130.56 179.29 129.526 178.969 128.185 178.969H127.654H127.696ZM130.658 167.225C129.498 167.225 128.506 167.169 127.696 167.071V158.236C128.478 158.124 129.512 158.082 130.811 158.082C132.404 158.082 133.619 158.46 134.486 159.215C135.352 159.969 135.785 161.06 135.785 162.472C135.785 164.066 135.324 165.254 134.388 166.051C133.452 166.848 132.208 167.239 130.658 167.239V167.225Z" fill="#A75300"/>
<path d="M148.959 180.395C148.959 182.478 150.021 184.086 152.13 185.218C154.631 186.518 157.901 187.175 161.91 187.175C164.062 187.175 166.004 186.98 167.75 186.588C169.497 186.197 171.131 185.568 172.668 184.687C174.205 183.806 175.393 182.548 176.245 180.898C177.097 179.262 177.516 177.277 177.516 174.942C177.516 171.028 175.686 168.358 172.012 166.946C173.423 166.247 174.513 165.212 175.295 163.87C176.077 162.528 176.455 161.06 176.455 159.48C176.455 156.237 175.225 153.776 172.78 152.099C170.335 150.421 166.982 149.582 162.763 149.582C160.932 149.582 159.032 149.806 157.076 150.239C155.12 150.686 153.556 151.274 152.396 152.015C150.775 153.035 149.965 154.391 149.965 156.097V158.907C149.965 160.137 150.314 161.144 150.999 161.927C151.683 162.71 152.689 163.087 153.989 163.087C155.288 163.087 156.28 162.696 156.951 161.927C157.621 161.144 157.957 160.151 157.957 158.907V158.641C159.326 158.25 160.583 158.054 161.715 158.054C164.858 158.054 166.423 159.131 166.423 161.284C166.423 163.437 164.9 164.513 161.868 164.513H157.691C156.601 164.513 155.707 164.849 155.023 165.52C154.338 166.191 153.989 167.058 153.989 168.106C153.989 169.155 154.324 170.063 154.995 170.706C155.665 171.335 156.559 171.657 157.691 171.657H162.665C165.878 171.769 167.485 172.859 167.485 174.942C167.485 177.445 165.641 178.703 161.924 178.703C160.262 178.703 158.613 178.438 156.951 177.906V177.277C156.951 176.075 156.615 175.096 155.945 174.313C155.274 173.53 154.282 173.153 152.983 173.153C151.683 173.153 150.677 173.544 149.993 174.313C149.308 175.096 148.959 176.075 148.959 177.277V180.395Z" fill="#A75300"/>
<path d="M183.665 178.969C182.324 178.969 181.29 179.29 180.549 179.947C179.809 180.604 179.432 181.541 179.432 182.785C179.432 183.946 179.809 184.882 180.563 185.595C181.318 186.294 182.352 186.658 183.651 186.658H190.846C192.146 186.658 193.179 186.322 193.934 185.651C194.688 184.98 195.066 184.086 195.066 182.953C195.066 181.01 194.116 179.85 192.215 179.458L192.844 177.655H204.538L205.167 179.458C203.365 179.85 202.47 181.01 202.47 182.953C202.47 184.086 202.848 184.98 203.602 185.651C204.356 186.322 205.39 186.658 206.69 186.658H214.57C215.869 186.658 216.903 186.308 217.657 185.595C218.412 184.896 218.789 183.96 218.789 182.785C218.789 181.555 218.412 180.604 217.671 179.947C216.931 179.29 215.897 178.969 214.556 178.969L203.504 152.658C202.624 150.617 201.129 149.582 199.005 149.582C196.882 149.582 195.261 150.728 194.353 153.021L183.609 178.955L183.665 178.969ZM198.628 161.773L202.065 170.553H195.247L198.628 161.773Z" fill="#A75300"/>
<path d="M224.81 150.113C223.469 150.113 222.435 150.434 221.694 151.091C220.954 151.748 220.576 152.685 220.576 153.929C220.576 155.09 220.954 156.026 221.708 156.739C222.463 157.438 223.496 157.802 224.796 157.802V178.968C223.455 178.968 222.421 179.29 221.68 179.947C220.94 180.604 220.562 181.541 220.562 182.785C220.562 183.945 220.94 184.882 221.694 185.595C222.449 186.294 223.483 186.657 224.782 186.657H232.718C234.729 186.839 236.63 186.923 238.432 186.923C248.687 186.923 253.828 183.092 253.828 175.431C253.828 173.53 253.353 171.796 252.403 170.244C251.453 168.693 250.028 167.56 248.114 166.861C249.385 166.19 250.391 165.225 251.16 163.953C251.914 162.681 252.291 161.269 252.291 159.717C252.291 156.362 250.992 153.887 248.407 152.28C245.809 150.672 242.386 149.875 238.124 149.875C237.174 149.875 235.372 149.959 232.732 150.141H224.796L224.81 150.113ZM238.823 171.545C242.316 171.545 244.062 172.817 244.062 175.361C244.062 177.906 242.288 179.22 238.725 179.22C236.853 179.22 235.218 179.136 233.807 178.954V171.545H238.837H238.823ZM237.873 157.522C240.975 157.522 242.525 158.725 242.525 161.115C242.525 162.206 242.148 163.072 241.422 163.702C240.681 164.331 239.605 164.652 238.194 164.652H233.807V157.774C235.107 157.592 236.476 157.508 237.887 157.508L237.873 157.522Z" fill="#A75300"/>
<path d="M257.922 168.372C257.922 173.88 259.487 178.382 262.602 181.891C265.718 185.4 270.119 187.161 275.805 187.161C281.491 187.161 285.879 185.4 289.008 181.891C292.124 178.382 293.688 173.866 293.688 168.372C293.688 162.877 292.124 158.362 289.008 154.853C285.892 151.344 281.491 149.582 275.805 149.582C270.119 149.582 265.732 151.344 262.602 154.853C259.487 158.362 257.922 162.877 257.922 168.372ZM267.967 168.372C267.967 165.296 268.624 162.807 269.923 160.906C271.223 159.005 273.179 158.054 275.791 158.054C278.404 158.054 280.36 159.005 281.659 160.906C282.958 162.807 283.615 165.296 283.615 168.372C283.615 171.447 282.958 173.936 281.659 175.837C280.36 177.739 278.404 178.689 275.791 178.689C273.179 178.689 271.223 177.739 269.923 175.837C268.624 173.936 267.967 171.447 267.967 168.372Z" fill="#A75300"/>
<path fill-rule="evenodd" clip-rule="evenodd" d="M303.831 150.113C302.49 150.113 301.456 150.435 300.716 151.092C299.975 151.749 299.598 152.686 299.598 153.93C299.598 155.09 299.975 156.027 300.73 156.74C301.484 157.439 302.518 157.802 303.817 157.802C303.398 167.784 302.378 174.495 300.744 177.92H300.478C298.955 177.92 297.824 178.368 297.069 179.248C296.315 180.129 295.938 181.29 295.938 182.743V183.135H333.171V182.743C333.171 181.331 332.808 180.171 332.081 179.276C331.355 178.382 330.307 177.92 328.938 177.92H328.616V157.802C329.916 157.802 330.95 157.453 331.718 156.74C332.473 156.041 332.85 155.104 332.85 153.93C332.85 152.7 332.473 151.749 331.732 151.092C330.992 150.435 329.958 150.113 328.616 150.113H303.803H303.831ZM309.965 177.906C311.516 171.839 312.326 165.492 312.396 158.851H319.214V177.906H309.951H309.965Z" fill="#A75300"/>
<path fill-rule="evenodd" clip-rule="evenodd" d="M300.059 177.652C298.494 177.652 297.279 178.03 296.413 178.799C295.546 179.568 295.113 180.672 295.113 182.112C295.113 183.468 295.56 184.573 296.441 185.397C297.321 186.222 298.536 186.642 300.059 186.642H329.092C330.614 186.642 331.83 186.222 332.71 185.397C333.59 184.573 334.037 183.482 334.037 182.112C334.037 180.672 333.604 179.568 332.738 178.799C331.872 178.03 330.656 177.652 329.092 177.652H300.059Z" fill="#A75300"/>
<path fill-rule="evenodd" clip-rule="evenodd" d="M173.003 28.0781C180.771 29.602 188.008 32.6217 194.379 36.8298C192.018 38.9549 190.537 42.0305 190.537 45.4557C190.537 51.8727 195.735 57.0734 202.147 57.0734C205.64 57.0734 208.77 55.5356 210.894 53.089C215.183 59.3942 218.298 66.5661 219.905 74.2833C219.528 74.2413 219.137 74.2273 218.745 74.2273C212.333 74.2273 207.135 79.428 207.135 85.845C207.135 92.262 212.333 97.4627 218.745 97.4627C219.22 97.4627 219.681 97.4348 220.129 97.3788C218.62 105.459 215.448 112.967 211.005 119.538C208.882 117.021 205.696 115.414 202.147 115.414C195.735 115.414 190.537 120.614 190.537 127.031C190.537 130.554 192.102 133.714 194.589 135.839C188.162 140.117 180.855 143.193 172.989 144.73C173.003 144.451 173.017 144.157 173.017 143.878C173.017 137.461 167.82 132.26 161.407 132.26C154.994 132.26 149.797 137.461 149.797 143.878C149.797 144.171 149.797 144.451 149.825 144.73C142.057 143.207 134.834 140.201 128.463 135.993C131.047 133.868 132.696 130.638 132.696 127.031C132.696 120.614 127.499 115.414 121.086 115.414C117.411 115.414 114.128 117.133 112.004 119.803C107.45 113.149 104.222 105.515 102.686 97.295C103.3 97.3928 103.943 97.4487 104.586 97.4487C110.998 97.4487 116.196 92.248 116.196 85.831C116.196 79.4141 110.998 74.2134 104.586 74.2134C104.013 74.2134 103.454 74.2553 102.909 74.3392C104.53 66.4962 107.715 59.2124 112.116 52.8234C114.24 55.4098 117.467 57.0734 121.086 57.0734C127.499 57.0734 132.696 51.8727 132.696 45.4557C132.696 41.9467 131.145 38.8011 128.672 36.6761C134.987 32.5518 142.141 29.588 149.811 28.0781C149.811 28.2739 149.797 28.4696 149.797 28.6653C149.797 35.0823 154.994 40.283 161.407 40.283C167.82 40.283 173.017 35.0823 173.017 28.6653C173.017 28.4696 173.017 28.2739 173.003 28.0781ZM128.141 80.9519C130.936 79.2323 134.582 80.0991 136.301 82.8812C138.019 85.6773 137.167 89.3261 134.373 91.0457C131.578 92.7653 127.932 91.8985 126.213 89.1164C124.495 86.3204 125.361 82.6715 128.141 80.9519ZM162.315 73.0809C169.217 73.0809 174.82 78.6871 174.82 85.5934C174.82 92.4997 169.217 98.1058 162.315 98.1058C155.413 98.1058 149.811 92.4997 149.811 85.5934C149.811 78.6871 155.413 73.0809 162.315 73.0809ZM191.417 68.076C193.737 66.636 196.782 67.363 198.221 69.6837C199.661 72.0045 198.934 75.0522 196.615 76.4922C194.296 77.9321 191.25 77.2052 189.811 74.8844C188.372 72.5637 189.098 69.516 191.417 68.076ZM175.336 48.825C178.131 47.1054 181.777 47.9722 183.496 50.7543C185.214 53.5504 184.362 57.1992 181.568 58.9188C178.773 60.6384 175.127 59.7716 173.408 56.9895C171.69 54.2074 172.556 50.5446 175.336 48.825ZM150.621 49.9434C154.924 48.3497 159.703 50.5306 161.295 54.8366C162.888 59.1425 160.708 63.9238 156.405 65.5176C152.102 67.1113 147.324 64.9304 145.731 60.6244C144.138 56.3185 146.318 51.5372 150.621 49.9434Z" fill="#FDC322"/>
<path fill-rule="evenodd" clip-rule="evenodd" d="M173.003 28.0781C180.771 29.602 188.008 32.6217 194.379 36.8298C192.018 38.9549 190.537 42.0305 190.537 45.4557C190.537 51.8727 195.735 57.0734 202.147 57.0734C205.64 57.0734 208.77 55.5356 210.894 53.089C215.183 59.3942 218.298 66.5661 219.905 74.2833C219.528 74.2413 219.137 74.2273 218.745 74.2273C212.333 74.2273 207.135 79.428 207.135 85.845C207.135 92.262 212.333 97.4627 218.745 97.4627C219.22 97.4627 219.681 97.4348 220.129 97.3788C218.62 105.459 215.448 112.967 211.005 119.538C208.882 117.021 205.696 115.414 202.147 115.414C195.735 115.414 190.537 120.614 190.537 127.031C190.537 130.554 192.102 133.714 194.589 135.839C188.162 140.117 180.855 143.193 172.989 144.73C173.003 144.451 173.017 144.157 173.017 143.878C173.017 137.461 167.82 132.26 161.407 132.26C154.994 132.26 149.797 137.461 149.797 143.878C149.797 144.171 149.797 144.451 149.825 144.73C142.057 143.207 134.834 140.201 128.463 135.993C131.047 133.868 132.696 130.638 132.696 127.031C132.696 120.614 127.499 115.414 121.086 115.414C117.411 115.414 114.128 117.133 112.004 119.803C107.45 113.149 104.222 105.515 102.686 97.295C103.3 97.3928 103.943 97.4487 104.586 97.4487C110.998 97.4487 116.196 92.248 116.196 85.831C116.196 79.4141 110.998 74.2134 104.586 74.2134C104.013 74.2134 103.454 74.2553 102.909 74.3392C104.53 66.4962 107.715 59.2124 112.116 52.8234C114.24 55.4098 117.467 57.0734 121.086 57.0734C127.499 57.0734 132.696 51.8727 132.696 45.4557C132.696 41.9467 131.145 38.8011 128.672 36.6761C134.987 32.5518 142.141 29.588 149.811 28.0781C149.811 28.2739 149.797 28.4696 149.797 28.6653C149.797 35.0823 154.994 40.283 161.407 40.283C167.82 40.283 173.017 35.0823 173.017 28.6653C173.017 28.4696 173.017 28.2739 173.003 28.0781ZM176.231 32.7336C181.33 34.0338 186.15 36.005 190.593 38.5215C189.378 40.5486 188.665 42.9253 188.665 45.4697C188.665 52.9073 194.701 58.9468 202.133 58.9468C205.067 58.9468 207.792 58.0101 209.999 56.4024C213.297 61.2675 215.839 66.664 217.474 72.4239C210.614 73.053 205.249 78.8129 205.249 85.845C205.249 92.8772 211.075 99.1124 218.34 99.3081C216.971 105.669 214.512 111.639 211.145 117.021C208.756 114.868 205.598 113.554 202.12 113.554C194.687 113.554 188.651 119.594 188.651 127.031C188.651 130.414 189.895 133.504 191.948 135.867C186.723 139.012 180.953 141.375 174.82 142.801C174.275 135.867 168.463 130.414 161.393 130.414C154.324 130.414 148.525 135.867 147.967 142.801C141.931 141.403 136.245 139.096 131.103 136.035C133.241 133.644 134.54 130.498 134.54 127.045C134.54 119.608 128.505 113.568 121.072 113.568C117.481 113.568 114.212 114.98 111.795 117.273C108.567 112.17 106.15 106.522 104.725 100.51C112.745 100.427 119.214 93.8977 119.214 85.845C119.214 77.7923 113.248 71.7948 105.661 71.2216C107.142 66.4543 109.238 61.9386 111.879 57.7864C114.435 59.7017 117.621 60.8341 121.058 60.8341C129.538 60.8341 136.412 53.9558 136.412 45.4697C136.412 42.5338 135.588 39.7937 134.163 37.459C138.047 35.4458 142.196 33.852 146.556 32.7476C148.344 39.2624 154.296 44.0577 161.365 44.0577C168.435 44.0577 174.4 39.2624 176.175 32.7476L176.231 32.7336Z" fill="#A75300"/>
<path fill-rule="evenodd" clip-rule="evenodd" d="M245.922 61.0859C249.344 62.0506 252.418 63.7422 254.989 65.9371C254.388 66.8319 253.969 67.8524 253.773 68.9848C253.019 73.2908 255.911 77.401 260.214 78.156C261.052 78.2958 261.891 78.3098 262.687 78.1979C263.539 81.4553 263.735 84.9365 263.12 88.4595C259.208 88.2917 255.674 91.0459 254.975 95.0163C254.57 97.3231 255.212 99.5739 256.554 101.28C254.081 103.796 251.077 105.753 247.766 106.997C246.704 104.733 244.594 103.013 241.954 102.552C238.084 101.881 234.395 104.132 233.124 107.71C229.799 106.83 226.809 105.292 224.252 103.237C224.937 102.3 225.412 101.196 225.621 99.9654C226.376 95.6594 223.484 91.5492 219.18 90.7942C218.105 90.6125 217.057 90.6405 216.051 90.8781C215.157 87.7046 214.905 84.2934 215.408 80.8262C219.586 81.3715 223.498 78.5334 224.224 74.3253C224.685 71.711 223.791 69.1666 222.058 67.4051C224.601 64.8187 227.703 62.8195 231.126 61.5892C232.146 63.9799 234.311 65.8113 237.05 66.3006C240.934 66.9857 244.65 64.7069 245.894 61.0859H245.922ZM230.693 76.003H248.422V93.1429H230.693V76.003Z" fill="#A75300"/>
<path fill-rule="evenodd" clip-rule="evenodd" d="M169.316 95.9665C167.319 97.3226 164.916 98.1055 162.317 98.1055C155.415 98.1055 149.812 92.4993 149.812 85.593C149.812 79.3578 154.367 74.199 160.319 73.2344C156.994 75.4852 154.814 79.2879 154.814 83.6078C154.814 90.5141 160.417 96.1203 167.319 96.1203C168.003 96.1203 168.66 96.0643 169.316 95.9665Z" fill="#A75300"/>
<path fill-rule="evenodd" clip-rule="evenodd" d="M160.261 62.5104C159.325 63.8106 158.012 64.8591 156.405 65.4602C152.102 67.054 147.324 64.8731 145.731 60.5671C144.292 56.6945 145.927 52.4165 149.42 50.4453C147.869 52.6123 147.394 55.4922 148.386 58.1765C149.978 62.4824 154.771 64.6634 159.06 63.0696C159.479 62.9158 159.884 62.7201 160.261 62.5104Z" fill="#A75300"/>
<path fill-rule="evenodd" clip-rule="evenodd" d="M136.665 88.4047C136.19 89.4532 135.422 90.3619 134.374 91.019C131.594 92.7386 127.933 91.8718 126.215 89.0897C124.664 86.5732 125.209 83.3577 127.374 81.4844C126.592 83.2179 126.662 85.301 127.737 87.0486C129.456 89.8446 133.116 90.6974 135.897 88.9779C136.176 88.8101 136.428 88.6144 136.665 88.4186V88.4047Z" fill="#A75300"/>
<path fill-rule="evenodd" clip-rule="evenodd" d="M183.847 56.2758C183.372 57.3243 182.603 58.233 181.555 58.8901C178.775 60.6097 175.115 59.7429 173.396 56.9608C171.845 54.4443 172.39 51.2288 174.556 49.3555C173.773 51.089 173.843 53.1721 174.919 54.9197C176.638 57.7157 180.298 58.5685 183.078 56.849C183.358 56.6812 183.609 56.4855 183.847 56.2897V56.2758Z" fill="#A75300"/>
<path fill-rule="evenodd" clip-rule="evenodd" d="M198.503 74.2834C198.112 75.1501 197.469 75.9191 196.589 76.4643C194.27 77.9043 191.224 77.1773 189.785 74.8565C188.485 72.7595 188.947 70.0753 190.749 68.5234C190.092 69.9634 190.148 71.697 191.056 73.1509C192.495 75.4717 195.541 76.1987 197.86 74.7587C198.084 74.6189 198.307 74.4651 198.503 74.2834Z" fill="#A75300"/>
<path fill-rule="evenodd" clip-rule="evenodd" d="M161.563 94.6797C179.572 94.6797 196.254 100.356 209.931 110.016C201.856 107.43 193.25 106.032 184.322 106.032C165.405 106.032 147.955 112.295 133.913 122.85C132.153 117.454 127.095 113.539 121.102 113.539C117.511 113.539 114.242 114.951 111.825 117.244C110.931 115.832 110.106 114.378 109.338 112.896C123.672 101.488 141.807 94.6797 161.549 94.6797H161.563Z" fill="#65B32E"/>
<path fill-rule="evenodd" clip-rule="evenodd" d="M184.322 106.031C193.04 106.031 201.465 107.359 209.372 109.834C191.224 111.526 174.751 119.005 161.814 130.399C161.688 130.399 161.562 130.399 161.423 130.399C154.353 130.399 148.555 135.851 147.996 142.786C141.961 141.388 136.274 139.081 131.133 136.019C133.27 133.629 134.57 130.483 134.57 127.03C134.57 125.576 134.332 124.178 133.913 122.864C147.954 112.308 165.404 106.045 184.322 106.045V106.031Z" fill="#007F2D"/>
<path fill-rule="evenodd" clip-rule="evenodd" d="M243.908 79.6228C242.986 78.742 241.799 78.0989 240.443 77.8613C236.839 77.2321 233.402 79.6507 232.773 83.2577C232.2 86.5151 234.114 89.6188 237.132 90.6673C235.595 89.1854 234.813 87.0044 235.204 84.7536C235.833 81.1467 239.27 78.728 242.874 79.3572C243.224 79.4131 243.573 79.5109 243.908 79.6228Z" fill="#A75300"/>
<path fill-rule="evenodd" clip-rule="evenodd" d="M247.318 63.1406C249.525 63.9235 251.551 65.042 253.353 66.412C253.004 67.139 252.753 67.9359 252.599 68.7747C251.733 73.7378 255.044 78.4491 260.004 79.3159C260.59 79.4138 261.163 79.4557 261.722 79.4557C262.281 81.9582 262.435 84.6005 262.085 87.2847C258.034 87.5923 254.541 90.6121 253.8 94.8062C253.409 97.043 253.87 99.238 254.96 101.041C253.102 102.747 250.964 104.131 248.659 105.138C247.318 103.208 245.236 101.81 242.749 101.363C242.12 101.251 241.492 101.209 240.877 101.237C237.524 101.125 234.422 102.887 232.76 105.697C230.678 104.956 228.75 103.935 227.017 102.663C227.367 101.908 227.632 101.097 227.786 100.245C228.694 95.0718 225.229 90.1367 220.06 89.242C219.445 89.1301 218.83 89.0882 218.229 89.1022C217.768 86.9632 217.629 84.7263 217.824 82.4475C222.03 82.098 225.648 78.9524 226.403 74.6045C226.836 72.144 226.277 69.7394 225.019 67.7961C226.696 66.2443 228.61 64.9581 230.678 63.9795C232.075 65.9647 234.227 67.4046 236.797 67.852C237.454 67.9639 238.097 68.0058 238.739 67.9918C242.316 68.1037 245.613 66.1744 247.318 63.1406ZM238.18 90.8917C241.785 91.5208 245.222 89.1022 245.851 85.4952C246.479 81.8883 244.062 78.4491 240.458 77.82C236.853 77.1909 233.416 79.6095 232.788 83.2164V83.2444V83.2584C232.215 86.5158 234.129 89.6195 237.147 90.668L237.077 90.5981C237.426 90.7239 237.803 90.8218 238.18 90.8917Z" fill="#FDC322"/>
</svg>
