<svg width="118" height="118" viewBox="0 0 118 118" fill="none" xmlns="http://www.w3.org/2000/svg">
<path d="M99.1795 33.188H90.0296L67.5801 55.6276C68.3533 57.5982 68.4244 59.7749 67.7815 61.7917C67.1385 63.8085 65.8207 65.5424 64.0497 66.7019C62.2786 67.8613 60.1624 68.3756 58.0568 68.1583C55.9511 67.9409 53.9846 67.0051 52.4877 65.5083C50.9909 64.0115 50.0552 62.0449 49.8378 59.9393C49.6204 57.8337 50.1347 55.7174 51.2942 53.9464C52.4536 52.1753 54.1875 50.8575 56.2044 50.2146C58.2212 49.5716 60.3979 49.6427 62.3684 50.416L84.813 27.9714V18.8215C84.8135 17.5971 85.2998 16.423 86.1651 15.5568L94.6709 7.05096C94.828 6.89207 95.0256 6.77921 95.2423 6.72461C95.459 6.67001 95.6864 6.67575 95.9001 6.74121C96.3377 6.86904 96.6622 7.23287 96.7507 7.68029L99.0123 18.9935L110.321 21.2552C110.763 21.3437 111.127 21.6682 111.255 22.1058C111.319 22.3184 111.325 22.5444 111.271 22.76C111.218 22.9756 111.107 23.1726 110.95 23.33L102.439 31.8359C102.011 32.2644 101.503 32.6044 100.944 32.8364C100.385 33.0684 99.7851 33.1879 99.1795 33.188Z" fill="#39BAC9"/>
<path d="M12.9062 59C12.9062 71.2249 17.7625 82.949 26.4068 91.5932C35.0511 100.237 46.7752 105.094 59 105.094C65.0531 105.094 71.047 103.902 76.6393 101.585C82.2317 99.2687 87.313 95.8734 91.5932 91.5932C95.8734 87.313 99.2686 82.2317 101.585 76.6393C103.901 71.047 105.094 65.0532 105.094 59C105.094 54.5849 104.474 50.3172 103.319 46.2806C103.089 45.3538 103.228 44.374 103.706 43.5474C104.184 42.7209 104.964 42.112 105.882 41.8489C106.8 41.5858 107.784 41.6891 108.628 42.1369C109.471 42.5847 110.108 43.3422 110.404 44.25C111.751 48.9405 112.469 53.8867 112.469 59C112.469 88.5295 88.5295 112.469 59 112.469C29.4705 112.469 5.53125 88.5295 5.53125 59C5.53125 29.4705 29.4705 5.53128 59 5.53128C63.9904 5.52636 68.9513 6.21961 73.75 7.59136C74.2179 7.72261 74.6552 7.94504 75.0368 8.24587C75.4185 8.54669 75.7369 8.91999 75.9738 9.34428C76.2106 9.76858 76.3613 10.2355 76.4171 10.7182C76.473 11.201 76.4328 11.69 76.299 12.1571C76.1652 12.6243 75.9404 13.0604 75.6375 13.4404C75.3346 13.8204 74.9596 14.1367 74.534 14.3713C74.1084 14.6058 73.6407 14.754 73.1576 14.8072C72.6746 14.8603 72.1858 14.8175 71.7194 14.6812C67.583 13.4999 63.3018 12.9024 59 12.9063C46.7752 12.9063 35.0511 17.7626 26.4068 26.4068C17.7625 35.0511 12.9062 46.7752 12.9062 59Z" fill="#39BAC9"/>
<path d="M35.033 58.999C35.0467 62.2554 35.724 65.4749 37.0235 68.4608C38.323 71.4467 40.2174 74.1365 42.5911 76.3658C44.9648 78.5952 47.768 80.3173 50.8295 81.4272C53.891 82.537 57.1466 83.0112 60.3975 82.8208C63.6484 82.6305 66.8263 81.7795 69.7374 80.32C72.6484 78.8604 75.2314 76.8228 77.3287 74.3317C79.426 71.8405 80.9936 68.9481 81.9357 65.8309C82.8778 62.7137 83.1747 59.4372 82.8082 56.2014C82.705 55.5461 82.7809 54.875 83.028 54.2593C83.2751 53.6436 83.6841 53.1063 84.2118 52.7041C84.7394 52.302 85.366 52.05 86.0251 51.975C86.6843 51.9 87.3515 52.0046 87.956 52.2779C89.1901 52.8286 90.021 54.0036 90.1292 55.3508C90.8926 61.8174 89.6224 68.3613 86.4952 74.0727C83.368 79.7841 78.5391 84.3795 72.6798 87.2199C66.8204 90.0604 60.2217 91.0048 53.8008 89.922C47.38 88.8392 41.4559 85.783 36.8522 81.1781C32.2496 76.5781 29.1926 70.66 28.105 64.2444C27.0175 57.8289 27.9533 51.2339 30.7826 45.3741C33.612 39.5143 38.1947 34.6802 43.8952 31.5423C49.5957 28.4043 56.1314 27.118 62.5958 27.8617C63.0845 27.9071 63.5592 28.0495 63.9922 28.2807C64.4251 28.5119 64.8075 28.8272 65.117 29.2081C65.4265 29.589 65.6569 30.0278 65.7946 30.4989C65.9322 30.97 65.9745 31.4638 65.9189 31.9515C65.8632 32.4391 65.7108 32.9107 65.4706 33.3387C65.2303 33.7666 64.907 34.1423 64.5197 34.4437C64.1323 34.7451 63.6887 34.9662 63.2148 35.0939C62.741 35.2216 62.2463 35.2535 61.76 35.1876C58.402 34.7993 55 35.1256 51.777 36.145C48.5541 37.1644 45.5831 38.8538 43.0592 41.1024C40.5353 43.3511 38.5154 46.108 37.1321 49.1923C35.7489 52.2767 35.0335 55.6187 35.033 58.999Z" fill="#39BAC9"/>
</svg>
