<svg width="122" height="112" viewBox="0 0 122 112" fill="none" xmlns="http://www.w3.org/2000/svg">
<path fill-rule="evenodd" clip-rule="evenodd" d="M122 57.7406C121.922 60.2998 121.7 62.8526 121.336 65.3873C108.139 67.6275 95.2421 71.3611 82.8981 76.5152C85.4664 78.4208 87.9486 80.3752 90.3449 82.354C99.7797 78.8194 109.497 76.0817 119.395 74.1699C118.519 77.0316 117.401 79.8144 116.052 82.4884C109.547 83.9448 103.13 85.7678 96.8332 87.9485C99.9668 90.7824 102.891 93.6285 105.583 96.4991C103.788 98.168 101.879 99.7108 99.8685 101.116C79.7276 80.4729 41.3384 53.673 0.0614415 52.7203C0.217306 50.2644 0.500317 47.8181 0.909347 45.3912C21.5663 45.7821 41.4613 52.195 58.997 61.4052C66.6442 57.2693 74.6023 53.7286 82.7998 50.8147C82.2591 41.4824 76.4343 32.4921 63.9861 30.0491C50.9235 27.6061 41.6088 34.8252 38.1803 44.2308L30.9547 41.9099C35.4154 28.9131 48.0234 18.628 65.4853 21.9871C81.1777 24.9798 88.9194 36.3032 90.1851 48.3839C100.205 45.2825 110.487 43.0951 120.906 41.8488C121.341 44.5606 121.648 47.195 121.828 49.752C102.794 52.2254 84.2725 57.6712 66.9476 65.8881C69.9788 67.6959 72.9239 69.5648 75.783 71.4948C90.4973 64.8676 106.043 60.2412 122 57.7406ZM93.5522 33.1395L105.841 27.3495L109.343 35.2405L96.2065 39.528L93.5522 33.1395ZM77.8721 18.9456L86.941 3.37136L93.7365 7.54891L83.5248 22.6223L77.8721 18.9456ZM54.1062 0L62.831 0.354238L63.089 13.3389L56.3181 13.2778L54.1062 0ZM24.1346 9.14909L30.5983 3.35914L41.3753 18.0172L36.2756 22.8178L24.1346 9.14909ZM24.4172 39.7845L23.7168 39.6013L11.4283 35.6436L13.8122 27.7771L26.199 32.9807L24.4172 39.7845ZM92.3725 105.489C89.9838 106.661 87.5209 107.677 84.9994 108.531C65.4853 90.3915 35.1942 70.1512 0.897058 67.1829C0.429302 64.7016 0.129609 62.1918 0 59.6706C37.4676 62.2969 70.585 84.1863 92.3356 105.489H92.3725ZM65.473 112C49.5349 99.675 29.222 88.0951 6.80782 83.2091C5.26639 80.5604 3.9747 77.7757 2.94923 74.8906C31.2127 79.6178 56.6253 94.6424 75.7953 110.864C72.3758 111.5 68.913 111.88 65.4361 112H65.473Z" fill="#39BAC9"/>
</svg>
