<svg width="116" height="116" viewBox="0 0 116 116" fill="none" xmlns="http://www.w3.org/2000/svg">
<path d="M24.6971 8.72266L19.5931 13.8194L27.1875 21.4102L32.2843 16.3134L24.6935 8.72266H24.6971ZM91.3065 8.72266L83.7121 16.3134L88.8125 21.4102L96.4033 13.823L91.3065 8.72266ZM58 10.9847C56.8037 10.9992 55.593 11.068 54.375 11.2167C54.3387 11.2167 54.3025 11.2094 54.2663 11.2167C39.5633 12.9023 27.8617 24.7814 25.8281 39.4192C24.2041 51.2004 29.0616 61.8833 37.1562 68.7635C40.4674 71.5894 42.707 75.4671 43.5 79.7473V101.497H51.765C53.0265 103.661 55.3284 105.122 58 105.122C60.6716 105.122 62.9735 103.661 64.235 101.497H72.5V86.9973H72.8408V82.6908C72.8408 77.3765 75.603 72.0188 80.0908 67.8537C86.0938 61.8434 90.625 53.3065 90.625 43.5009C90.625 25.5934 75.8857 10.8179 58 10.9847ZM58 18.2347C72.0106 18.0389 83.375 29.5084 83.375 43.5009C83.375 51.0917 79.8587 57.7762 74.9904 62.6409L75.1064 62.7569C70.2684 67.2182 67.14 73.2288 66.2614 79.7509H50.4056C49.6081 73.5377 46.9437 67.5238 41.9086 63.21C35.5033 57.7725 31.6861 49.58 32.9621 40.329C34.5463 28.9103 43.8118 19.7282 55.1653 18.4703C56.1026 18.3396 57.0466 18.2621 57.9928 18.2383L58 18.2347ZM7.25 43.5009V50.7509H18.125V43.5009H7.25ZM97.875 43.5009V50.7509H108.75V43.5009H97.875ZM27.1875 72.8417L19.5968 80.4288L24.6971 85.5292L32.2806 77.9384L27.1875 72.8417ZM88.8125 72.8417L83.7158 77.9384L91.3029 85.5292L96.4033 80.4288L88.8125 72.8417ZM50.75 87.0009H65.25V94.2509H50.75V87.0009Z" fill="#39BAC9"/>
</svg>
