<svg width="265" height="243" viewBox="0 0 265 243" fill="none" xmlns="http://www.w3.org/2000/svg">
<path fill-rule="evenodd" clip-rule="evenodd" d="M265.878 150.359C265.878 146.759 265.878 143.119 265.559 139.519C265.319 136.439 264.959 133.279 263.081 130.679C261.882 129.079 260.563 127.559 259.324 125.959C259.044 125.599 258.724 125.159 258.724 124.759C258.564 122.039 258.325 119.32 258.364 116.64C258.484 108 258.684 99.3596 258.884 90.7196C258.964 86.9596 259.244 83.1997 259.084 79.4797C258.764 71.7197 258.404 63.9598 257.685 56.2398C256.646 45.5198 252.649 35.6799 247.853 26.1599C247.173 24.7999 245.615 23.9199 244.416 22.8399C243.936 22.3999 243.057 22.2399 242.817 21.7599C241.938 19.9199 240.179 19.9599 238.66 19.6399C235.862 19.0399 232.985 18.7999 230.187 18.1999C226.15 17.2799 222.193 15.9999 218.157 15.1599C213.161 14.1599 208.125 13.2 203.049 12.64C195.055 11.76 187.061 11.16 179.068 10.64C170.155 10.08 161.282 9.67996 152.369 9.43996C145.055 9.23996 137.741 9.43995 130.547 10.6799C124.871 11.6399 119.236 12.92 113.6 14.0399C110.083 14.7199 106.606 15.4799 103.048 16.0399C101.25 16.3199 101.33 16.1599 100.97 14.2799C100.57 12.1999 99.931 10.16 99.2515 8.15997C99.0916 7.67997 98.3322 7.23999 97.7727 7.07999C97.5329 7.03999 96.9733 7.75998 96.7735 8.19998C95.8542 10.32 94.935 12.44 94.1356 14.5999C92.9366 17.8399 91.8574 21.0799 90.7383 24.3199C90.3786 25.3199 90.0988 26.3599 89.899 27.0799C86.6615 26.1999 83.584 25.3199 80.4665 24.5599C75.3506 23.3199 70.2347 22.1199 65.0788 20.9999C62.1211 20.3599 59.1235 19.8399 56.086 19.5599C52.4089 19.2399 48.7318 19.2399 45.0548 18.9999C44.6951 18.9999 44.1755 18.4399 44.0955 18.0799C43.7758 16.3199 43.7358 14.5199 43.3761 12.76C42.7766 9.87997 43.1363 6.87997 41.6175 4.11998C40.7782 2.55998 39.9788 1.12 38.3002 0C38.1403 0.239999 37.9005 0.760007 37.7406 0.760007C36.062 0.560007 36.1419 1.96 35.9021 2.87999C35.4624 4.75998 34.9029 6.59997 35.4225 8.71996C35.942 10.88 35.7022 13.2799 35.8221 15.7199C34.9428 15.2399 34.3833 14.92 33.8237 14.64C32.0651 13.88 30.3465 13.0399 28.5479 12.4399C24.0316 10.92 19.5152 9.07998 14.5991 10.8C12.7206 11.44 10.6422 11.6399 8.80371 12.3999C5.28653 13.8399 1.88922 15.3599 1.9292 20.1999C1.9292 22.2399 2.72855 23.6399 4.04749 24.8399C6.32568 26.9199 9.08347 28.1199 12.0011 29.0399C18.5559 31.0799 25.2306 32.7199 32.1051 33.0399C33.7438 33.1199 35.3425 33.2399 37.1411 33.3599C36.2218 35.3999 35.4624 37.3199 34.5432 39.1998C33.544 41.2398 32.3849 43.1598 31.3857 45.1598C30.5863 46.7998 29.9868 48.5598 29.1475 50.1598C27.1091 54.0798 24.9108 57.8798 22.8725 61.7998C22.6327 62.2798 22.3929 62.7997 22.1131 63.2797C17.6766 70.2397 11.6414 75.7597 5.36646 80.9997C4.32727 81.5997 3.28812 82.1597 2.24896 82.7597C1.64941 83.1197 1.44958 83.6396 1.48953 84.1596C0.969971 84.3996 0.610229 84.8396 0.730133 85.5996C1.96915 95.5596 4.72699 104.44 9.8429 112.2C11.2018 114.6 12.7605 116.84 14.679 118.92C17.6367 122.16 24.5112 128.359 30.8261 130.919C30.986 131.079 31.1459 131.199 31.3857 131.319C33.3042 132.119 35.4225 132.759 37.5807 133.079C37.5807 135.959 37.6207 138.839 37.9005 141.759C37.9005 141.839 37.9804 141.879 38.0204 141.959C37.9804 147.159 37.9005 152.359 37.8605 157.559C37.8605 160.519 37.9404 163.479 37.9404 166.439C37.9404 166.759 37.8205 167.359 37.7406 167.359C37.7406 167.359 39.5392 196.359 39.6591 197.319C39.779 198.279 41.9772 197.599 42.1371 198.279C42.257 198.959 42.1371 203.519 42.1371 203.519C42.1371 207.439 42.0572 211.359 41.9373 215.279C41.8174 219.159 41.4177 223.039 41.4976 226.919C41.5376 229.159 42.3369 231.359 42.7766 233.559C43.9756 233.279 44.8549 233.079 46.054 232.759C46.2138 231.279 46.4936 229.599 46.5735 227.959C46.7734 224.079 46.9732 220.199 47.0132 216.319C47.0931 210.919 47.1331 205.519 47.0931 200.119C47.0931 199.199 47.213 198.679 48.2122 198.719C48.7318 198.719 49.2514 198.719 49.771 198.719C51.0899 198.719 51.7294 199.399 51.7694 200.759C51.8493 203.239 52.0092 205.719 52.0892 208.199C52.2091 215.319 52.249 222.439 52.4489 229.559C52.5288 232.919 52.8885 236.239 53.2482 239.559C53.3681 240.679 53.7678 241.799 54.0476 242.999C54.5272 242.759 54.807 242.559 55.1267 242.439C57.285 241.599 57.6847 241.079 57.5648 238.799C57.4449 236.479 57.2051 234.119 57.1651 231.759C57.1651 227.079 57.285 222.399 57.285 217.719C57.285 211.679 57.285 205.679 57.245 199.679C57.245 198.959 57.4848 198.679 58.2442 198.639C61.1219 198.559 63.9996 198.439 66.8773 198.279C72.1132 197.999 77.349 197.679 82.5848 197.359C85.9821 197.119 89.3794 196.679 92.7367 196.519C97.413 196.279 102.049 196.199 106.726 196.079C114.2 195.919 121.674 195.719 129.108 195.679C135.503 195.639 141.937 195.839 148.332 195.839C153.408 195.839 158.444 195.799 163.52 195.679C169.276 195.559 175.031 195.439 180.786 195.119C186.622 194.799 192.417 194.239 198.252 193.759C202.449 193.439 206.606 193.079 210.802 192.759C212.961 192.599 215.119 192.439 217.117 192.279C217.117 195.519 217.117 198.679 217.117 201.799C217.117 208.199 217.117 214.559 216.998 220.959C216.918 225.519 216.278 230.119 217.837 234.559C217.917 234.839 218.157 235.199 218.396 235.239C219.795 235.559 221.754 234.279 221.954 232.919C222.193 231.159 222.393 229.359 222.433 227.599C222.633 219.639 222.753 211.679 222.993 203.719C223.113 199.719 223.472 195.719 223.712 191.599C226.15 191.159 228.868 190.719 231.546 190.239C232.665 190.039 233.065 190.439 233.025 191.559C232.945 193.639 232.825 195.759 232.825 197.839C232.825 202.599 232.825 207.359 232.825 212.119C232.825 215.119 232.745 218.119 232.865 221.079C232.945 222.439 233.704 223.799 233.664 225.159C233.664 226.679 234.464 226.879 235.543 226.879C236.662 226.879 237.941 226.959 238.38 225.519C238.54 224.999 238.54 224.399 238.54 223.839C238.54 220.959 238.54 218.079 238.46 215.159C238.221 208.639 238.34 202.159 239.02 195.639C239.22 193.559 239.579 191.359 239.14 189.399C238.5 186.479 239.02 183.639 239.3 180.839C239.619 177.319 240.459 173.879 241.018 170.399C241.618 166.799 242.177 163.159 242.657 159.519C243.257 154.719 243.936 149.879 244.296 145.079C244.695 139.599 244.895 134.079 245.055 128.599C245.175 124.039 245.055 119.519 245.135 114.96C245.335 105.08 245.695 95.1996 245.815 85.3196C245.934 75.1597 245.815 64.9597 245.894 54.7998C245.974 47.7998 245.894 40.7998 245.095 33.8399C245.055 33.3999 245.095 32.9599 245.095 32.5199C247.933 37.0799 249.811 41.9198 251.09 46.9598C253.169 54.9998 253.448 63.2797 253.408 71.5597C253.408 78.3597 252.969 85.1996 252.889 91.9996C252.809 98.9996 252.889 106 252.969 112.96C253.049 117.279 253.289 121.599 253.368 125.919C253.368 126.719 253.089 127.559 252.849 128.399C252.489 129.599 251.85 130.719 251.65 131.919C251.29 133.959 251.01 136.039 250.93 138.119C250.771 144.279 250.611 150.439 250.691 156.559C250.771 162.839 252.489 168.879 253.928 174.959C254.927 179.199 256.966 182.959 259.564 186.399C260.443 187.559 261.362 187.799 262.241 186.679C263.121 185.519 263.96 184.079 264.16 182.679C264.879 177.479 265.599 172.279 265.878 167.039C266.198 161.519 266.078 155.959 266.038 150.439L265.878 150.359Z" fill="white"/>
<path fill-rule="evenodd" clip-rule="evenodd" d="M14.481 10.8781C12.6424 11.5181 10.644 11.6781 8.8055 12.4381C5.2883 13.8781 1.89101 15.3981 1.93098 20.238C1.93098 22.278 2.73037 23.678 4.04931 24.878C6.32749 26.958 9.08527 28.158 12.0029 29.078C12.8423 29.318 13.6416 29.598 14.481 29.838V22.518C13.9614 22.438 13.4418 22.318 12.9622 22.198C11.4834 21.838 10.0845 21.278 8.28592 20.678C9.28512 20.038 9.96457 19.518 10.724 19.158C11.963 18.558 13.202 18.118 14.481 17.7981V10.9181V10.8781ZM14.481 72.7578C11.6033 75.6778 8.52572 78.3978 5.36824 81.0378C4.32907 81.6378 3.28991 82.1978 2.29071 82.7978C1.69119 83.1578 1.49134 83.6778 1.5313 84.1978C1.01172 84.4378 0.652026 84.8778 0.77193 85.6378C2.01094 95.5977 4.76874 104.478 9.88465 112.238C11.2036 114.558 12.7224 116.758 14.5609 118.798V108.758C14.401 108.438 14.2012 108.078 14.0413 107.758L14.5609 107.958V103.198C13.4818 102.758 12.4426 102.278 11.4434 101.798C10.0445 97.9977 9.0453 94.0377 8.36584 89.9977C10.4042 91.3177 12.4826 92.4777 14.5609 93.5177V87.0778C13.6816 86.6378 12.8423 86.1977 11.963 85.7177C12.8423 85.1977 13.7216 84.6777 14.5609 84.1177V72.8378L14.481 72.7578ZM22.2348 10.5581C19.7568 10.0381 17.2388 9.91806 14.6009 10.8381H14.481V17.758C17.0389 17.078 19.5969 16.9181 22.2348 17.2381V10.5581ZM14.481 29.798C17.0389 30.558 19.6369 31.198 22.2348 31.758V24.118C21.1956 23.918 20.1564 23.678 19.1572 23.398C17.6384 22.958 16.0797 22.758 14.481 22.478V29.798ZM22.2348 63.0779L22.1149 63.3178C19.9166 66.7578 17.3187 69.8778 14.481 72.7578V84.0378C17.4786 81.9978 20.0765 79.4778 22.2348 76.5578V63.0779ZM14.481 118.758L14.6408 118.958C16.2396 120.718 18.9974 123.358 22.2348 125.798V119.438C20.6361 117.958 19.1572 116.158 17.7184 114.078C16.5193 112.318 15.4402 110.518 14.481 108.678V118.718V118.758ZM14.481 87.0377C17.0389 88.3177 19.6369 89.4777 22.2348 90.4777V110.718C19.6369 109.958 17.0389 108.998 14.481 107.958V103.198C16.4394 103.998 18.4778 104.718 20.676 105.398C20.3962 102.398 20.0765 99.3577 19.6768 96.3577C19.6768 96.1577 19.7568 96.0377 19.7967 95.8777C17.9982 95.1977 16.2396 94.3977 14.481 93.5577V87.1177V87.0377ZM30.6281 13.2781C29.9486 12.9981 29.2292 12.7181 28.5497 12.4781C26.4314 11.7981 24.3531 10.9981 22.2348 10.5581V17.2381C23.7136 17.4381 25.1924 17.7581 26.6712 18.2381C28.0701 18.678 29.429 19.278 30.6681 19.998V13.2781H30.6281ZM22.1948 31.758C24.9526 32.318 27.7504 32.758 30.6281 32.958V25.038C27.7903 24.878 24.9926 24.638 22.1948 24.118V31.758ZM30.6281 46.8379C30.1485 47.9579 29.6689 49.1179 29.1093 50.1979C27.0709 54.1179 24.8727 57.9179 22.8343 61.8378C22.5945 62.2378 22.3947 62.6779 22.1948 63.0779V76.5578C24.3131 73.7178 25.9518 70.5178 27.1109 66.9978C27.1109 66.9978 27.1509 66.6378 27.1509 66.4778C27.5505 65.7978 27.9902 65.1578 28.3099 64.4378C28.3899 64.2378 28.4298 64.0378 28.4698 63.8378C28.9894 62.8378 29.509 61.7979 29.9886 60.7979L30.5881 61.0379V46.7979L30.6281 46.8379ZM22.1948 125.798C24.8327 127.838 27.7903 129.718 30.6281 130.878V124.758C30.3083 124.638 29.9886 124.518 29.6688 124.398L30.6281 124.198V119.918C28.7496 120.398 26.8711 121.038 25.1125 121.878C24.1133 121.158 23.154 120.358 22.2348 119.478V125.838L22.1948 125.798ZM22.1948 90.4777V110.718C24.9926 111.558 27.7903 112.198 30.6281 112.718V107.678C28.3899 107.278 26.2316 106.838 24.0733 106.278C23.7935 103.198 23.4338 100.158 23.0341 97.0777C25.5122 97.9177 28.0302 98.5577 30.5881 99.0777V93.1577C27.7504 92.4377 24.9526 91.5177 22.1548 90.4377L22.1948 90.4777ZM45.1365 19.078H45.0166C44.6569 19.078 44.1373 18.518 44.0574 18.158C43.7376 16.398 43.6976 14.598 43.298 12.8381C42.6984 9.95806 43.0582 6.91809 41.5394 4.1981C40.7 2.63811 39.9007 1.15812 38.222 0.078125C38.0621 0.318124 37.8223 0.838101 37.6625 0.838101C35.9838 0.638102 36.0637 2.03809 35.8639 2.95809C35.3843 4.87808 34.8647 6.6781 35.3843 8.79809C35.9039 10.9581 35.6641 13.3581 35.784 15.7981C34.9047 15.3181 34.3451 14.998 33.7856 14.718C32.7064 14.278 31.6673 13.7581 30.5881 13.3181V20.038C32.2668 20.998 33.7456 22.238 34.9846 23.838C35.5441 24.558 35.744 25.558 36.1437 26.438C36.0238 26.518 35.9438 26.598 35.8639 26.678C34.8247 25.358 33.4658 25.238 31.947 25.158L30.6681 25.078V32.998C31.1477 32.998 31.6672 33.078 32.1469 33.078C33.7856 33.158 35.3843 33.278 37.1829 33.398C36.2636 35.438 35.5042 37.358 34.5849 39.238C33.5857 41.278 32.4266 43.1979 31.4274 45.1979C31.1477 45.7179 30.9079 46.2779 30.6681 46.8379V61.0779C32.4666 61.8379 34.1053 62.6779 35.8239 63.0779C38.4219 63.6379 40.9798 62.9979 43.4578 61.9179C44.0574 61.6779 44.6569 61.3979 45.1765 61.0779V35.638C44.2172 35.398 43.258 35.238 42.1789 34.998C42.1789 34.918 42.0989 34.798 42.1789 34.758C43.4179 32.718 43.6577 30.158 45.2164 28.318V19.078H45.1365ZM30.6281 130.918H30.7879C30.9478 131.118 31.1077 131.278 31.3475 131.358C33.266 132.158 35.3843 132.798 37.5426 133.158C37.5426 136.038 37.5825 138.918 37.8623 141.798C37.8623 141.878 37.9422 141.918 37.9822 141.998C37.9422 147.198 37.8623 152.397 37.8223 157.597C37.8223 160.557 37.9023 163.517 37.9023 166.477C37.9023 166.797 37.7824 167.397 37.7024 167.397C37.7024 167.397 39.501 196.397 39.6209 197.357C39.7408 198.317 41.9391 197.637 42.0989 198.317C42.2188 198.997 42.0989 203.557 42.0989 203.557C42.0989 207.477 42.019 211.397 41.8991 215.317C41.7792 219.197 41.3795 223.077 41.4594 226.957C41.4994 229.197 42.2988 231.397 42.7384 233.597L45.2564 232.997V191.437H44.9367C44.9367 191.437 44.3771 184.517 44.2172 181.917C44.0174 179.357 43.258 143.558 43.258 143.558V142.957C43.3779 142.717 43.4978 142.478 43.4978 142.158C43.6177 139.198 43.7776 136.198 43.9774 133.238C44.4171 133.158 44.8567 133.078 45.2564 132.958V125.638C39.9406 126.598 35.1045 126.358 30.748 124.758V130.878L30.6281 130.918ZM30.6281 93.1977V99.1177C33.1061 99.6377 35.6641 100.038 38.1821 100.278C38.0222 103.038 38.0222 105.838 38.0222 108.638C35.5442 108.398 33.0262 108.078 30.6281 107.678V112.718C35.4242 113.558 40.2604 113.918 45.1365 113.798V108.958C43.8975 108.958 42.6185 108.878 41.3395 108.838C41.3395 106.078 41.3395 103.318 41.4994 100.558C42.6984 100.638 43.9375 100.718 45.1365 100.758V95.5577C40.2204 95.2377 35.3843 94.4377 30.6281 93.1977ZM30.6281 119.918V124.198C33.5457 123.558 36.5833 123.078 39.461 123.038C40.8599 123.038 43.0582 123.518 45.1365 124.238V119.758C40.3803 118.678 35.3843 118.718 30.6281 119.918ZM49.0534 19.238C47.7344 19.198 46.4554 19.158 45.1365 19.078V28.318L45.2564 28.198C45.696 27.718 46.5753 27.318 47.2548 27.318C47.8543 27.318 48.4539 27.278 49.0933 27.238V19.278L49.0534 19.238ZM45.1365 232.997L45.8959 232.797C46.0558 231.317 46.3355 229.637 46.4155 227.997C46.6153 224.117 46.8152 220.237 46.8551 216.357C46.9351 210.957 46.975 205.557 46.9351 200.157C46.9351 199.237 47.055 198.717 48.0542 198.757C48.3739 198.757 48.6937 198.757 49.0134 198.757V191.117C47.055 191.277 45.6961 191.397 45.0965 191.477V233.037L45.1365 232.997ZM45.1365 35.638V61.0779C46.6553 60.2379 47.9742 59.1979 49.0534 57.8779V37.358C48.0542 36.638 46.8551 36.118 45.5761 35.758L45.1365 35.638ZM45.1365 95.5577V100.758C46.4554 100.798 47.7344 100.838 49.0534 100.798V95.7177C47.7344 95.7177 46.4554 95.6377 45.1365 95.5577ZM45.1365 108.958V113.798C46.4554 113.798 47.7344 113.718 49.0534 113.598V108.918C47.7744 108.958 46.4554 108.958 45.1365 108.918V108.958ZM45.1365 119.758V124.238C45.816 124.478 46.4954 124.718 47.1349 124.998C46.7752 125.158 46.4554 125.318 46.1357 125.478C45.816 125.558 45.4962 125.598 45.1765 125.678V132.998C46.2556 132.678 47.2548 132.158 48.214 131.558C48.4938 131.518 48.7736 131.438 49.0933 131.398V120.998C47.8144 120.518 46.4954 120.118 45.1765 119.798L45.1365 119.758ZM63.8016 20.798C61.2436 20.278 58.6457 19.838 56.0478 19.598C53.7296 19.398 51.3715 19.318 49.0534 19.238V27.198C54.0494 27.078 58.9255 27.718 63.8016 28.758V20.798ZM49.0534 198.717C49.2532 198.717 49.4531 198.717 49.6529 198.717C50.9718 198.717 51.6113 199.397 51.6513 200.757C51.7312 203.237 51.8911 205.717 51.971 208.197C52.0909 215.317 52.1309 222.437 52.3308 229.557C52.4107 232.917 52.7704 236.237 53.1301 239.557C53.25 240.677 53.6497 241.797 53.9295 242.997C54.4091 242.757 54.6889 242.557 55.0086 242.437C57.1669 241.597 57.5666 241.077 57.4467 238.797C57.3268 236.437 57.087 234.117 57.047 231.757C57.047 227.077 57.1669 222.397 57.1669 217.717C57.1669 211.677 57.1669 205.677 57.1269 199.677C57.1269 198.957 57.3667 198.677 58.1261 198.637C60.0046 198.557 61.9231 198.517 63.8016 198.437V189.997C57.7664 190.357 52.4906 190.757 49.0534 191.077V198.717ZM49.0534 37.358V57.8779C49.573 57.2379 50.0526 56.5579 50.4922 55.7979C53.0502 51.2779 53.9695 46.3979 52.1709 41.4379C51.5714 39.7179 50.4523 38.358 49.0534 37.358ZM49.0534 95.7177V100.798C51.6113 100.798 54.2093 100.678 56.7672 100.478C56.4874 103.118 56.2077 105.758 55.9279 108.398C53.6897 108.678 51.4115 108.838 49.0534 108.918V113.598C53.9694 113.238 58.8855 112.358 63.8016 110.958V106.878C62.3628 107.238 60.844 107.598 59.3252 107.878C59.6049 105.318 59.8847 102.718 60.1645 100.118C61.4035 99.9977 62.6026 99.8377 63.8416 99.7177V94.8377C58.8056 95.5177 53.8895 95.8377 49.0933 95.7577L49.0534 95.7177ZM49.0534 120.958C50.1325 121.358 51.2116 121.838 52.2508 122.398C56.8072 119.558 60.6042 115.718 63.8016 111.278V121.718L63.6018 121.958C59.9247 126.438 54.7288 130.078 49.0534 131.398V120.998V120.958ZM63.8016 85.6378V81.5978C63.6417 82.9578 63.6417 84.3178 63.8016 85.6378ZM63.8016 68.0378V46.6379C61.9231 49.4779 61.0438 52.7579 60.6841 56.2379C60.4443 58.7179 60.0446 61.2779 60.844 63.7979C61.4035 65.5578 62.3228 67.0778 63.7616 68.0778L63.8016 68.0378ZM111.963 14.398C108.966 14.998 106.008 15.5981 103.01 16.0781C101.212 16.3581 101.332 16.198 100.932 14.3181C100.532 12.2381 99.8928 10.1981 99.2133 8.19809C99.0535 7.71809 98.2941 7.27807 97.7345 7.11807C97.4947 7.07807 96.9352 7.7981 96.7353 8.23809C95.816 10.3581 94.8968 12.4781 94.0974 14.6381C92.8984 17.878 91.8192 21.118 90.7001 24.358C90.3404 25.358 90.1006 26.398 89.8608 27.118C86.6234 26.238 83.5458 25.358 80.4283 24.598C75.3124 23.358 70.1965 22.158 65.0406 21.038L63.8016 20.798V28.758C64.8008 28.958 65.8 29.198 66.7992 29.438C71.3955 30.598 76.0318 31.678 80.6282 32.958C82.9064 33.598 85.0646 34.558 87.2629 35.398C88.2621 35.758 88.8616 36.318 88.422 37.598C87.9423 39.0379 89.1014 39.6779 90.0207 40.4379C90.6602 40.9979 91.2996 41.5979 91.9391 42.1979C92.059 42.3579 92.179 42.7179 92.059 42.8779C90.6602 45.3979 89.1813 47.9179 87.5826 50.7579C86.9032 48.9179 86.4635 47.4779 85.824 46.1179C85.2245 44.7979 84.4251 43.5179 83.7057 42.238C83.0263 40.998 81.7073 40.758 80.6282 40.078C79.0694 39.118 77.5906 39.078 76.0318 39.358C74.0334 39.758 71.9951 40.158 70.3963 41.7979C69.557 42.6379 68.1581 42.8779 67.039 43.4379C66.5194 43.6779 65.9199 43.9579 65.5202 44.3979C64.8807 45.0779 64.2812 45.8379 63.8016 46.5979V67.9978C64.1214 68.2378 64.4811 68.4378 64.8807 68.6378C66.6793 69.4778 68.5578 70.1178 70.4363 70.8778C70.4363 70.8778 70.4363 70.9178 70.4363 70.9578C69.0774 72.3578 67.7984 73.8778 66.6393 75.4778C66.6393 75.4778 66.5994 75.4778 66.5594 75.5178C66.1198 75.8778 65.84 76.3578 65.5602 76.8778C65.2804 77.0778 65.0006 77.3178 64.8807 77.6778C64.3212 78.9578 64.0014 80.2778 63.8416 81.5578V85.5978C64.2013 88.5977 65.3204 91.5577 66.7592 94.3577C65.76 94.5177 64.8008 94.6777 63.8416 94.7977V99.6777C65.3204 99.4777 66.8392 99.2777 68.318 99.0377C68.358 101.198 68.1581 103.318 67.5186 105.438C67.4387 105.558 67.3987 105.678 67.3188 105.798C66.1997 106.198 65.0406 106.558 63.8416 106.878V110.958L64.0814 110.878L63.8416 111.238V121.678C65.7201 119.358 67.7185 116.798 69.3572 114.118C71.7553 110.918 73.6737 107.318 74.9927 103.438C76.4315 99.2377 76.3116 96.8377 75.1126 94.4777C75.1126 94.3177 75.1126 94.1177 75.0326 93.9177C73.354 89.6777 71.9951 84.2378 74.0734 79.8778C75.7121 76.4378 78.35 73.2778 80.4683 70.1178C81.9071 68.4778 83.386 66.8778 84.7849 65.2379C89.1014 60.1979 92.9383 54.7579 95.856 48.7579C96.1758 48.0779 96.4955 47.3979 96.6554 46.6779C96.9751 45.3979 97.5746 45.3179 98.7337 45.7579C103.17 47.4779 107.607 49.1979 112.083 50.7979V42.6379C109.485 41.6779 106.887 40.678 104.289 39.638C101.971 38.678 99.7329 37.558 97.3348 36.478C100.412 34.198 106.288 34.318 112.083 35.9579V27.518C109.605 26.878 107.047 26.478 104.449 26.318C103.01 26.198 101.531 26.478 99.7729 26.278C100.133 25.918 100.412 25.318 100.852 25.198C104.569 24.278 108.326 23.318 112.083 22.478V14.3181L111.963 14.398ZM63.8016 198.477C64.8008 198.437 65.76 198.397 66.7592 198.317C71.9951 198.037 77.2309 197.717 82.4667 197.397C85.864 197.157 89.2213 196.717 92.6186 196.557C97.2549 196.317 101.931 196.237 106.607 196.117L111.963 195.997V144.077C111.244 143.917 110.444 143.878 109.725 143.678C108.366 143.318 107.007 142.917 105.648 142.517C106.168 140.998 105.928 140.638 104.489 140.558C102.411 140.438 100.292 140.198 98.2141 140.118C96.2957 140.038 94.2973 140.478 92.4987 139.958C87.9823 138.718 86.1038 141.997 84.4251 144.757C81.7073 149.197 79.8688 154.117 79.1893 159.357C78.8696 161.717 78.8696 164.157 78.7896 166.557C78.6697 171.277 80.1485 175.597 81.8672 179.917C83.1462 183.157 85.3444 185.517 87.8224 187.717C88.2221 188.077 88.7817 188.317 89.3012 188.597C89.1414 188.837 89.0215 189.037 88.8616 189.277C80.6681 189.197 71.5954 189.557 63.8016 189.997V198.437V198.477ZM169.757 10.1981C163.962 9.91808 158.166 9.67809 152.331 9.51809C145.017 9.31809 137.703 9.51808 130.508 10.7581C124.833 11.7181 119.197 12.998 113.562 14.118L111.963 14.438V22.598C113.002 22.358 114.042 22.118 115.121 21.918C121.396 20.598 127.671 19.078 134.026 18.358C140.54 17.638 147.175 17.678 153.77 17.598C157.847 17.518 161.883 17.798 165.96 17.958C167.239 17.998 168.478 18.078 169.757 18.118V10.2381V10.1981ZM111.963 196.037C117.639 195.917 123.314 195.797 128.99 195.757C135.384 195.717 141.819 195.917 148.214 195.917C153.29 195.917 158.326 195.877 163.402 195.757C165.52 195.717 167.599 195.677 169.717 195.597V187.157C151.931 187.837 131.188 188.557 127.671 188.757C124.233 188.957 120.796 188.757 117.359 188.757C117.798 188.277 118.278 187.517 118.998 187.117C122.195 185.357 123.714 182.517 124.673 179.157C126.032 174.517 126.711 169.837 126.152 165.037C125.792 161.957 125.432 158.877 124.753 155.877C124.273 153.677 123.114 151.757 120.996 150.477C120.237 150.037 119.877 148.957 119.317 148.197C119.038 147.837 118.798 147.397 118.438 147.197C117.719 146.797 116.919 146.517 116.16 146.197C115.161 145.797 114.281 145.437 113.402 144.717C113.002 144.397 112.483 144.238 111.923 144.118V196.037H111.963ZM111.963 27.638V36.078C118.118 37.838 124.193 41.3179 126.711 45.4379C122.475 45.9179 118.518 45.1979 114.681 43.7579L111.963 42.7579V50.9179C113.042 51.3179 114.121 51.6779 115.201 52.0379C119.757 53.5979 124.553 53.8779 129.309 53.4779C130.508 53.3979 131.707 52.6779 132.866 52.1979C133.186 52.0379 133.546 51.7179 133.666 51.3979C134.505 49.3979 134.745 43.2379 132.347 40.8779C130.788 39.3179 129.389 37.518 127.631 36.158C125.033 34.118 122.395 32.038 119.477 30.518C117.039 29.238 114.521 28.318 111.923 27.638H111.963ZM169.757 65.8378V33.398L168.518 34.838C168.518 34.838 168.198 34.558 168.038 34.398L169.717 32.598V28.158C166.759 31.318 164.161 34.798 162.003 38.638C159.365 43.3579 157.327 48.3579 156.488 53.7579C156.248 55.1979 156.248 56.7179 156.368 58.1979C156.608 60.9579 158.446 62.7979 161.444 63.2379C163.762 63.5579 165.92 64.0379 168.038 65.0778C168.598 65.3578 169.118 65.5978 169.717 65.8378H169.757ZM265.88 150.438C265.88 146.838 265.88 143.198 265.561 139.598C265.321 136.518 264.961 133.358 263.083 130.758C261.883 129.158 260.565 127.638 259.326 126.038C259.046 125.678 258.726 125.238 258.686 124.838C258.526 122.118 258.286 119.398 258.326 116.718C258.446 108.078 258.646 99.4377 258.846 90.7977C258.926 87.0378 259.206 83.2778 259.046 79.5578C258.726 71.7978 258.366 64.0378 257.647 56.3179C256.608 45.5979 252.611 35.758 247.815 26.238C247.135 24.878 245.577 23.998 244.377 22.918C243.898 22.478 243.019 22.318 242.779 21.838C241.899 19.998 240.141 20.038 238.622 19.718C235.824 19.158 232.947 18.918 230.149 18.278C226.112 17.358 222.155 16.0781 218.118 15.2381C213.122 14.2381 208.086 13.2781 203.01 12.7181C195.017 11.8381 187.023 11.2381 179.03 10.7181C175.912 10.5181 172.835 10.3581 169.717 10.1981V18.078C172.954 18.238 176.192 18.438 179.389 18.598C179.509 18.598 179.629 18.678 179.909 18.798C179.15 19.478 178.47 20.158 177.751 20.758C174.873 23.038 172.195 25.478 169.717 28.118V32.558L171.116 31.078C171.116 31.078 171.316 31.278 171.436 31.358L169.757 33.318V65.7578C171.676 66.5178 173.754 67.0778 175.792 67.4378C177.591 67.7578 179.669 67.5178 181.468 66.9978C186.264 65.6378 190.86 63.8778 195.297 61.5578C200.413 58.8779 204.369 54.9579 208.566 51.2379C211.364 48.7179 213.922 45.8779 216.16 42.8379C217.519 40.9579 218.278 38.5579 218.958 36.278C219.238 35.358 218.718 34.158 218.478 33.118C218.278 32.238 217.999 31.358 217.679 30.518C217.559 30.158 217.439 29.718 217.159 29.478C215.161 27.558 213.162 25.598 211.044 23.798C210.285 23.158 209.206 22.878 208.246 22.478C207.207 22.038 206.168 21.718 205.129 21.318C205.129 21.158 205.209 20.998 205.249 20.838C207.207 21.198 209.206 21.438 211.164 21.878C214.721 22.678 218.358 23.278 221.556 25.278C222.355 25.798 223.554 25.678 224.593 25.878C226.871 26.318 229.15 26.758 231.028 28.438C232.147 29.438 233.746 28.998 235.185 28.998C236.424 28.998 237.623 29.358 238.822 29.638C239.062 29.718 239.262 30.238 239.302 30.598C240.461 37.478 241.06 44.3579 240.82 51.3179C240.66 55.9579 240.7 60.5579 240.7 65.1978C240.7 73.1578 240.9 81.0778 240.82 89.0377C240.74 95.5977 240.341 102.118 240.221 108.678C240.101 115.318 240.181 121.958 240.101 128.598C240.101 129.958 239.941 131.318 239.901 132.678C239.461 131.638 239.062 130.598 238.542 129.598C238.142 128.798 237.303 128.238 236.863 127.478C236.384 126.638 236.224 125.598 235.744 124.758C234.905 123.238 234.705 121.318 232.987 120.358C232.787 120.238 232.787 119.838 232.707 119.558C232.627 119.278 232.627 118.878 232.427 118.718C231.588 117.958 230.668 117.278 229.869 116.638C229.749 116.998 229.629 117.278 229.429 117.718C229.509 117.838 229.749 118.118 229.989 118.438C229.949 118.478 229.869 118.558 229.829 118.598C229.15 118.118 228.39 117.758 227.831 117.158C226.871 116.158 225.632 115.998 224.473 116.078C221.915 116.198 219.357 116.518 216.839 116.878C215.081 117.118 213.362 117.438 211.604 117.758C211.364 117.798 211.084 117.918 210.844 118.078C209.285 119.158 207.767 120.238 206.288 121.398C205.808 121.758 205.369 122.318 205.209 122.838C203.81 127.238 203.01 131.718 202.931 136.358C202.811 142.158 202.731 147.918 203.93 153.677C205.009 158.797 206.728 163.597 210.005 167.677C211.564 169.597 214.521 171.117 217.559 169.557C218.118 169.277 218.758 169.197 219.357 168.997C220.956 168.477 222.595 167.957 224.154 167.357C224.793 167.117 225.313 166.317 225.952 166.237C227.831 165.997 229.27 164.837 230.828 163.997C233.786 162.397 236.184 160.357 237.543 157.237C236.943 161.677 236.464 166.197 235.864 170.637C235.425 173.717 234.785 176.757 234.226 179.797H234.146C233.986 180.517 233.746 181.157 232.747 180.877C232.467 180.797 232.147 180.877 231.867 180.957C227.791 182.517 223.554 183.197 219.238 183.517C217.919 183.597 216.6 183.437 215.281 183.597C213.362 183.837 211.484 184.397 209.565 184.597C205.009 185.077 200.453 185.517 195.896 185.877C193.418 186.077 182.347 186.517 169.757 186.997V195.437C173.394 195.357 177.071 195.237 180.708 195.037C186.544 194.717 192.339 194.157 198.174 193.677C202.331 193.357 206.528 192.997 210.724 192.677C212.883 192.517 215.041 192.357 217.039 192.197C217.039 195.437 217.039 198.597 217.039 201.717C217.039 208.117 217.039 214.477 216.919 220.877C216.879 225.437 216.2 230.037 217.759 234.477C217.839 234.757 218.078 235.117 218.318 235.157C219.677 235.477 221.676 234.197 221.875 232.837C222.115 231.077 222.315 229.277 222.395 227.477C222.595 219.517 222.715 211.557 222.955 203.597C223.074 199.597 223.434 195.597 223.674 191.477C226.112 191.037 228.83 190.597 231.508 190.117C232.627 189.917 233.027 190.317 232.987 191.437C232.907 193.517 232.787 195.637 232.787 197.717C232.787 202.477 232.787 207.237 232.787 211.997C232.787 214.997 232.707 217.997 232.827 220.957C232.867 222.317 233.666 223.677 233.626 225.037C233.626 226.557 234.425 226.757 235.505 226.757C236.624 226.757 237.903 226.837 238.342 225.397C238.502 224.877 238.502 224.277 238.502 223.717C238.502 220.837 238.502 217.957 238.422 215.037C238.182 208.517 238.302 202.037 238.982 195.517C239.182 193.437 239.541 191.237 239.102 189.277C238.462 186.357 238.982 183.517 239.262 180.717C239.581 177.197 240.421 173.757 240.98 170.277C241.58 166.677 242.139 163.037 242.619 159.397C243.218 154.597 243.898 149.757 244.258 144.957C244.657 139.478 244.857 133.958 245.017 128.478C245.137 123.918 245.017 119.398 245.097 114.838C245.297 104.958 245.656 95.0777 245.776 85.1978C245.896 75.0378 245.776 64.8378 245.856 54.6779C245.936 47.6779 245.856 40.6779 245.057 33.718C245.017 33.278 245.057 32.838 245.057 32.398C247.895 36.9579 249.773 41.7979 251.052 46.8379C253.13 54.8779 253.41 63.1578 253.37 71.4378C253.37 78.2378 252.931 85.0778 252.851 91.8777C252.771 98.8777 252.851 105.878 252.931 112.838C253.011 117.158 253.25 121.478 253.33 125.798C253.33 126.598 253.051 127.438 252.771 128.278C252.411 129.478 251.772 130.598 251.572 131.798C251.212 133.838 250.932 135.918 250.852 137.998C250.692 144.157 250.533 150.318 250.612 156.437C250.692 162.717 252.411 168.757 253.85 174.837C254.849 179.077 256.887 182.837 259.485 186.277C260.365 187.437 261.284 187.677 262.163 186.557C263.043 185.397 263.882 183.957 264.082 182.557C264.801 177.357 265.521 172.157 265.8 166.917C266.12 161.397 266 155.837 265.96 150.317L265.88 150.438Z" fill="black"/>
<path fill-rule="evenodd" clip-rule="evenodd" d="M23.3113 82.9182C22.5519 83.5181 22.512 84.4381 22.8317 85.1581C22.7518 85.9981 23.2314 86.9181 24.3905 86.9981C26.1091 87.1181 28.8269 87.7581 30.9852 87.5181C31.265 87.5981 31.5448 87.6381 31.8645 87.7581C33.2234 88.2781 34.0628 86.9181 33.823 85.7981C34.0628 85.1981 34.0628 84.5581 33.5831 83.9981C31.0252 81.0381 26.4688 80.4782 23.3113 82.9182Z" fill="black"/>
<path fill-rule="evenodd" clip-rule="evenodd" d="M51.6504 82.3166C49.2523 81.7166 46.7343 82.1966 44.6959 84.3566C42.6176 83.9566 41.6983 86.9965 43.8166 87.5565C46.3746 88.0365 48.9326 88.5565 51.4905 89.0365H51.6904V85.7565V82.3166H51.6504ZM57.206 89.2765C58.405 88.7965 58.7647 87.5165 57.9254 86.5166C56.2867 84.5166 54.0085 82.9166 51.6504 82.3566V85.7966V89.1165C53.5289 89.4765 55.3674 90.0365 57.206 89.2765Z" fill="black"/>
<path fill-rule="evenodd" clip-rule="evenodd" d="M176.23 93.0388C171.833 89.9988 167.477 87.3188 162.201 86.0388C155.926 84.5188 150.091 85.1588 144.535 88.2788C141.018 90.2788 137.541 92.3188 134.183 94.5588C132.585 95.5987 131.186 97.0387 129.827 98.3987C129.227 98.9987 128.988 99.9987 128.428 100.599C125.99 103.119 123.792 105.719 123.232 109.359C125.55 106.319 127.709 103.199 131.266 101.399C130.786 101.959 130.307 102.519 129.907 103.039C129.987 103.479 130.187 103.919 130.027 104.159C129.148 105.599 128.188 106.959 127.269 108.359C127.389 108.479 127.469 108.599 127.589 108.719C127.948 108.079 128.308 107.439 128.668 106.799C128.748 106.919 128.868 106.999 128.948 107.119C128.268 108.279 127.589 109.399 126.949 110.559C127.029 110.639 127.149 110.679 127.229 110.759C127.509 110.519 127.829 110.319 128.228 109.999C128.268 110.439 128.308 110.719 128.348 110.919C128.828 110.839 129.307 110.719 129.587 110.679C129.907 111.599 130.147 112.359 130.347 112.999H131.346C131.346 113.439 131.466 113.919 131.346 114.279C130.586 116.119 130.746 117.759 132.345 119.359C131.905 119.199 131.626 119.079 131.386 118.999C131.306 119.079 131.266 119.119 131.186 119.199C131.386 119.519 131.546 119.959 131.865 120.159C133.064 120.959 134.263 121.759 135.542 122.479C137.581 123.599 139.659 124.639 141.658 125.759C143.216 126.639 144.655 127.559 146.534 127.759C148.012 127.959 149.611 128.359 150.89 129.079C152.169 129.839 153.448 129.919 154.807 130.039C155.047 130.039 155.287 130.039 155.526 130.159C157.405 130.679 159.323 131.159 161.322 130.999C164.2 130.759 167.157 131.159 169.835 129.639C170.754 129.119 171.594 128.479 172.473 127.919C174.951 126.399 177.509 124.999 179.867 123.359C180.906 122.639 181.466 121.279 182.385 120.359C184.783 117.959 187.221 115.559 188.94 112.559C191.258 108.559 190.818 105.079 187.421 102.159C183.744 98.9987 180.187 95.7188 176.19 92.9188L176.23 93.0388Z" fill="black"/>
<path fill-rule="evenodd" clip-rule="evenodd" d="M76.9885 47.2805C73.4713 46.5605 69.5944 47.1605 67.4761 50.3605C65.7175 53.0405 64.7583 57.8805 67.1564 60.4404C69.5145 62.9604 74.5505 63.4804 77.5081 62.0404C77.9877 61.8004 78.3475 61.4804 78.7072 61.1604C79.1868 60.8004 79.6264 60.4004 79.9861 59.9604C81.3051 58.5604 82.3043 56.8004 82.704 55.1205C83.7032 51.0805 80.6256 48.0005 76.9086 47.2405L76.9885 47.2805Z" fill="white"/>
<path fill-rule="evenodd" clip-rule="evenodd" d="M44.3763 42.4778C40.6593 41.3978 36.3427 41.7178 34.4243 45.5978C32.5857 49.2378 33.8647 53.9578 37.9415 55.2378C41.4187 56.3178 45.2556 55.0378 46.3747 51.3578C46.6945 50.2778 46.8543 49.1978 46.8943 48.1578C47.7336 46.0778 47.1741 43.3178 44.3763 42.5179V42.4778Z" fill="white"/>
<path fill-rule="evenodd" clip-rule="evenodd" d="M76.3468 53.1974C75.9471 51.4774 73.7089 51.7974 73.2293 53.1174C72.8296 53.2774 72.4699 53.5174 72.1901 53.9974C71.7105 54.8374 72.1102 56.2774 73.1893 56.4374C75.3476 56.7574 76.8664 55.4374 76.3468 53.1574V53.1974Z" fill="black"/>
<path fill-rule="evenodd" clip-rule="evenodd" d="M39.8989 45.5934C38.2202 45.7534 36.8213 47.5934 38.1803 49.1134C39.8189 50.9933 42.0172 49.2333 42.4568 47.3934C42.8565 45.7534 40.978 44.8734 39.8989 45.5934Z" fill="black"/>
</svg>
