<svg width="163" height="39" viewBox="0 0 163 39" fill="none" xmlns="http://www.w3.org/2000/svg">
<path d="M161.699 27.3245C161.412 25.8415 159.149 26.466 159.435 27.9489C159.695 29.2758 160.163 32.2938 158.941 33.3345C157.822 34.2972 155.584 34.089 154.232 34.115C154.049 34.115 104.07 34.6354 79.2237 34.6874C57.4732 34.7655 34.9422 33.1264 13.1397 34.8435C11.5526 34.9736 4.76213 35.7281 4.50196 35.7281C4.18975 35.7281 3.59136 35.8582 3.33119 35.6501C2.96694 35.3639 3.12305 34.7395 3.14906 34.2451C3.17508 32.2418 3.2011 30.2385 3.25314 28.2351C3.27915 26.7261 0.937592 26.7261 0.911575 28.2351C0.885558 30.0303 0.859544 31.7995 0.833526 33.5947C0.807509 34.6874 0.547329 36.1184 1.17174 37.107C1.84819 38.1737 3.38322 38.3559 4.91824 38.1997C5.77681 38.1217 10.7981 37.3932 12.5153 37.2631C34.5259 35.468 57.3171 37.1331 79.2757 37.055C104.903 36.977 130.504 36.8208 156.131 36.5607C158.602 36.5347 160.033 35.8582 161.048 34.6094C162.505 32.7621 162.141 29.4579 161.699 27.3245Z" fill="#141E1F"/>
<path d="M2.76073 13.4035C2.91683 11.5042 3.04691 9.52693 3.48921 7.65369C3.87947 5.98858 5.18034 5.36416 6.68934 5.28611C54.4571 2.63235 102.771 2.45022 150.591 3.4649C156.575 3.59499 158.24 3.62101 158.63 5.20806C158.995 6.66503 158.995 8.40819 159.125 9.9172C159.281 11.4002 161.622 11.4262 161.466 9.9172C161.258 7.88785 161.492 4.99993 160.269 3.25677C159.359 1.9559 158.552 1.22742 154.025 1.17538C106.023 0.603003 57.293 0.212741 9.3171 2.78845C8.95285 2.81447 6.68934 2.89253 5.10229 3.23075C3.67134 3.54296 2.16234 4.14136 1.51191 5.31213C0.211042 7.65369 0.237054 10.8018 0.00289881 13.3775C-0.10117 14.8865 2.63064 14.9125 2.76073 13.4035Z" fill="#141E1F"/>
<path d="M47.1983 23.705C47.7707 26.1246 49.3318 27.3994 51.8034 27.5035C52.3758 27.5295 52.9742 27.5295 53.5466 27.4775C55.3157 27.2693 57.0329 26.8791 58.5419 25.8384C59.2183 25.3701 59.4785 24.6416 59.0882 23.9391C58.646 23.1586 57.9435 23.5749 57.3711 23.8611C55.9662 24.5635 54.4572 24.9278 52.8961 25.0318C51.0489 25.1619 50.3464 24.7717 49.9822 22.4822C49.696 20.3227 50.0342 20.5569 50.8668 20.4268C52.3758 20.1926 54.8474 19.8804 56.3564 19.6983C57.189 19.5942 57.7353 19.204 57.6833 18.2934C57.6313 17.2527 56.7987 17.4088 56.1483 17.4088C54.9515 17.4348 53.7547 17.4868 52.5839 17.6169C51.7774 17.721 50.9969 17.773 50.1383 17.9031C50.7367 14.8591 50.8408 14.2607 50.3464 13.8184C52.5059 13.3761 54.7173 13.272 56.9288 13.168C57.7353 13.1419 58.2817 12.8037 58.2817 11.9451C58.2817 11.0866 57.6573 10.8784 56.9288 10.9044C55.1596 10.9305 53.4165 10.9044 51.6213 11.0866C50.2163 11.2167 48.8374 11.4508 47.4325 11.685C46.7821 11.789 46.2617 12.1533 46.2617 12.9078C46.2877 13.6103 46.7561 14.0005 47.4065 14.1826C47.6146 14.2347 47.8228 14.2347 48.0569 14.2867C47.9008 14.807 47.7447 15.3014 47.6146 15.7697C46.8861 18.3974 46.5479 21.0252 47.1983 23.705Z" fill="#141E1F"/>
<path d="M21.1016 27.1408C21.4919 27.6612 22.1163 27.6612 22.6366 27.5051C23.3131 27.323 23.7814 26.8286 24.2237 26.2823C25.6546 24.4611 26.8514 22.4837 27.814 20.3763C28.9848 17.8006 29.9735 15.1729 30.2597 12.337C30.3377 11.6866 30.1816 11.1142 29.4011 10.9321C28.5946 10.7499 27.9441 10.9581 27.6059 11.7386C27.3978 12.2069 27.3197 12.7013 27.2157 13.1956C26.7473 15.381 26.0969 17.4884 25.0042 19.6479C24.8221 19.3877 24.744 19.2576 24.666 19.1275C23.3651 16.9161 22.4805 14.4964 21.752 12.0508C21.5179 11.2183 20.9975 10.6719 20.0869 10.906C19.1503 11.1402 18.8901 11.8687 19.0462 12.7793C19.0983 13.0655 19.1503 13.3517 19.2544 13.6118C20.1129 16.4998 21.3357 19.2316 23.183 21.6252C23.5472 22.0935 23.5993 22.1455 23.5993 22.1455C22.9228 23.1342 21.8041 24.6952 21.1536 25.6318C20.8154 26.1002 20.7113 26.6465 21.1016 27.1408Z" fill="#141E1F"/>
<path d="M40.5372 13.5878C41.4738 13.5617 42.4104 13.5878 43.3471 13.5618C44.0495 13.5357 44.6219 13.1455 44.6219 12.3389C44.6479 11.5324 44.1276 11.2202 43.3731 11.1421C40.1469 10.856 37.0249 10.908 33.8247 11.1681C32.654 11.2462 31.9515 11.4804 31.7694 12.0788C31.5873 12.6511 31.7434 13.2756 32.2117 13.5618C32.68 13.874 33.4605 13.8479 34.0069 13.7959C34.7354 13.7178 36.7127 13.6138 36.7127 13.6138C36.6346 15.487 36.6606 18.0367 36.6606 19.91C36.6866 21.9393 36.8167 23.9687 37.0769 25.972C37.233 27.2989 38.3257 27.9233 39.2884 27.2729C39.8608 26.8826 39.9388 26.2582 39.9128 25.6338C39.8087 23.5004 39.6786 21.3669 39.5485 19.1295C39.5225 17.5944 39.4965 15.2789 39.6006 13.6138C39.6006 13.5878 39.9128 13.5878 40.5372 13.5878Z" fill="#141E1F"/>
<path d="M126.528 31.6422C127.257 31.8764 127.933 31.6943 128.427 31.0438C129.676 29.4568 129.286 26.4127 127.543 25.2159C127.153 24.9558 126.84 24.7997 126.84 24.7997C127.075 22.6402 127.231 20.2987 127.205 18.1653C127.205 17.0465 127.257 15.9278 127.179 14.809C127.075 13.4301 126.502 12.2593 125.175 11.687C122.782 10.6203 120.362 10.9585 118.021 11.817C117.136 12.1292 116.72 13.3261 117.422 13.9245C117.63 14.1066 117.916 14.1326 117.916 14.1326C117.994 17.4888 117.656 20.0645 116.668 23.785C116.59 24.1232 116.407 24.7997 116.407 24.7997C116.043 24.6176 115.627 24.4875 115.107 24.6696C114.404 24.9298 114.352 25.6062 114.3 26.1786C114.17 27.4534 114.248 28.7023 114.326 29.9771C114.378 30.7056 114.742 31.2259 115.601 31.252C116.433 31.252 116.824 30.9137 116.928 30.0812C117.006 29.4828 117.006 28.3901 117.032 27.6616C117.032 27.6616 117.11 27.5835 117.578 27.5315C120.05 27.2713 122.417 27.2453 124.889 27.4534C125.878 27.5315 126.268 28.1559 126.242 29.0665C126.242 29.4308 126.138 29.769 126.06 30.1332C125.982 30.6536 125.722 31.356 126.528 31.6422ZM124.317 16.0839C124.187 18.7116 124.031 22.1199 123.9 24.7476C123.9 24.7476 120.726 24.7476 119.451 24.7476C120.544 21.2873 120.804 13.8984 120.908 13.8204C121.611 13.222 123.718 13.6382 124.187 14.705C124.395 15.1733 124.343 15.6156 124.317 16.0839Z" fill="#141E1F"/>
<path d="M156.342 13.664C156.03 12.181 155.015 11.3225 153.558 10.9842C152.153 10.646 150.826 10.8281 149.526 11.3485C149.239 11.4526 148.927 11.5566 148.927 11.5566C148.485 11.2184 148.095 11.0363 147.392 11.1924C146.82 11.3225 146.534 11.7387 146.351 12.6493C145.805 15.5633 145.805 18.4772 146.039 21.4172C146.169 22.9002 146.351 24.3571 146.794 25.7881C147.21 27.089 147.522 27.8174 148.849 27.5833C149.812 27.4272 149.942 26.5426 149.942 26.5426C150.826 28.2597 154.053 27.5312 155.119 26.9849C157.227 25.9182 158.423 23.4205 157.643 21.2351C157.045 19.57 155.692 18.8155 153.949 18.2951C154.339 18.0089 154.625 17.7227 154.937 17.4886C156.212 16.5259 156.654 15.199 156.342 13.664ZM149.005 17.7748C149.005 17.3064 148.979 15.5373 149.161 13.9762C149.161 13.9762 149.812 13.2217 151.867 13.1957C152.908 13.1957 153.35 13.7421 153.246 14.7828C153.064 16.4479 150.8 17.6707 149.369 17.7748C149.187 17.7748 149.005 17.7748 149.005 17.7748ZM154.625 22.64C154.599 23.6287 154.001 24.2791 153.142 24.7474C152.44 25.1377 151.243 25.0076 150.462 25.1116C150.098 25.1637 149.89 25.3198 149.786 25.4759C149.786 25.4759 149.135 22.8221 149.057 20.1163C149.057 20.1163 149.526 20.0122 150.462 19.9862C151.451 19.9602 152.309 20.0903 153.194 20.5326C154.079 20.9489 154.651 21.6253 154.625 22.64Z" fill="#141E1F"/>
<path d="M106.258 10.6228C105.399 10.4667 104.827 10.9611 104.333 11.5855C102.251 14.1872 101.211 17.1792 101.263 20.6395C101.237 21.498 101.315 22.4867 101.523 23.4233C102.147 26.5454 104.255 28.2105 107.195 27.8203C109.12 27.5601 110.525 26.4413 111.435 24.7762C113.048 21.9664 113.621 18.0377 112.346 14.5254C111.852 13.1725 110.655 11.8196 108.756 11.5334C108.209 11.4554 107.117 11.4814 107.117 11.4814C107.117 11.2993 107.091 10.7529 106.258 10.6228ZM108.964 14.8637C109.536 15.6442 109.744 16.5548 109.848 17.4914C110.083 19.4687 109.822 21.368 109.068 23.2152C108.86 23.7616 108.521 24.2299 108.131 24.6461C106.804 25.973 105.347 25.6348 104.723 23.8656C104.333 22.7469 104.151 21.6021 104.177 20.1712C104.229 18.402 104.567 16.945 105.425 15.3059C106.388 13.5368 107.897 13.4587 108.964 14.8637Z" fill="#141E1F"/>
<path d="M135.942 10.6228C135.083 10.4667 134.511 10.9611 134.016 11.5855C131.935 14.1872 130.894 17.1792 130.946 20.6395C130.92 21.498 130.998 22.4867 131.206 23.4233C131.831 26.5454 133.938 28.2105 136.878 27.8203C138.803 27.5601 140.208 26.4413 141.119 24.7762C142.706 21.9664 143.304 18.0377 142.03 14.5254C141.535 13.1725 140.338 11.8196 138.439 11.5334C137.893 11.4554 136.8 11.4814 136.8 11.4814C136.8 11.2993 136.748 10.7529 135.942 10.6228ZM138.647 14.8637C139.22 15.6442 139.428 16.5548 139.532 17.4914C139.766 19.4687 139.506 21.368 138.751 23.2152C138.517 23.7616 138.205 24.2299 137.789 24.6461C136.462 25.973 135.005 25.6348 134.38 23.8656C133.99 22.7469 133.808 21.6021 133.834 20.1712C133.886 18.402 134.224 16.945 135.083 15.3059C136.046 13.5368 137.581 13.4587 138.647 14.8637Z" fill="#141E1F"/>
<path d="M99.2852 17.1981C100.17 14.4143 99.051 11.8125 96.5794 11.1101C95.1744 10.6938 93.6394 10.6417 91.8182 11.2662C91.8182 11.2662 91.48 10.7198 90.4653 10.8499C89.5807 10.954 89.3986 11.3963 89.2685 12.489C89.0604 14.3882 88.9563 16.3135 89.0604 18.2128C89.0604 19.3575 89.3206 24.8472 89.8149 26.3822C90.1271 27.3449 90.9857 27.8132 91.8442 27.553C92.7809 27.2408 92.5467 26.4863 92.4686 25.8358C92.3645 24.9252 92.2345 23.5984 92.1564 22.6878C92.1564 22.6878 92.4946 22.6357 92.7548 22.6097C95.7988 22.0633 98.4266 19.9039 99.2852 17.1981ZM91.9483 20.2681C91.9483 18.525 91.8182 15.6891 92.0524 13.4776C92.0524 13.4776 92.3906 13.3475 92.8849 13.3215C93.4313 13.2695 93.9776 13.2175 94.498 13.2435C95.7988 13.3476 96.5534 14.2582 96.4753 15.585C96.3973 17.6924 94.6801 19.6697 91.9483 20.2681Z" fill="#141E1F"/>
<path d="M72.0195 17.1981C72.9041 14.4143 71.7854 11.8125 69.3137 11.1101C67.9088 10.6938 66.3738 10.6417 64.5526 11.2662C64.5526 11.2662 64.2143 10.7198 63.1997 10.8499C62.2891 10.954 62.133 11.3963 62.0029 12.489C61.7947 14.3882 61.6907 16.3135 61.7947 18.2128C61.7947 19.3575 62.0549 24.8472 62.5492 26.3822C62.8614 27.3449 63.694 27.8132 64.5786 27.553C65.5152 27.2408 65.281 26.4863 65.203 25.8358C65.0989 24.9252 64.9688 23.5984 64.8908 22.6878C64.8908 22.6878 65.229 22.6357 65.4892 22.6097C68.5072 22.0633 71.1349 19.9039 72.0195 17.1981ZM64.6827 20.2681C64.6827 18.525 64.5526 15.6891 64.7867 13.4776C64.7867 13.4776 65.125 13.3475 65.6193 13.3215C66.1656 13.2695 66.712 13.2175 67.2323 13.2435C68.5592 13.3476 69.2877 14.2582 69.2097 15.585C69.1056 17.6924 67.4145 19.6697 64.6827 20.2681Z" fill="#141E1F"/>
<path d="M7.34127 26.047C7.47135 27.0097 7.70551 27.3479 8.38196 27.426C9.37062 27.5821 10.021 27.0617 10.021 27.0617C10.9056 27.3219 11.9984 27.3219 12.8829 27.1658C15.979 26.6454 17.7742 24.0957 17.3319 20.8696C16.9677 18.1118 14.8343 16.6808 11.6341 16.993C11.3219 17.019 10.2812 17.1752 9.96902 17.2792C9.96902 17.2792 9.943 17.019 9.96902 16.4727C9.99504 15.6922 10.0731 14.6255 10.1771 13.3766C10.1771 13.3766 10.6715 13.3506 11.2959 13.3506C12.3106 13.3766 13.0391 13.2986 14.0537 13.2986C15.3546 13.2986 16.005 12.9603 15.979 12.1278C15.927 10.8269 14.8342 10.983 14.0277 10.957C12.2585 10.905 10.6194 10.957 8.87628 11.1131C8.22585 11.1651 7.57543 11.1912 7.0811 11.5814C6.58677 11.9717 6.58676 12.8823 7.05508 13.2986C7.13313 13.3766 7.34127 13.5067 7.34127 13.5067C7.02906 17.3573 6.7949 22.2485 7.34127 26.047ZM10.021 19.6988C10.021 19.6988 9.99503 19.5687 11.5301 19.3346C13.0391 19.1004 13.9236 19.6208 14.2359 20.8176C14.8863 23.2892 13.1171 25.1104 10.5674 24.8763C10.2812 24.8502 10.1251 24.8242 10.1251 24.8242C9.943 23.2372 9.94299 20.5054 10.021 19.6988Z" fill="#141E1F"/>
<path d="M75.7137 26.047C75.8438 27.0097 76.0779 27.3479 76.7544 27.426C77.743 27.5821 78.3935 27.0617 78.3935 27.0617C79.2781 27.3219 80.3708 27.3219 81.2814 27.1658C84.3775 26.6454 86.1726 24.0957 85.7303 20.8696C85.3661 18.1118 83.2327 16.6808 80.0326 16.993C79.7203 17.019 78.6797 17.1752 78.3674 17.2792C78.3674 17.2792 78.3414 17.019 78.3674 16.4727C78.3935 15.6922 78.4715 14.6255 78.5756 13.3766C78.5756 13.3766 79.0959 13.3506 79.6943 13.3506C80.709 13.3766 81.4375 13.2986 82.4522 13.2986C83.753 13.2986 84.4035 12.9603 84.3774 12.1278C84.3254 10.8269 83.2327 10.983 82.4261 10.957C80.657 10.905 79.0179 10.957 77.2747 11.1131C76.5983 11.1651 75.9478 11.1912 75.4795 11.5814C74.9852 11.9717 74.9852 12.8823 75.4535 13.2986C75.5316 13.3766 75.7397 13.5067 75.7397 13.5067C75.4015 17.3573 75.1933 22.2485 75.7137 26.047ZM78.3935 19.6988C78.3935 19.6988 78.3674 19.5687 79.9025 19.3346C81.4115 19.1004 82.2961 19.6208 82.6083 20.8176C83.2587 23.2892 81.4895 25.1104 78.9398 24.8763C78.6536 24.8502 78.4975 24.8242 78.4975 24.8242C78.3154 23.2372 78.3154 20.5054 78.3935 19.6988Z" fill="#141E1F"/>
</svg>
