<svg width="154" height="110" viewBox="0 0 154 110" fill="none" xmlns="http://www.w3.org/2000/svg">
<mask id="mask0_314_1818" style="mask-type:luminance" maskUnits="userSpaceOnUse" x="46" y="6" width="96" height="96">
<path d="M100.132 101.192H102.12C102.313 100.884 102.438 100.54 102.488 100.18C102.538 99.8212 102.511 99.4555 102.409 99.1075C102.249 98.0815 101.19 97.9853 100.869 96.9593C98.865 90.9601 98.5653 84.5226 100.003 78.3632C100.2 77.5852 100.559 76.8575 101.057 76.2276C101.554 75.5977 102.179 75.0798 102.89 74.7076C103.602 74.3355 104.383 74.1174 105.185 74.0678C105.986 74.0182 106.789 74.1381 107.541 74.4196C115.179 76.5501 122.462 79.7909 129.158 84.0382C130.056 84.5512 130.216 85.481 131.403 86.1544C135.187 88.2704 137.176 84.8077 133.455 82.9481C132.288 82.3132 130.921 82.1524 129.639 82.4993C122.294 79.293 115.238 75.6059 108.31 71.8226C99.5223 66.9812 100.613 62.2039 110.074 59.4466C123.673 55.4709 127.201 56.4327 137.753 56.6251C140.511 56.6251 141.602 55.0541 141.377 53.4189C141.182 52.4114 140.607 51.5172 139.772 50.9207C138.936 50.3242 137.904 50.0707 136.887 50.2127C134.418 50.2127 134.418 51.912 132.557 52.6815C125.598 55.4521 118.068 56.4866 110.62 55.6953C104.654 54.9258 101.703 51.6234 102.152 45.9163C102.633 39.707 104.437 33.6724 107.444 28.218C108.182 26.8714 112.576 24.6591 109.625 22.9919C109.271 22.8706 108.892 22.8452 108.525 22.9183C108.158 22.9913 107.817 23.1603 107.537 23.4079C107.257 23.6555 107.047 23.973 106.929 24.3279C106.812 24.6829 106.79 25.0627 106.867 25.4286C107.046 26.2099 106.979 27.0276 106.675 27.7692C91.4399 59.2221 72.9659 41.7803 60.3292 18.1505L57.3144 9.97466C56.9686 8.84535 56.259 7.86202 55.296 7.17775C54.3331 6.49348 53.1709 6.14668 51.9903 6.19133C50.8095 6.21401 49.6443 6.4644 48.5585 6.92876C47.6505 7.46557 46.9841 8.33117 46.6974 9.34602C46.4108 10.3609 46.5259 11.4471 47.019 12.3793C49.1356 15.4776 52.1445 17.8594 55.6466 19.2086C75.1469 42.133 82.2029 61.1459 57.0257 84.8719C56.1277 85.6414 54.9731 85.449 54.0109 85.962C53.0487 86.475 51.6054 88.3666 52.8562 89.6491C55.2938 92.0538 57.7634 86.4429 58.0841 86.0902C62.0986 83.0325 66.321 80.2578 70.7208 77.7861C81.0162 72.1111 79.4767 79.8381 75.179 86.3467C73.8961 88.2705 71.7151 88.7834 70.7208 91.4767C68.572 97.2158 72.9018 100.582 76.5581 95.1638C80.2144 89.7453 77.4882 86.2185 80.5031 80.4152C82.0746 77.209 84.2877 74.7082 86.6931 74.6761C88.393 74.6761 90.157 75.8945 91.921 79.261C95.0198 85.0457 97.5339 91.1248 99.4261 97.4082C99.6827 98.338 99.2016 99.0113 99.4261 99.8449C99.5594 100.354 99.8249 100.818 100.196 101.192" fill="white"/>
</mask>
<g mask="url(#mask0_314_1818)">
<path d="M105.064 -40.0776L0 42.6016L82.6672 147.58L187.731 64.9008L105.064 -40.0776Z" fill="url(#paint0_linear_314_1818)"/>
</g>
<path d="M58.6606 58.1944C58.5697 58.7357 58.5697 59.2883 58.6606 59.8296C58.735 60.2564 58.9234 60.6552 59.2058 60.9838C59.5127 61.3121 59.8995 61.5551 60.3284 61.6892C60.8931 61.8685 61.4727 61.9972 62.0603 62.0739C62.5565 62.116 63.0494 62.1909 63.5357 62.2984C63.7478 62.346 63.9527 62.4215 64.145 62.5228C64.2173 62.5426 64.2839 62.579 64.3396 62.6291C64.3953 62.6792 64.4385 62.7416 64.4658 62.8114C64.4796 62.9607 64.4796 63.1109 64.4658 63.2602C64.432 63.406 64.3781 63.5463 64.3054 63.677C64.3054 63.677 64.113 63.8694 63.9205 63.9656C63.6863 63.9955 63.4492 63.9955 63.2149 63.9656H62.0603H57.7305L58.0833 67.1718H62.8621C66.0694 67.1718 67.8334 66.5626 68.6032 62.8434C68.7982 62.1298 68.7982 61.3769 68.6032 60.6632C68.4947 60.3669 68.3282 60.0951 68.1135 59.8639C67.8987 59.6327 67.6399 59.4466 67.3523 59.3166C66.6092 58.9487 65.8047 58.7205 64.9789 58.6433L63.664 58.4509C63.4218 58.4 63.1854 58.3248 62.9583 58.2265C62.8318 58.1663 62.7299 58.0644 62.6697 57.9379C62.623 57.7919 62.623 57.635 62.6697 57.4891C62.6516 57.3722 62.6516 57.2532 62.6697 57.1364C62.748 57.0002 62.8735 56.8976 63.0225 56.8478L63.7281 56.6554H69.0522L69.7257 53.4492H64.6582C61.4509 53.4492 59.4624 54.2828 58.6606 58.002" fill="#454444"/>
<path d="M51.8933 56.9445H51.3159L49.0388 61.4332H52.2461L51.8933 56.9445ZM55.1005 53.7383L56.6721 67.3968H53.0799L52.7913 64.7677H47.4351L46.0881 67.3968H42.0469L49.0067 53.7383H55.1005Z" fill="#454444"/>
<path d="M43.8434 53.6445H40.155L38.391 61.7883L35.6327 53.6445H30.7897L27.8711 67.303H31.5274L33.2914 58.9348L36.3063 67.303H40.9568L43.8434 53.6445Z" fill="#454444"/>
<path d="M20.3336 64.1598H21.6165C21.9088 64.0795 22.1892 63.9609 22.4504 63.8071C22.6968 63.6488 22.8961 63.4274 23.0277 63.1658C23.2432 62.8216 23.3953 62.4415 23.4767 62.0437C23.6451 61.474 23.7843 60.8961 23.8936 60.3123C24.017 59.7832 24.1133 59.2481 24.1823 58.7092C24.2283 58.358 24.2283 58.0023 24.1823 57.6511C24.1445 57.4201 24.0179 57.2131 23.8295 57.074C23.6054 56.9355 23.3536 56.8479 23.0918 56.8175H20.6222C20.3229 56.8618 20.0313 56.9481 19.7562 57.074C19.5189 57.2156 19.3206 57.4139 19.1789 57.6511C18.9811 57.9814 18.83 58.3375 18.7299 58.7092C18.7299 59.126 18.4733 59.6711 18.345 60.3123C18.2167 60.9535 18.0884 61.5948 18.0243 62.0437C17.9783 62.4163 17.9783 62.7932 18.0243 63.1658C18.0446 63.4129 18.1595 63.6426 18.345 63.8071C18.5806 63.9519 18.842 64.0499 19.1148 64.0956H20.3656M22.6749 53.2266C23.4606 53.2283 24.2445 53.3034 25.0162 53.451C25.6383 53.5559 26.236 53.7732 26.7802 54.0922C27.2515 54.415 27.6279 54.8578 27.8707 55.3747C28.169 55.9937 28.3121 56.6759 28.2876 57.3626C28.3086 58.3238 28.2007 59.2835 27.9669 60.2161C27.7726 61.2179 27.4715 62.196 27.0689 63.1338C26.7677 63.8988 26.3334 64.6044 25.7859 65.2178C25.3352 65.7705 24.7793 66.2282 24.1502 66.5644C23.5058 66.9093 22.8142 67.1577 22.0976 67.3019C21.2843 67.4618 20.4567 67.537 19.6279 67.5263C18.8415 67.5406 18.056 67.4653 17.2866 67.3019C16.6539 67.1808 16.0532 66.9297 15.5226 66.5644C15.0424 66.2241 14.6651 65.7582 14.4321 65.2178C14.1695 64.5548 14.0388 63.8469 14.0473 63.1338C14.0598 62.1531 14.1672 61.176 14.368 60.2161C14.5814 59.24 14.8819 58.285 15.266 57.3626C15.5839 56.6426 16.0053 55.9729 16.5169 55.3747C16.9919 54.8513 17.5567 54.417 18.1847 54.0922C18.8261 53.7882 19.5058 53.5725 20.2053 53.451C21.0118 53.3286 21.8272 53.275 22.6428 53.2907L22.6749 53.2266Z" fill="#454444"/>
<path d="M14.4338 53.6445H10.6813L8.72481 62.8464C8.6766 63.218 8.48563 63.5563 8.19231 63.7897C7.89899 64.0231 7.52634 64.1332 7.15324 64.0968H3.59315L2.85547 67.5916H6.92873C8.17257 67.7105 9.41622 67.3629 10.418 66.6163C11.4197 65.8697 12.108 64.7774 12.349 63.5517L14.4338 53.6445Z" fill="#454444"/>
<path d="M98.1418 60.2156C98.4737 60.2014 98.8001 60.1253 99.104 59.9911C99.3552 59.9165 99.5857 59.7848 99.7775 59.6064C99.9522 59.4302 100.093 59.2238 100.194 58.9972C100.304 58.7271 100.389 58.4482 100.451 58.1636C100.478 57.8542 100.478 57.5431 100.451 57.2338C100.446 57.0065 100.38 56.7848 100.259 56.5925C100.147 56.3784 99.9664 56.2088 99.7455 56.1116C99.4056 56.0565 99.059 56.0565 98.7191 56.1116H93.5875L91.7593 64.7363H96.891C97.2099 64.7847 97.5343 64.7847 97.8532 64.7363C98.1407 64.6718 98.4131 64.552 98.655 64.3837C98.9073 64.196 99.1153 63.9552 99.2644 63.6783C99.4726 63.3337 99.614 62.953 99.6813 62.5561C99.7081 62.2575 99.7081 61.957 99.6813 61.6584C99.6748 61.4112 99.6088 61.1693 99.4889 60.953C99.3704 60.7596 99.1893 60.6125 98.9757 60.5362C98.6575 60.4792 98.3317 60.4792 98.0135 60.5362M76.9737 58.9651C76.8967 59.3028 76.8967 59.6535 76.9737 59.9911C77.0073 60.2531 77.1191 60.4989 77.2944 60.6965C77.4848 60.9071 77.7286 61.0622 78 61.1454C78.3526 61.2719 78.7185 61.358 79.0905 61.4019H80.0206H80.5338C80.575 61.4143 80.6133 61.4349 80.6463 61.4625C80.6794 61.49 80.7066 61.5239 80.7262 61.5622C80.7418 61.6577 80.7418 61.7552 80.7262 61.8507C80.7584 61.9332 80.7584 62.0248 80.7262 62.1072C80.7295 62.1747 80.7164 62.2419 80.688 62.3031C80.6596 62.3643 80.6167 62.4177 80.5631 62.4587C80.5094 62.4997 80.4466 62.5271 80.3801 62.5385C80.3135 62.5498 80.2452 62.5449 80.181 62.524H79.732H75.9795L75.5625 64.5119H79.5075C81.5601 64.5119 82.7148 64.0951 83.1317 61.7866C83.2627 61.3364 83.2627 60.8582 83.1317 60.4079C82.9999 60.039 82.7375 59.731 82.394 59.5423C81.9235 59.3065 81.4114 59.1649 80.8866 59.1255L80.181 59.3178H79.732L79.5395 59.1255C79.5258 59.0405 79.5258 58.9539 79.5395 58.869C79.5213 58.7844 79.5213 58.697 79.5395 58.6125C79.6003 58.5417 79.6774 58.4867 79.7641 58.4522H80.2131H83.4204L83.8373 56.4964H80.63C78.5774 56.1116 77.3586 56.6246 76.9737 58.9651ZM85.89 64.7043L86.4352 62.1714H89.1935C89.5713 62.1662 89.9434 62.0786 90.284 61.9149C90.6137 61.7785 90.9014 61.5572 91.1179 61.2736C91.385 61.0041 91.6022 60.6893 91.7593 60.3438C91.9505 59.98 92.0908 59.5916 92.1763 59.1896C92.2191 58.7632 92.2191 58.3335 92.1763 57.9071C92.1872 57.5759 92.1213 57.2467 91.9838 56.9452C91.9347 56.8056 91.8584 56.677 91.7593 56.5669C91.6602 56.4569 91.5403 56.3675 91.4065 56.304C91.0862 56.1513 90.735 56.0745 90.3802 56.0796H85.2485L83.3883 64.7043H85.89ZM86.8522 60.2476L87.3012 58.0995H89.1614C89.2652 58.0628 89.3784 58.0628 89.4821 58.0995C89.5354 58.1409 89.5779 58.1946 89.6058 58.2561C89.6337 58.3175 89.6463 58.3848 89.6425 58.4522C89.6848 58.6638 89.6848 58.8817 89.6425 59.0934C89.6027 59.3178 89.5269 59.5344 89.418 59.7346C89.3457 59.8713 89.234 59.983 89.0973 60.0553C88.982 60.0882 88.8597 60.0882 88.7445 60.0553L86.8522 60.2476ZM95.6081 58.0995H97.8211C97.8431 58.1617 97.8431 58.2296 97.8211 58.2918C97.8346 58.4197 97.8346 58.5487 97.8211 58.6766C97.8211 58.869 97.8211 58.9972 97.8211 59.0613L97.5004 59.3178H95.2553L95.6081 58.0995ZM94.6459 62.6844L94.9345 61.2416H96.9872C97.0596 61.2145 97.1393 61.2145 97.2117 61.2416C97.2117 61.2416 97.2117 61.2416 97.2117 61.466C97.2245 61.6153 97.2245 61.7655 97.2117 61.9149C97.2402 62.0523 97.2402 62.1942 97.2117 62.3317C97.1978 62.3808 97.1734 62.4263 97.1401 62.465C97.1069 62.5038 97.0657 62.5348 97.0193 62.5561H96.7627L94.6459 62.6844Z" fill="#FDFDFD"/>
<defs>
<linearGradient id="paint0_linear_314_1818" x1="20.1077" y1="111.389" x2="156.907" y2="3.66348" gradientUnits="userSpaceOnUse">
<stop stop-color="#DB912A"/>
<stop offset="0.18" stop-color="#D2D632"/>
<stop offset="0.36" stop-color="#6BA84F"/>
<stop offset="0.54" stop-color="#528ECB"/>
<stop offset="0.72" stop-color="#C3117C"/>
<stop offset="0.9" stop-color="#C32339"/>
<stop offset="1" stop-color="#C32339"/>
</linearGradient>
</defs>
</svg>
