<svg width="154" height="155" viewBox="0 0 154 155" fill="none" xmlns="http://www.w3.org/2000/svg">
<path fill-rule="evenodd" clip-rule="evenodd" d="M64.715 50.9168C64.715 50.9168 64.6872 50.9168 64.6316 50.9168C64.6316 50.9168 64.6872 50.9168 64.715 50.9168ZM41.2538 7.58038C44.5339 13.7236 47.7863 19.8947 51.0386 26.0658C52.9289 30.152 54.7913 34.2939 57.0429 38.1577C57.2653 38.6859 57.4876 39.2141 57.6822 39.7144C57.8768 40.187 57.7934 40.7985 58.2938 41.1043C59.0165 42.7444 59.7392 44.3844 60.462 46.0245C61.1569 47.9147 61.9074 49.7771 63.3251 51.1392C64.6038 52.4179 67.05 51.6952 67.4392 49.9161C67.4948 49.5826 67.3836 49.388 67.189 49.11C65.2432 46.497 64.2702 43.2447 62.797 40.326C59.1833 33.2098 55.8754 25.8712 52.095 18.8384C50.3715 15.6417 48.6202 12.4727 46.8967 9.3316C45.5902 6.35725 44.0058 3.57752 42.3658 0.853358C41.8654 0.0472272 41.1704 -0.341934 40.4755 0.380804C38.3073 1.13134 38.0849 1.88185 39.3636 4.13346C40.0029 5.27316 40.6701 6.41285 41.2816 7.55255L41.2538 7.58038Z" fill="#231A0D"/>
<path fill-rule="evenodd" clip-rule="evenodd" d="M94.8205 59.1419C95.3487 59.9203 96.127 60.1704 96.9331 60.3372C97.5724 60.4762 97.9617 60.2816 98.2952 59.6423C98.9902 58.1412 99.4349 56.4733 100.408 55.1669C101.214 53.6658 102.27 52.3593 102.854 50.7192C104.494 48.412 106.134 46.1048 107.802 43.7976C108.33 43.5475 108.664 43.0471 108.997 42.5745C110.137 41.0457 111.221 39.489 112.472 38.0713C113.723 36.5703 115.029 35.1526 116.058 33.4569C116.947 32.2616 117.809 31.0385 118.699 29.8154C120.033 28.092 121.339 26.3407 122.368 24.3949C123.619 22.8938 124.592 21.1426 125.815 19.6137C126.315 19.0022 127.038 18.4462 127.038 17.4455C127.677 16.8618 127.566 16.3336 126.76 15.9444C126.482 15.8054 126.204 15.6942 125.926 15.583C125.037 15.2217 124.397 15.722 123.925 16.3058C122.479 18.1682 121.006 20.0307 119.755 22.0599C119.477 22.3935 119.088 22.6436 119.004 23.144C118.115 24.0335 117.448 25.0898 116.864 26.2295C116.725 26.3407 116.558 26.4519 116.447 26.5909C113.806 30.8161 110.471 34.4576 107.496 38.4049C106.218 40.1005 104.716 41.546 103.688 43.4641C103.049 43.7699 102.771 44.4092 102.465 45.0207C101.742 46.0492 101.047 47.05 100.324 48.0507C99.9908 48.3564 99.9074 48.829 99.7129 49.2459C99.2125 49.9131 98.6843 50.5525 98.323 51.3586C98.184 51.3864 98.1562 51.4698 98.1562 51.6365C97.9894 51.8589 97.7393 52.0535 97.8505 52.4427C96.405 54.0828 95.7656 56.1954 95.0707 58.2524C94.8761 58.5026 94.5982 58.7805 94.8205 59.1141V59.1419Z" fill="#231A0D"/>
<path fill-rule="evenodd" clip-rule="evenodd" d="M58.7669 145.572C58.7669 145.572 58.9058 145.544 58.9892 145.516C59.017 145.627 59.0448 145.738 59.1004 145.877C58.9893 145.766 58.9058 145.683 58.7946 145.572H58.7669ZM72.5545 95.2578C71.665 95.369 71.6094 96.0917 71.3314 96.5921C68.5516 101.54 67.8011 107.378 66.4946 112.937C65.1603 118.524 64.6322 123.862 62.9087 129.365C61.63 133.452 58.9337 137.343 59.5452 141.457C58.9059 141.819 58.2665 141.986 58.3221 142.569C58.5723 146.433 55.3755 147.434 56.7376 151.409C57.0156 152.271 57.238 153.244 58.7946 153.661C60.2401 154.05 61.4354 153.911 62.1304 152.799C62.8809 151.631 62.8253 150.547 62.6585 149.269C63.4091 148.157 63.5758 146.822 63.7704 145.599C64.8823 138.9 73.1105 115.217 73.722 111.964C75.0841 108.212 75.4177 104.07 77.1133 100.428C78.4476 97.5928 76.7797 95.7304 72.61 95.2856L72.5545 95.2578Z" fill="#231A0D"/>
<path fill-rule="evenodd" clip-rule="evenodd" d="M81.2822 47.3076C82.1717 47.5299 83.089 47.9191 83.5894 46.7516C83.7006 46.5292 83.645 46.2791 83.5894 46.0289C83.5894 44.6112 83.367 43.1657 83.5338 41.748C83.645 40.8585 83.5894 39.9412 83.367 39.0239C83.506 38.8293 83.5616 38.6069 83.4226 38.3289C83.5616 36.1607 83.4226 33.9647 83.506 31.7965C83.5894 29.0445 83.2836 26.2648 83.1168 23.485C83.0612 21.9562 82.394 21.428 80.9486 21.7894C81.0598 21.8728 81.1154 21.9283 81.1432 21.9839C81.0876 21.9005 81.032 21.8728 80.9486 21.7894C80.337 21.5392 79.5865 21.4836 79.6977 22.2897C79.8367 23.1792 79.5032 23.8742 79.531 24.7081C79.6977 28.294 79.7533 31.8799 79.8923 35.4936C79.5588 38.8849 79.5309 42.3318 79.8645 45.7787C79.9479 46.696 80.3648 47.252 81.2266 47.3632L81.2822 47.3076Z" fill="#231A0D"/>
<path fill-rule="evenodd" clip-rule="evenodd" d="M36.0003 71.8145H36.0281H35.9725H36.0003ZM45.3125 70.1188C45.5905 70.0632 45.7573 70.1188 45.8407 70.23C45.5349 70.23 45.2569 70.23 44.9511 70.23C45.0345 70.1744 45.1179 70.1188 45.3125 70.091V70.1188ZM47.1472 70.2578C47.1472 70.2578 46.8691 70.23 46.7579 70.2022C46.8691 70.091 46.9804 70.091 47.1472 70.2578ZM29.7458 76.0119C29.996 76.0119 30.274 75.9841 30.552 75.8451C30.6354 75.8451 30.7187 75.8452 30.8299 75.8174C31.0245 75.6784 31.2191 75.6228 31.3859 75.6228C31.2191 75.7061 31.0245 75.7896 30.8299 75.8174C32.8313 75.7618 34.8328 75.5394 36.7786 75.1502C37.6681 75.039 38.5298 74.9 39.4193 74.7888C44.3395 74.1495 49.2041 73.3433 54.2077 73.1765C55.1528 73.1765 55.6531 72.287 55.2362 71.3141C55.0416 70.8416 54.6525 70.4246 54.3467 69.9798C53.9576 69.7019 53.5405 69.4239 53.1514 69.1459C52.79 68.7845 52.3731 68.8957 51.9561 68.9513C49.3987 69.2849 46.8413 69.6185 44.2839 69.9242C42.3103 70.1466 40.3089 70.23 38.3631 70.8138C38.2797 70.8138 38.1963 70.8137 38.1407 70.8693C36.8342 70.6748 35.6389 71.1474 34.388 71.2585C30.7187 71.6199 27.0216 72.0647 23.3523 72.5094C23.1855 72.5094 23.0188 72.5094 22.8798 72.5094C19.2383 72.5094 15.6246 72.8986 12.0109 73.2322C11.5662 73.26 11.1214 73.2877 10.6766 73.3155C9.03655 73.2599 7.42431 73.4545 5.83985 73.6213C4.75574 73.5657 3.64386 73.5379 2.55975 73.4268C1.83701 73.3712 0.975305 73.2322 0.752924 73.9827C0.558341 74.6498 1.00309 75.3448 1.69803 75.7617C2.72654 77.7354 4.47778 77.4296 6.11784 77.3462C9.17558 77.4852 12.1777 77.235 15.2355 76.9015C18.2098 76.7625 21.1563 76.6791 24.1306 76.4567C25.9931 76.3177 27.9112 76.3733 29.7458 75.9841V76.0119Z" fill="#231A0D"/>
<path fill-rule="evenodd" clip-rule="evenodd" d="M137.045 56.5352C136.155 56.7019 135.293 56.8965 134.404 57.0077C129.762 57.5915 125.286 58.7589 120.7 59.6763C116.641 60.4824 112.638 61.6499 108.524 62.2059C107.829 62.317 106.69 62.0391 106.606 63.0398C106.523 64.0405 107.579 64.5409 108.274 65.0968C108.524 65.2914 108.886 65.347 109.191 65.4304C111.665 65.9863 114 65.2358 116.363 64.8466C121.172 64.0405 125.759 62.3726 130.623 61.6777C133.598 61.1495 136.516 60.538 139.519 60.1766C140.436 60.0654 140.909 59.2315 140.269 58.064C139.463 56.7575 138.268 56.5907 137.045 56.5629V56.5352Z" fill="#231A0D"/>
<path fill-rule="evenodd" clip-rule="evenodd" d="M31.6621 46.1623C31.3841 45.9955 31.1061 45.8287 30.8281 45.6619C31.2451 45.7175 31.6065 45.8287 31.6621 46.1623ZM33.5801 47.4132C33.3577 47.2742 33.1353 47.1352 32.9129 46.9684C33.1909 47.0518 33.3855 47.2186 33.5801 47.4132ZM44.3656 56.1694C44.3656 56.1694 44.3934 56.1694 44.4212 56.1972C44.3656 56.1972 44.3378 56.2528 44.31 56.2528C44.31 56.2528 44.3656 56.1972 44.3933 56.1694H44.3656ZM47.868 57.2257C47.868 57.2257 48.007 57.4203 48.0348 57.5593C47.9236 57.5593 47.8403 57.5315 47.7291 57.5037C47.7847 57.3925 47.8403 57.3091 47.868 57.2257ZM19.8481 44.4388C19.9871 44.5222 20.1261 44.6056 20.265 44.6612C21.5993 45.3839 32.3848 51.2215 32.9686 51.5828C34.0249 52.389 35.1089 53.1673 36.471 53.612C36.5822 53.6954 36.6935 53.751 36.8047 53.8344C37.3606 54.6406 38.3335 55.0019 39.3064 55.3911C39.8902 55.7247 40.4461 56.0583 41.0299 56.364C42.9479 57.5315 44.6435 58.977 47.0897 59.533C47.6735 60.2001 48.7298 60.1445 49.5915 60.3668C50.0918 60.4502 50.5644 60.3669 50.9814 60.0055C53.8723 58.7824 54.3171 57.6705 52.4825 56.364C51.8987 55.6969 51.1204 55.2799 49.9807 55.4745C49.5081 55.3355 49.0634 55.2243 48.5908 55.0853C46.3114 53.751 44.0598 52.3889 41.7248 51.0825C39.7512 49.9983 38.0833 48.5807 35.8595 47.8024C35.4703 47.58 35.0534 47.3854 34.6642 47.163C30.6335 44.9948 26.6307 42.8266 22.322 41.0197C22.322 41.0197 22.2943 40.9919 22.2109 40.9641C20.7098 40.3804 19.8203 40.6861 18.7639 41.9648C17.5131 43.4659 18.6528 43.9385 19.9315 44.3832L19.8481 44.4388Z" fill="#231A0D"/>
<path fill-rule="evenodd" clip-rule="evenodd" d="M115.613 124.526C115.613 124.526 115.613 124.443 115.613 124.415H115.668C115.668 124.471 115.668 124.499 115.613 124.526ZM113.222 123.137C113.222 123.137 113.166 123.137 113.139 123.137C113.166 123.137 113.194 123.137 113.222 123.137ZM133.487 149.433C133.07 148.71 132.68 147.96 131.985 147.571C131.624 147.182 131.207 146.82 130.874 146.403C127.844 142.567 125.397 138.286 122.645 134.228C121.478 132.032 120.227 129.864 118.67 127.918C116.669 123.72 114.028 119.968 111.61 116.02C110.025 113.435 108.58 110.767 106.634 108.487C106.384 108.098 106.134 107.681 105.856 107.292C105.744 106.124 104.772 105.569 104.243 104.735C102.103 101.149 99.9625 97.5906 97.8221 94.0325C97.294 92.7538 96.5156 92.587 95.5705 93.2264C95.1258 93.5044 94.7088 93.838 94.2919 94.1993C93.5135 94.8387 93.3467 95.5336 94.0973 96.5065C94.7922 97.396 95.3481 98.369 95.9875 99.3141C96.7102 100.593 97.1828 102.038 98.3781 102.956C99.2954 105.235 100.546 107.264 102.159 109.043C104.021 112.129 105.828 115.214 107.94 118.105C108.552 119.745 109.719 120.996 110.665 122.386C110.831 122.608 110.97 122.831 111.109 123.081C111.499 123.998 111.693 125.055 112.666 125.583C112.833 127.445 114.417 128.418 115.084 129.947C115.39 131.031 116.113 131.893 116.613 132.866V132.921C116.78 133.311 116.975 133.616 117.308 133.839C118.142 135.173 118.976 136.507 119.81 137.869C121.533 140.482 123.229 143.095 125.036 145.625C127.037 148.377 128.955 151.212 131.485 153.408C132.152 154.103 132.875 154.631 133.82 154.465C134.654 154.298 135.377 153.964 135.71 153.019C136.016 152.407 135.988 151.824 135.405 151.296C134.765 150.712 134.126 150.1 133.459 149.489L133.487 149.433Z" fill="#231A0D"/>
<path fill-rule="evenodd" clip-rule="evenodd" d="M45.3963 94.477C45.3963 94.477 45.4519 94.5882 45.4519 94.616C45.4519 94.616 45.4518 94.5326 45.424 94.477H45.3963ZM22.4076 108.07C22.4076 108.07 22.3242 108.932 22.3242 109.182C22.3242 109.404 22.8802 110.016 23.5473 110.961C24.1867 111.906 24.6593 111.434 24.9929 111.295C25.1318 111.239 25.3264 111.211 25.5488 111.128C27.4112 109.766 29.3014 108.431 31.1917 107.097C33.5545 105.429 36.1119 104.067 38.2801 102.121C40.9209 100.676 43.3948 98.9802 45.5352 96.7564C46.258 96.0059 46.4248 94.3936 45.7577 93.5597C44.9515 92.559 44.1454 92.6702 43.3949 93.5041C40.7263 95.2832 38.0577 97.09 35.3891 98.869C35.4447 98.869 35.4725 98.9246 35.5003 98.9524C35.4448 98.9524 35.4169 98.8968 35.3891 98.8413C34.166 99.564 32.8874 100.148 31.7477 101.009C28.6343 103.372 25.4654 105.652 22.3799 107.987L22.4076 108.07Z" fill="#231A0D"/>
<path fill-rule="evenodd" clip-rule="evenodd" d="M142.743 110.299C142.743 110.299 142.743 110.077 142.826 110.16C142.854 110.216 142.882 110.243 142.91 110.271C142.854 110.271 142.798 110.271 142.743 110.271V110.299ZM143.215 107.936C143.215 107.936 143.215 108.02 143.215 108.075C143.188 108.075 143.16 108.131 143.16 108.131C143.188 108.047 143.188 107.992 143.188 107.936H143.215ZM111.86 91.48C111.86 91.48 111.86 91.4522 111.887 91.4244C111.887 91.4522 111.887 91.48 111.915 91.5078C111.887 91.5078 111.86 91.5078 111.832 91.5078L111.86 91.48ZM71.6643 87.5049C69.9409 86.6154 68.2175 85.7537 66.772 84.2804C65.8547 83.3353 65.0485 82.418 64.5481 81.1671C62.2409 78.1927 62.3243 74.6624 62.5467 71.3545C62.7135 68.6582 63.2973 65.8784 65.1041 63.8214C65.7991 62.3481 66.3272 60.6802 67.8839 59.9297C67.9395 59.7907 68.0229 59.6239 68.0785 59.4849C68.5232 59.4015 68.8568 59.1514 68.9402 58.6232C68.9402 58.512 68.9401 58.4286 68.9679 58.3452C68.9679 58.4008 69.0235 58.4842 69.0513 58.5398C70.2744 57.4557 71.8033 57.7615 73.2488 57.7615C74.4441 57.7615 75.6394 57.7337 76.7791 58.3174C78.1689 58.3174 79.4754 58.7622 80.6985 59.5961C82.144 60.0409 83.2838 60.986 84.3123 62.1535L84.3678 62.0979V62.1813C87.1198 63.9326 88.8711 66.4899 89.6216 69.8534C89.6216 69.9646 89.6216 70.0202 89.705 70.1036C91.1783 72.522 92.2067 75.0238 91.901 77.9148C91.7898 78.9155 91.7064 79.9162 91.5952 80.8891C91.6786 81.1115 91.6508 81.2505 91.5119 81.3895C90.9281 82.3902 90.7891 83.6966 89.844 84.4472C89.4826 85.1421 88.7043 84.9198 88.1761 85.2533C83.0057 87.9497 77.5852 89.1728 71.6643 87.5605V87.5049ZM94.4862 70.6596V70.7151C94.4028 70.5484 94.3194 70.3816 94.236 70.187C94.3472 70.2426 94.4584 70.4928 94.4862 70.6318V70.6596ZM73.8882 53.9254V53.8698C73.8882 53.8698 73.9438 53.8698 73.9716 53.8976C73.9438 53.8976 73.916 53.8976 73.8882 53.9254ZM151.443 118.388C151.972 118.527 151.972 118.388 152.444 117.943C152.917 117.526 153.751 115.914 153.695 114.997C153.695 114.413 153.778 114.191 153.695 113.913C151.332 112.3 148.942 110.716 146.579 109.104C144.883 107.853 143.243 106.518 141.409 105.546C138.49 103.794 135.738 101.654 132.625 100.292C127.538 96.8727 122.173 94.0374 116.974 90.8962C116.196 90.4237 115.446 89.9789 114.667 89.5341C114.667 89.5341 114.417 89.3118 114.278 89.2006C112.888 88.4778 111.443 87.7551 110.053 87.0324C108.274 85.9205 106.523 84.8364 104.771 83.7245C102.909 82.3346 100.963 81.1948 98.9616 80.0551C97.5995 79.249 96.3208 78.5819 96.293 76.3859C96.2374 72.2162 94.4584 68.4358 92.318 64.9888C90.0108 61.2918 87.0086 58.2896 83.0892 56.6774C82.422 56.2604 81.727 55.899 80.9487 55.7601C79.0029 54.9261 76.8069 55.2875 75.0001 53.6752C74.5275 53.2583 73.7214 52.9803 73.082 53.5084C71.9145 53.5918 70.7192 53.6196 69.7741 54.4536C67.7449 55.1485 65.5488 55.5655 64.6315 58.0673C63.7976 58.9568 62.7413 59.6517 62.3244 60.9582C61.5182 62.1257 60.8233 63.3766 60.2395 64.7387C59.072 66.1008 59.072 68.0188 58.5995 69.7144C58.2659 70.5762 58.1825 71.4657 58.3215 72.4108C58.0157 73.3837 57.9601 74.4123 58.2103 75.4408C58.2103 75.6076 58.2103 75.7743 58.3215 75.9133V76.0523L58.3493 76.1635C58.3493 77.9147 58.6551 79.5826 59.5446 81.1393C60.4063 82.4457 60.7121 84.058 61.824 85.3089C64.9374 88.7558 68.7734 90.0623 72.8874 90.6182C78.0578 91.8413 82.839 90.7572 87.4256 88.7558C90.0386 87.6161 92.8461 86.8378 94.8198 84.475C95.2367 83.9746 95.7926 84.2804 96.2374 84.5584C97.4883 85.3367 98.7114 86.1706 99.9345 87.0046C102.047 88.3944 104.16 89.7843 106.245 91.1464C107.329 91.758 108.385 92.3417 109.469 92.9255C109.525 92.8699 109.525 92.7864 109.552 92.7309C109.552 92.7309 109.469 92.8699 109.441 92.9255C110.887 93.7316 112.304 94.5377 113.722 95.3438C117.419 97.5121 121.144 99.7081 124.841 101.904C126.704 103.238 128.677 104.35 130.706 105.323C131.874 106.491 133.57 106.602 134.709 107.825C135.627 108.548 136.544 109.243 137.6 109.632C138.601 110.577 139.713 111.189 140.964 111.578C142.215 112.3 143.327 113.246 144.494 114.163C146.468 115.72 148.58 117.026 150.721 118.277C150.971 118.332 151.221 118.388 151.36 118.416L151.443 118.388Z" fill="#231A0D"/>
</svg>
