<svg width="17" height="16" viewBox="0 0 17 16" fill="none" xmlns="http://www.w3.org/2000/svg">
<path d="M3.78255 2.54641C3.78233 2.98843 3.60652 3.41227 3.29381 3.72467C2.98109 4.03708 2.55708 4.21246 2.11505 4.21224C1.67302 4.21202 1.24919 4.03621 0.936785 3.7235C0.624381 3.41078 0.448998 2.98677 0.449219 2.54474C0.44944 2.10271 0.625247 1.67888 0.937964 1.36647C1.25068 1.05407 1.67469 0.878685 2.11672 0.878906C2.55875 0.879127 2.98258 1.05493 3.29499 1.36765C3.60739 1.68037 3.78277 2.10438 3.78255 2.54641ZM3.83255 5.44641H0.499219V15.8797H3.83255V5.44641ZM9.09922 5.44641H5.78255V15.8797H9.06589V10.4047C9.06589 7.35474 13.0409 7.07141 13.0409 10.4047V15.8797H16.3326V9.27141C16.3326 4.12974 10.4492 4.32141 9.06589 6.84641L9.09922 5.44641Z" fill="black"/>
</svg>
