<svg width="16" height="16" viewBox="0 0 16 16" fill="none" xmlns="http://www.w3.org/2000/svg">
<path d="M10.835 15.8789V10.0739H12.7792L13.07 7.81724H10.835V6.37724C10.835 5.72391 11.0167 5.27807 11.9533 5.27807H13.1483V3.25974C12.5698 3.19836 11.9884 3.16859 11.4067 3.17057C9.68417 3.17057 8.505 4.22224 8.505 6.15391V7.81724H6.55667V10.0739H8.505V15.8789H1.33333C1.11232 15.8789 0.900358 15.7911 0.744078 15.6348C0.587797 15.4785 0.5 15.2666 0.5 15.0456V1.71224C0.5 1.49123 0.587797 1.27926 0.744078 1.12298C0.900358 0.966704 1.11232 0.878906 1.33333 0.878906H14.6667C14.8877 0.878906 15.0996 0.966704 15.2559 1.12298C15.4122 1.27926 15.5 1.49123 15.5 1.71224V15.0456C15.5 15.2666 15.4122 15.4785 15.2559 15.6348C15.0996 15.7911 14.8877 15.8789 14.6667 15.8789H10.835Z" fill="black"/>
</svg>
