<svg width="18" height="17" viewBox="0 0 18 17" fill="none" xmlns="http://www.w3.org/2000/svg">
<path d="M8.99935 0.0429688C11.2635 0.0429688 11.546 0.051302 12.4343 0.0929687C13.3218 0.134635 13.926 0.273802 14.4577 0.480469C15.0077 0.692136 15.471 0.978802 15.9344 1.4413C16.3581 1.85788 16.686 2.36179 16.8952 2.91797C17.101 3.4488 17.241 4.0538 17.2827 4.9413C17.3218 5.82964 17.3327 6.11214 17.3327 8.3763C17.3327 10.6405 17.3244 10.923 17.2827 11.8113C17.241 12.6988 17.101 13.303 16.8952 13.8346C16.6866 14.3911 16.3586 14.8952 15.9344 15.3113C15.5177 15.7349 15.0138 16.0628 14.4577 16.2721C13.9268 16.478 13.3218 16.618 12.4343 16.6596C11.546 16.6988 11.2635 16.7096 8.99935 16.7096C6.73518 16.7096 6.45268 16.7013 5.56435 16.6596C4.67685 16.618 4.07268 16.478 3.54102 16.2721C2.98462 16.0634 2.48062 15.7354 2.06435 15.3113C1.64052 14.8948 1.31263 14.3909 1.10352 13.8346C0.896849 13.3038 0.757682 12.6988 0.716016 11.8113C0.676849 10.923 0.666016 10.6405 0.666016 8.3763C0.666016 6.11214 0.674349 5.82964 0.716016 4.9413C0.757682 4.05297 0.896849 3.44964 1.10352 2.91797C1.31205 2.36145 1.64002 1.8574 2.06435 1.4413C2.48074 1.01733 2.98471 0.68941 3.54102 0.480469C4.07268 0.273802 4.67602 0.134635 5.56435 0.0929687C6.45268 0.053802 6.73518 0.0429688 8.99935 0.0429688ZM8.99935 4.20964C7.89428 4.20964 6.83447 4.64862 6.05307 5.43002C5.27167 6.21143 4.83268 7.27123 4.83268 8.3763C4.83268 9.48137 5.27167 10.5412 6.05307 11.3226C6.83447 12.104 7.89428 12.543 8.99935 12.543C10.1044 12.543 11.1642 12.104 11.9456 11.3226C12.727 10.5412 13.166 9.48137 13.166 8.3763C13.166 7.27123 12.727 6.21143 11.9456 5.43002C11.1642 4.64862 10.1044 4.20964 8.99935 4.20964ZM14.416 4.0013C14.416 3.72504 14.3063 3.46008 14.1109 3.26473C13.9156 3.06938 13.6506 2.95964 13.3743 2.95964C13.0981 2.95964 12.8331 3.06938 12.6378 3.26473C12.4424 3.46008 12.3327 3.72504 12.3327 4.0013C12.3327 4.27757 12.4424 4.54252 12.6378 4.73787C12.8331 4.93322 13.0981 5.04297 13.3743 5.04297C13.6506 5.04297 13.9156 4.93322 14.1109 4.73787C14.3063 4.54252 14.416 4.27757 14.416 4.0013ZM8.99935 5.8763C9.66239 5.8763 10.2983 6.13969 10.7671 6.60854C11.236 7.07738 11.4993 7.71326 11.4993 8.3763C11.4993 9.03934 11.236 9.67523 10.7671 10.1441C10.2983 10.6129 9.66239 10.8763 8.99935 10.8763C8.33631 10.8763 7.70042 10.6129 7.23158 10.1441C6.76274 9.67523 6.49935 9.03934 6.49935 8.3763C6.49935 7.71326 6.76274 7.07738 7.23158 6.60854C7.70042 6.13969 8.33631 5.8763 8.99935 5.8763Z" fill="black"/>
</svg>
