<svg width="115" height="58" viewBox="0 0 115 58" fill="none" xmlns="http://www.w3.org/2000/svg">
<path fill-rule="evenodd" clip-rule="evenodd" d="M91.6862 0.817976C91.6213 1.32988 91.5356 1.58578 91.2685 1.95881C91.2685 1.95881 91.2578 1.99079 91.2471 2.02278L89.2406 3.76985C89.2406 3.76985 89.2517 3.52454 89.1763 3.96177C93.3534 4.00901 97.4349 3.81081 101.601 3.78337L103.882 3.76453C104.511 3.69055 105.352 3.83013 106.076 4.00158L108.589 5.19895C109.259 5.74366 109.897 6.491 110.269 7.29137C110.439 7.63288 110.577 7.75036 110.662 8.13443C111.011 9.31877 110.867 12.4012 110.864 13.8944C110.863 14.7477 110.872 15.569 110.87 16.4223C110.857 17.8409 111.013 20.1343 110.861 21.4355C110.504 24.3043 111.369 23.6333 110.18 26.9705C110.094 27.2264 109.997 27.7276 109.943 27.9942C109.793 28.5487 109.748 29.7432 109.79 30.3619C110.052 32.8688 109.098 35.609 109.424 38.2439C109.498 38.7666 109.551 38.82 109.646 39.2787C109.804 39.9722 110.059 40.3778 110.25 41.082C110.451 41.7542 110.46 42.6822 110.267 43.3646C109.516 46.2436 110.02 44.6336 110.643 47.3328C110.781 47.877 110.886 48.6237 110.491 49.0606C110.491 49.0606 110.342 49.1884 110.32 49.2524L109.018 50.4883C108.474 50.733 107.686 50.7535 107.439 51.3825C107.225 51.9156 107.17 52.8222 106.935 53.4192C105.912 53.5034 102.449 53.3396 101.095 53.3488L98.2719 53.1857C96.0665 52.9807 92.4424 53.6167 90.9508 53.5084C90.6311 53.508 90.6204 53.54 90.3007 53.5397C89.4695 53.5814 87.5518 53.366 86.7102 53.2264L81.2771 52.4739C80.3183 52.3661 79.1995 52.3116 78.1552 52.3531C77.3239 52.3949 76.3431 52.6711 75.5859 53.0223C75.042 53.267 73.9219 53.9591 73.4208 54.0759C72.9944 54.1821 72.6856 54.0431 72.1526 54.1491C71.8115 54.2128 71.2787 54.2122 70.8309 54.3824L70.5217 54.4567C70.234 54.467 70.1806 54.5203 69.9994 54.5308C69.5413 54.5196 68.9763 54.615 68.5928 54.5932C66.6856 54.4525 64.5858 54.7808 62.5082 54.6186C62.38 54.7891 62.5185 54.7999 62.2842 54.757C61.5704 54.6602 60.9521 54.8089 60.1635 54.8293L55.8052 54.8992C55.5601 54.8883 55.5815 54.8243 55.1979 54.8026C54.9209 54.7809 54.7929 54.8448 54.5052 54.8551C54.079 54.8547 53.6529 54.7476 53.2374 54.7151L49.082 54.4972C46.2583 54.4408 44.427 53.6495 40.5474 54.0932C39.5882 54.1989 38.8421 54.3047 37.7338 54.3248C35.8051 54.3547 33.9402 54.406 32.0332 54.1586C31.7243 54.1263 31.8096 54.0837 31.4685 54.1473C31.0635 54.1895 31.4578 54.1793 31.021 54.1042C30.6162 54.0397 29.9235 54.0923 29.4653 54.0811C26.7587 54.0995 26.546 53.8859 23.9233 54.6084C23.3369 54.7677 21.9191 55.0755 21.4076 55.1176C21.0133 55.1278 20.4166 55.1059 20.0221 55.2228C19.585 55.3609 19.403 55.7981 19.1685 55.8618C18.8486 55.9681 17.8904 55.5404 16.9953 55.5608C15.3542 55.5803 15.5445 56.3911 13.8743 54.9067L13.0017 54.2231C12.6717 54.0414 12.011 54.1047 11.702 54.0724C10.3915 53.9536 9.01738 53.7068 7.87855 52.9696C7.58049 52.7986 7.35705 52.617 7.16556 52.4461L6.50594 51.8694C6.12335 51.3144 5.69789 50.8873 5.49666 50.2151C5.26367 49.4255 5.04042 49.1373 4.96756 48.1879C4.90561 47.0999 4.76768 46.7691 4.68391 45.9584C4.61067 45.2223 4.81462 44.4012 4.75228 43.5265C4.67962 42.4705 4.30909 41.1368 4.25766 40.1235C4.21733 38.8648 3.90993 37.9792 3.93369 36.6352C3.95629 35.9313 4.02193 34.9927 4.06596 34.2248C4.09868 33.8089 4.19531 33.4143 4.1957 33.201C4.18595 32.6997 4.19706 32.4544 4.25121 31.9744C4.27322 31.5905 4.18848 31.3131 4.17874 30.8117C4.11757 29.2971 2.72684 26.4477 3.57482 23.0674C3.91826 21.7238 4.05949 20.2414 4.44559 18.8765C4.71383 17.8635 4.67779 14.2583 4.52038 12.9248C4.44694 12.2954 4.6281 12.285 4.61817 11.8903C4.6094 10.8557 4.41985 9.61819 4.81589 8.64799C4.88017 8.45607 5.08374 7.84832 5.1905 7.74177C5.75679 6.89976 7.03763 5.72787 7.94406 5.35555C9.31978 4.74908 10.503 4.50505 12.08 4.57077C15.5855 4.71326 14.4782 4.20007 14.3832 3.74132C14.2353 3.01585 14.2347 3.33584 14.0652 2.78101L13.7798 1.51142C13.322 1.28692 9.42184 1.36799 8.47314 1.54828L8.35587 1.58015C7.2897 1.89897 6.21301 2.14311 5.2423 2.70736C5.2423 2.70736 5.05022 2.85648 5.00756 2.87777L2.10438 5.49849C1.43114 6.55371 1.47399 6.42576 1.06685 7.64127C0.734715 8.63286 0.679005 9.96608 0.687189 11.3207C0.698131 22.8509 1.00324 36.6854 1.21619 48.4611C1.24425 50.6051 1.6364 51.7681 3.00783 53.5082C3.67757 54.3729 4.57134 55.0992 5.51868 55.6656C6.5831 56.3067 7.47745 56.713 8.81966 56.9491C9.25642 57.0242 9.42668 57.1524 10.098 57.1638C13.9019 57.264 17.6208 57.3001 21.4464 57.2296C25.6982 57.1596 30.0669 57.271 34.3399 57.2437C40.7549 57.1867 47.1482 57.3003 53.5737 57.318C55.6729 57.3097 58.017 57.4189 60.0737 57.3251C61.8747 57.2524 64.4214 57.2872 66.3926 57.3427C67.2024 57.3649 68.5986 57.2278 69.2058 57.3245C70.0793 57.4747 71.2197 57.3587 72.2107 57.3704L78.3377 57.4304C79.3287 57.4422 80.245 57.4645 81.3108 57.359C82.1528 57.2853 83.2501 57.4038 84.2518 57.3836C85.0723 57.3738 86.6278 57.5035 87.1821 57.4401C88.4078 57.2815 91.7107 57.4984 93.4797 57.415C94.0232 57.3836 94.4386 57.5227 94.9608 57.4486C97.0285 57.2162 99.5639 57.603 101.908 57.4989C103.177 57.4256 104.902 57.6835 106.246 57.3863C108.314 56.9406 109.604 56.59 111.279 55.3012C111.279 55.3012 111.29 55.2692 111.332 55.248C111.332 55.248 111.343 55.216 111.386 55.1947C111.898 54.8326 112.197 54.4703 112.666 54.0228C112.773 53.9162 112.752 53.9802 112.869 53.8417C113.029 53.6819 112.891 53.7777 113.051 53.6179L113.094 53.4899C113.745 52.712 114.141 51.8485 114.494 50.8996C115.094 49.215 114.741 44.1161 114.819 42.1856C114.841 41.695 114.81 41.151 114.811 40.7243C114.812 40.2977 114.737 40.5216 114.77 40.1057C114.792 39.8283 114.803 39.583 114.803 39.2631C114.726 34.9325 114.765 31.1033 114.773 26.8369L114.754 25.4075C114.819 24.6823 114.692 24.4262 114.746 23.9463L114.81 17.8133C114.79 17.4506 114.73 15.0826 114.773 14.9547C115 13.4296 114.865 11.2856 114.836 9.67494L114.817 8.56563C114.817 8.56563 114.764 8.29891 114.753 8.22424L114.468 6.95464C114.362 6.63454 114.457 6.87997 114.351 6.66653C113.683 5.0552 112.715 3.80619 111.354 2.67408C111.183 2.54589 111.13 2.49251 110.928 2.35362C110.8 2.31082 110.8 2.31082 110.694 2.20404C110.577 2.12925 110.587 2.09726 110.406 2.00107C110.247 1.94756 110.311 1.96896 110.162 1.88347L109.256 1.50916C109.001 1.42355 108.873 1.38075 108.681 1.31654C108.437 1.19895 108.479 1.17766 108.106 1.12392C107.915 1.05971 107.659 1.08077 107.563 1.04866C107.563 1.04866 107.531 1.03796 107.499 1.02726C106.296 0.69529 105.145 0.523372 103.781 0.671208C103.301 0.724015 103.557 0.809623 103.333 0.734715C102.407 0.531043 98.6661 0.665617 97.6963 0.696554C96.7266 0.727493 95.5011 0.779484 94.5847 0.757148C93.9454 0.756449 92.3789 0.765402 91.7181 0.828677L91.6862 0.817976ZM78.6285 38.2102C78.2356 37.4738 78.3416 37.7939 77.799 37.292C77.5012 37.0143 77.214 36.7047 76.9054 36.4591C76.5969 36.2134 76.3097 35.9038 76.0119 35.6261C75.8416 35.4979 75.8841 35.5833 75.7672 35.4018C75.7672 35.4018 75.6715 35.2631 75.6503 35.2204C75.6503 35.2204 75.4481 35.0815 75.4162 35.0708L75.0863 34.7825C74.4694 34.1845 74.6615 34.0354 74.3095 34.2376L72.8262 35.3773C72.2928 35.6967 71.7172 35.8241 71.2054 35.9728C70.6617 36.1109 70.8318 36.3457 70.8735 36.8578C70.9251 37.7645 70.9647 39.4498 70.9949 40.4204C70.9941 40.8471 70.9828 41.1991 70.9719 41.3377C73.3265 41.5216 77.0373 40.0964 78.7243 38.2423L78.6285 38.2102ZM70.4856 21.6793C71.0396 21.7226 71.1781 21.7334 71.6788 21.8299C72.2433 21.9479 72.3711 21.9907 72.765 22.1938L74.4357 23.4649C74.7129 23.3798 74.9051 23.1241 75.204 22.8684L75.9725 22.1653C75.9725 22.1653 75.9832 22.1333 76.0259 22.112L76.282 21.8776C76.282 21.8776 76.2927 21.8456 76.3034 21.8136C76.3034 21.8136 76.3142 21.7817 76.3249 21.7497L77.5738 20.5671C77.7551 20.45 77.5738 20.5671 77.7232 20.4393L78.4917 19.7361C78.4917 19.7361 78.5024 19.7041 78.5451 19.6829C78.7905 19.4805 78.5022 19.8108 78.78 19.4058C78.2478 19.0852 77.8543 18.6688 77.3542 18.2523C76.5775 17.6008 75.8425 17.4613 75.5764 17.301L73.9153 16.6379C73.2337 16.4452 70.9325 16.208 70.1119 16.2178C70.3128 17.1033 70.2551 19.5031 70.3077 19.8765C70.5191 20.8367 70.1786 20.5803 70.4431 21.5939L70.4856 21.6793ZM15.0424 16.2002C15.0623 16.9895 15.0822 17.7789 15.0913 18.6002L15.0564 20.1894C15.1303 20.6055 15.1408 20.6801 15.5776 20.7553C15.7053 20.7981 15.9931 20.7877 16.0996 20.7878L19.1579 20.7805C21.9072 20.7409 25.0609 20.979 27.7036 20.9392L31.9872 20.9865C31.9872 20.9865 31.9291 17.7653 32.0267 16.8374C32.0813 16.1442 31.6546 16.357 30.3549 16.2063L28.7563 16.3112C28.0424 16.3211 26.7746 16.181 26.0711 16.2656C25.0053 16.3711 20.69 16.2064 19.1343 16.1833C18.74 16.1936 18.1858 16.257 17.8342 16.2459C16.9285 16.1916 15.9693 16.2972 14.9785 16.1788L15.0424 16.2002ZM80.0003 16.3992L79.9703 21.1563C82.4209 21.2657 87.3012 21.335 89.8376 21.1885C90.4557 21.1465 90.7325 21.2748 91.3079 21.2541L94.1745 21.1825C94.6755 21.0658 94.0465 21.2464 95.0055 21.2475C95.5703 21.2587 95.8153 21.2697 96.3481 21.2703L101.878 21.3083L101.973 16.3593L99.1064 16.3241C96.6236 16.3108 94.0555 16.3399 91.4127 16.3797C90.0594 16.3889 88.7061 16.3981 87.4488 16.3327C87.1399 16.3004 85.7864 16.4162 85.3496 16.3411C84.7424 16.2444 84.9446 16.3833 84.4118 16.3827C83.8151 16.3607 82.8775 16.2957 82.2701 16.3057C81.4816 16.3262 80.9061 16.3469 80.011 16.3673L80.0003 16.3992ZM21.3247 36.2703C21.5092 34.4465 21.3477 29.5186 21.3516 27.3853C21.3434 26.0307 21.4315 24.4949 21.4128 23.0656C20.902 22.681 20.8696 22.8836 20.0918 22.8721L15.1796 22.7921L15.2499 30.9625C15.2262 32.3064 15.0546 38.7593 15.1812 39.4421C15.4025 40.797 14.2627 40.593 18.3119 40.5975C20.6562 40.6 21.2523 40.942 21.2967 39.9608C21.3076 39.8221 21.2868 39.5661 21.2764 39.3848L21.346 36.313L21.3247 36.2703ZM87.7555 40.9827L88.0111 41.0683C88.0111 41.0683 88.3415 41.0367 88.3734 41.0474C88.757 41.0692 88.8743 41.0373 89.2366 41.0164L93.1898 41.0953C93.6799 41.1172 93.7014 41.0532 94.0744 41.0003C93.8845 39.9761 94.1549 37.7899 94.0612 36.5845C93.9371 34.5151 94.3826 23.956 94.0853 23.3584C93.6589 23.4646 91.9434 23.388 91.2933 23.4193C90.3129 23.4822 88.8641 23.246 88.0966 23.4158C87.6809 23.49 87.7985 23.2448 87.7319 24.7167L87.7703 27.042C87.7483 27.4259 87.6846 27.2979 87.6519 27.7138L87.7271 33.2177C87.7691 33.5164 87.7378 33.1857 87.7372 33.5057C87.6606 34.5829 87.5412 35.788 87.6351 36.8868L87.6207 38.9453C87.7366 39.6601 87.4472 40.6304 87.7448 41.0147L87.7555 40.9827ZM58.8532 25.4317C58.6385 26.2848 58.5491 28.5673 58.5795 29.4313C58.599 30.4339 58.809 32.1408 59.0735 33.1543C59.3804 34.36 60.0378 36.1099 60.8139 37.0814C61.622 38.0636 61.7387 38.3517 62.941 39.3237C62.941 39.3237 62.973 39.3344 63.0049 39.3451L63.7606 39.8472C64.8038 40.4457 67.3277 41.2911 68.649 41.2712L68.4885 35.8099C67.4874 35.5101 67.0619 35.083 66.3918 34.4316C66.0939 34.154 66.1578 34.1754 65.9667 33.7912C65.5843 33.1295 65.4672 33.0547 65.3198 32.1159C65.1725 31.0704 65.1291 31.5184 65.0036 30.1956C64.8678 28.6915 64.8384 27.2942 65.2354 25.7907C65.4501 24.9377 65.9743 23.7969 66.5402 23.1682C68.0556 21.9326 66.8285 22.8379 68.1193 22.0607C68.0587 20.226 67.9981 18.3914 67.9375 16.5567C67.5752 16.5776 67.2448 16.6093 66.9464 16.6516C65.7099 16.8423 64.5475 17.3423 63.4913 18.0558C60.5466 20.0578 59.6903 22.1901 58.8637 25.5064L58.8532 25.4317ZM43.5018 40.9237C43.3865 39.8889 43.4677 36.2518 43.2663 35.6863C42.8724 35.4832 42.4785 35.2801 42.0526 35.0663C41.8716 34.9701 41.7226 34.8846 41.6163 34.7779C41.1587 34.4467 40.755 33.7423 40.5429 33.2087C40.1611 32.227 39.7601 30.0294 39.901 28.7602C40.0977 26.0512 39.815 23.2884 42.4178 21.7766C42.7699 21.5743 42.6204 21.7021 42.8127 21.4464C42.7837 19.8357 42.7546 18.2251 42.7576 16.6252C42.726 16.4011 43.0254 15.8255 41.181 16.3461C39.4539 16.8349 38.0565 17.612 36.733 18.8052C35.0885 20.7446 34.1039 23.0474 33.7691 25.5323C33.1749 29.9582 33.7607 35.9532 37.6023 38.8053C39.3049 40.0871 41.4774 40.8148 43.5232 40.8597L43.5018 40.9237ZM16.5932 1.3865C16.6992 1.7066 16.5718 1.45047 16.8484 1.68543C16.9655 1.76023 17.0506 1.82431 17.1889 1.94179L17.7739 2.52908C19.3583 4.37607 20.3179 4.05713 23.1202 4.17752C23.8873 4.22103 24.6015 4.10448 25.2728 4.11588C25.5498 4.13751 25.9123 4.00992 26.2108 3.96758L27.415 3.8729C29.0993 3.51209 31.9768 3.30191 33.5428 3.50628C34.3205 3.62446 38.5191 3.50106 39.883 3.56655C40.3731 3.58842 40.5757 3.51398 40.9593 3.53573C41.2043 3.54666 41.6518 3.58981 42.0354 3.61157C42.7813 3.61238 43.6445 3.58133 44.2519 3.57132C45.6905 3.51957 48.3652 3.49049 49.5689 3.7158L50.2934 3.78059L54.491 4.1905C57.006 4.10792 62.3345 3.79376 64.5183 4.16947C65.69 4.38407 66.7772 4.2146 68.0026 4.26927C69.132 4.29184 70.4746 4.31464 71.4979 4.12377L75.3035 3.37062C76.7955 3.26559 76.2631 3.05169 77.5314 2.87175L80.4411 2.56561C81.0699 2.49163 80.9102 2.43813 81.2193 2.3638L82.8405 1.55494C83.0433 1.37384 83.2566 1.2674 83.0651 1.09654C83.0651 1.09654 83.0331 1.08584 83.0012 1.07513C82.799 0.936252 82.1914 1.05292 81.4457 0.945439C81.1048 0.902401 81.1685 1.03047 80.9234 1.01953C79.7618 1.09292 78.3981 0.920773 77.0766 1.04732C69.5641 1.09244 62.1687 1.21235 54.6882 1.26816C47.7085 1.31386 40.6967 1.45552 33.7172 1.39456C33.0032 1.40444 32.2254 1.39293 31.3302 1.41328C30.7228 1.42328 30.1156 1.32662 29.6041 1.36873C27.4729 1.3664 17.0516 1.291 16.6998 1.38661L16.5932 1.3865ZM51.0136 17.8608C51.0136 17.8608 50.8539 17.8073 50.7795 17.7112C50.7795 17.7112 50.7475 17.7005 50.7156 17.6898L50.375 17.4335C48.6397 16.5676 47.0633 16.1819 45.1562 16.0411C44.9312 16.7129 44.9955 16.521 45.058 17.289L45.1891 21.353C45.8599 21.6844 45.9243 21.3858 46.9568 22.0162C47.0527 22.0483 47.0846 22.059 47.1378 22.1124L48.1482 23.1268C49.5403 25.2296 49.3366 31.7784 48.5988 33.1322C47.8718 34.454 47.3911 35.1468 45.6853 35.5716C45.5989 36.2542 45.6604 37.5555 45.7017 38.2809C45.7705 41.4701 45.2488 41.2242 48.2443 40.5555C48.5108 40.5025 48.6281 40.4706 48.8307 40.3962L50.2171 39.7577C50.6118 39.5342 50.8358 39.3958 51.1132 39.2041C51.6573 38.8527 52.8102 37.7446 53.2588 37.1478C55.4061 34.1316 55.3033 32.1049 55.3845 28.4678C55.4196 26.7719 55.2109 24.3185 54.7876 22.7181C54.5758 21.9712 54.2363 21.1815 53.5241 20.2315C53.3328 19.9539 53.1627 19.7191 52.9714 19.4416C52.2058 18.5448 52.3864 18.8543 51.4926 18.128C51.2692 17.9464 51.3331 17.9678 51.035 17.7968L51.0136 17.8608Z" fill="#F59C00"/>
</svg>
