<svg width="111" height="97" viewBox="0 0 111 97" fill="none" xmlns="http://www.w3.org/2000/svg">
<g clip-path="url(#clip0_307_5582)">
<path fill-rule="evenodd" clip-rule="evenodd" d="M26.9417 82.5947C29.6608 82.1893 38.8675 72.1005 41.2527 69.5962C43.0415 67.7359 45.2836 66.6626 43.9002 64.4922C42.193 65.5312 40.6895 66.8729 39.4638 68.4514L30.2809 77.2761C28.7306 78.8979 26.727 79.6611 26.9417 82.6186V82.5947Z" fill="#A47809"/>
<path fill-rule="evenodd" clip-rule="evenodd" d="M25.1747 72.2232C26.8443 72.2232 26.7966 72.0562 30.4698 68.5025C32.211 66.8329 34.0714 65.6643 34.4053 62.9453C31.3284 62.9453 30.0643 65.3304 28.6571 66.666C27.2498 68.0016 24.7215 69.4565 25.1747 72.2232Z" fill="#A47809"/>
<path fill-rule="evenodd" clip-rule="evenodd" d="M38.461 83.1466C40.9893 83.1466 43.5891 78.9966 46.4513 76.2538C47.7631 75.0135 48.5502 74.9658 48.431 72.6523C45.855 72.9624 38.3179 80.6184 38.461 83.1466Z" fill="#A47809"/>
<path fill-rule="evenodd" clip-rule="evenodd" d="M54.1791 40.7634C53.559 42.8623 53.9406 42.3853 55.6579 44.8657L67.0829 61.0125C69.2057 58.6274 67.3452 57.9358 62.1694 50.4706C60.786 48.4671 56.0157 39.9048 54.1791 40.7634Z" fill="#A47809"/>
<path fill-rule="evenodd" clip-rule="evenodd" d="M79.2484 68.7642C75.289 70.0522 70.5425 67.7387 66.0345 63.851C60.2094 58.6096 55.4057 52.3343 51.8667 45.343C50.2322 42.3766 49.1265 39.1484 48.599 35.8028C48.2651 33.7278 48.0265 32.2491 44.7112 27.5267C42.9223 24.9747 41.1334 22.375 39.3684 19.7991C36.9832 16.2216 34.4311 12.644 31.9267 9.11412L31.3065 8.1124C30.2571 6.75292 29.4938 5.72735 30.2332 4.32017C31.1634 2.48368 32.3083 2.19747 33.5486 2.81759C35.5044 3.81931 37.6511 7.20608 39.3684 9.97274C39.917 10.8552 40.4417 11.69 40.8949 12.3578C43.5901 16.2454 47.4303 21.6595 51.6758 27.6221C62.266 42.5764 75.3844 61.0128 79.5107 68.3349L79.6538 68.5973H79.3676L79.2484 68.7642ZM101.24 79.6639C102.368 79.2455 103.593 79.1557 104.771 79.4047C105.948 79.6538 107.031 80.2316 107.894 81.0711C108.654 82.0215 109.036 83.2191 108.968 84.434C108.964 85.7333 108.662 87.0143 108.085 88.1785C107.117 90.0633 105.641 91.6403 103.825 92.7317C102.009 93.8231 99.9238 94.3856 97.805 94.3558H15.4929C10.7225 94.3558 7.43102 94.4989 4.49726 90.9929C3.38956 89.4703 2.6395 87.7176 2.30291 85.865C2.11441 84.8161 2.11441 83.7419 2.30291 82.6929C2.43219 81.7691 2.88933 80.9226 3.5909 80.3079C4.00045 79.8762 4.50757 79.549 5.0697 79.3538C9.48226 78.4952 9.98314 80.6418 10.5317 83.0268C10.9134 84.6487 11.3188 86.3659 13.227 87.1291C15.2782 87.94 63.554 87.7254 84.4957 87.63H92.6053C98.4489 87.63 98.8783 86.1512 99.6177 83.5277C99.9356 82.2804 100.392 81.0725 100.977 79.9263V79.807L101.24 79.6639ZM37.6988 85.865H33.7632C23.5547 86.1751 21.7659 86.1989 21.7659 73.1527C21.7659 60.1065 23.674 60.5835 33.6917 60.5835H37.6988H60.2863C63.5596 64.4578 67.6811 67.5263 72.3314 69.5513C73.8757 70.2418 75.5629 70.5523 77.2519 70.4569C78.9408 70.3615 80.5823 69.8628 82.039 69.0027L76.41 60.8936L76.1954 60.5835H81.8005C85.3544 60.5835 87.668 61.1321 88.956 62.5869C90.244 64.0418 90.888 66.3315 90.888 69.8614C90.888 71.1016 90.888 72.1271 90.888 73.105C90.888 83.3369 91.0072 85.8412 80.3694 85.8412L37.6988 85.865ZM58.2589 58.9617H56.2315C51.008 58.9617 46.5 58.8424 42.6122 58.747C39.2491 58.747 36.3631 58.5562 33.8825 58.5801C22.9584 58.5801 19.9531 60.6312 20.0247 71.8648C20.0247 73.1527 20.0247 74.2498 20.0247 75.2754C19.5108 78.887 20.3612 82.5604 22.4099 85.5788L22.6722 85.9604H22.1952H20.454C18.3652 86.3427 16.2094 86.0764 14.2764 85.1972C13.6223 84.7426 13.0717 84.1549 12.6607 83.4725C12.2496 82.7902 11.9874 82.0288 11.8913 81.238C11.8226 80.406 11.4778 79.6208 10.9116 79.0072C10.3455 78.3935 9.59056 77.9867 8.76671 77.8513C7.61064 77.3616 6.33098 77.2431 5.10466 77.5123C3.87834 77.7815 2.76594 78.425 1.92128 79.3538C1.03186 80.4385 0.469332 81.7538 0.299372 83.1461C0.125796 84.6858 0.271956 86.2448 0.728701 87.7254C1.32048 89.8722 2.54888 91.7894 4.25203 93.2242C5.95517 94.6591 8.05312 95.5442 10.2694 95.763H84.3526C85.6883 95.763 87.191 95.763 88.7652 95.8822C94.9427 96.1446 102.313 96.4308 105.962 93.3541C108.041 91.3161 109.454 88.6971 110.017 85.8412C110.26 84.6809 110.317 83.4893 110.184 82.3113C110.067 81.2705 109.653 80.2852 108.991 79.4731C108.197 78.5767 107.119 77.9792 105.938 77.7797C105.089 77.5276 104.197 77.4483 103.316 77.5467C102.436 77.645 101.583 77.9189 100.81 78.3521C99.5947 79.2971 98.7504 80.6395 98.4251 82.1444C97.2087 86.3897 95.8014 86.2943 90.9357 85.8889H90.3155H89.8623L90.1247 85.5311C92.7961 81.7627 92.7245 79.7355 92.5099 75.5139C92.5099 74.4645 92.5099 73.3197 92.5099 71.9602C92.6142 69.4888 92.3652 67.0153 91.7705 64.6142C91.4943 63.622 91.0144 62.6981 90.3615 61.9015C89.7085 61.1048 88.8968 60.4529 87.9781 59.9872C86.6438 59.5529 85.2543 59.312 83.8517 59.2717C81.4666 59.0571 78.7236 58.9617 75.4798 58.9378H75.3367L45.2836 16.0069C44.258 14.552 41.8013 10.4974 39.273 7.01528C37.5318 4.63022 34.7173 -0.402231 31.1396 1.315C30.5072 1.61505 29.9399 2.03645 29.4699 2.55523C28.7889 3.23963 28.3745 4.14456 28.3012 5.10723C27.9911 7.70694 32.0459 13.0018 36.4346 18.7259C40.8233 24.45 45.9753 31.2474 46.8817 35.9221C47.7099 39.8159 49.083 43.5736 50.9603 47.0841C53.0593 51.1514 55.5774 54.9882 58.4736 58.5324L58.8075 58.9378L58.2589 58.9617Z" fill="#A47809"/>
<path d="M83.7793 60.5822H76.4568H76.2899H76.1468C74.7414 59.7394 73.5304 58.6087 72.5931 57.2646C71.6558 55.9204 71.0136 54.3931 70.7086 52.7831C70.0475 50.1713 69.9338 47.451 70.3747 44.7932C70.802 42.1445 71.9583 39.667 73.7139 37.638C74.8407 36.4097 76.2125 35.4312 77.7408 34.7657C79.269 34.1002 80.9199 33.7625 82.5867 33.7743C84.4855 33.6827 86.3866 33.9002 88.2157 34.4182C89.8276 34.8845 91.3175 35.6986 92.5806 36.8033C93.2789 37.4337 93.8887 38.1558 94.3933 38.9498C95.3217 40.4368 95.8553 42.1361 95.9437 43.8869C95.9757 45.7483 95.322 47.5564 94.1071 48.967C93.627 49.5133 93.0635 49.9802 92.4375 50.3504C91.3021 51.0421 90.0347 51.4889 88.7166 51.6621C87.4743 51.8704 86.199 51.747 85.0196 51.3044L81.0841 49.7303H85.282C86.1988 49.58 87.0386 49.1265 87.6671 48.4423C87.9668 48.1286 88.1912 47.7509 88.3235 47.3377C88.4557 46.9245 88.4923 46.4867 88.4304 46.0573C88.3043 45.613 88.0708 45.2065 87.7506 44.8738C87.4303 44.541 87.033 44.2922 86.5938 44.1492C85.4558 43.7087 84.2214 43.577 83.0161 43.7676H82.8014C82.0754 43.8859 81.3838 44.1605 80.7743 44.5723C80.1648 44.9841 79.652 45.5233 79.2713 46.1527C78.4663 47.6738 78.2134 49.427 78.5558 51.1136C78.8869 52.9669 79.6196 54.7252 80.7024 56.2653C81.5064 57.6203 82.6931 58.7073 84.1132 59.3897L83.7793 60.5822ZM76.6238 58.865L80.8217 59.0558C80.1984 58.4379 79.639 57.7587 79.1521 57.0285C77.932 55.2825 77.1172 53.2862 76.7669 51.1851C76.3681 49.119 76.6967 46.9784 77.6971 45.1271C78.1999 44.3101 78.874 43.6119 79.6729 43.0807C80.4718 42.5495 81.3764 42.198 82.3244 42.0504H82.539C84.0438 41.8155 85.5841 41.9884 86.9993 42.5513C87.693 42.7868 88.3153 43.195 88.8077 43.7375C89.3 44.2799 89.6463 44.9387 89.8138 45.6518V45.8188C89.8956 46.4901 89.8337 47.1711 89.6322 47.8167C89.4307 48.4623 89.0942 49.0577 88.645 49.5633C88.4658 49.7505 88.2746 49.9257 88.0726 50.088H88.5496C89.6378 49.9441 90.6849 49.5788 91.6265 49.0147C92.1126 48.7215 92.5476 48.3509 92.9145 47.9176C93.8645 46.8107 94.3739 45.3929 94.3456 43.9346C94.3198 42.3824 93.8747 40.8661 93.0576 39.5461C92.656 38.88 92.1484 38.2839 91.5549 37.7812C90.48 36.8436 89.2086 36.159 87.8341 35.7777C86.1641 35.3238 84.4355 35.1229 82.706 35.1814C81.2607 35.1749 79.8298 35.4682 78.5037 36.043C77.1776 36.6177 75.9852 37.4613 75.0019 38.5205C73.4437 40.343 72.4274 42.5656 72.0681 44.9363C71.6677 47.3644 71.7732 49.8491 72.3782 52.2346C72.6249 53.5847 73.1432 54.8706 73.9017 56.0144C74.6602 57.1583 75.6431 58.1362 76.7908 58.8889L76.6238 58.865Z" fill="#A47809"/>
</g>
<defs>
<clipPath id="clip0_307_5582">
<rect width="109.98" height="95.1874" fill="white" transform="translate(0.298828 0.957031)"/>
</clipPath>
</defs>
</svg>
