<svg width="29" height="27" viewBox="0 0 29 27" fill="none" xmlns="http://www.w3.org/2000/svg">
<path fill-rule="evenodd" clip-rule="evenodd" d="M16.8899 16.9015C17.0186 16.9015 17.126 16.8801 17.2118 16.8372C17.2976 16.7942 17.3835 16.7513 17.4479 16.6655C17.5552 16.5367 17.641 16.408 17.684 16.2577C17.7269 16.129 17.7054 16.0001 17.641 15.8714C17.5552 15.6997 17.3405 15.4851 17.1259 15.3134C16.9113 15.1203 16.6752 14.97 16.525 14.8627L14.8296 13.6179L14.8081 13.5965C14.7008 13.5106 14.5506 13.4033 14.4218 13.2745C14.3145 13.1672 14.2286 13.06 14.1857 12.9741C14.1213 12.8454 14.057 12.7165 14.0355 12.5878C13.9926 12.459 13.9711 12.3088 13.9711 12.0942V6.10642C13.9711 5.69865 13.9067 5.44112 13.7779 5.31235C13.6492 5.18358 13.4346 5.14062 13.1126 5.14062C12.4688 5.14062 12.4688 5.76306 12.4688 6.47129V6.55709L12.4473 10.9567V11.3859C12.4259 12.2444 12.4044 13.5321 12.7907 13.9398L12.941 14.0901L13.0912 14.2403C13.3058 14.4335 14.014 14.9915 14.7437 15.528C15.409 16.0217 16.1172 16.5367 16.4606 16.7513C16.5465 16.8157 16.6323 16.8586 16.7182 16.8801C16.7611 16.8801 16.8255 16.9015 16.8899 16.9015Z" fill="black"/>
<path fill-rule="evenodd" clip-rule="evenodd" d="M18.1566 25.2742C19.6804 24.6518 21.0968 23.7075 22.3416 22.4842L22.3845 22.4413L22.5133 22.3125L22.7494 22.055C22.8781 21.9262 22.9854 21.7974 23.1142 21.6472L23.2215 21.497C23.522 21.1322 23.8439 20.66 24.1444 20.1878C24.4448 19.7157 24.7238 19.2435 24.917 18.8357C25.0672 18.5353 25.1745 18.2348 25.2174 17.9988C25.2389 17.7842 25.2174 17.6125 25.1316 17.5266C25.0243 17.4193 24.917 17.3335 24.7882 17.2691C24.6809 17.2262 24.5521 17.1832 24.4234 17.1832C24.0371 17.1832 23.8654 17.4622 23.6722 17.8056L23.6293 17.8914L23.4361 18.2348C22.7923 19.3937 22.3201 20.2093 21.1827 21.3468C20.0881 22.4413 18.8434 23.2568 17.5128 23.7933C16.1178 24.3728 14.6584 24.6518 13.1775 24.6518C11.6967 24.6518 10.2158 24.3728 8.8423 23.7933C7.51169 23.2353 6.24548 22.4198 5.17241 21.3253C4.07787 20.2307 3.26231 18.986 2.70431 17.6554C2.12485 16.2604 1.84587 14.7796 1.84587 13.3202C1.84587 11.8393 2.12485 10.3585 2.70431 8.98492C3.26231 7.65431 4.07785 6.3881 5.15092 5.31502C5.23677 5.22918 5.34409 5.12186 5.42993 5.03601C5.53724 4.95017 5.64455 4.84287 5.73039 4.77849L5.75187 4.757H5.77332C5.92355 4.67116 6.07379 4.54238 6.24548 4.41361C6.61032 4.11315 7.10393 3.72687 8.177 3.16887C8.94961 2.80403 9.74369 2.50358 10.5592 2.31043C11.3962 2.11727 12.2332 2.00993 13.0702 2.00993H13.4565C14.6155 2.05286 15.7529 2.24603 16.8689 2.63234C17.942 2.99718 18.9721 3.53372 19.9164 4.24195L19.9594 4.28485C20.0023 4.32777 20.0452 4.34927 20.0881 4.39219C20.1096 4.41366 20.1311 4.43509 20.1525 4.43509H20.174L20.1954 4.45658C20.3457 4.58535 20.5173 4.7141 20.6461 4.84287C20.7963 4.97164 20.9251 5.10041 21.0754 5.25064C21.2471 5.42233 21.4187 5.61547 21.569 5.7657L21.6334 5.83008C22.406 6.71 22.9211 7.46114 23.2859 8.23375C23.6508 9.00637 23.9083 9.82195 24.1873 10.8306C24.359 11.4316 24.4233 12.2256 24.4019 12.848L22.8781 11.3672C22.0626 10.6589 20.9681 11.5388 21.7407 12.4617L25.0457 15.7668L28.544 12.2685C28.7586 12.0539 28.8873 11.8608 28.9088 11.6676C28.9303 11.4959 28.8873 11.3242 28.7586 11.1311C28.6942 11.0452 28.5869 10.9379 28.4581 10.8735C28.3293 10.8092 28.222 10.7662 28.1147 10.7877C27.7284 10.8091 27.385 11.174 27.0846 11.4959C26.9987 11.5818 26.9129 11.6891 26.827 11.775L26.4193 12.2041L26.2047 12.4403L26.0974 12.1398C25.9686 11.7535 25.9042 11.41 25.8398 11.0452C25.7969 10.8306 25.7754 10.616 25.711 10.4014C25.5393 9.65023 25.3033 8.89908 24.9813 8.19085C24.6809 7.48263 24.316 6.79583 23.8653 6.15199L23.6078 5.74428C23.5434 5.63697 23.5005 5.59399 23.4576 5.55107C23.4147 5.50814 23.3717 5.44379 23.2644 5.31502C22.921 4.84287 22.4704 4.32777 21.9768 3.87707C21.4402 3.38346 20.8393 2.91134 20.3028 2.56795L20.1096 2.46061L20.0238 2.41771C18.9936 1.7524 17.8776 1.25883 16.7401 0.915443C15.5383 0.550598 14.315 0.378906 13.0702 0.378906C12.8556 0.378906 12.6196 0.378862 12.4264 0.400323C12.2118 0.400323 11.9972 0.421827 11.7825 0.443288H11.7611H11.4606L10.2588 0.614951H10.2158L10.1729 0.636434L10.0871 0.657851L10.0012 0.679333C9.91539 0.700795 9.87246 0.700815 9.85099 0.700815C9.80807 0.700815 9.76516 0.722253 9.70078 0.743715C9.42178 0.829561 9.14276 0.915396 8.8423 1.00124C8.5633 1.08709 8.28432 1.19438 8.02679 1.32315L7.40439 1.66654C7.18977 1.77385 6.97517 1.88121 6.78202 1.98852C6.5674 2.09583 6.37423 2.22456 6.15962 2.35333L6.0094 2.46061C5.64456 2.69668 5.27971 2.97574 4.93633 3.25474C4.59294 3.53374 4.27101 3.83416 3.94908 4.15608C2.70432 5.40085 1.7815 6.81733 1.15912 8.3411C0.515273 9.92925 0.171875 11.6032 0.171875 13.2987C0.171875 14.9942 0.493812 16.6681 1.15912 18.2563C1.7815 19.7801 2.7258 21.218 3.97057 22.4413C5.21533 23.6861 6.63179 24.6089 8.15555 25.2528C9.7437 25.9181 11.4177 26.24 13.1131 26.24C14.8945 26.2614 16.5685 25.9395 18.1566 25.2742Z" fill="black"/>
</svg>
