<svg width="96" height="97" viewBox="0 0 96 97" fill="none" xmlns="http://www.w3.org/2000/svg">
<g clip-path="url(#clip0_307_5600)">
<path d="M47.8991 96.0825C31.5375 96.0825 17.067 91.6775 12.4135 85.3453L12.1798 84.9429C11.8702 84.4865 11.6001 84.0048 11.3723 83.5028L5.31641 72.342H5.65639C6.39841 72.9624 7.1791 73.5354 7.99376 74.0574L12.7748 82.9098C12.9504 83.3198 13.1564 83.7162 13.391 84.0958C17.5133 90.2374 31.6863 94.5153 47.8566 94.5153C62.7309 94.5153 76.1601 90.8304 81.3236 85.3241C82.1367 84.5293 82.7674 83.5684 83.1723 82.5074L88.8882 73.3586C89.8891 72.6652 90.8212 71.878 91.6718 71.0078H92.2668L84.7022 83.0792C84.2346 84.3108 83.5103 85.4296 82.5773 86.3618L82.3861 86.6583C76.7339 92.3975 63.2621 96.0825 48.0479 96.0825H47.8991Z" fill="#017089"/>
<path d="M47.8982 83.7397C36.5176 83.9595 25.1938 82.0857 14.495 78.2123C5.33676 74.5485 0.300781 69.5929 0.300781 64.256C0.300781 58.9192 5.33676 53.9635 14.495 50.3209C16.5792 49.4988 18.7074 48.7918 20.8697 48.2031C20.7238 48.7537 20.6103 49.3124 20.5297 49.8762C18.6386 50.448 16.8324 51.0621 15.1325 51.7398C6.63294 55.1495 1.89445 59.5969 1.89445 64.256C1.89445 68.9152 6.54795 73.3837 15.175 76.7934C25.6595 80.5754 36.75 82.4128 47.8982 82.2149C59.0753 82.4266 70.1961 80.5889 80.7065 76.7934C89.206 73.3837 93.9445 68.9363 93.9445 64.256C93.9445 59.5757 89.2485 55.1495 80.7065 51.7398C79.0066 51.0621 77.2004 50.448 75.3093 49.8762C75.3093 49.3044 75.118 48.7538 74.9906 48.2031C77.1541 48.7876 79.2825 49.4947 81.3652 50.3209C90.5235 53.9635 95.5595 58.9192 95.5595 64.256C95.5595 69.5929 90.5235 74.5485 81.3652 78.2123C70.6471 82.0962 59.3005 83.9703 47.8982 83.7397Z" fill="#017089"/>
<path d="M47.8991 75.3718C27.0752 75.3718 10.7773 68.6372 10.7773 60.0602C10.7773 56.354 13.9434 52.8173 19.6806 50.0642C20.1171 47.222 21.1486 44.503 22.7081 42.084C24.2676 39.665 26.3202 37.6 28.7326 36.0232L29.0089 36.5103C28.6283 37.1066 28.3216 37.7466 28.0952 38.4163C26.1855 39.8985 24.5899 41.7437 23.4008 43.8449C22.2118 45.9461 21.4528 48.2615 21.168 50.6572V51.0807L20.7643 51.2713C15.3034 53.855 12.3285 56.9046 12.3285 60.0602C12.3285 67.536 28.6051 73.8258 47.8991 73.8258C67.1931 73.8258 83.4697 67.4724 83.4697 60.0602C83.4697 56.9046 80.4736 53.7068 74.9702 51.2713L74.6727 51.0807V50.6572C73.674 40.0682 61.9234 31.7452 47.9416 31.7452C44.3327 31.7483 40.7469 32.3201 37.3172 33.4395C36.8205 33.3344 36.3158 33.2706 35.8085 33.2489L35.3835 32.5077C39.4138 30.9755 43.6919 30.1931 48.0054 30.1993C62.5821 30.1993 74.8639 38.9034 76.2239 50.0642C81.9611 52.8173 85.1059 56.4176 85.1059 60.0602C85.1059 68.6372 68.808 75.3718 48.0054 75.3718H47.8991Z" fill="#017089"/>
<path d="M33.5119 54.5511C32.0797 53.4576 30.8254 52.1504 29.7933 50.6755C26.521 45.9952 25.8623 40.3618 28.1147 36.5074L11.3918 7.62073C11.096 7.11317 10.9034 6.55252 10.8251 5.97078C10.7467 5.38905 10.784 4.79762 10.935 4.23027C11.0859 3.66292 11.3475 3.13076 11.7048 2.66416C12.0621 2.19757 12.5081 1.80569 13.0174 1.51089C13.5266 1.21609 14.0891 1.02415 14.6728 0.94602C15.2565 0.867894 15.8499 0.905114 16.4192 1.05556C16.9884 1.206 17.5224 1.46671 17.9905 1.82282C18.4587 2.17892 18.8519 2.62345 19.1477 3.131L36.1468 32.526C38.2355 32.8166 40.2384 33.5466 42.0225 34.6675C43.8066 35.7884 45.3311 37.2747 46.495 39.0276C48.4582 41.7473 49.5071 45.0167 49.491 48.3671V49.2354C48.9749 49.193 48.4561 49.193 47.9399 49.2354C47.961 48.9322 47.961 48.6279 47.9399 48.3247C47.9693 45.2865 47.0238 42.3184 45.2413 39.8536C44.184 38.2243 42.7787 36.8479 41.1257 35.8228C39.4727 34.7977 37.6129 34.1492 35.6793 33.9237H35.2543L17.809 3.91458C17.5483 3.45053 17.1647 3.06682 16.7 2.80538C16.2353 2.54393 15.7074 2.41481 15.1741 2.43213C14.6581 2.43339 14.1519 2.57233 13.7079 2.83451C13.0485 3.23825 12.5744 3.88382 12.3877 4.63236C12.2009 5.3809 12.3164 6.17259 12.7092 6.83714L29.9208 36.4863L29.6658 36.8675C27.541 40.1712 28.0722 45.3386 31.0683 49.7225C32.3892 51.6584 34.1513 53.2551 36.2105 54.3816L34.8718 55.3135L33.5119 54.4875V54.5511Z" fill="#017089"/>
<path d="M56.0585 65.9058C55.9436 65.9027 55.8308 65.8746 55.728 65.8233C55.6252 65.7721 55.5349 65.699 55.4635 65.6093C55.0754 65.0536 54.5699 64.5893 53.9826 64.249C53.3952 63.9088 52.7403 63.7008 52.0637 63.6397C50.3582 63.7331 48.7469 64.4494 47.5377 65.6516C47.3968 65.7977 47.2034 65.882 47.0002 65.8859C46.797 65.8899 46.6005 65.8132 46.454 65.6728C46.3074 65.5324 46.2229 65.3397 46.2189 65.1372C46.2149 64.9346 46.2918 64.7388 46.4327 64.5927C47.9458 63.0723 49.9805 62.1794 52.1274 62.0938C53.0271 62.1643 53.9003 62.4302 54.6859 62.8729C55.4714 63.3156 56.1503 63.9243 56.6747 64.6563C56.7978 64.8178 56.8533 65.0205 56.8295 65.222C56.8058 65.4234 56.7045 65.6078 56.5472 65.7364C56.4059 65.8421 56.2351 65.9013 56.0585 65.9058Z" fill="#017089"/>
<path d="M74.0565 58.4093C73.9428 58.4118 73.8301 58.3882 73.7269 58.3405C73.6238 58.2928 73.533 58.2221 73.4615 58.134C73.0705 57.5793 72.5646 57.1146 71.9782 56.7712C71.3917 56.4278 70.7382 56.2137 70.0617 56.1432C68.3427 56.2689 66.7308 57.0231 65.5357 58.261C65.3948 58.4071 65.2015 58.4913 64.9983 58.4953C64.795 58.4993 64.5985 58.4226 64.452 58.2822C64.3055 58.1418 64.2209 57.9491 64.2169 57.7465C64.213 57.544 64.2899 57.3482 64.4308 57.2021C65.9364 55.6709 67.9756 54.776 70.1255 54.7031C71.0158 54.7639 71.8826 55.0147 72.6672 55.4385C73.4517 55.8624 74.1357 56.4494 74.6727 57.1598C74.7363 57.2387 74.7836 57.3294 74.8116 57.4267C74.8397 57.524 74.848 57.6259 74.8362 57.7264C74.8243 57.827 74.7925 57.9242 74.7425 58.0123C74.6926 58.1005 74.6255 58.1778 74.5452 58.2398C74.4089 58.3545 74.2348 58.4149 74.0565 58.4093Z" fill="#017089"/>
<path d="M25.3531 61.033C25.2392 61.0372 25.1259 61.0144 25.0225 60.9666C24.9191 60.9187 24.8285 60.8471 24.7582 60.7577C24.3679 60.1975 23.8595 59.7291 23.2686 59.3852C22.6776 59.0414 22.0184 58.8304 21.3371 58.767C19.6196 58.8985 18.0097 59.6518 16.8111 60.8848C16.6702 61.0308 16.4769 61.1151 16.2736 61.1191C16.0704 61.123 15.8739 61.0464 15.7274 60.906C15.5809 60.7656 15.4963 60.5729 15.4923 60.3703C15.4884 60.1678 15.5653 59.9719 15.7062 59.8259C17.2057 58.2743 19.242 57.3504 21.4008 57.2422C22.2998 57.3059 23.1735 57.5668 23.9596 58.0061C24.7457 58.4454 25.4247 59.0524 25.9481 59.7835C26.0117 59.8624 26.059 59.9532 26.087 60.0505C26.1151 60.1478 26.1234 60.2497 26.1116 60.3502C26.0997 60.4508 26.0679 60.5479 26.0179 60.6361C25.9679 60.7242 25.9009 60.8016 25.8206 60.8636C25.7581 60.9216 25.6844 60.9665 25.6041 60.9956C25.5238 61.0248 25.4385 61.0375 25.3531 61.033Z" fill="#017089"/>
<path d="M24.779 60.6754C24.7057 60.602 24.6487 60.5141 24.6116 60.4174C24.5745 60.3207 24.5581 60.2173 24.5635 60.114C24.5689 60.0106 24.596 59.9095 24.643 59.8171C24.69 59.7248 24.7559 59.6433 24.8364 59.578C24.917 59.5126 25.0103 59.4647 25.1105 59.4375C25.2108 59.4102 25.3156 59.4042 25.4183 59.4198C25.521 59.4354 25.6192 59.4723 25.7068 59.528C25.7943 59.5838 25.8691 59.6572 25.9264 59.7435C26.2429 60.1425 26.6723 60.4375 27.1589 60.5907C27.736 60.77 28.3469 60.8135 28.9438 60.7177C31.2174 60.4001 32.2798 58.4093 33.3848 56.3339C33.7885 55.5715 34.2135 54.7879 34.7235 54.0043C35.4646 52.9217 36.3511 51.9455 37.3583 51.1029C38.3651 50.234 39.4968 49.5201 40.7156 48.9851C42.0567 48.4381 43.4772 48.1091 44.9229 48.011C46.3443 47.8826 47.7769 47.9682 49.1727 48.2651C50.0651 48.4557 50.9151 48.6887 51.7863 48.9428C53.9539 49.6766 56.2334 50.0278 58.5222 49.9805L60.8808 49.8111C61.8158 49.7052 62.5595 49.5993 63.0057 49.5146C63.1838 49.5074 63.3585 49.5641 63.4981 49.6745C63.6377 49.7849 63.7329 49.9416 63.7664 50.116C63.7998 50.2905 63.7693 50.4711 63.6804 50.625C63.5915 50.7789 63.4501 50.8959 63.2819 50.9547C62.8782 50.9547 62.092 51.1453 61.1571 51.2512C60.2221 51.3571 59.5846 51.3994 58.6922 51.4418C56.1824 51.5245 53.678 51.1587 51.2976 50.3617C50.4476 50.1288 49.6189 49.8746 48.7902 49.7052C47.5415 49.4351 46.2578 49.3636 44.9867 49.4934C43.7274 49.6005 42.4935 49.908 41.3319 50.4041C40.2537 50.8706 39.2455 51.4835 38.3358 52.2254C37.4262 52.9823 36.6317 53.8669 35.9771 54.8514C35.5232 55.5355 35.1048 56.2424 34.7235 56.9692C33.4273 59.3623 32.1948 61.6707 29.1988 62.0943C28.3739 62.2332 27.5274 62.1678 26.7339 61.9037C25.9854 61.6646 25.3216 61.2162 24.8215 60.6118L24.779 60.6754Z" fill="#017089"/>
</g>
<defs>
<clipPath id="clip0_307_5600">
<rect width="95.1737" height="95.1737" fill="white" transform="translate(0.300781 0.910156)"/>
</clipPath>
</defs>
</svg>
