<svg width="19" height="24" viewBox="0 0 19 24" fill="none" xmlns="http://www.w3.org/2000/svg">
<path fill-rule="evenodd" clip-rule="evenodd" d="M6.65249 2.09737C5.86226 2.09737 4.62046 2.07479 4.34952 2.1651C4.19148 2.21026 4.05601 2.30058 3.9657 2.3909C3.87539 2.48121 3.80766 2.61668 3.76251 2.75215C3.73993 2.84246 3.73992 3.1134 3.71734 3.38433C3.71734 3.67785 3.71735 3.99396 3.73993 4.10685C3.7625 4.24232 3.83024 4.37775 3.92055 4.49064C4.01087 4.60353 4.14632 4.69387 4.28179 4.73903C4.485 4.82934 4.80109 4.80674 5.11719 4.78416C5.70421 4.76158 6.3364 4.73899 6.83312 5.19055C6.99117 5.3486 7.12664 5.50667 7.23953 5.70987C7.46531 6.11627 7.53304 6.5904 7.48788 7.04196C7.44273 7.49352 7.2621 7.9225 6.96858 8.2386C6.85569 8.37406 6.69765 8.48699 6.56218 8.55472C6.08804 8.80308 5.52359 8.78049 4.95914 8.75792C4.55274 8.73534 4.1689 8.71274 3.87539 8.80305C3.58187 8.89336 3.35609 9.07399 3.15289 9.29977C2.92711 9.5707 2.76906 9.9094 2.65617 10.2481C2.49813 10.8125 2.49813 11.6931 2.52071 12.4381C2.52071 12.6413 2.52071 12.8446 2.52071 13.0026V17.2924C2.52071 17.4279 2.52071 17.6537 2.52071 17.8569C2.49813 18.6019 2.49813 19.4147 2.65617 20.0017C2.74648 20.363 2.92711 20.7242 3.15289 20.9952C3.33352 21.2209 3.5593 21.4016 3.83024 21.4919C4.14633 21.5822 7.26209 21.5596 8.7974 21.5596H9.54248H11.5293C12.8163 21.5596 14.1258 21.5596 15.4128 21.5596C15.7966 21.5596 16.0901 21.4241 16.3159 21.1984C16.5642 20.9726 16.7223 20.6791 16.8352 20.3856C17.1061 19.7082 17.1061 19.0309 17.1061 18.2632V17.8117V13.5444C17.1061 13.3187 17.1061 13.0477 17.1287 12.7542C17.1739 11.3318 17.219 9.66103 16.1127 8.96111C15.7289 8.71275 15.187 8.73529 14.6677 8.78045C14.2613 8.80303 13.8775 8.82563 13.4936 8.73532C13.2679 8.66758 13.0646 8.57728 12.9066 8.46439C12.5228 8.19345 12.297 7.78707 12.2067 7.35809C12.1164 6.92911 12.139 6.50011 12.2293 6.13886C12.297 5.8905 12.3873 5.66472 12.5002 5.50667C12.6131 5.34863 12.7486 5.21315 12.9292 5.07769C13.0872 4.98737 13.2679 4.89703 13.4936 4.82929C13.8775 4.73898 14.2387 4.76158 14.5548 4.78416C15.0289 4.80674 15.4353 4.85193 15.7514 4.40037C15.9095 4.17459 15.9095 3.85845 15.9095 3.4972V3.22627C15.9095 2.97791 15.8869 2.79727 15.8417 2.63922C15.7966 2.50375 15.7063 2.39088 15.5934 2.30056C15.345 2.09736 15.0967 2.09737 14.7128 2.09737H14.5096H7.19436H6.65249ZM2.58844 5.41634C2.34008 5.07767 2.15946 4.67127 2.1143 4.21971C2.09173 4.06166 2.09172 3.72298 2.09172 3.36173C2.09172 3.04564 2.11431 2.70696 2.13689 2.57149C2.15947 2.34571 2.2272 2.14251 2.31752 1.93931C2.40783 1.71353 2.54328 1.5329 2.65617 1.37486C2.97226 0.968453 3.31094 0.742681 3.71734 0.607213C4.10117 0.471744 4.57532 0.449219 5.2075 0.449219H11.6874H12.7711C13.4936 0.449219 14.2161 0.449219 14.9386 0.449219C15.7514 0.449219 16.4062 0.720125 16.8803 1.19426C17.3319 1.6684 17.5802 2.30058 17.5802 3.02308V3.3166C17.5802 3.76816 17.6028 4.21969 17.4674 4.6261C17.3319 5.05508 17.1061 5.43895 16.79 5.73247C16.4739 6.02598 16.0901 6.22916 15.6611 6.34205C15.1644 6.45494 14.7128 6.43236 14.3742 6.40978C14.0355 6.3872 13.8323 6.3872 13.8323 6.54524C13.8097 6.99681 13.8097 7.08712 14.0807 7.1097C14.2161 7.1097 14.3742 7.1097 14.5999 7.1097C14.8032 7.1097 15.0289 7.1097 15.2999 7.1097C16.0224 7.1097 16.632 7.2903 17.1513 7.65155C17.6706 8.01279 18.0996 8.55467 18.3705 9.20944C18.7769 10.1351 18.7769 10.8351 18.7769 11.8737V12.1446V17.4053C18.7769 17.6085 18.7769 17.7891 18.7769 17.9697C18.7995 18.8277 18.7995 19.7534 18.5737 20.4984C18.4382 20.95 18.2576 21.3564 18.0318 21.6951C17.806 22.0563 17.5351 22.3499 17.2416 22.5757C16.4514 23.2078 15.8192 23.2078 14.7354 23.2078H14.4645H4.75593C4.23663 23.2078 3.80766 23.2079 3.40125 23.095C2.97227 22.9821 2.58845 22.7789 2.15947 22.3725C1.88853 22.1241 1.64018 21.7854 1.43697 21.379C1.25635 21.0178 1.09829 20.5888 0.985403 20.1372C0.849935 19.4824 0.849945 18.4664 0.872523 17.6085C0.872523 17.3827 0.872523 17.1569 0.872523 16.9312V11.7156C0.872523 11.1286 0.895086 10.6545 0.96282 10.2255C1.05313 9.77391 1.18862 9.36754 1.43697 8.91598C1.6176 8.55473 1.88853 8.21605 2.2272 7.92254C2.52072 7.6516 2.88196 7.4484 3.26579 7.29036C3.71735 7.13231 4.10118 7.1323 4.57532 7.1323H4.77851C4.93656 7.1323 5.09461 7.1323 5.23008 7.1323H5.45586C5.70422 7.1323 5.8171 7.10973 5.8171 6.9291C5.8171 6.47754 5.79452 6.40978 5.63647 6.40978H5.43328C5.34296 6.40978 5.23008 6.40978 5.11719 6.40978H4.98172C4.43985 6.40978 4.0786 6.40979 3.58188 6.20659C3.24321 6.07112 2.85938 5.80017 2.58844 5.41634Z" fill="black"/>
</svg>
