<svg width="273" height="314" viewBox="0 0 273 314" fill="none" xmlns="http://www.w3.org/2000/svg">
<g clip-path="url(#clip0_310_529)">
<path d="M173.223 44.6157C172.741 44.6157 157.168 46.7058 156.285 46.545C155.402 46.3843 132.763 43.0079 132.202 42.4452C129.278 42.0228 126.323 41.8614 123.371 41.9629C123.371 41.9629 117.27 41.159 117.109 40.9178C116.949 40.6766 117.109 39.1492 117.109 39.1492C117.109 39.1492 121.525 31.1103 123.853 27.9751C126.468 22.5953 128.539 16.9668 130.034 11.1738C130.034 10.6111 126.1 8.03864 125.057 8.11903C124.013 8.19942 120.722 11.3346 118.876 11.8973C117.029 12.46 113.818 18.5696 113.336 19.2127C112.855 19.8558 110.928 27.2516 110.366 28.9398C109.933 31.1644 109.718 33.426 109.724 35.6925L108.44 38.265C108.44 38.265 106.513 41.4805 105.871 42.4452C102.219 48.7697 98.9746 55.3214 96.1571 62.0601C94.2738 67.5303 92.1033 72.8971 89.6547 78.138C88.2483 78.3186 86.8203 78.0662 85.5606 77.4145C84.2984 76.8466 82.9304 76.553 81.5467 76.553C80.163 76.553 78.795 76.8466 77.5328 77.4145C75.6062 78.7811 52.085 100.325 51.5231 100.406C50.9611 100.486 37.6351 118.734 36.5113 120.101C35.3874 121.468 14.2745 156.357 13.7126 157.16C13.1506 157.964 3.59766 181.277 3.59766 181.277C3.78091 182.535 4.16015 183.755 4.72154 184.895C5.36375 185.618 29.206 204.269 30.3299 204.831C31.4538 205.394 63.8055 230.395 64.0463 230.958C64.2871 231.52 88.5308 247.598 89.173 248L111.651 261.264L121.525 266.168C121.525 266.168 125.057 263.596 127.224 261.666C129.392 259.737 140.55 248.563 142.076 246.392C143.601 244.222 178.682 200.973 179.485 200.973C180.288 200.973 213.442 158.206 213.683 158.045L226.367 141.967C224.804 133.599 222.102 125.484 218.339 117.85C217.2 116.855 215.993 115.942 214.726 115.117C213.683 115.117 188.476 95.2609 188.476 95.2609C188.476 95.2609 189.84 91.9649 190.483 90.1963C191.125 88.4278 192.811 80.9516 193.614 77.0929C192.737 70.4793 190.813 64.0478 187.914 58.0407C187.512 56.2721 177.317 44.5353 177.317 43.9726C177.317 43.4099 174.106 44.6157 173.625 44.6157H173.223Z" fill="#FEFEFE"/>
<path d="M160.459 65.5948C160.106 63.8939 160.406 62.1225 161.298 60.6329C162.191 59.1433 163.611 58.0448 165.275 57.5559C165.649 57.4747 166.038 57.517 166.386 57.6765C166.733 57.8359 167.019 58.1039 167.202 58.4402C167.38 58.5467 167.536 58.6887 167.657 58.8574C167.779 59.0261 167.865 59.218 167.911 59.4213C167.956 59.6246 167.959 59.8349 167.92 60.0395C167.881 60.244 167.8 60.4384 167.683 60.6107C166.78 62.3992 165.704 64.0954 164.472 65.6752C164.442 65.9154 164.442 66.1585 164.472 66.3987C164.071 67.6849 162.706 67.5241 161.984 66.8006C161.694 66.7248 161.43 66.5731 161.218 66.3612C161.007 66.1492 160.855 65.8847 160.78 65.5948H160.459Z" fill="#141E1F"/>
<path d="M91.1796 233.131C90.4325 231.943 89.7621 230.708 89.1727 229.433C89.1727 228.71 89.1727 227.745 88.5305 227.022C87.8882 226.298 87.5671 225.575 87.1658 224.771C86.7644 223.967 85.3194 222.118 85.4799 220.349C85.4799 220.349 85.4799 219.947 85.0786 219.706C84.6772 219.465 85.0785 219.304 84.5969 219.063C84.1152 218.822 84.5969 216.973 84.5969 216.089H85.6405C85.6245 216.356 85.6245 216.625 85.6405 216.893C85.7208 216.144 85.7208 215.39 85.6405 214.642C85.5955 214.1 85.6653 213.555 85.8451 213.043C86.0249 212.53 86.3108 212.062 86.6841 211.667C88.2094 209.899 89.8149 208.211 91.5007 206.522C92.5923 205.363 93.7446 204.263 94.9526 203.226C95.1604 203.153 95.3871 203.153 95.5948 203.226C97.1997 202.633 98.8342 202.123 100.492 201.699C101.015 201.538 101.574 201.538 102.097 201.699C106.05 203.047 109.782 204.97 113.176 207.407C117.619 210.149 121.74 213.385 125.458 217.053C128.683 220.485 131.025 224.651 132.281 229.192C132.648 230.415 132.575 231.727 132.077 232.901C131.578 234.076 130.685 235.039 129.552 235.623C129.039 235.925 128.555 236.275 128.107 236.668L124.334 239.241C123.852 239.241 122.969 239.241 122.568 239.964C121.27 240.989 119.803 241.778 118.233 242.296C115.513 243.699 112.387 244.098 109.403 243.421C107.315 242.858 105.389 242.054 103.301 241.652C100.552 241.059 97.9717 239.85 95.7554 238.115C94.8709 237.55 94.0845 236.844 93.4274 236.025C92.6246 234.98 91.9021 233.855 91.1796 232.729V233.131Z" fill="#141E1F"/>
<path d="M151.387 85.6154C151.173 85.7498 150.93 85.8317 150.678 85.8544C150.426 85.877 150.173 85.8398 149.938 85.7458C149.703 85.6518 149.494 85.5036 149.327 85.3133C149.161 85.123 149.041 84.896 148.979 84.6507C147.855 80.0685 148.979 74.5217 154.678 73.8785C155.561 72.11 158.21 73.155 157.488 74.9236L154.357 81.3547C153.811 83.0386 152.777 84.5217 151.387 85.6154Z" fill="#141E1F"/>
<path d="M116.465 77.4951C116.856 77.3662 117.278 77.3662 117.67 77.4951C118.553 77.4951 119.436 78.7009 118.874 79.5852C118.722 79.982 118.464 80.3297 118.129 80.5906C117.794 80.8515 117.394 81.0157 116.972 81.0653C116.551 81.115 116.123 81.0483 115.737 80.8724C115.351 80.6965 115.019 80.4182 114.78 80.0675C113.816 78.8617 115.261 77.4147 116.465 77.8166V77.4951Z" fill="#141E1F"/>
<path d="M129.15 52.0906C128.848 51.9883 128.585 51.7937 128.399 51.5341C128.213 51.2745 128.113 50.9631 128.113 50.6436C128.113 50.3241 128.213 50.0127 128.399 49.7531C128.585 49.4935 128.848 49.2989 129.15 49.1966C129.38 48.8987 129.688 48.6713 130.04 48.5401C130.392 48.409 130.774 48.3795 131.142 48.4548C131.51 48.5302 131.849 48.7075 132.122 48.9665C132.394 49.2256 132.588 49.5559 132.682 49.9201C133.164 52.0906 130.676 52.7337 129.07 52.0906H129.15Z" fill="#141E1F"/>
<path d="M97.0387 176.857C97.0387 172.436 96.3965 168.095 96.557 163.674C96.5155 158.89 97.3874 154.142 99.1259 149.686C100.156 147.104 101.687 144.751 103.629 142.764C105.572 140.778 107.889 139.196 110.445 138.11C113.817 136.582 117.188 135.216 120.64 134.01C122.306 133.462 124.03 133.111 125.778 132.965C126.581 132.965 127.383 132.965 128.186 132.965C131.269 132.304 134.483 132.671 137.338 134.01C133.9 133.72 130.442 134.215 127.223 135.457H129.15C129.15 135.457 129.631 136.1 129.872 136.181H134.368H132.361L135.973 136.582H134.849L135.491 137.226L134.608 137.949C135.17 138.673 135.572 139.316 135.893 139.798L135.331 140.522C135.331 140.522 135.973 141.165 136.294 141.245C137.121 141.4 137.875 141.822 138.441 142.446C139.006 143.07 139.352 143.862 139.425 144.702C139.405 144.407 139.405 144.112 139.425 143.817C139.425 143.817 139.826 144.461 139.425 144.782C139.508 146.094 139.508 147.41 139.425 148.721C139.425 150.811 138.783 152.901 138.462 154.992C138.375 156.611 137.966 158.196 137.258 159.654C136.531 160.834 136.04 162.145 135.813 163.513C135.622 164.728 135.155 165.883 134.448 166.889C134.421 167.076 134.421 167.265 134.448 167.452C133.882 169.15 133.011 170.73 131.879 172.114C130.113 174.044 128.828 176.455 126.26 177.501L123.53 178.546C121.122 179.51 118.714 180.555 116.225 181.44C115.049 181.52 113.869 181.52 112.693 181.44C109.655 182.045 106.545 182.208 103.461 181.922C101.984 181.898 100.556 181.39 99.3961 180.475C98.2359 179.56 97.4077 178.289 97.0387 176.857Z" fill="#141E1F"/>
<path d="M85.2385 299.771C85.1444 299.394 85.1714 298.997 85.3155 298.636C85.4596 298.276 85.7135 297.969 86.0413 297.761C88.2358 296.958 90.5333 296.47 92.8648 296.314C93.7564 295.866 94.7735 295.733 95.7502 295.937C96.727 296.142 97.6058 296.671 98.2434 297.44C98.2874 297.733 98.2874 298.031 98.2434 298.324C98.4465 298.869 98.4465 299.468 98.2434 300.012C98.1403 300.225 97.981 300.404 97.7828 300.532C97.5845 300.66 97.3551 300.73 97.1195 300.736C95.8716 302.652 94.0427 304.118 91.9015 304.916C91.0613 305.175 90.1717 305.229 89.3063 305.076C88.4408 304.922 87.6243 304.564 86.9243 304.032C86.3232 303.466 85.848 302.78 85.5299 302.018C85.2117 301.257 85.0577 300.436 85.0779 299.61L85.2385 299.771Z" fill="#141E1F"/>
<path d="M9.77834 168.819C7.80755 173.13 6.48211 177.708 5.84476 182.405C4.88177 189.85 4.88177 197.389 5.84476 204.834C6.56726 210.943 7.61086 217.053 8.33335 223.163C9.05585 229.272 9.77834 235.784 10.3403 242.134C10.7417 245.993 10.9825 250.173 11.3036 253.871C11.4399 254.625 11.6832 255.356 12.0261 256.042C12.5881 257.02 13.0713 258.041 13.4711 259.096C14.0296 260.913 14.4589 262.766 14.7555 264.643C15.478 270.11 16.2808 275.657 16.8427 281.284C17.0959 286.932 16.746 292.592 15.7991 298.166C15.2674 302.021 13.9268 305.719 11.8655 309.018C11.2233 310.144 10.4206 310.465 9.45723 309.581C8.44079 308.656 7.71548 307.455 7.37003 306.124C6.16587 301.542 5.04199 296.879 4.23922 292.217C3.43645 287.554 3.35617 282.088 2.79424 277.104C2.39285 273.808 2.07174 270.512 1.99146 267.296C1.71852 264.542 2.18987 261.766 3.35617 259.257C4.23922 257.73 5.28282 256.202 6.24615 254.675C6.24615 254.675 6.72781 253.871 6.64754 253.55C6.64754 251.058 6.64754 248.565 6.16587 246.154C5.20255 238.115 4.15895 230.558 3.11534 222.841C2.63368 219.465 2.07174 216.088 1.83091 212.712C1.34925 205.397 0.707031 198.403 0.707031 191.328C0.878074 181.664 2.86617 172.119 6.56726 163.192C7.26755 161.935 8.19275 160.818 9.29668 159.896C9.69806 159.414 10.5008 159.173 10.6614 158.771C10.7976 158.323 11.0463 157.918 11.3837 157.594C11.721 157.271 12.1357 157.039 12.588 156.922L9.77834 168.819Z" fill="#141E1F"/>
<path d="M131.318 265.282C132.201 268.095 133.084 270.748 133.967 273.321L139.507 289.399C141.266 293.14 142.327 297.172 142.637 301.296C142.637 301.296 142.637 302.02 142.637 302.1C142.002 302.369 141.295 302.421 140.627 302.246C139.959 302.072 139.368 301.681 138.945 301.135C138.222 299.608 137.58 298.161 137.018 296.634L129.151 276.617C127.866 273.24 126.421 269.864 125.057 266.407L130.997 265.121L131.318 265.282Z" fill="#141E1F"/>
<path d="M109.725 263.195C109.467 263.096 109.191 263.055 108.915 263.077C108.64 263.099 108.373 263.183 108.135 263.321C107.896 263.46 107.691 263.651 107.536 263.88C107.38 264.108 107.278 264.369 107.236 264.642C107.236 266.893 106.434 269.063 105.952 271.234C104.908 276.218 103.784 281.122 102.741 286.106C102.018 289.161 101.376 292.376 100.573 295.431C100.573 296.798 99.1284 298.084 98.8072 299.45C98.4861 300.817 97.6031 301.058 96.4792 300.817C95.3553 300.576 93.9103 300.335 93.8301 298.727C93.791 298.138 93.791 297.547 93.8301 296.958C94.5526 293.904 95.1948 290.929 95.9173 287.955C97.7062 281.25 99.0207 274.426 99.8509 267.536C99.9322 265.303 100.394 263.101 101.216 261.024C101.829 259.82 102.314 258.553 102.661 257.246L109.725 263.597V263.195Z" fill="#141E1F"/>
<path d="M47.1072 136.661H51.121C51.16 136.476 51.16 136.284 51.121 136.098L47.1072 136.581V136.661ZM23.6663 197.998C27.1182 200.41 30.4096 202.982 33.7812 205.474C39.4809 209.815 45.1805 214.317 50.9605 218.578C56.7404 222.838 60.674 225.411 65.4906 228.868C70.3073 232.324 75.1239 236.103 79.9405 239.64C86.3207 244.386 93.0572 248.633 100.09 252.341C104.345 254.672 108.118 257.245 112.694 259.657L120.24 263.435C120.882 263.435 121.444 263.917 121.765 263.033C121.883 262.767 122.079 262.543 122.327 262.39C125.625 260.159 128.574 257.45 131.077 254.351C131.88 253.386 132.522 252.341 133.325 251.537C134.128 250.733 135.974 249.206 137.178 247.92C139.988 244.865 142.797 241.81 145.206 238.675C147.614 235.54 180.929 194.943 184.461 190.442C186.468 188.03 188.234 185.457 190.081 182.965C189.416 182.856 188.738 182.856 188.074 182.965C186.669 183.583 185.152 183.902 183.618 183.902C182.085 183.902 180.567 183.583 179.163 182.965C175.239 181.648 171.612 179.572 168.486 176.856C166.413 174.967 164.456 172.953 162.626 170.827C161.926 170.081 161.397 169.191 161.078 168.218C160.759 167.246 160.657 166.215 160.78 165.199C160.689 164.332 160.444 163.488 160.057 162.707C159.943 162.313 159.943 161.895 160.057 161.501C160.179 160.77 160.34 160.045 160.539 159.331C160.838 158.424 160.974 157.472 160.94 156.517C161.192 155.383 161.626 154.297 162.225 153.302L163.67 149.684C162.225 149.282 162.144 148.88 162.867 147.835C163.589 146.79 164.874 144.62 165.998 143.012C167.111 141.711 168.105 140.312 168.968 138.832C170.573 134.812 173.945 135.295 176.996 135.536C181.701 136.004 186.263 137.426 190.402 139.716C192.248 140.841 194.014 142.128 195.78 143.333C199.041 145.98 201.766 149.228 203.808 152.9C205.228 155.557 206.05 158.493 206.216 161.501C206.255 162.01 206.255 162.52 206.216 163.029H206.939C212.398 155.553 219.141 147.594 224.279 141.565C224.279 139.877 224.841 138.108 224.279 136.34C223.573 133.503 222.436 130.792 220.907 128.301C219.623 125.648 218.338 122.995 216.813 120.262L215.448 118.091L198.51 104.747H198.108H197.386L190.723 100.245C189.689 101.22 188.456 101.961 187.11 102.415C182.822 106.127 177.364 108.205 171.697 108.284C168.784 108.483 165.86 108.483 162.947 108.284C159.289 108.291 155.654 107.694 152.19 106.515C150.812 106.257 149.509 105.698 148.371 104.878C147.233 104.058 146.29 102.998 145.607 101.772C143.581 97.9246 140.119 95.0349 135.974 93.7334C132.494 93.2097 128.977 92.9678 125.458 93.0099L119.517 93.4922C113.53 93.9086 107.514 93.5574 101.615 92.4472C100.928 92.3736 100.254 92.2114 99.6084 91.9649C98.5648 91.4825 98.1634 91.9649 97.8423 92.9295C96.3973 98.0744 94.8721 103.219 93.2665 108.284C91.8411 112.382 89.571 116.134 86.6035 119.297C85.7585 120.102 84.7808 120.755 83.7135 121.227C83.3754 121.343 83.0081 121.343 82.6699 121.227C80.8236 120.744 76.1675 117.529 75.7661 114.474C75.3647 111.419 75.0436 110.535 74.9633 108.525C74.7232 105.529 74.7232 102.518 74.9633 99.5214C75.8324 94.7785 77.6629 90.2642 80.3419 86.2572C81.0644 85.2122 82.0277 84.2475 82.8305 82.8809C82.3488 82.8809 81.7869 82.8809 81.4658 82.8809C78.0139 85.6945 74.562 88.5081 71.1903 91.4825C66.6748 95.1596 62.3604 99.0775 58.2657 103.219C54.2522 107.654 50.474 112.296 46.9466 117.127C44.6989 120.021 42.6117 123.075 40.5245 126.13L33.7009 136.259C33.6894 136.42 33.6894 136.581 33.7009 136.742C34.5664 136.635 35.4244 136.473 36.2698 136.259C43.2628 134.298 50.5713 133.724 57.784 134.571C62.6663 135.149 67.401 136.621 71.7523 138.912C72.9592 139.521 74.0686 140.306 75.0436 141.243C75.9483 142.023 76.5373 143.107 76.7 144.292C76.8626 145.476 76.5876 146.679 75.9267 147.675C74.6677 149.189 73.6643 150.9 72.9564 152.739C72.4532 155.149 71.6155 157.476 70.4678 159.652C69.6395 161.17 68.4885 162.488 67.0962 163.511C63.5061 166.234 59.6617 168.603 55.6166 170.585C50.8806 172.523 45.9167 173.847 40.8456 174.524C37.4847 175.164 34.0714 175.487 30.6504 175.489C28.4866 175.316 26.3686 174.773 24.3888 173.881C23.5057 173.881 22.9438 172.595 22.3016 171.791C21.6594 170.987 21.3382 170.505 20.8566 169.862C20.7026 169.537 20.6468 169.173 20.696 168.817C20.696 166.325 20.1341 163.752 19.9735 161.26C20.0003 160.323 20.1905 159.398 20.5355 158.527C20.5355 157.562 21.0974 156.598 21.4185 155.633H21.0171C20.1341 157.241 19.251 158.849 18.5285 160.456C16.9375 163.388 15.8519 166.568 15.3175 169.862C15.063 170.756 14.6556 171.599 14.1133 172.354C12.9986 174.195 12.4151 176.31 12.4275 178.464C12.4275 179.75 11.3036 180.714 10.5811 181.76C9.82213 182.713 9.20061 183.768 8.73474 184.895C8.73474 184.895 8.73474 185.618 9.13613 185.779C13.4083 190.435 18.1726 194.613 23.3452 198.239L23.6663 197.998ZM192.248 84.8102C189.919 86.7001 187.794 88.8286 185.906 91.161C184.583 93.2013 183.632 95.4603 183.097 97.8333L183.98 97.3509C187.851 94.0712 190.648 89.7019 192.007 84.8102H192.248ZM190.964 70.501C190.198 68.3894 189.313 66.3228 188.315 64.311C184.639 79.5401 175.783 93.0127 163.268 102.415C168.294 102.572 173.305 101.781 178.039 100.084C178.797 95.9183 180.492 91.9799 182.995 88.5675C185.499 85.155 188.746 82.3581 192.489 80.3888C192.536 77.1095 192.02 73.8464 190.964 70.7421V70.501ZM178.601 50.4841C178.324 54.4068 177.625 58.2881 176.514 62.0601C176.514 62.0601 176.514 62.0601 176.915 62.0601L182.936 67.7677C183.993 64.9781 184.799 62.0994 185.344 59.1661C183.351 56.0608 181.067 53.1536 178.521 50.4841H178.601ZM175.872 82.6397C178.135 78.989 180.12 75.1732 181.812 71.2244C179.725 69.3755 177.718 67.3658 175.711 65.4364C174.197 69.8874 172.177 74.1492 169.69 78.1379C171.858 79.5849 173.865 81.0319 175.872 82.6397ZM159.816 91.7237L165.998 95.4216C168.959 92.2249 171.644 88.7827 174.025 85.1318C172.018 83.6044 170.011 82.077 167.924 80.7104C165.504 84.5614 162.821 88.2411 159.896 91.7237H159.816ZM152.431 99.2803C153.989 100.517 155.72 101.519 157.568 102.255C159.67 100.896 161.632 99.3346 163.429 97.5921L157.408 93.9746C155.695 95.8503 153.929 97.6189 152.11 99.2803H152.431ZM113.095 85.4533C114.615 86.096 116.265 86.3714 117.912 86.2572C118.975 86.2175 120.017 85.943 120.962 85.4533C122.359 84.6365 123.513 83.4604 124.303 82.047C125.094 80.6335 125.492 79.0341 125.458 77.4144C124.896 74.2792 120.882 72.3499 117.992 72.1087C116.365 72.1197 114.78 72.6253 113.447 73.5584C112.114 74.4915 111.095 75.8082 110.526 77.334C110.152 78.0339 109.922 78.8017 109.849 79.592C109.776 80.3823 109.862 81.1793 110.102 81.9359C110.341 82.6925 110.729 83.3935 111.243 83.9976C111.757 84.6017 112.387 85.0966 113.095 85.4533ZM152.029 51.6095H149.942H149.38L146.33 51.0468C146.014 52.8913 145.502 54.6968 144.804 56.4329C143.703 58.5518 141.961 60.2681 139.827 61.3366C137.422 62.8077 134.605 63.4566 131.8 63.1855C129.533 62.9994 127.337 62.3025 125.377 61.1471C123.417 59.9917 121.743 58.4076 120.48 56.5132C119.732 55.3237 119.289 53.9672 119.191 52.5645C119.092 51.1619 119.343 49.7567 119.919 48.4743C119.919 47.5097 120.802 46.6254 121.283 45.5803C119.153 44.9634 116.979 44.5065 114.781 44.2137C114.141 44.3752 113.558 44.7088 113.095 45.1784C109.286 49.833 106.201 55.0365 103.943 60.6131C102.258 64.5522 100.572 68.652 98.9662 72.5107C98.2298 74.5359 97.6132 76.6028 97.1198 78.7006C97.1198 79.5849 97.1198 80.3084 98.0831 80.7104C99.0465 81.1123 99.207 82.3985 99.207 83.4436V85.7749C99.207 85.7749 99.207 86.2572 99.6084 86.2572L107.636 87.3023C106.673 85.7749 105.87 84.6494 105.228 83.524C104.626 82.3217 104.09 81.0872 103.622 79.8261C103.06 78.7006 103.622 77.5752 103.622 76.4498C103.56 75.7029 103.657 74.9515 103.906 74.2448C104.155 73.5381 104.551 72.8923 105.067 72.3499C106.373 70.9313 108.082 69.9491 109.964 69.5363C111.008 69.5363 111.891 68.4912 112.934 68.0089C113.409 67.7389 113.924 67.5488 114.46 67.4462C118.397 67.1402 122.324 68.1587 125.618 70.3402C127.663 71.4083 129.488 72.8539 130.997 74.6008C131.603 75.3917 132.038 76.3009 132.273 77.27C132.508 78.2391 132.538 79.2466 132.361 80.228C131.96 81.9966 131.398 83.6848 130.916 85.4533C132.679 85.2935 134.452 85.2935 136.215 85.4533C136.716 85.3337 137.239 85.3337 137.74 85.4533C138.056 85.375 138.387 85.375 138.703 85.4533C141.211 86.258 143.508 87.6141 145.424 89.4223C147.341 91.2305 148.83 93.4451 149.782 95.9039C162.777 84.3466 171.301 68.5826 173.865 51.3683C166.963 54.4311 159.156 54.7472 152.029 52.2526V51.6095ZM132.522 45.2588C130.803 45.078 129.078 45.5345 127.672 46.5419C126.267 47.5492 125.279 49.0376 124.896 50.7252C124.681 51.2345 124.587 51.7861 124.618 52.3378C124.65 52.8895 124.808 53.4266 125.079 53.9078C125.35 54.389 125.728 54.8016 126.183 55.1139C126.639 55.4262 127.159 55.6299 127.705 55.7094C128.469 56.2754 129.307 56.7351 130.194 57.076C131.651 57.4269 133.186 57.206 134.485 56.4584C135.784 55.7108 136.748 54.4935 137.178 53.0565C137.488 52.1948 137.597 51.2737 137.498 50.3633C137.399 49.4529 137.094 48.577 136.607 47.8022C136.119 47.0273 135.462 46.3739 134.685 45.8914C133.907 45.4089 133.03 45.1101 132.121 45.0176L132.522 45.2588ZM81.9474 111.982C84.4653 109.26 86.3078 105.983 87.326 102.415C88.2893 99.1195 89.2527 95.9039 90.1357 92.608C91.0188 89.312 91.1793 88.1062 91.661 85.7749C84.8374 87.7846 78.8166 104.023 81.9474 111.982ZM231.183 133.526C231.395 134.854 231.772 136.151 232.306 137.385L232.708 138.349C232.673 138.508 232.673 138.673 232.708 138.832C232.708 138.832 232.708 139.475 232.708 139.796V140.198L229.978 145.986L224.921 152.016C221.87 155.713 218.82 159.331 215.689 162.948C213.682 165.28 211.515 167.45 209.508 169.862C207.501 172.274 204.209 176.454 201.48 179.75L188.957 195.828C185.425 200.49 182.053 205.233 178.601 209.896C175.149 214.558 173.062 217.211 170.172 220.829C167.282 224.446 163.67 228.868 160.298 232.967C156.926 237.067 153.314 241.006 149.782 244.945C146.249 248.884 144.804 250.653 142.236 253.467L138.463 257.808L134.368 262.229C132.683 263.756 130.916 265.525 129.07 267.133C127.644 268.602 125.711 269.469 123.667 269.559C121.623 269.649 119.621 268.953 118.072 267.615C115.343 265.927 112.372 264.641 109.563 263.194C106.753 261.747 103.703 260.059 100.813 258.37C97.9226 256.682 92.7849 254.029 89.4132 251.698C86.0416 249.367 81.3855 246.071 77.0505 243.177C72.7156 240.283 70.5481 238.193 67.1765 235.781C59.9515 230.556 52.566 225.411 45.3411 220.105C38.1162 214.799 30.8109 209.011 23.3452 203.465C18.2265 199.757 13.3467 195.73 8.73474 191.406L7.77142 190.683L1.67036 189.316C1.07532 187.916 0.748537 186.416 0.707031 184.895C0.707031 184.332 0.707031 183.608 0.707031 183.126C0.707031 182.644 0.707031 180.232 1.5098 178.946C2.31257 177.66 3.99839 174.364 5.04199 172.032C6.0856 169.701 7.85169 165.039 9.45723 161.662C11.3739 157.423 13.5177 153.29 15.8794 149.282C19.5721 143.092 23.9071 136.902 27.5196 130.793C31.132 124.683 36.9923 117.529 41.6483 110.937C45.4221 105.488 49.7245 100.425 54.4927 95.8235C58.2657 92.206 62.5204 88.8297 66.1329 85.3729C68.5412 83.2024 71.0298 81.0319 73.3578 78.781C75.6858 76.5301 74.3211 77.5752 73.3578 76.289C72.0944 74.8785 70.9404 73.3736 69.9059 71.7872C69.7887 71.5213 69.7281 71.2338 69.7281 70.9431C69.7281 70.6524 69.7887 70.3649 69.9059 70.099C69.9059 70.099 70.7889 70.099 71.2706 70.099L77.2914 71.7068L86.2021 74.6008L88.6104 75.4851C89.8146 72.6715 90.7779 69.9382 91.9821 67.4462C93.9087 63.0248 95.7551 58.6838 97.8423 54.3427C98.9667 51.823 100.254 49.3794 101.696 47.0273C103.462 44.2137 105.469 41.4805 107.315 38.9884C107.413 38.8027 107.465 38.5957 107.465 38.3855C107.465 38.1753 107.413 37.9683 107.315 37.7826C106.191 36.5767 104.907 35.5317 103.863 34.3258C102.819 33.12 99.6887 30.9495 98.5648 28.2967C97.5253 26.7565 96.992 24.9297 97.0395 23.0714C97.0395 23.0714 97.762 23.0714 97.8423 23.0714C97.9226 23.0714 99.6084 22.589 100.411 23.0714C102.103 23.6478 103.622 24.6433 104.826 25.9654C106.337 27.4719 107.975 28.8437 109.723 30.0652C109.659 29.3968 109.659 28.7239 109.723 28.0555C110.066 26.3468 110.495 24.6565 111.008 22.991C111.809 18.6854 114.079 14.7923 117.43 11.9777C118.955 11.013 120.159 9.56599 121.765 8.68171C124.655 6.91315 127.625 5.30536 131.157 7.9582C131.791 8.42819 132.313 9.03184 132.688 9.72643C133.062 10.421 133.28 11.1896 133.325 11.9777C133.468 14.718 133.03 17.4576 132.04 20.0166C130.099 25.94 127.4 31.5872 124.013 36.8179L121.925 40.1942C123.852 40.6766 125.698 41.1589 127.545 41.4805C129.391 41.802 131.639 42.0432 133.646 42.4451C135.653 42.8471 136.857 43.3294 138.463 43.5706L150.344 45.3392H151.789C159.178 45.6366 166.569 44.7961 173.704 42.8471L176.674 41.5609C176.887 41.4157 177.139 41.3381 177.397 41.3381C177.655 41.3381 177.906 41.4157 178.119 41.5609C178.335 41.3845 178.604 41.2882 178.882 41.2882C179.16 41.2882 179.43 41.3845 179.645 41.5609C185.933 47.4275 190.794 54.6604 193.854 62.7032C194.854 65.0292 195.608 67.4543 196.101 69.9382C197.261 75.9656 197.261 82.1592 196.101 88.1866C196.139 88.2756 196.158 88.3713 196.158 88.4679C196.158 88.5646 196.139 88.6602 196.101 88.7493C195.596 90.6388 194.897 92.4707 194.014 94.2158C196.262 95.9843 203.487 103.702 206.377 102.817C213.759 108.804 220.608 115.421 226.848 122.593L231.022 132.481L231.183 133.526ZM117.751 35.8532C117.603 35.1986 117.621 34.5172 117.803 33.8713C117.985 33.2254 118.326 32.6354 118.795 32.1553C121.048 28.9343 122.959 25.4855 124.494 21.8655C125.217 20.097 126.26 18.4892 126.983 16.7206C127.705 14.9521 127.866 14.1482 128.428 12.5404C125.647 13.4288 123.126 14.9847 121.083 17.0724C119.04 19.1601 117.538 21.7163 116.707 24.5184C115.603 27.4188 115.407 30.5875 116.145 33.6023C116.45 34.4257 116.855 35.2086 117.35 35.9336H117.751V35.8532Z" fill="#141E1F"/>
<path d="M199.954 121.548C202.925 118.493 203.727 117.126 211.113 119.297C213.697 120.342 216.39 121.097 219.141 121.548C226.394 123.313 233.926 123.614 241.297 122.432C245.428 121.075 249.135 118.665 252.054 115.438L257.593 109.329C257.377 109.025 257.188 108.702 257.031 108.364C256.89 108.076 256.816 107.76 256.816 107.439C256.816 107.119 256.89 106.802 257.031 106.515C258.948 104.099 261.19 101.962 263.694 100.164C264.372 99.0474 265.408 98.1933 266.632 97.7408C267.856 97.2883 269.198 97.2641 270.438 97.6721L271.481 98.476C272.024 98.992 272.39 99.6677 272.525 100.405C272.523 100.709 272.458 101.009 272.334 101.286C272.209 101.563 272.028 101.811 271.802 102.013C271.594 104.934 270.533 107.729 268.752 110.052C267.985 110.893 267.037 111.547 265.98 111.965C264.923 112.383 263.784 112.553 262.651 112.464C260.082 114.956 257.593 117.528 255.024 119.94C251.896 123.183 248.004 125.588 243.705 126.934C234.99 128.1 226.141 127.774 217.535 125.969C216.251 125.969 211.354 125.969 210.15 125.969C208.647 126.295 207.227 126.924 205.975 127.818C203.567 129.587 201.319 123.638 199.473 120.663L199.954 121.548Z" fill="#141E1F"/>
<path d="M166.158 282.89C166.96 282.407 171.456 284.578 170.974 285.221L164.391 293.983L178.681 285.221C179.323 285.221 183.818 286.748 183.417 287.552C183.184 288.209 182.916 288.853 182.614 289.482C184.621 287.391 186.548 285.301 188.635 283.211C189.518 282.407 193.211 284.337 193.612 285.301C194.106 287.374 194.153 289.529 193.752 291.621C193.35 293.714 192.509 295.698 191.284 297.44C206.376 288.035 223.395 279.594 240.574 286.105C242.421 286.829 244.909 289.16 241.377 287.874C222.432 280.719 201.239 296.556 186.227 306.202C185.504 306.685 181.009 304.675 181.41 303.871C183.979 299.691 186.259 295.34 188.234 290.848C183.83 295.501 179.677 300.385 175.791 305.479C175.149 306.283 170.492 304.032 170.814 303.228L175.389 292.456L156.765 303.871C156.043 304.354 151.547 302.022 151.948 301.46L157.969 293.421C153.49 296.909 149.228 300.667 145.205 304.675C144.242 305.72 139.987 302.746 140.308 302.505C148.046 294.777 156.829 288.174 166.398 282.89H166.158Z" fill="#141E1F"/>
<path d="M201.4 101.53C204.13 98.234 204.772 96.787 212.318 98.3144L258.156 84.407C257.85 84.1723 257.603 83.8696 257.434 83.5228C257.292 83.2352 257.219 82.9189 257.219 82.5983C257.219 82.2777 257.292 81.9614 257.434 81.6738C259.109 79.0996 261.136 76.7725 263.455 74.7603C264.035 73.5913 264.994 72.6533 266.174 72.0988C267.355 71.5442 268.688 71.4056 269.957 71.7056C270.392 71.8865 270.797 72.1303 271.161 72.4291C271.723 72.8763 272.118 73.4989 272.285 74.1976C272.341 74.5036 272.318 74.8188 272.22 75.1139C272.122 75.4089 271.951 75.6745 271.723 75.8858C271.859 78.9004 271.044 81.8813 269.395 84.407C268.709 85.3175 267.825 86.0589 266.809 86.5745C265.794 87.09 264.674 87.366 263.535 87.3814L212.639 105.951C211.188 106.405 209.829 107.112 208.625 108.041C206.378 110.051 203.648 104.344 201.561 101.53H201.4Z" fill="#141E1F"/>
</g>
<defs>
<clipPath id="clip0_310_529">
<rect width="272" height="314" fill="white" transform="translate(0.707031)"/>
</clipPath>
</defs>
</svg>
