<svg width="30" height="30" viewBox="0 0 30 30" fill="none" xmlns="http://www.w3.org/2000/svg">
<path d="M15.0688 0.515625C18.9988 0.515625 22.5737 2.12555 25.1543 4.7061C27.7348 7.28664 29.3447 10.8615 29.3447 14.7915C29.3447 18.7215 27.7348 22.2964 25.1543 24.8769C22.5737 27.4575 18.9988 29.0673 15.0688 29.0673C11.1388 29.0673 7.56393 27.4575 4.98339 24.8769C2.40284 22.2964 0.792969 18.7215 0.792969 14.7915C0.792969 10.8615 2.40284 7.28664 4.98339 4.7061C7.56393 2.12555 11.1388 0.515625 15.0688 0.515625ZM8.20315 19.4081H8.32153H10.547C10.618 18.7689 10.547 17.8456 10.547 17.2064C10.547 16.4961 10.4286 15.6911 11.2335 15.6674C12.3699 15.6438 11.8728 17.7035 11.9911 19.4081L14.3112 19.4318C14.4296 18.5085 14.3349 16.8038 14.3349 15.8095C14.3349 14.8862 14.0035 12.8739 15.0688 12.8975C16.0632 12.9212 15.7791 14.3653 15.7791 15.8095C15.7791 16.9932 15.7317 18.248 15.7791 19.4318H18.1229C18.2886 17.7035 17.7204 15.7148 18.8331 15.6674C19.9932 15.6201 19.4723 17.6088 19.5907 19.4081C19.6617 19.4081 19.8275 19.4318 19.9932 19.4318H21.461C21.6741 19.4318 21.8635 19.4081 21.9345 19.3844C21.9819 18.6978 21.8161 17.9165 22.6448 17.8929C23.5207 17.8929 23.3313 18.7689 23.4023 19.4081H27.0009C27.5454 17.9876 27.8532 16.425 27.8532 14.7915C27.8532 13.1579 27.5454 11.5717 26.9772 10.1513H3.06574C2.49755 11.5954 2.18977 13.1579 2.18977 14.7915C2.18977 16.425 2.49754 17.9639 3.04206 19.4081H6.64063C6.66431 19.0766 6.45123 17.8692 7.39822 17.8929C8.27419 17.8929 8.13213 18.6742 8.20315 19.4081ZM26.3617 20.8759H3.77599C4.36786 21.9886 5.12544 22.983 6.0014 23.8589C8.32153 26.1791 11.5176 27.6232 15.0688 27.6232C18.62 27.6232 21.8161 26.1791 24.1363 23.8589C25.0122 22.983 25.7698 21.9649 26.3617 20.8759ZM3.79965 8.68344H26.3617C25.7698 7.5944 25.0122 6.60006 24.1599 5.7241C21.8398 3.40397 18.6437 1.95982 15.0925 1.95982C11.5413 1.95982 8.34521 3.40397 6.02508 5.7241C5.12544 6.60006 4.39152 7.5944 3.79965 8.68344Z" fill="black"/>
</svg>
