<svg width="171" height="119" viewBox="0 0 171 119" fill="none" xmlns="http://www.w3.org/2000/svg">
<path fill-rule="evenodd" clip-rule="evenodd" d="M117.822 7.48465C117.963 8.19224 117.963 8.56962 117.775 9.18286C117.775 9.18286 117.775 9.23003 117.775 9.27721L115.89 12.4849C115.89 12.4849 115.796 12.1547 115.89 12.768C121.45 10.9754 126.774 8.89983 132.286 7.01292L135.302 5.97512C136.103 5.59774 137.281 5.40905 138.317 5.3147L142.181 5.78643C143.311 6.21098 144.489 6.91857 145.337 7.81485C145.714 8.19224 145.95 8.28658 146.233 8.75831C147.222 10.1735 148.4 14.3247 149.059 16.3059C149.436 17.4381 149.813 18.523 150.19 19.6552C150.803 21.5421 152.028 24.514 152.405 26.3065C153.206 30.269 154.054 28.9954 153.959 33.9485C153.959 34.3259 154.054 35.0335 154.101 35.4109C154.148 36.2128 154.619 37.8167 154.949 38.6186C156.409 41.8263 156.362 45.8832 157.964 49.2324C158.294 49.8929 158.388 49.94 158.718 50.5061C159.236 51.3552 159.755 51.7798 160.32 52.6289C160.885 53.4308 161.309 54.6573 161.357 55.6479C161.639 59.7991 161.592 57.4405 163.618 60.7426C164.042 61.403 164.513 62.3464 164.183 63.1012C164.183 63.1012 164.042 63.3371 164.042 63.4314L162.864 65.6485C162.252 66.2146 161.215 66.592 161.168 67.5354C161.121 68.3374 161.451 69.5639 161.404 70.4601C160.084 71.0262 155.42 72.347 153.63 72.9603L149.813 73.9981C146.798 74.7057 142.275 77.1587 140.249 77.6776C139.825 77.8191 139.825 77.8662 139.401 78.0078C138.317 78.4323 135.679 78.9984 134.501 79.1871L126.962 80.6022C125.643 80.8853 124.135 81.3098 122.769 81.8287C121.685 82.2533 120.508 83.0552 119.66 83.8572C119.047 84.4232 117.869 85.8384 117.257 86.2158C116.738 86.546 116.267 86.4988 115.608 86.8762C115.184 87.1121 114.477 87.3479 113.959 87.7725L113.582 88.0084C113.205 88.1499 113.158 88.2442 112.922 88.3386C112.31 88.5273 111.603 88.9046 111.085 89.0462C108.493 89.7066 105.855 91.0746 103.028 91.7822C102.934 92.0652 103.122 92.018 102.792 92.0652C101.803 92.2539 101.049 92.7256 100.012 93.103L94.2644 95.1314C93.9345 95.2258 93.9345 95.1314 93.4163 95.2729C93.0394 95.3673 92.898 95.5088 92.5211 95.6503C91.9557 95.839 91.3432 95.8862 90.7778 96.0277L85.1711 97.5844C81.4019 98.7637 78.6221 98.5279 73.675 100.839C72.45 101.405 71.5077 101.877 70.0471 102.396C67.5029 103.292 65.0529 104.189 62.4144 104.707C61.9904 104.802 62.0846 104.707 61.6606 104.943C61.1423 105.179 61.6606 104.991 61.0481 105.085C60.4827 105.179 59.5875 105.557 58.975 105.745C55.3942 106.972 55.0173 106.783 51.8606 108.906C51.1538 109.378 49.4106 110.415 48.751 110.698C48.2327 110.887 47.4317 111.123 46.9606 111.453C46.4423 111.831 46.3952 112.491 46.1125 112.68C45.7356 112.963 44.275 112.821 43.0971 113.246C40.9298 114 41.5423 114.991 38.6683 113.765L37.2077 113.246C36.6894 113.151 35.8414 113.529 35.4173 113.623C33.627 114.048 31.6952 114.331 29.8577 113.859C29.3866 113.765 29.0097 113.623 28.6798 113.482L27.5491 113.01C26.7952 112.444 26.0414 112.066 25.476 111.264C24.8164 110.321 24.3924 110.038 23.8741 108.811C23.3087 107.396 22.9789 107.019 22.5077 105.981C22.0837 105.038 21.9895 103.858 21.5183 102.726C20.9529 101.358 19.8693 99.7543 19.351 98.4335C18.7385 96.7825 17.9376 95.7447 17.3722 93.9521C17.0895 93.0087 16.7597 91.735 16.477 90.6972C16.3356 90.1311 16.2885 89.5651 16.1943 89.282C15.9587 88.6216 15.8645 88.2914 15.7231 87.631C15.5818 87.1121 15.3462 86.7819 15.1106 86.1215C14.3568 84.1402 11.2472 80.9796 10.8703 76.1209C10.7289 74.1868 10.2578 72.1583 10.1635 70.1771C10.0693 68.7147 8.42027 63.9503 7.61931 62.2521C7.24239 61.4502 7.47796 61.3558 7.2895 60.8369C6.81835 59.4689 6.01739 57.9122 6.11162 56.4499C6.11162 56.1668 6.11162 55.2705 6.20585 55.0818C6.58277 53.7138 7.76065 51.5911 8.79719 50.6948C10.352 49.2796 11.8126 48.4305 13.9328 47.8173C18.6443 46.4493 16.9481 46.2606 16.6183 45.6945C16.1001 44.7982 16.2414 45.2228 15.7703 44.5623L14.8279 43.0057C14.1212 42.9113 8.98565 44.751 7.80777 45.4115L7.66642 45.5058C6.39431 46.4021 5.07508 47.204 4.03855 48.3833C4.03855 48.3833 3.85008 48.6664 3.80297 48.7135L1.1174 53.478C0.693359 55.1762 0.693359 54.9875 0.693359 56.7801C0.693359 58.2424 1.21163 60.035 1.82413 61.8275C6.95969 77.1115 13.5087 95.3201 19.0212 110.84C20.0106 113.67 21.0472 115.038 23.6385 116.737C24.9106 117.586 26.4183 118.152 27.926 118.482C29.6222 118.859 30.9885 119.001 32.8731 118.718C33.4856 118.623 33.7683 118.718 34.6635 118.435C39.7519 116.878 44.6991 115.274 49.7404 113.482C55.3471 111.5 61.1894 109.708 66.8432 107.774C75.324 104.849 83.8519 102.16 92.3797 99.3298C95.1595 98.3863 98.3163 97.4901 101.002 96.4523C103.358 95.556 106.75 94.471 109.388 93.6691C110.472 93.3389 112.262 92.5369 113.11 92.3954C114.335 92.2067 115.796 91.5463 117.115 91.1217L125.266 88.4801C126.585 88.0555 127.81 87.6782 129.177 87.0649C130.26 86.5932 131.768 86.263 133.087 85.7912C134.171 85.4139 136.291 84.895 136.998 84.5648C138.553 83.81 143.029 82.6307 145.337 81.7344C146.044 81.4514 146.657 81.4514 147.316 81.1212C149.955 79.8947 153.488 79.2814 156.551 78.1021C158.2 77.4417 160.603 77.0171 162.252 76.0265C164.796 74.517 166.351 73.4792 168 71.0262C168 71.0262 168 70.979 168.047 70.9319C168.047 70.9319 168.047 70.8847 168.094 70.8375C168.612 70.1299 168.848 69.5167 169.272 68.7147C169.366 68.5261 169.366 68.6204 169.46 68.3845C169.602 68.1015 169.46 68.2902 169.602 68.0072V67.8185C170.12 66.4976 170.261 65.1768 170.308 63.7616C170.356 61.2615 167.623 54.6573 166.869 52.0628C166.681 51.4024 166.398 50.6948 166.209 50.1287C166.021 49.5627 166.021 49.8929 165.88 49.3268C165.785 48.9494 165.691 48.6192 165.55 48.1946C163.524 42.4868 161.875 37.3921 159.99 31.7314L159.331 29.8445C159.095 28.8539 158.812 28.5708 158.671 27.9104L156.033 19.7495C155.844 19.2778 154.713 16.1644 154.713 15.9757C154.336 13.853 153.206 11.0698 152.452 8.947L151.933 7.48465C151.933 7.48465 151.745 7.15444 151.698 7.06009L150.756 5.50339C150.473 5.12601 150.708 5.40905 150.473 5.17319C148.871 3.33345 147.033 2.10696 144.725 1.21068C144.442 1.11634 144.348 1.06917 144.018 0.97482C143.83 0.97482 143.83 0.97482 143.641 0.880475C143.453 0.833302 143.453 0.78613 143.17 0.738957C142.934 0.738957 143.029 0.738957 142.793 0.691784L141.427 0.597439C141.05 0.597439 140.861 0.597439 140.579 0.597439C140.202 0.550266 140.249 0.503094 139.731 0.597439C139.448 0.597439 139.118 0.738957 138.977 0.738957C138.977 0.738957 138.93 0.738957 138.883 0.738957C137.139 0.833302 135.537 1.11634 133.794 1.91827C133.182 2.20131 133.559 2.20131 133.229 2.20131C131.909 2.34283 127.009 4.18256 125.737 4.65429C124.465 5.12601 122.863 5.73926 121.638 6.11664C120.79 6.39968 118.717 7.10726 117.869 7.48465H117.822ZM117.115 62.8653C116.267 62.0634 116.55 62.4408 115.608 62.0162C115.089 61.7804 114.571 61.4973 114.053 61.3086C113.535 61.1199 113.016 60.8369 112.498 60.601C112.215 60.5067 112.31 60.601 112.074 60.4124C112.074 60.4124 111.885 60.2708 111.838 60.2237C111.838 60.2237 111.509 60.1293 111.461 60.1293L110.896 59.8935C109.812 59.3746 110.001 59.0915 109.624 59.5161L108.163 61.686C107.598 62.3464 106.891 62.771 106.279 63.1955C105.619 63.6201 105.949 63.856 106.232 64.5164C106.703 65.6957 107.504 67.9128 107.975 69.1865C108.163 69.7525 108.305 70.2243 108.352 70.413C111.556 69.611 115.843 66.0731 117.257 62.8653H117.115ZM98.9759 44.5623C99.7297 44.3737 99.9182 44.3265 100.625 44.2321C101.426 44.1378 101.614 44.1378 102.227 44.2321L105.007 45.1756C105.336 44.9397 105.478 44.5152 105.76 44.0434L106.467 42.7698C106.467 42.7698 106.467 42.7226 106.514 42.6754L106.75 42.2509C106.75 42.2509 106.75 42.2037 106.75 42.1565C106.75 42.1565 106.75 42.1094 106.75 42.0622L107.881 39.9394C108.069 39.7036 107.881 39.9394 108.022 39.7036L108.729 38.4299C108.729 38.4299 108.729 38.3827 108.776 38.3356C109.011 37.9582 108.776 38.5243 108.964 37.8638C108.116 37.6751 107.41 37.2978 106.561 36.9676C105.242 36.4487 104.206 36.5902 103.782 36.4958L101.285 36.3543C100.295 36.4015 97.1384 37.1091 96.0547 37.4865C96.7143 38.5714 97.7038 41.7792 97.9393 42.2509C98.6461 43.4302 98.0807 43.2415 98.8817 44.468L98.9759 44.5623ZM23.026 61.9219C23.4029 62.9597 23.7799 63.9975 24.1568 65.0825L24.8164 67.2052C25.0991 67.7241 25.1462 67.8185 25.7587 67.7241C25.9472 67.7241 26.3241 67.5826 26.4654 67.5354L30.5173 66.1674C34.1452 64.8938 38.4327 63.8088 41.9193 62.5823L47.6202 60.7426C47.6202 60.7426 46.1125 56.497 45.8298 55.2234C45.5942 54.2799 45.1231 54.7516 43.3327 55.129L41.2596 55.9781C40.3173 56.3083 38.5741 56.6857 37.6789 57.1103C36.3125 57.7235 30.5173 59.4217 28.4443 60.0821C27.926 60.2708 27.2193 60.6011 26.7481 60.7426C25.5231 61.0728 24.2981 61.6389 22.9318 61.9219H23.026ZM109.247 33.3353L111.32 39.6564C114.618 38.7129 121.12 36.6373 124.418 35.3165C125.219 34.9863 125.643 35.0335 126.397 34.7504L130.166 33.3824C130.779 33.0051 130.025 33.5239 131.297 33.0994C132.051 32.8635 132.381 32.7692 133.087 32.5333L140.437 30.1275L138.364 23.5233L134.548 24.7498C131.25 25.8348 127.858 27.0141 124.371 28.2406C122.581 28.8539 120.79 29.4671 119.094 29.9388C118.67 30.0332 116.927 30.7879 116.314 30.8823C115.466 31.0238 115.796 31.1181 115.089 31.354C114.288 31.5899 113.016 31.9201 112.215 32.2031C111.179 32.5805 110.425 32.8635 109.247 33.2881V33.3353ZM40.2702 85.7441C39.7048 83.2439 37.3019 76.7813 36.3596 73.9509C35.7471 72.1583 35.1818 70.0828 34.5221 68.1958C33.6741 67.9128 33.7212 68.1958 32.6846 68.5261L26.1356 70.6016L29.8577 81.4042C30.4231 83.1967 33.0616 91.8293 33.5327 92.6785C34.4279 94.3767 32.826 94.6125 38.1971 92.82C41.3068 91.7822 42.2491 91.9709 41.8721 90.65C41.825 90.4613 41.6837 90.1311 41.5894 89.8953L40.3173 85.7912L40.2702 85.7441ZM130.449 62.488H130.826C130.826 62.488 131.25 62.2993 131.297 62.2993C131.815 62.1577 131.957 62.0634 132.428 61.8747L137.705 60.2237C138.364 60.035 138.364 59.9406 138.835 59.7048C138.129 58.4311 137.516 55.4121 136.857 53.8554C135.773 51.1665 131.674 36.9676 131.014 36.3071C130.496 36.6373 128.187 37.2978 127.339 37.628C126.067 38.1469 124.041 38.4771 123.099 39.0431C122.581 39.3262 122.628 38.9488 123.193 40.9301L124.277 43.9963C124.418 44.5152 124.277 44.3737 124.418 44.9397L126.962 52.2043C127.151 52.5817 126.962 52.1571 127.104 52.5817C127.481 54.0441 127.858 55.6951 128.47 57.1103L129.365 59.8463C129.836 60.7426 129.884 62.1577 130.449 62.5351V62.488ZM85.2182 54.7045C85.3124 55.931 86.2076 58.9972 86.6317 60.1293C87.1028 61.4502 88.1394 63.6201 88.9403 64.8466C89.8826 66.3089 91.5317 68.3374 92.9922 69.2808C94.4999 70.2243 94.7826 70.5545 96.8086 71.3092C96.8086 71.3092 96.8557 71.3092 96.9028 71.3092L98.1278 71.6395C99.7768 71.9697 103.499 71.9697 105.242 71.3564L102.604 64.1862C101.143 64.2333 100.389 63.856 99.2115 63.2899C98.6932 63.054 98.7874 63.054 98.3634 62.6295C97.5624 61.9219 97.374 61.8747 96.7615 60.6954C96.1018 59.3746 96.2432 59.9878 95.4893 58.2896C94.6413 56.3555 93.9817 54.5158 93.8403 52.3458C93.7461 51.1193 93.9345 49.374 94.4057 48.289C95.8663 45.9775 94.6413 47.7229 96.0076 46.119C95.1124 43.7132 94.2172 41.3074 93.322 38.9016C92.8509 39.0903 92.4268 39.279 92.0499 39.4677C90.4951 40.2696 89.1759 41.449 88.0922 42.8641C85.0769 46.8266 84.8884 50.0344 85.2653 54.7988L85.2182 54.7045ZM71.7432 82.0646C71.1307 80.7438 69.623 75.885 69.1048 75.2246C68.4923 75.1302 67.8798 75.0359 67.2202 74.9415C66.9375 74.8944 66.7019 74.8472 66.5134 74.7528C65.7596 74.517 64.9115 73.7622 64.3932 73.149C63.4509 72.0168 61.9433 69.2808 61.5663 67.5354C60.624 63.856 59.0221 60.318 61.8019 57.1574C62.1788 56.7329 62.0375 56.9688 62.1788 56.5442C61.425 54.4214 60.6711 52.2987 59.9644 50.1759C59.8231 49.8929 59.9644 48.9966 57.75 50.5061C55.6769 51.9213 54.1692 53.5723 52.9442 55.7423C51.625 59.0444 51.3423 62.5351 52.0019 65.9787C53.1798 72.1112 56.6192 79.8003 62.9798 81.8759C65.8067 82.8194 69.0105 82.8194 71.7432 81.9703V82.0646ZM18.5029 41.5905C18.7856 41.9679 18.5029 41.6848 18.9741 41.8735C19.1626 41.9207 19.3039 41.9679 19.5395 42.0622L20.576 42.5811C23.4972 44.3265 24.6279 43.4774 28.3972 42.3924C29.4337 42.1094 30.3289 41.6376 31.2241 41.3546C31.601 41.2603 32.025 40.9301 32.402 40.7414L33.9568 40.0809C36.0298 38.8545 39.7519 37.2978 41.9193 36.8732C43.0029 36.6845 48.5154 34.6561 50.3529 34.1372C51.0125 33.9485 51.2481 33.7598 51.7663 33.6183C52.0962 33.5239 52.7087 33.3824 53.2269 33.2409C54.2163 32.9107 55.3471 32.4862 56.1481 32.2031C58.0327 31.4955 61.5663 30.269 63.2625 30.0332L64.2519 29.7973L70 28.4765C73.298 27.25 80.224 24.4668 83.2865 23.9951C84.9355 23.7592 86.3019 23.0516 87.9509 22.5799C89.4586 22.1082 91.249 21.5421 92.5211 20.8345L97.2326 18.1457C99.1643 17.3437 98.3634 17.2966 99.9653 16.4946L103.687 14.7964C104.488 14.419 104.253 14.419 104.63 14.1832L106.42 12.3906C106.609 12.0604 106.844 11.8245 106.514 11.683C106.514 11.683 106.467 11.683 106.42 11.683C106.09 11.5887 105.336 12.0132 104.3 12.2019C103.829 12.2963 103.97 12.4378 103.64 12.5321C102.133 13.1454 100.248 13.5227 98.5518 14.2775C88.6105 17.6739 78.8576 21.1175 68.9634 24.514C59.7288 27.6745 50.4942 30.9766 41.2125 33.9957C40.2702 34.3259 39.2337 34.6561 38.0558 35.0806C37.2548 35.3637 36.4068 35.5052 35.7471 35.7882C32.9202 36.7317 19.0683 41.2603 18.6443 41.5433L18.5029 41.5905ZM71.4605 48.1475C71.4605 48.1475 71.225 48.1475 71.0836 48.0531C71.0836 48.0531 71.0365 48.0531 70.9894 48.0531L70.424 47.8644C67.7384 47.4871 65.4769 47.6757 62.8856 48.3362C62.8856 49.3268 62.8856 49.0438 63.3096 50.0344L65.2884 55.3649C66.325 55.5064 66.2779 55.0818 67.9269 55.4592C68.0682 55.4592 68.1154 55.4592 68.2096 55.5064L70 56.4027C72.7798 58.5726 75.4182 67.3467 75.0413 69.4695C74.6644 71.5451 74.3346 72.6772 72.2615 73.9981C72.45 74.9415 73.1096 76.6398 73.4865 77.5832C74.9942 81.7816 74.1932 81.6872 77.8682 79.4701C78.198 79.2814 78.3394 79.1871 78.575 78.9984L80.1298 77.536C80.5538 77.0643 80.7894 76.7813 81.0721 76.4039C81.6374 75.6963 82.674 73.715 83.0038 72.7244C84.5115 67.7713 83.4749 65.1296 81.9673 60.2708C81.2605 58.0066 79.8942 54.846 78.6221 52.9119C78.0096 52.0156 77.2086 51.1193 75.8423 50.1759C75.4653 49.8929 75.1355 49.657 74.7586 49.374C73.3452 48.5248 73.7221 48.8551 72.2144 48.289C71.8375 48.1475 71.9317 48.1475 71.4605 48.0531V48.1475Z" fill="#FF9B00"/>
</svg>
