<svg width="169" height="118" viewBox="0 0 169 118" fill="none" xmlns="http://www.w3.org/2000/svg">
<path fill-rule="evenodd" clip-rule="evenodd" d="M17.9766 40.8084C18.2567 41.1822 17.9766 40.9018 18.4434 41.0887C18.6302 41.1354 18.7703 41.1822 19.0037 41.2756L20.0308 41.7896C22.9255 43.5184 24.046 42.6773 27.7811 41.6027C28.8083 41.3223 29.6953 40.8551 30.5824 40.5747C30.9559 40.4813 31.3761 40.1542 31.7496 39.9673L33.2903 39.3132C35.3446 38.0984 39.033 36.5565 41.1807 36.1359C42.2545 35.949 47.717 33.9399 49.5379 33.4259C50.1915 33.239 50.425 33.0521 50.9385 32.912C51.2654 32.8185 51.8723 32.6784 52.3859 32.5382C53.3663 32.2111 54.4869 31.7906 55.2806 31.5103C57.1481 30.8094 60.6497 29.5946 62.3305 29.3609L63.3109 29.1273L69.0069 27.819C72.2751 26.6042 79.1383 23.8475 82.173 23.3802C83.8071 23.1466 85.1611 22.4458 86.7952 21.9785C88.2892 21.5113 90.0634 20.9506 91.324 20.2497L95.9928 17.5865C97.907 16.7921 97.1133 16.7454 98.7007 15.9511L102.389 14.269C103.183 13.8952 102.949 13.8952 103.323 13.6616L105.097 11.8861C105.284 11.559 105.517 11.3254 105.19 11.1852C105.19 11.1852 105.144 11.1852 105.097 11.1852C104.77 11.0918 104.023 11.5123 102.996 11.6992C102.529 11.7927 102.669 11.9328 102.342 12.0263C100.848 12.6337 98.9808 13.0075 97.3001 13.7551C87.4488 17.1192 77.7843 20.5301 67.9798 23.8942C58.8289 27.0247 49.6779 30.2954 40.4803 33.2858C39.5466 33.6128 38.5194 33.9399 37.3522 34.3604C36.5585 34.6408 35.7181 34.7809 35.0645 35.0613C32.2632 35.9958 18.5368 40.4813 18.1166 40.7616L17.9766 40.8084Z" fill="#964693"/>
<path fill-rule="evenodd" clip-rule="evenodd" d="M116.393 7.02787C116.533 7.72873 116.533 8.10253 116.347 8.70994C116.347 8.70994 116.347 8.75666 116.347 8.80339L114.479 11.9806C114.479 11.9806 114.386 11.6536 114.479 12.261C119.988 10.4855 125.264 8.42959 130.727 6.56063L133.715 5.5327C134.508 5.1589 135.676 4.97201 136.703 4.87856L140.531 5.3458C141.652 5.76632 142.819 6.46718 143.659 7.35494C144.033 7.72873 144.266 7.82218 144.546 8.28942C145.527 9.69115 146.694 13.8029 147.348 15.7653C147.721 16.8867 148.095 17.9613 148.468 19.0827C149.075 20.9517 150.289 23.8953 150.663 25.6708C151.456 29.5956 152.297 28.3341 152.203 33.2401C152.203 33.6139 152.297 34.3148 152.343 34.6886C152.39 35.4829 152.857 37.0715 153.184 37.8658C154.631 41.043 154.584 45.0613 156.172 48.3787C156.499 49.0329 156.592 49.0796 156.919 49.6403C157.432 50.4813 157.946 50.9018 158.506 51.7429C159.067 52.5372 159.487 53.752 159.533 54.7332C159.814 58.8449 159.767 56.5087 161.774 59.7794C162.195 60.4336 162.662 61.3681 162.335 62.1156C162.335 62.1156 162.195 62.3493 162.195 62.4427L161.027 64.6387C160.421 65.1994 159.393 65.5732 159.347 66.5077C159.3 67.302 159.627 68.5168 159.58 69.4046C158.273 69.9653 153.651 71.2736 151.877 71.881L148.095 72.9089C145.107 73.6098 140.625 76.0394 138.617 76.5534C138.197 76.6936 138.197 76.7403 137.777 76.8805C136.703 77.301 134.088 77.8617 132.921 78.0486L125.451 79.4503C124.144 79.7306 122.65 80.1512 121.296 80.6651C120.222 81.0856 119.055 81.88 118.214 82.6743C117.607 83.235 116.44 84.6367 115.833 85.0105C115.32 85.3375 114.853 85.2908 114.199 85.6646C113.779 85.8982 113.079 86.1319 112.565 86.5524L112.191 86.786C111.818 86.9262 111.771 87.0196 111.538 87.1131C110.931 87.3 110.231 87.6738 109.717 87.8139C107.149 88.4681 104.535 89.8231 101.733 90.5239C101.64 90.8043 101.827 90.7575 101.5 90.8043C100.519 90.9912 99.7724 91.4584 98.7452 91.8322L93.0492 93.8413C92.7224 93.9348 92.7224 93.8413 92.2088 93.9815C91.8353 94.075 91.6953 94.2151 91.3218 94.3553C90.7615 94.5422 90.1546 94.5889 89.5943 94.7291L84.0384 96.271C80.3033 97.4391 77.5487 97.2055 72.6464 99.495C71.4325 100.056 70.4988 100.523 69.0514 101.037C66.5303 101.925 64.1025 102.812 61.4879 103.326C61.0677 103.42 61.1611 103.326 60.7409 103.56C60.2273 103.794 60.7409 103.607 60.1339 103.7C59.5737 103.794 58.6866 104.167 58.0797 104.354C54.5313 105.569 54.1578 105.382 51.0297 107.485C50.3294 107.952 48.6019 108.98 47.9483 109.26C47.4347 109.447 46.641 109.681 46.1741 110.008C45.6606 110.382 45.6139 111.036 45.3337 111.223C44.9602 111.503 43.5129 111.363 42.3457 111.783C40.198 112.531 40.805 113.512 37.957 112.297L36.5096 111.783C35.9961 111.69 35.1557 112.064 34.7355 112.157C32.9613 112.578 31.0471 112.858 29.2263 112.391C28.7594 112.297 28.3859 112.157 28.059 112.017L26.9385 111.55C26.1915 110.989 25.4445 110.615 24.8842 109.821C24.2306 108.887 23.8104 108.606 23.2968 107.391C22.7366 105.99 22.4098 105.616 21.9429 104.588C21.5227 103.653 21.4293 102.485 20.9624 101.364C20.4022 100.009 19.3283 98.4203 18.8148 97.112C18.2078 95.4767 17.4141 94.4487 16.8538 92.6732C16.5737 91.7387 16.2469 90.4772 15.9668 89.4493C15.8267 88.8886 15.78 88.3279 15.6866 88.0475C15.4532 87.3934 15.3598 87.0663 15.2198 86.4122C15.0797 85.8982 14.8462 85.5712 14.6128 84.917C13.8658 82.9546 10.7844 79.8241 10.4109 75.0115C10.2708 73.0958 9.80391 71.0867 9.71053 69.1243C9.61715 67.6758 7.98306 62.9567 7.18936 61.2746C6.81585 60.4803 7.04929 60.3868 6.86254 59.8729C6.39566 58.5179 5.60195 56.976 5.69533 55.5275C5.69533 55.2472 5.69533 54.3594 5.78871 54.1725C6.16222 52.8175 7.32942 50.715 8.35657 49.8272C9.89728 48.4255 11.3446 47.5844 13.4456 46.977C18.1144 45.622 16.4337 45.4351 16.1068 44.8744C15.5933 43.9867 15.7333 44.4072 15.2664 43.7531L14.3327 42.2112C13.6324 42.1177 8.54332 43.9399 7.37611 44.5941L7.23605 44.6875C5.97546 45.5753 4.66819 46.3696 3.64104 47.5377C3.64104 47.5377 3.45429 47.8181 3.4076 47.8648L0.746367 52.5839C0.326172 54.266 0.326172 54.0791 0.326172 55.8546C0.326172 57.3031 0.839744 59.0786 1.44669 60.8541C6.53572 75.9927 13.0254 94.0282 18.4879 109.4C19.4684 112.204 20.4955 113.559 23.0634 115.194C24.324 116.035 25.818 116.596 27.312 116.923C28.9928 117.297 30.3468 117.437 32.2143 117.157C32.8213 117.063 33.1014 117.157 33.9885 116.876C39.0308 115.334 43.9331 113.746 48.9287 111.97C54.4847 110.008 60.274 108.232 65.8766 106.317C74.2805 103.42 82.7311 100.757 91.1817 97.9531C93.9363 97.0186 97.0644 96.1308 99.7257 95.1029C102.06 94.2151 105.422 93.1405 108.036 92.3462C109.11 92.0191 110.884 91.2248 111.725 91.0846C112.938 90.8977 114.386 90.2436 115.693 89.8231L123.77 87.2065C125.077 86.786 126.291 86.4122 127.645 85.8048C128.719 85.3375 130.213 85.0105 131.52 84.5432C132.594 84.1694 134.695 83.6555 135.396 83.3284C136.936 82.5808 141.372 81.4127 143.659 80.5249C144.36 80.2446 144.967 80.2446 145.62 79.9175C148.235 78.7027 151.736 78.0953 154.771 76.9272C156.405 76.2731 158.786 75.8525 160.421 74.8713C162.942 73.3762 164.482 72.3482 166.116 69.9186C166.116 69.9186 166.117 69.8718 166.163 69.8251C166.163 69.8251 166.163 69.7784 166.21 69.7317C166.723 69.0308 166.957 68.4234 167.377 67.6291C167.47 67.4422 167.47 67.5356 167.564 67.302C167.704 67.0217 167.564 67.2086 167.704 66.9282V66.7413C168.217 65.4331 168.358 64.1248 168.404 62.7231C168.451 60.2467 165.743 53.7053 164.996 51.1355C164.809 50.4813 164.529 49.7805 164.342 49.2198C164.156 48.6591 164.156 48.9862 164.016 48.4255C163.922 48.0517 163.829 47.7246 163.689 47.3041C161.681 41.6505 160.047 36.6043 158.179 30.9974L157.526 29.1284C157.292 28.1472 157.012 27.8668 156.872 27.2127L154.258 19.1294C154.071 18.6622 152.95 15.5784 152.95 15.3915C152.577 13.2889 151.456 10.5322 150.709 8.42959L150.196 6.98115C150.196 6.98115 150.009 6.65408 149.962 6.56063L149.029 5.01873C148.748 4.64494 148.982 4.92528 148.748 4.69166C147.161 2.86942 145.34 1.65459 143.052 0.766835C142.772 0.673387 142.679 0.626663 142.352 0.533214C142.165 0.533214 142.165 0.533214 141.979 0.439766C141.792 0.393042 141.792 0.346318 141.512 0.299594C141.278 0.299594 141.372 0.299594 141.138 0.252869L139.784 0.159421C139.411 0.159421 139.224 0.159421 138.944 0.159421C138.57 0.112697 138.617 0.0659729 138.103 0.159421C137.823 0.159421 137.497 0.299594 137.356 0.299594C137.356 0.299594 137.31 0.299594 137.263 0.299594C135.536 0.393042 133.948 0.673387 132.221 1.4677C131.614 1.74804 131.987 1.74804 131.66 1.74804C130.353 1.88821 125.498 3.71046 124.237 4.1777C122.976 4.64494 121.389 5.25235 120.175 5.62615C119.335 5.90649 117.28 6.60735 116.44 6.98115L116.393 7.02787Z" fill="#964693"/>
<path d="M33.4757 93.6082L43.607 90.244L39.125 76.5538C37.7243 72.2552 38.518 67.8164 43.0468 66.3213C45.2878 65.5737 46.7819 66.4147 47.7156 69.2182L53.5517 86.9733L63.683 83.6092L57.24 63.985C54.4387 55.4812 48.7428 54.2197 42.6733 56.2288C37.3041 58.0044 35.3899 61.789 34.7363 64.6392H34.6429C34.6429 64.6392 34.4561 63.7514 34.1293 62.7702L33.2422 60.1069L23.4844 63.3309L33.429 93.6082H33.4757Z" fill="#964693"/>
<path d="M63.4486 66.6462C66.1099 74.6827 74.4671 80.57 85.2988 77.0189C89.9209 75.477 94.403 72.2531 96.7841 68.375L90.7146 62.4877C88.8004 64.9174 86.3726 67.3003 83.3846 68.2815C80.1631 69.3562 76.5214 68.6553 74.5605 65.1977L93.656 58.9367C93.4225 57.862 93.1891 56.7407 92.8623 55.666C90.1077 47.2557 83.011 42.6767 74.0469 45.6203C64.289 48.8443 60.6006 57.7219 63.4953 66.5994L63.4486 66.6462ZM72.833 59.3105C72.5529 56.7407 73.2999 54.1241 76.1945 53.1896C78.8091 52.3486 81.0501 53.8905 81.8438 56.3201L72.7863 59.3105H72.833Z" fill="#964693"/>
<path d="M108.643 68.2784L120.082 64.4938L118.868 49.4019C118.728 47.6264 118.401 45.991 118.401 45.991H118.494C118.494 45.991 119.195 47.4862 120.129 48.9814L128.112 61.8305L139.458 58.0926L137.964 25.0586L127.412 28.5162L129.513 47.6264C129.7 49.4019 130.167 50.9438 130.167 50.9438H130.027C130.027 50.9438 129.466 49.4953 128.532 47.9534L118.494 31.4598L109.81 34.31L111.538 53.5603C111.678 55.3358 112.052 56.9245 112.052 56.9245H111.958C111.958 56.9245 111.445 55.4293 110.557 53.9341L100.94 37.3003L90.248 40.8046L108.643 68.2784Z" fill="#964693"/>
</svg>
