<svg width="240" height="167" viewBox="0 0 240 167" fill="none" xmlns="http://www.w3.org/2000/svg">
<path fill-rule="evenodd" clip-rule="evenodd" d="M25.4297 57.8978C25.8282 58.4295 25.4297 58.0307 26.0938 58.2966C26.3594 58.3631 26.5587 58.4295 26.8907 58.5624L28.3518 59.2935C32.4692 61.7526 34.0631 60.5563 39.3759 59.0277C40.8369 58.6289 42.0987 57.9643 43.3605 57.5655C43.8918 57.4326 44.4895 56.9674 45.0208 56.7015L47.2124 55.7711C50.1344 54.0431 55.3809 51.8498 58.4358 51.2517C59.9632 50.9858 67.7332 48.128 70.3233 47.3969C71.253 47.1311 71.5851 46.8652 72.3156 46.6658C72.7804 46.5329 73.6438 46.3335 74.3743 46.1341C75.7689 45.6689 77.3628 45.0707 78.4918 44.672C81.1482 43.6751 86.129 41.9471 88.5198 41.6147L89.9144 41.2824L98.0165 39.4215C102.665 37.6935 112.428 33.7723 116.744 33.1077C119.069 32.7754 120.995 31.7784 123.319 31.1138C125.444 30.4492 127.968 29.6517 129.761 28.6547L136.402 24.8664C139.125 23.7366 137.996 23.6701 140.254 22.5403L145.5 20.1477C146.629 19.616 146.297 19.616 146.828 19.2837L149.352 16.7581C149.618 16.2929 149.95 15.9606 149.485 15.7612C149.485 15.7612 149.418 15.7612 149.352 15.7612C148.887 15.6283 147.824 16.2264 146.363 16.4923C145.699 16.6252 145.899 16.8246 145.434 16.9575C143.309 17.8215 140.652 18.3532 138.261 19.4166C124.249 24.2018 110.502 29.0535 96.5554 33.8387C83.539 38.2917 70.5225 42.944 57.4396 47.1975C56.1114 47.6627 54.6504 48.128 52.9901 48.7261C51.8611 49.1249 50.6657 49.3243 49.736 49.7231C45.7513 51.0523 26.2266 57.4326 25.6289 57.8314L25.4297 57.8978Z" fill="#964693"/>
<path fill-rule="evenodd" clip-rule="evenodd" d="M165.421 9.84659C165.62 10.8435 165.62 11.3752 165.355 12.2392C165.355 12.2392 165.355 12.3057 165.355 12.3721L162.698 16.8915C162.698 16.8915 162.565 16.4263 162.698 17.2903C170.535 14.7647 178.039 11.8404 185.809 9.18197L190.059 7.71982C191.188 7.18813 192.849 6.92228 194.31 6.78936L199.755 7.45397C201.349 8.05213 203.009 9.04905 204.205 10.3118C204.736 10.8435 205.068 10.9764 205.467 11.6411C206.861 13.6349 208.521 19.4835 209.451 22.2749C209.982 23.87 210.514 25.3986 211.045 26.9937C211.908 29.6521 213.635 33.8392 214.166 36.3647C215.295 41.9475 216.491 40.153 216.358 47.1315C216.358 47.6632 216.491 48.6601 216.557 49.1918C216.624 50.3217 217.288 52.5814 217.753 53.7112C219.811 58.2306 219.745 63.9463 222.003 68.665C222.468 69.5955 222.601 69.662 223.065 70.4595C223.796 71.6558 224.526 72.254 225.323 73.4503C226.12 74.5801 226.718 76.3081 226.784 77.7038C227.183 83.5524 227.116 80.2294 229.972 84.8817C230.57 85.8121 231.234 87.1414 230.769 88.2047C230.769 88.2047 230.57 88.537 230.57 88.67L228.91 91.7937C228.046 92.5912 226.585 93.1229 226.519 94.4521C226.452 95.582 226.917 97.31 226.851 98.5727C224.991 99.3703 218.417 101.231 215.893 102.095L210.514 103.557C206.264 104.554 199.888 108.01 197.032 108.741C196.435 108.941 196.435 109.007 195.837 109.207C194.31 109.805 190.591 110.602 188.93 110.868L178.305 112.862C176.445 113.261 174.32 113.859 172.394 114.59C170.867 115.188 169.206 116.318 168.011 117.448C167.148 118.245 165.487 120.239 164.624 120.771C163.894 121.236 163.229 121.17 162.3 121.701C161.702 122.034 160.706 122.366 159.975 122.964L159.444 123.296C158.913 123.496 158.846 123.629 158.514 123.762C157.651 124.028 156.655 124.559 155.924 124.759C152.272 125.689 148.553 127.616 144.568 128.613C144.435 129.012 144.701 128.946 144.236 129.012C142.841 129.278 141.779 129.943 140.318 130.474L132.216 133.332C131.751 133.465 131.751 133.332 131.02 133.532C130.489 133.664 130.29 133.864 129.758 134.063C128.962 134.329 128.098 134.396 127.301 134.595L119.398 136.788C114.086 138.45 110.167 138.117 103.194 141.374C101.468 142.172 100.139 142.836 98.0806 143.567C94.4945 144.83 91.0411 146.093 87.3221 146.824C86.7244 146.957 86.8572 146.824 86.2595 147.156C85.529 147.488 86.2595 147.223 85.3962 147.355C84.5993 147.488 83.3375 148.02 82.4741 148.286C77.4269 150.014 76.8956 149.748 72.4461 152.739C71.45 153.404 68.9928 154.866 68.063 155.264C67.3325 155.53 66.2035 155.863 65.5394 156.328C64.8089 156.86 64.7425 157.79 64.344 158.056C63.8128 158.455 61.754 158.255 60.0938 158.853C57.0389 159.917 57.9022 161.312 53.8512 159.584L51.7924 158.853C51.0619 158.72 49.8665 159.252 49.2688 159.385C46.7452 159.983 44.0224 160.382 41.4324 159.717C40.7683 159.584 40.237 159.385 39.7721 159.186L38.1783 158.521C37.1157 157.724 36.0531 157.192 35.2562 156.062C34.3265 154.733 33.7288 154.334 32.9982 152.606C32.2013 150.612 31.7364 150.08 31.0723 148.618C30.4746 147.289 30.3418 145.628 29.6777 144.032C28.8808 142.105 27.3533 139.845 26.6228 137.984C25.7595 135.658 24.6305 134.196 23.8336 131.671C23.4351 130.341 22.9702 128.547 22.5718 127.085C22.3725 126.287 22.3061 125.49 22.1733 125.091C21.8413 124.16 21.7084 123.695 21.5092 122.765C21.31 122.034 20.9779 121.568 20.6459 120.638C19.5833 117.847 15.2002 113.394 14.6689 106.548C14.4697 103.823 13.8056 100.965 13.6727 98.174C13.5399 96.1137 11.2156 89.401 10.0866 87.0084C9.55529 85.8786 9.88735 85.7457 9.6217 85.0146C8.9576 83.0872 7.82862 80.894 7.96144 78.8337C7.96144 78.4349 7.96144 77.1721 8.09426 76.9063C8.62554 74.9789 10.2858 71.9881 11.7468 70.7254C13.9384 68.7315 15.9971 67.5352 18.9856 66.6712C25.6267 64.7438 23.2359 64.478 22.771 63.6804C22.0405 62.4177 22.2397 63.0158 21.5756 62.0854L20.2474 59.8921C19.2512 59.7592 12.0125 62.3512 10.3522 63.2817L10.153 63.4146C8.3599 64.6774 6.5004 65.8072 5.03937 67.4687C5.03937 67.4687 4.77373 67.8675 4.70732 67.934L0.921914 74.6466C0.324219 77.0392 0.324219 76.7734 0.324219 79.2989C0.324219 81.3592 1.05474 83.8847 1.91807 86.4103C9.15683 107.944 18.3879 133.598 26.1579 155.464C27.5526 159.451 29.0136 161.379 32.6662 163.705C34.4593 164.901 36.5844 165.699 38.7095 166.164C41.1003 166.696 43.0262 166.895 45.6827 166.496C46.546 166.363 46.9445 166.496 48.2063 166.098C55.3786 163.904 62.3517 161.645 69.4577 159.119C77.3605 156.328 85.5954 153.802 93.5647 151.077C105.519 146.957 117.539 143.168 129.559 139.181C133.477 137.852 137.927 136.589 141.712 135.127C145.033 133.864 149.814 132.335 153.533 131.205C155.061 130.74 157.585 129.61 158.78 129.411C160.507 129.145 162.565 128.215 164.425 127.616L175.914 123.895C177.773 123.296 179.5 122.765 181.426 121.901C182.953 121.236 185.079 120.771 186.938 120.106C188.465 119.575 191.454 118.843 192.45 118.378C194.642 117.315 200.951 115.653 204.205 114.391C205.201 113.992 206.064 113.992 206.994 113.527C210.713 111.799 215.694 110.935 220.011 109.273C222.335 108.343 225.722 107.744 228.046 106.349C231.632 104.222 233.824 102.76 236.148 99.3038C236.148 99.3038 236.148 99.2374 236.215 99.1709C236.215 99.1709 236.215 99.1044 236.281 99.038C237.012 98.041 237.344 97.177 237.941 96.0472C238.074 95.7813 238.074 95.9143 238.207 95.582C238.406 95.1832 238.207 95.449 238.406 95.0503V94.7844C239.137 92.9235 239.336 91.0626 239.402 89.0687C239.469 85.5463 235.617 76.2417 234.554 72.5863C234.289 71.6558 233.89 70.6589 233.625 69.8614C233.359 69.0638 233.359 69.529 233.16 68.7315C233.027 68.1998 232.894 67.7346 232.695 67.1364C229.839 59.0946 227.515 51.9167 224.858 43.9414L223.929 41.2829C223.597 39.8872 223.198 39.4884 222.999 38.558L219.28 27.0601C219.014 26.3955 217.42 22.0091 217.42 21.7432C216.889 18.7524 215.295 14.8312 214.233 11.8404L213.502 9.78013C213.502 9.78013 213.237 9.3149 213.17 9.18197L211.842 6.98874C211.444 6.45705 211.776 6.85582 211.444 6.52351C209.186 3.93151 206.596 2.20351 203.341 0.940743C202.943 0.80782 202.81 0.741359 202.345 0.608436C202.08 0.608436 202.08 0.608435 201.814 0.475512C201.548 0.409051 201.548 0.342589 201.15 0.276128C200.818 0.276128 200.951 0.276128 200.619 0.209666L198.693 0.0767432C198.161 0.0767432 197.896 0.0767432 197.497 0.0767432C196.966 0.0102816 197.032 -0.0561799 196.302 0.0767432C195.903 0.0767432 195.439 0.276128 195.239 0.276128C195.239 0.276128 195.173 0.276128 195.107 0.276128C192.649 0.409051 190.391 0.80782 187.934 1.93767C187.071 2.33644 187.602 2.33644 187.137 2.33644C185.278 2.53582 178.371 5.12782 176.578 5.79244C174.785 6.45705 172.527 7.32105 170.8 7.85274C169.605 8.25151 166.683 9.24844 165.487 9.78013L165.421 9.84659Z" fill="#964693"/>
<path d="M47.4775 133L61.8886 128.215L55.5132 108.742C53.5209 102.628 54.6498 96.3137 61.0917 94.187C64.2794 93.1236 66.4045 94.3199 67.7327 98.3076L76.034 123.563L90.4451 118.778L81.2805 90.8639C77.2958 78.7679 69.1938 76.9734 60.5604 79.8313C52.9232 82.3568 50.2003 87.7402 49.2706 91.7943H49.1378C49.1378 91.7943 48.8721 90.5316 48.4072 89.1359L47.1454 85.3476L33.2656 89.9334L47.4111 133H47.4775Z" fill="#964693"/>
<path d="M90.1079 94.6516C93.8933 106.083 105.781 114.457 121.188 109.406C127.763 107.213 134.138 102.627 137.525 97.1107L128.892 88.7366C126.169 92.1926 122.716 95.5821 118.465 96.9778C113.883 98.5064 108.703 97.5095 105.914 92.5913L133.076 83.6855C132.744 82.1569 132.411 80.5618 131.947 79.0332C128.028 67.0701 117.934 60.5569 105.183 64.7439C91.3033 69.3298 86.0569 81.9575 90.1743 94.5852L90.1079 94.6516ZM103.456 84.2172C103.058 80.5618 104.121 76.8399 108.238 75.5107C111.957 74.3144 115.145 76.5076 116.274 79.9636L103.39 84.2172H103.456Z" fill="#964693"/>
<path d="M154.396 96.973L170.667 91.5896L168.94 70.1226C168.741 67.597 168.276 65.2709 168.276 65.2709H168.409C168.409 65.2709 169.405 67.3976 170.733 69.5244L182.089 87.8013L198.227 82.4844L196.102 35.4961L181.093 40.4142L184.082 67.597C184.347 70.1226 185.012 72.3158 185.012 72.3158H184.812C184.812 72.3158 184.015 70.2555 182.687 68.0622L168.409 44.6013L156.057 48.6555L158.514 76.0376C158.713 78.5632 159.244 80.8229 159.244 80.8229H159.111C159.111 80.8229 158.381 78.6961 157.119 76.5693L143.438 52.909L128.23 57.8936L154.396 96.973Z" fill="#964693"/>
</svg>
