<svg width="109" height="100" viewBox="0 0 109 100" fill="none" xmlns="http://www.w3.org/2000/svg">
<g clip-path="url(#clip0_307_5593)">
<path fill-rule="evenodd" clip-rule="evenodd" d="M23.3678 57.2322C22.22 53.6107 21.8662 49.7851 22.3303 46.015V45.2318C22.5327 42.8318 22.7858 40.5075 23.0895 38.2337C23.3931 35.96 23.798 33.6862 24.3042 31.4377C24.3219 31.3732 24.3624 31.3172 24.4182 31.28C24.474 31.2429 24.5413 31.2271 24.6078 31.2356H24.785C25.8066 33.0539 26.3791 35.0892 26.4552 37.1726V37.8042L26.9107 41.2654C27.0372 42.4528 27.1637 43.6402 27.265 44.8024V46.0403C27.5748 49.2751 27.387 52.5382 26.7082 55.7164C26.4552 56.6259 25.8478 58.0912 24.785 58.2428C24.2535 58.2428 23.6968 57.9901 23.1148 57.0806L23.3678 57.2322ZM29.1629 39.1685L61.1244 38.9916C61.1937 38.998 61.2582 39.03 61.305 39.0815C61.3519 39.1329 61.3777 39.2 61.3774 39.2695V40.8359V41.1391C61.2003 45.1813 60.8966 52.0278 60.4664 59.5312L59.6313 70.8242C59.1505 76.9886 58.695 83.1783 58.2901 89.2922C58.332 91.2775 57.9525 93.2492 57.1766 95.0776C56.6729 95.9054 55.9509 96.579 55.0895 97.0246C54.228 97.4702 53.2605 97.6706 52.2926 97.604C50.7995 97.604 48.1424 97.7304 44.9285 97.7556C41.7147 97.7809 37.8176 97.7556 33.9204 97.7556C30.4029 97.7556 26.9866 97.7556 24.1017 97.7556C21.2168 97.7556 19.0405 97.7556 17.6993 97.6293C16.7314 97.6959 15.7638 97.4954 14.9024 97.0499C14.041 96.6043 13.3189 95.9307 12.8152 95.1029C11.949 93.2331 11.4918 91.2006 11.474 89.1406C11.0691 83.0099 10.6221 76.8539 10.1328 70.6727C9.34832 60.3397 8.56384 49.9309 7.9818 39.5474C7.97831 39.5142 7.98144 39.4807 7.99102 39.4487C8.0006 39.4167 8.01644 39.3869 8.03762 39.3611C8.0588 39.3352 8.0849 39.3138 8.11441 39.2981C8.14392 39.2824 8.17626 39.2727 8.20956 39.2695L20.6348 39.0422C20.6703 39.042 20.7054 39.0493 20.7379 39.0635C20.7703 39.0777 20.7994 39.0987 20.8233 39.1249C20.8472 39.1511 20.8652 39.182 20.8764 39.2156C20.8875 39.2492 20.8914 39.2848 20.8879 39.3201C20.8879 40.5075 20.6601 41.8465 20.5336 43.0591C20.0021 48.6172 19.4201 54.4027 21.4952 58.3944C21.8354 59.1068 22.3381 59.7298 22.9629 60.2134C23.4013 60.5717 23.9412 60.7838 24.5066 60.8197C25.0777 60.8646 25.6495 60.7416 26.1515 60.466C26.8529 60.0842 27.4585 59.5486 27.9229 58.8996C30.6053 55.3122 29.7449 47.4551 29.1376 41.9981C29.1376 41.0886 28.9352 40.2296 28.8592 39.4717C28.8552 39.4375 28.8589 39.4029 28.8702 39.3704C28.8815 39.3379 28.9 39.3083 28.9243 39.284C28.9487 39.2597 28.9783 39.2412 29.0108 39.2299C29.0434 39.2187 29.0781 39.215 29.1123 39.219L29.1629 39.1685ZM23.4691 8.54856H106.068C106.102 8.5445 106.137 8.54824 106.169 8.5595C106.202 8.57076 106.231 8.58924 106.256 8.61357C106.28 8.63789 106.299 8.66741 106.31 8.69991C106.321 8.73241 106.325 8.76705 106.321 8.8012C106.333 8.82918 106.339 8.85925 106.339 8.88962C106.339 8.92 106.333 8.95006 106.321 8.97805C105.916 9.35701 105.713 10.7718 105.587 10.9234C105.499 11.0293 105.397 11.1228 105.283 11.2013V9.91282C105.283 9.91282 105.056 11.176 104.802 11.2265L103.613 11.5044C102.601 11.7571 95.0344 11.656 86.405 11.5044C74.8402 11.5044 61.3521 11.2013 59.4795 11.7823C58.4526 12.1916 57.4761 12.7172 56.5693 13.3487C53.7603 14.9656 49.9391 15.8751 40.6771 15.8751C36.7837 15.8522 32.9202 15.1952 29.2388 13.9298C26.6289 13.1202 24.4456 11.3129 23.1654 8.90226C23.1432 8.88103 23.1255 8.85554 23.1135 8.82732C23.1014 8.7991 23.0952 8.76873 23.0952 8.73804C23.0952 8.70735 23.1014 8.67698 23.1135 8.64876C23.1255 8.62054 23.1432 8.59505 23.1654 8.57382L23.4691 8.54856ZM27.9735 6.17375C29.6348 4.41986 31.87 3.31755 34.2747 3.06628C36.6365 2.71501 39.0237 2.56289 41.411 2.61153C42.7016 2.61153 43.9416 2.61153 45.2575 2.76311C46.5393 2.8505 47.8151 3.01077 49.0787 3.24313C53.9628 4.17789 54.2917 4.86002 54.646 5.61794C54.7204 5.78299 54.8049 5.9433 54.8991 6.09796C54.9455 6.14518 54.9714 6.20867 54.9714 6.2748C54.9714 6.34093 54.9455 6.40443 54.8991 6.45165H54.7472L28.2266 6.60323C28.1595 6.60323 28.0951 6.57662 28.0476 6.52924C28.0002 6.48186 27.9735 6.4176 27.9735 6.3506C27.9585 6.2926 27.9585 6.23175 27.9735 6.17375ZM20.9891 6.57797C20.7951 8.09556 21.1158 9.63428 21.9001 10.9486C23.0984 12.7029 24.7885 14.0651 26.7588 14.8646C29.1779 15.917 31.7337 16.6229 34.3506 16.9615C42.5751 18.1236 52.4697 18.0225 57.6574 14.8646C61.5546 12.515 73.17 12.9445 84.583 13.3992C93.7438 13.7529 102.803 14.1066 107.611 12.995C107.849 12.1752 107.944 11.3205 107.89 10.4686C107.865 9.2752 107.704 8.08851 107.409 6.93167C103.411 5.82005 88.632 6.07269 75.8018 6.30007C68.3366 6.30007 61.5039 6.55271 57.8599 6.30007C57.8599 6.30007 57.708 6.30007 57.6827 6.30007L57.5309 6.12322C55.4305 3.24313 55.0509 2.68732 50.4199 1.62623C48.6217 1.22049 46.7938 0.958601 44.9538 0.843051C43.0492 0.7294 41.1394 0.7294 39.2347 0.843051C29.6184 1.22201 28.176 2.93996 26.9866 4.38001C25.7972 5.82005 25.1899 6.57797 20.9891 6.65376V6.57797ZM63.655 39.2695H63.8321C65.2408 39.1064 66.5788 38.5651 67.7039 37.7032C68.7454 36.5137 69.3207 34.9882 69.3235 33.4083C69.3235 33.1557 69.3235 32.903 69.3235 32.6504C69.3746 31.4434 68.9679 30.2616 68.1847 29.3408C66.8895 28.135 65.1976 27.4431 63.4272 27.3955C62.8873 27.3955 62.3053 27.3955 61.6811 27.3955H8.13364C6.26013 27.2799 4.38435 27.582 2.64224 28.2797C1.93877 28.6969 1.35931 29.2936 0.963465 30.0085C0.56762 30.7234 0.369681 31.5306 0.390009 32.3472C0.0499613 34.0988 0.413538 35.9137 1.40225 37.4C2.64472 38.4673 4.1609 39.1673 5.78018 39.4211C5.83147 39.4328 5.87713 39.4618 5.90942 39.5032C5.94171 39.5447 5.95864 39.596 5.95732 39.6485C6.81773 53.1395 7.85527 66.7567 8.89282 80.2224V81.2583C8.89282 82.572 9.04465 83.9615 9.09527 85.3763C9.27241 91.2375 9.47486 97.3514 13.5491 98.7409C15.7299 99.04 17.9275 99.2003 20.1287 99.2209C23.8233 99.3473 28.6315 99.4483 33.5661 99.4736C38.8298 99.4736 44.1693 99.4736 48.2942 99.2462C50.8327 99.2296 53.3678 99.0609 55.886 98.7409C59.9603 97.3514 60.1627 91.1617 60.3652 85.3763C60.3652 83.9615 60.3652 82.572 60.5423 81.2583C61.0737 74.3612 61.6052 67.3631 62.1113 60.3902C62.6174 53.4174 63.0982 46.5961 63.5284 39.8001C63.466 39.8024 63.4047 39.7838 63.3542 39.7471C63.3037 39.7105 63.267 39.6579 63.2501 39.598C63.2427 39.5647 63.2421 39.5304 63.2484 39.4969C63.2547 39.4635 63.2677 39.4317 63.2866 39.4033C63.3055 39.375 63.3299 39.3508 63.3585 39.3322C63.387 39.3135 63.419 39.3008 63.4525 39.2948L63.655 39.2695ZM50.1163 37.1474H28.8086C28.7494 37.1486 28.6917 37.129 28.6454 37.0921C28.5992 37.0551 28.5674 37.0032 28.5556 36.9453L27.0878 29.3661C27.0802 29.3028 27.0969 29.239 27.1344 29.1875C27.172 29.1359 27.2276 29.1005 27.2903 29.0882H34.8821C39.2347 29.0882 43.5367 29.0882 47.8134 28.8608C51.0779 28.8608 54.317 28.6587 57.5815 28.6334C59.6748 28.5438 61.7703 28.7479 63.8068 29.2397C65.6035 29.745 66.8688 30.6798 67.1219 32.2209C67.6533 35.6063 66.4892 36.6926 64.5913 37.021C63.5215 37.1 62.4472 37.1 61.3774 37.021H60.1121C57.4297 37.021 54.7472 37.021 52.0648 37.021L50.1163 37.1474ZM8.28547 37.1474H6.81773C4.1606 37.1474 2.66755 37.299 2.41449 33.6862C2.16143 30.0735 4.21121 29.3155 7.82997 29.0882C10.1058 28.9638 12.3867 28.9638 14.6626 29.0882C17.0413 29.0882 19.7238 29.2903 22.5327 29.265C22.5999 29.265 22.6642 29.2916 22.7117 29.339C22.7591 29.3864 22.7858 29.4506 22.7858 29.5177L21.5711 36.7684C21.568 36.7983 21.5589 36.8274 21.5444 36.8538C21.53 36.8802 21.5104 36.9034 21.4869 36.9222C21.4633 36.941 21.4363 36.955 21.4073 36.9633C21.3783 36.9716 21.348 36.974 21.3181 36.9705H8.28547V37.1474Z" fill="#B55AA5"/>
<path d="M22.0778 84.7463C22.5292 85.2055 23.0838 85.5505 23.6956 85.7526C24.3074 85.9547 24.9587 86.0082 25.5953 85.9084H26.0002C27.0262 85.7121 27.9346 85.1227 28.5308 84.2663C29.1804 83.1566 29.5616 81.9109 29.6443 80.6283C30.0239 76.8387 29.0369 74.5902 27.5945 73.5291C26.8575 73.0098 25.9638 72.76 25.0639 72.8217C24.1512 72.8989 23.2766 73.222 22.5333 73.7565C21.5467 74.4479 20.7824 75.4104 20.3332 76.527C19.884 77.6437 19.7692 78.8666 20.0027 80.0472C20.0519 80.4144 20.128 80.7775 20.2305 81.1336C20.501 82.4998 21.11 83.7766 22.0019 84.8474L22.0778 84.7463ZM22.0778 80.7293C21.9559 79.7224 21.9559 78.7045 22.0778 77.6977C22.1014 77.1132 22.2833 76.5461 22.6041 76.0568C22.925 75.5674 23.3728 75.174 23.8998 74.9186C24.3491 74.7356 24.832 74.6495 25.317 74.666C25.8589 74.7138 26.368 74.9457 26.7594 75.3228C27.1539 75.7051 27.4567 76.1715 27.6451 76.6871C27.9889 77.5885 28.1272 78.5552 28.05 79.5167C28.0665 80.2616 27.9264 81.0017 27.6387 81.6893C27.351 82.3768 26.9222 82.9965 26.3798 83.5084C26.1905 83.6965 25.9653 83.8449 25.7175 83.9447C25.4698 84.0445 25.2045 84.0937 24.9374 84.0894C24.4918 84.0848 24.0553 83.9628 23.6721 83.7357C23.2072 83.4014 22.8197 82.9712 22.536 82.4742C22.2522 81.9773 22.0786 81.4253 22.0272 80.8556L22.0778 80.7293Z" fill="#B55AA5"/>
</g>
<defs>
<clipPath id="clip0_307_5593">
<rect width="107.626" height="98.7316" fill="white" transform="translate(0.390625 0.714844)"/>
</clipPath>
</defs>
</svg>
