<svg width="98" height="102" viewBox="0 0 98 102" fill="none" xmlns="http://www.w3.org/2000/svg">
<g clip-path="url(#clip0_307_5613)">
<path d="M51.0903 74.9321C49.5421 74.9321 48.0173 74.9321 46.3987 74.9321C46.4944 74.7037 46.5728 74.4683 46.6333 74.2281C54.1164 74.4393 59.5822 73.9935 59.5822 73.9935V72.3977L60.2155 73.6649C60.273 73.7691 60.3032 73.8862 60.3032 74.0052C60.3032 74.1242 60.273 74.2413 60.2155 74.3455C60.1591 74.449 60.0784 74.5373 59.9804 74.6027C59.8823 74.6681 59.7698 74.7087 59.6525 74.7209C56.8141 74.9087 53.9053 75.026 51.0199 75.026L51.0903 74.9321ZM11.751 66.6951C7.05932 63.8556 4.47892 60.5467 4.47892 57.05V18.7045C4.47565 18.608 4.49222 18.512 4.52761 18.4222C4.563 18.3325 4.61645 18.251 4.68464 18.1828C4.75283 18.1145 4.8343 18.0611 4.92401 18.0257C5.01372 17.9903 5.10974 17.9737 5.20612 17.977C5.20612 18.2116 5.20612 18.4463 5.20612 18.7045C5.2099 19.7489 5.459 20.7778 5.93333 21.7083C5.66516 21.3665 5.42212 21.0057 5.20612 20.6288V58.1765C6.76836 61.548 9.31095 64.3697 12.5016 66.2727L11.751 66.6951ZM59.676 56.3226H96.2708V19.4085H51.4656L51.0903 18.7045H96.951C96.9636 18.4621 96.9636 18.2193 96.951 17.977C97.1439 17.977 97.3289 18.0536 97.4653 18.19C97.6016 18.3265 97.6782 18.5115 97.6782 18.7045V57.1439C97.6782 57.3369 97.6016 57.5219 97.4653 57.6583C97.3289 57.7948 97.1439 57.8714 96.951 57.8714H59.676V56.4164V56.3226Z" fill="#B65910"/>
<path d="M5.20767 21.9436C4.73141 20.9469 4.48299 19.8567 4.48047 18.752C4.48047 13.8708 9.43014 9.36508 18.5554 5.96232C29.0256 2.39385 40.0319 0.655347 51.0919 0.82298C62.188 0.631425 73.2342 2.3541 83.7456 5.91539C92.7536 9.27121 97.8205 13.8239 97.8205 18.7051C97.8206 18.7995 97.8016 18.893 97.7648 18.98C97.728 19.067 97.674 19.1457 97.6062 19.2114C97.5383 19.2771 97.458 19.3284 97.3699 19.3624C97.2817 19.3964 97.1877 19.4122 97.0933 19.4091H52.3821L60.4047 35.2026C60.4622 35.3068 60.4924 35.4239 60.4924 35.5429C60.4924 35.6619 60.4622 35.779 60.4047 35.8832C60.3518 35.9894 60.272 36.08 60.1732 36.1459C60.0745 36.2118 59.9602 36.2506 59.8418 36.2586V35.5311C14.4267 38.1595 5.20767 20.7233 5.20767 20.7233V21.9436ZM51.0919 2.27795C26.5781 2.27795 5.93488 9.7875 5.93488 18.7051C5.93488 27.6227 26.6015 35.1322 51.0919 35.1322C53.5784 35.1322 56.065 35.1322 58.5281 34.921L50.4585 19.0336C50.3947 18.923 50.3611 18.7976 50.3611 18.6699C50.3611 18.5422 50.3947 18.4167 50.4585 18.3061C50.5232 18.2034 50.6134 18.1192 50.7202 18.0616C50.8271 18.004 50.947 17.9751 51.0684 17.9776H96.2254C95.1463 9.38855 74.9254 2.27795 51.0919 2.27795Z" fill="#B65910"/>
<path d="M50.7635 74.9075H46.4941C46.6759 74.4372 46.8095 73.9498 46.8929 73.4525C52.7106 73.6168 57.2849 73.4525 58.9504 73.2883V36.3038C35.9614 37.5241 22.4026 33.4408 15.1306 29.7564C11.6463 28.1175 8.52096 25.8045 5.93496 22.9509V58.1518C7.50147 61.4374 10.0187 64.1763 13.1601 66.0134L11.6588 66.8113C8.57872 64.8 6.13712 61.9503 4.62131 58.5977C4.60019 58.505 4.60019 58.4088 4.62131 58.3161V20.7684C4.62105 20.608 4.67381 20.4519 4.77139 20.3246C4.86898 20.1973 5.0059 20.1058 5.16084 20.0644C5.31989 20.0294 5.48599 20.0471 5.63409 20.1149C5.78219 20.1826 5.90426 20.2967 5.98188 20.4399C5.98188 20.4399 8.3277 24.7109 16.0924 28.583C23.2706 32.197 36.6652 36.1864 59.7715 34.8488C59.9719 34.8467 60.1653 34.9224 60.311 35.06C60.3784 35.1279 60.4318 35.2085 60.468 35.2971C60.5042 35.3857 60.5226 35.4806 60.5221 35.5763V73.8984C60.523 74.0797 60.4561 74.2549 60.3346 74.3894C60.2131 74.524 60.0457 74.6083 59.8653 74.6259C59.8653 74.6259 56.2058 74.9075 50.9043 74.9075H50.7635Z" fill="#B65910"/>
<path d="M73.0257 39.7562C71.6339 39.7562 70.2732 39.3433 69.1159 38.5697C67.9586 37.7961 67.0566 36.6966 66.524 35.4101C65.9913 34.1237 65.852 32.7082 66.1235 31.3425C66.395 29.9768 67.0653 28.7224 68.0495 27.7378C69.0337 26.7532 70.2877 26.0827 71.6528 25.8111C73.0179 25.5394 74.4329 25.6788 75.7188 26.2117C77.0048 26.7445 78.1039 27.6469 78.8772 28.8047C79.6505 29.9624 80.0632 31.3236 80.0632 32.716C80.0632 34.5832 79.3217 36.3739 78.002 37.6941C76.6822 39.0144 74.8922 39.7562 73.0257 39.7562ZM73.0257 27.2716C71.9298 27.2716 70.8585 27.597 69.9476 28.2066C69.0367 28.8162 68.3271 29.6825 67.9088 30.6959C67.4905 31.7093 67.3822 32.824 67.5978 33.899C67.8133 34.9739 68.3429 35.9607 69.1195 36.7343C69.8961 37.5079 70.8847 38.0335 71.9601 38.2446C73.0356 38.4556 74.1494 38.3426 75.1606 37.9198C76.1718 37.497 77.0348 36.7835 77.6403 35.8697C78.2458 34.9558 78.5665 33.8827 78.5619 32.7864C78.5619 32.0602 78.4185 31.3411 78.14 30.6705C77.8615 29.9999 77.4533 29.3909 76.939 28.8785C76.4246 28.3661 75.8141 27.9604 75.1425 27.6846C74.471 27.4088 73.7516 27.2685 73.0257 27.2716Z" fill="#B65910"/>
<path d="M83.1116 49.5179C82.2022 49.5413 81.3066 49.2928 80.539 48.8044C79.7715 48.316 79.167 47.6097 78.8027 46.7759C78.4385 45.942 78.331 45.0184 78.494 44.1232C78.657 43.2279 79.0832 42.4016 79.718 41.7498C80.3528 41.098 81.1674 40.6504 82.0578 40.4641C82.9482 40.2778 83.8739 40.3613 84.7166 40.704C85.5593 41.0466 86.2808 41.6328 86.7888 42.3877C87.2968 43.1426 87.5683 44.0318 87.5686 44.9418C87.5717 45.5416 87.4563 46.1362 87.229 46.6912C87.0016 47.2463 86.6669 47.751 86.244 48.1762C85.8211 48.6015 85.3184 48.9389 84.7647 49.1692C84.211 49.3994 83.6173 49.5179 83.0177 49.5179H83.1116ZM83.1116 41.8441C82.4935 41.8441 81.8894 42.0278 81.3758 42.3718C80.8622 42.7158 80.4624 43.2047 80.2269 43.7763C79.9915 44.348 79.9311 44.9768 80.0534 45.5829C80.1757 46.1889 80.4752 46.745 80.9139 47.1806C81.3525 47.6161 81.9107 47.9115 82.5174 48.0293C83.1241 48.1471 83.7522 48.0819 84.3219 47.8421C84.8915 47.6022 85.3771 47.1985 85.7171 46.6822C86.0571 46.1658 86.2361 45.5601 86.2315 44.9418C86.2253 44.1181 85.8939 43.3302 85.3094 42.75C84.725 42.1697 83.935 41.8441 83.1116 41.8441Z" fill="#B65910"/>
<path fill-rule="evenodd" clip-rule="evenodd" d="M5.01937 77.6335C4.22179 76.507 2.13401 74.0664 2.67355 72.6349C3.75263 72.6349 3.72917 73.3859 4.33908 74.5358C8.28771 80.7734 13.4587 86.1459 19.54 90.3293C28.4072 96.6655 33.1223 98.1908 42.5994 99.1295C42.2709 100.397 41.8018 100.209 40.4412 100.139C27.5158 99.5285 12.2914 87.8418 5.1132 77.6335H5.01937ZM48.3935 48.5105C48.7923 50.0828 46.6576 64.656 46.2823 67.8241C46.0946 69.4434 45.9304 71.0392 45.7193 72.6819C45.344 75.7561 44.734 74.2072 42.9512 76.4836C41.922 77.7809 41.4394 79.4287 41.6058 81.0765C41.7723 82.7243 42.5748 84.2422 43.8426 85.3073C43.8426 85.3073 43.9599 85.4481 44.1476 85.542L42.4117 97.7919C31.879 98.5429 18.6486 89.6253 11.1889 81.7168C6.49723 76.7417 6.96639 75.9204 4.15141 72.0013L29.0874 58.6484C31.8086 61.5114 33.7791 62.2624 36.6644 60.7135C37.9188 59.9454 38.9011 58.8035 39.4733 57.4481C40.0456 56.0928 40.1789 54.5921 39.8548 53.1571L48.4404 48.5809L48.3935 48.5105ZM38.3065 52.5704C38.4707 54.0723 39.0572 54.2835 38.6115 56.1374C37.462 60.8309 31.0814 61.793 29.8616 57.0761L0.773438 72.4941C4.80548 80.5636 10.9099 87.4155 18.4609 92.3475C25.8502 97.6276 36.5471 102.884 43.4204 100.796L45.344 84.6502C40.6523 80.7312 42.3413 78.314 45.9304 75.6153C47.1737 74.7001 47.3614 68.1761 47.6194 66.0641C48.0416 62.6144 48.3466 59.4698 48.7923 56.1374C49.4667 52.9217 49.8825 49.6571 50.0356 46.375L38.3065 52.5704Z" fill="#B65910"/>
<path fill-rule="evenodd" clip-rule="evenodd" d="M21.3003 71.2259C26.6018 72.1411 23.7868 78.7589 19.6113 77.9845C14.5443 77.0458 16.8901 70.4984 21.3003 71.2259ZM22.4028 70.2872C16.4444 68.2456 12.5034 76.8581 18.5557 78.9232C24.6079 80.9883 28.5019 72.3523 22.4028 70.2872Z" fill="#B65910"/>
<path fill-rule="evenodd" clip-rule="evenodd" d="M32.2072 65.9483C35.0456 65.784 33.8962 69.5153 31.8553 69.4449C29.8144 69.3745 29.6737 66.0891 32.2072 65.9483ZM33.0986 64.8453C32.7212 64.7251 32.3239 64.6805 31.9293 64.7139C31.5346 64.7473 31.1505 64.8582 30.7987 65.0401C30.4469 65.2221 30.1343 65.4716 29.8789 65.7744C29.6235 66.0772 29.4302 66.4273 29.3101 66.8048C29.1899 67.1823 29.1453 67.5798 29.1787 67.9746C29.2121 68.3694 29.323 68.7537 29.5048 69.1056C29.6867 69.4576 29.9361 69.7702 30.2388 70.0257C30.5415 70.2812 30.8915 70.4746 31.2688 70.5948C34.6937 71.4161 36.5704 65.6667 33.0517 64.8453H33.0986Z" fill="#B65910"/>
<path d="M45.3445 58.5297C45.7995 58.8368 46.1187 59.3075 46.2359 59.8439C46.2857 60.111 46.2823 60.3853 46.226 60.651C46.1696 60.9168 46.0614 61.1689 45.9075 61.3927C45.5915 61.8494 45.1133 62.1683 44.5704 62.2845C44.0446 62.3557 43.5112 62.2262 43.0766 61.9218C42.6419 61.6174 42.3377 61.1604 42.2246 60.6418C42.1729 60.371 42.1753 60.0926 42.2316 59.8228C42.288 59.5529 42.3972 59.2969 42.553 59.0695C42.7013 58.8406 42.894 58.6437 43.1196 58.4906C43.3452 58.3374 43.5992 58.231 43.8666 58.1777C44.1373 58.126 44.4156 58.1284 44.6853 58.1848C44.9551 58.2412 45.211 58.3504 45.4383 58.5062L45.3445 58.5297ZM45.3445 60.0316C45.2807 59.7344 45.1041 59.4736 44.8519 59.3041C44.6005 59.1465 44.2995 59.088 44.0074 59.1399C43.8612 59.1662 43.7217 59.2213 43.5969 59.3019C43.4721 59.3824 43.3645 59.4869 43.2802 59.6092C43.125 59.8703 43.0669 60.1778 43.116 60.4775C43.1423 60.6237 43.1974 60.7633 43.2779 60.8881C43.3584 61.013 43.4628 61.1207 43.5851 61.205C43.8454 61.3622 44.1534 61.4205 44.4531 61.3693C44.6021 61.3427 44.7438 61.2851 44.8691 61.2002C44.9944 61.1153 45.1004 61.005 45.1803 60.8764C45.3379 60.6249 45.3964 60.3239 45.3445 60.0316Z" fill="#B65910"/>
<path d="M35.7968 76.1771C36.2721 76.5094 36.5992 77.0139 36.7087 77.5835C36.8182 78.1531 36.7014 78.743 36.3833 79.2279C36.2239 79.4711 36.0171 79.6796 35.7753 79.8409C35.5334 80.0022 35.2615 80.113 34.9758 80.1666C34.6939 80.2227 34.4038 80.2226 34.122 80.1662C33.8402 80.1098 33.5723 79.9983 33.3337 79.838C33.0923 79.6767 32.8852 79.4692 32.7242 79.2276C32.5632 78.986 32.4514 78.7149 32.3954 78.43C32.285 77.8576 32.4057 77.2647 32.731 76.781C33.0562 76.2973 33.5597 75.9621 34.1313 75.8486C34.708 75.7462 35.3021 75.8634 35.7968 76.1771ZM35.7968 77.7729C35.7726 77.6108 35.714 77.4557 35.625 77.3181C35.536 77.1805 35.4186 77.0635 35.2807 76.975C35.1445 76.8833 34.9914 76.8194 34.8303 76.7872C34.6693 76.755 34.5034 76.755 34.3424 76.7873C34.1813 76.8143 34.0274 76.874 33.8902 76.9628C33.753 77.0516 33.6355 77.1676 33.5448 77.3036C33.3627 77.5788 33.2951 77.9142 33.3565 78.2386C33.4178 78.5629 33.6032 78.8505 33.8732 79.0401C34.0095 79.1319 34.1626 79.1957 34.3236 79.2279C34.4847 79.2601 34.6505 79.2601 34.8116 79.2279C34.9736 79.2037 35.1286 79.1451 35.2662 79.056C35.4037 78.967 35.5207 78.8495 35.6091 78.7116C35.706 78.5778 35.7729 78.4247 35.8053 78.2627C35.8376 78.1007 35.8348 77.9337 35.7968 77.7729Z" fill="#B65910"/>
<path d="M38.308 84.9569C38.5722 85.1333 38.7978 85.3615 38.9712 85.6278C39.1446 85.894 39.2621 86.1927 39.3167 86.5057C39.3828 86.8151 39.3857 87.1347 39.3253 87.4452C39.2648 87.7557 39.1422 88.0508 38.9648 88.3127C38.7908 88.5814 38.5637 88.8116 38.2974 88.9891C38.0312 89.1667 37.7314 89.2879 37.4166 89.3453C37.1021 89.4114 36.7775 89.4122 36.4627 89.3476C36.148 89.283 35.8499 89.1544 35.5868 88.9698C35.3183 88.7957 35.0882 88.5685 34.9107 88.3021C34.7332 88.0358 34.612 87.7359 34.5547 87.421C34.4833 87.1073 34.4771 86.7824 34.5365 86.4662C34.5959 86.1501 34.7196 85.8496 34.9 85.5833C35.0804 85.317 35.3136 85.0906 35.5851 84.9183C35.8566 84.746 36.1606 84.6313 36.4782 84.5814C36.7927 84.5153 37.1173 84.5145 37.4321 84.5791C37.7468 84.6437 38.045 84.7723 38.308 84.9569ZM38.308 86.67C38.2207 86.2893 37.995 85.9546 37.6746 85.7313C37.514 85.6248 37.3338 85.5513 37.1445 85.515C36.9553 85.4788 36.7607 85.4805 36.5721 85.5201C36.1847 85.5916 35.8401 85.8102 35.6103 86.1303C35.405 86.4674 35.3299 86.868 35.3992 87.2567C35.4784 87.6347 35.6959 87.9695 36.0091 88.1954C36.1715 88.3076 36.3556 88.3844 36.5496 88.4208C36.7436 88.4572 36.9431 88.4523 37.1351 88.4066C37.5157 88.3341 37.8527 88.115 38.0734 87.7964C38.1846 87.6333 38.2625 87.4499 38.3028 87.2566C38.3431 87.0633 38.3448 86.864 38.308 86.67Z" fill="#B65910"/>
<path d="M26.1793 81.5781C26.5119 81.7965 26.7974 82.0792 27.019 82.4097C27.2406 82.7402 27.3938 83.1118 27.4695 83.5025C27.5495 83.9053 27.5492 84.3199 27.4687 84.7226C27.3882 85.1253 27.229 85.5081 27.0004 85.8492C26.5512 86.5087 25.8599 86.9642 25.0768 87.1164C24.6883 87.202 24.2866 87.2088 23.8954 87.1365C23.5042 87.0642 23.1314 86.9143 22.7991 86.6956C22.4668 86.4768 22.1816 86.1937 21.9604 85.863C21.7392 85.5322 21.5864 85.1605 21.5111 84.7697C21.4258 84.3672 21.4234 83.9515 21.5041 83.548C21.5847 83.1445 21.7468 82.7617 21.9803 82.423C22.2012 82.0877 22.4875 81.8006 22.8221 81.5788C23.1567 81.357 23.5326 81.2051 23.9273 81.1323C24.3297 81.0469 24.7452 81.0445 25.1486 81.1252C25.5519 81.2059 25.9346 81.368 26.2732 81.6016L26.1793 81.5781ZM26.3904 83.7137C26.2924 83.2066 25.9971 82.7592 25.5694 82.4699C25.3593 82.3251 25.1225 82.2236 24.8728 82.1712C24.6232 82.1188 24.3655 82.1166 24.115 82.1648C23.8598 82.2096 23.617 82.308 23.4026 82.4536C23.1883 82.5993 23.0073 82.7888 22.8717 83.0096C22.727 83.2198 22.6255 83.4567 22.5731 83.7065C22.5208 83.9563 22.5186 84.214 22.5668 84.4646C22.6648 84.9717 22.9601 85.4191 23.3878 85.7084C23.602 85.8539 23.8428 85.9557 24.0964 86.0081C24.35 86.0604 24.6114 86.0622 24.8657 86.0135C25.3543 85.9449 25.7987 85.6932 26.1089 85.3094C26.2544 85.0951 26.3562 84.8543 26.4085 84.6006C26.4608 84.3469 26.4627 84.0854 26.4139 83.831L26.3904 83.7137Z" fill="#B65910"/>
</g>
<defs>
<clipPath id="clip0_307_5613">
<rect width="96.9526" height="100.511" fill="white" transform="translate(0.773438 0.824219)"/>
</clipPath>
</defs>
</svg>
