<svg width="55" height="49" viewBox="0 0 55 49" fill="none" xmlns="http://www.w3.org/2000/svg">
<path d="M54.4252 21.913C54.4252 36.2004 40.9835 49 26.6606 49C12.3376 49 0.726562 40.1569 0.726562 25.8696C0.726562 11.5822 12.3376 0 26.6606 0C40.9835 0 54.4252 7.62568 54.4252 21.913Z" fill="#39BAC9"/>
<path fill-rule="evenodd" clip-rule="evenodd" d="M16.8359 17.7881C16.8359 17.232 17.2867 16.7812 17.8428 16.7812H28.5825C29.1386 16.7812 29.5894 17.232 29.5894 17.7881C29.5894 18.3442 29.1386 18.7949 28.5825 18.7949H17.8428C17.2867 18.7949 16.8359 18.3442 16.8359 17.7881ZM16.8359 24.499C16.8359 23.943 17.2867 23.4922 17.8428 23.4922H39.3222C39.8783 23.4922 40.3291 23.943 40.3291 24.499C40.3291 25.0551 39.8783 25.5059 39.3222 25.5059H17.8428C17.2867 25.5059 16.8359 25.0551 16.8359 24.499ZM17.8428 30.2031C17.2867 30.2031 16.8359 30.6539 16.8359 31.21C16.8359 31.766 17.2867 32.2168 17.8428 32.2168H33.2811C33.8372 32.2168 34.288 31.766 34.288 31.21C34.288 30.6539 33.8372 30.2031 33.2811 30.2031H17.8428Z" fill="#FAFAFA"/>
</svg>
