<svg width="60" height="55" viewBox="0 0 60 55" fill="none" xmlns="http://www.w3.org/2000/svg">
<path d="M60 24.4845C60 40.4484 44.981 54.75 28.9773 54.75C12.9736 54.75 0 44.8692 0 28.9053C0 12.9413 12.9736 0 28.9773 0C44.981 0 60 8.52053 60 24.4845Z" fill="black"/>
<path fill-rule="evenodd" clip-rule="evenodd" d="M38.8157 36.6567C39.255 37.096 39.9673 37.096 40.4067 36.6567C40.846 36.2173 40.846 35.505 40.4067 35.0657L32.7189 27.378L40.4096 19.6873C40.849 19.2479 40.849 18.5356 40.4096 18.0963C39.9703 17.6569 39.258 17.6569 38.8187 18.0963L31.128 25.787L23.4361 18.0951C22.9968 17.6558 22.2845 17.6558 21.8451 18.0951C21.4058 18.5345 21.4058 19.2468 21.8451 19.6861L29.537 27.378L21.8481 35.0668C21.4087 35.5062 21.4087 36.2185 21.8481 36.6578C22.2874 37.0972 22.9997 37.0972 23.4391 36.6578L31.128 28.9689L38.8157 36.6567Z" fill="white"/>
</svg>
