<svg width="21" height="21" viewBox="0 0 21 21" fill="none" xmlns="http://www.w3.org/2000/svg">
<path d="M10.0566 18.5703C12.1784 18.5703 14.2132 17.7275 15.7135 16.2272C17.2138 14.7269 18.0566 12.692 18.0566 10.5703C18.0566 8.44858 17.2138 6.41375 15.7135 4.91346C14.2132 3.41317 12.1784 2.57031 10.0566 2.57031C7.93491 2.57031 5.90008 3.41317 4.39979 4.91346C2.8995 6.41375 2.05664 8.44858 2.05664 10.5703C2.05664 12.692 2.8995 14.7269 4.39979 16.2272C5.90008 17.7275 7.93491 18.5703 10.0566 18.5703ZM10.0566 0.570312C11.3699 0.570313 12.6702 0.82897 13.8835 1.33152C15.0967 1.83406 16.1991 2.57066 17.1277 3.49924C18.0563 4.42783 18.7929 5.53022 19.2954 6.74348C19.798 7.95673 20.0566 9.25709 20.0566 10.5703C20.0566 13.2225 19.0031 15.766 17.1277 17.6414C15.2523 19.5167 12.7088 20.5703 10.0566 20.5703C4.52664 20.5703 0.0566406 16.0703 0.0566406 10.5703C0.0566406 7.91815 1.11021 5.37461 2.98557 3.49924C4.86094 1.62388 7.40448 0.570313 10.0566 0.570312ZM10.5566 5.57031V10.8203L15.0566 13.4903L14.3066 14.7203L9.05664 11.5703V5.57031H10.5566Z" fill="white"/>
</svg>
