<svg width="183" height="168" viewBox="0 0 183 168" fill="none" xmlns="http://www.w3.org/2000/svg">
<path fill-rule="evenodd" clip-rule="evenodd" d="M143.454 96.3163C145.248 93.2417 145.804 83.8045 145.206 77.3564L145.077 76.0327C144.736 71.9759 144.308 68.0473 143.753 64.2041C143.24 60.3609 142.556 56.5177 141.702 52.6745C141.659 52.461 141.403 52.2901 141.189 52.3328C141.061 52.3328 140.975 52.4183 140.933 52.5037C139.052 55.2793 138.625 58.5247 138.07 62.5387L137.941 63.6063C137.685 65.5279 137.429 67.4922 137.215 69.4565C137.001 71.4635 136.788 73.4705 136.617 75.4348C136.531 76.4597 136.489 76.9721 136.446 77.5273C135.976 82.5234 136.275 89.6547 137.386 93.8396C137.813 95.3768 138.882 97.8963 140.633 98.1952C141.531 98.366 142.471 97.7682 143.454 96.2309V96.3163ZM133.668 65.7841L79.8714 65.5279H79.8286C79.6149 65.5279 79.4014 65.7414 79.4014 65.9549L79.5296 68.6025V68.9868C79.8714 75.8192 80.3841 87.3915 81.0678 100.074C81.5378 106.479 82.0079 112.842 82.478 119.205C83.2471 129.624 84.059 140.044 84.7426 150.42C84.999 154.562 85.298 157.85 86.6226 160.242C87.99 162.676 90.383 164.042 94.8696 164.298C97.3907 164.427 101.877 164.512 107.304 164.555C112.816 164.555 119.311 164.555 125.892 164.555C125.934 164.555 125.977 164.555 126.062 164.555C132.002 164.555 137.77 164.555 142.599 164.555C147.299 164.512 151.145 164.427 153.41 164.298C157.896 164.042 160.289 162.676 161.657 160.242C162.981 157.893 163.28 154.562 163.537 150.42C164.22 140.044 164.99 129.624 165.801 119.205C167.126 101.611 168.451 83.9753 169.305 66.4246C169.305 66.1684 169.134 65.9976 168.878 65.9549L148.068 65.5279H147.983C147.727 65.5279 147.556 65.7414 147.598 65.9976C147.769 68.0046 147.94 70.1824 148.154 72.3603C149.051 81.7548 150.034 91.4909 146.53 98.2379C145.847 99.6044 144.992 100.629 144.052 101.312C143.24 101.91 142.343 102.295 141.445 102.337C140.548 102.423 139.608 102.209 138.668 101.739C137.642 101.184 136.617 100.288 135.677 99.0493C131.147 92.9855 132.643 79.7478 133.626 70.4814C133.797 68.9441 133.968 67.4922 134.096 66.1684V66.083C134.096 65.8268 133.925 65.656 133.668 65.656V65.7841ZM143.283 14.0288L3.81202 13.858C3.59837 13.858 3.38469 14.0715 3.38469 14.285C3.38469 14.4131 3.42742 14.4985 3.51288 14.5839C4.19656 15.2245 4.53843 17.6158 4.75208 17.8293C4.96573 18.0855 5.05117 18.2136 5.26482 18.2991V16.292C5.47847 16.3774 5.69204 18.4272 6.11934 18.5126C6.54664 18.598 7.18764 18.7261 8.17043 18.9823C9.8369 19.4093 22.6558 19.2385 37.2268 19.0677C56.7544 18.8542 79.5295 18.5553 82.6916 19.5374C84.2726 20.0072 85.7254 20.8612 87.3919 21.8433C92.1349 24.619 98.5871 26.3698 114.269 26.0282C120.807 25.9001 127.9 24.9179 133.583 22.7401C138.283 20.9466 142.001 18.2991 143.71 14.5412C143.795 14.3277 143.71 14.0715 143.496 13.9861C143.454 13.9861 143.368 13.9861 143.325 13.9861L143.283 14.0288ZM135.677 10.0575C133.284 7.06833 129.31 5.57374 125.037 4.8051C120.849 4.07916 116.406 4.03646 112.987 4.03646C110.765 4.03646 108.629 4.12186 106.492 4.29267C104.356 4.46348 102.219 4.7624 100.04 5.18942C91.793 6.76941 91.2802 7.92238 90.6393 9.20345C90.5111 9.45966 90.383 9.71587 90.1693 10.0148C90.0411 10.1856 90.0411 10.4845 90.2547 10.6126C90.3402 10.698 90.4256 10.698 90.5111 10.698L135.335 10.7834C135.549 10.7834 135.762 10.5699 135.762 10.3564C135.762 10.271 135.762 10.1429 135.677 10.1002V10.0575ZM147.47 10.7407C147.812 13.5591 147.214 15.9931 145.932 18.0855C144.265 20.8612 141.36 23.039 137.728 24.7471C134.053 26.4552 129.566 27.6082 124.781 28.2914C110.851 30.2557 94.1859 30.0849 85.4262 24.7471C78.8458 20.7331 59.2327 21.5017 39.9188 22.2277C24.4505 22.8255 9.19589 23.4233 1.03446 21.5444C0.649893 20.0926 0.521765 18.7688 0.564495 17.445C0.607225 16.1212 0.906346 12.8331 1.37638 11.4667C8.12772 9.54506 33.082 9.97208 54.7461 10.3564C67.3942 10.5699 78.8885 10.7834 85.0417 10.4845C85.1698 10.4845 85.2981 10.3991 85.3836 10.271L85.5972 9.97208C89.3147 4.97591 89.9557 4.07916 97.7752 2.28566C100.724 1.60242 103.843 1.1754 107.005 0.961888C110.21 0.748376 113.457 0.705671 116.662 0.833778C132.899 1.47431 135.292 4.37808 137.343 6.85481C138.967 8.81912 140.377 10.5272 147.47 10.698V10.7407ZM75.6838 65.9549H75.3848C72.4364 65.3144 70.2999 64.6311 68.8471 63.2219C67.3515 61.8128 66.4969 59.5923 66.1123 55.9626C66.1123 55.5355 66.0269 55.1085 66.0269 54.6815C66.0269 52.7172 66.4969 50.7102 67.9924 49.0875C69.488 47.4648 72.0091 46.2264 76.0257 45.7994C76.923 45.714 77.9058 45.6286 78.9741 45.6286H169.22C173.023 45.6286 176.227 45.8848 178.492 47.1232C180.671 48.3188 182.039 50.4539 182.252 54.2118C182.509 58.5674 181.996 61.0868 180.586 62.7095C179.176 64.3322 176.74 65.1436 173.194 66.1257C173.023 66.1684 172.895 66.3392 172.895 66.51C171.442 89.3131 169.69 112.33 167.981 135.09L167.852 136.841C167.681 139.019 167.596 141.41 167.511 143.801C167.169 153.708 166.827 164.042 159.947 166.348C159.05 166.647 154.863 166.946 148.838 167.16C142.599 167.373 134.438 167.544 126.148 167.587H126.062C117.175 167.587 108.159 167.416 101.194 167.202C94.3995 166.989 89.5283 166.647 88.5455 166.348C81.7087 164 81.3241 153.666 81.025 143.801C80.9396 141.41 80.8542 139.061 80.6832 136.841C79.7859 125.183 78.8886 113.355 78.034 101.526C77.1794 89.8682 76.3675 78.2532 75.6411 66.7235C75.8548 66.7235 76.0684 66.5954 76.1111 66.3819C76.1538 66.1684 76.0257 65.9122 75.7693 65.8695L75.6838 65.9549ZM98.5017 62.3679C104.142 62.3679 109.782 62.3679 115.423 62.3679C121.747 62.3679 128.071 62.3679 134.309 62.3679C134.523 62.3679 134.694 62.1971 134.737 62.0263L137.215 49.3437C137.215 49.1302 137.087 48.874 136.873 48.8312C136.873 48.8312 136.788 48.8312 136.745 48.8312C134.651 48.8312 132.515 48.9167 130.421 48.9167C128.284 48.9167 126.148 48.9167 124.054 48.9167C116.705 48.9167 109.483 48.7032 102.219 48.4896C96.707 48.3188 91.2375 48.1907 85.7253 48.1053C81.8797 48.1053 78.1194 48.2761 75.2138 49.1302C72.18 50.0269 70.0435 51.5642 69.659 54.2118C68.7616 59.9339 70.7272 61.7701 74.0601 62.2825C75.5984 62.5387 77.4357 62.496 79.444 62.4106C80.1277 62.4106 80.8114 62.4106 81.4524 62.3679C85.9817 62.3252 90.5111 62.3252 95.0405 62.3252H98.5443L98.5017 62.3679ZM169.134 62.3679C170.032 62.3679 170.844 62.3679 171.613 62.4533C176.099 62.6241 178.62 62.7522 179.048 56.6031C179.432 51.0518 176.014 49.2583 169.861 48.8312C166.699 48.6177 162.81 48.7458 158.324 48.9594C154.307 49.1302 149.863 49.301 145.077 49.2156C144.864 49.2156 144.65 49.3864 144.65 49.6426V49.728L146.658 61.9409C146.658 62.1544 146.872 62.2825 147.086 62.2825L169.092 62.3679H169.134Z" fill="#D5CBC1"/>
<path d="M145.634 142.818C145.634 142.818 143.497 145.423 139.694 144.783C139.481 144.783 139.224 144.697 139.01 144.655C137.13 144.185 135.72 143.288 134.78 141.836C133.797 140.384 133.199 138.335 132.9 135.687C132.259 129.282 133.883 125.481 136.361 123.688C137.6 122.791 139.096 122.407 140.591 122.492C142.087 122.577 143.625 123.133 144.95 124.072C147.813 126.079 149.821 129.837 149.009 134.705C148.924 135.303 148.796 135.901 148.667 136.498C148.069 138.89 147.129 141.196 145.634 142.776V142.818ZM145.762 136.071C145.933 134.876 146.146 132.869 145.89 130.947C145.634 128.94 144.779 127.019 142.813 126.25C141.916 125.908 141.147 125.78 140.421 125.823C139.481 125.908 138.669 126.335 137.985 126.933C137.344 127.531 136.831 128.342 136.489 129.239C135.891 130.734 135.678 132.527 135.806 134.022C136.105 137.566 137.259 139.701 138.626 140.769C139.31 141.281 140.036 141.537 140.805 141.58C141.532 141.58 142.301 141.367 142.942 140.982C144.309 140.085 145.42 138.377 145.719 136.114L145.762 136.071Z" fill="#D5CBC1"/>
</svg>
