<svg width="102" height="114" viewBox="0 0 102 114" fill="none" xmlns="http://www.w3.org/2000/svg">
<path fill-rule="evenodd" clip-rule="evenodd" d="M92.6622 64.4005C94.3063 62.0988 98.5809 57.0727 97.4535 54.1133C95.1988 54.3012 95.2458 55.6635 94.0245 58.0121C87.6831 69.8964 73.732 82.8611 62.9281 90.5647C44.6085 103.623 34.885 106.771 15.3911 108.696C16.0487 111.28 17.0351 110.904 19.8066 110.81C46.4874 109.542 77.6777 85.4446 92.6622 64.4005ZM3.27193 4.36856C2.42641 7.60972 6.8419 37.6257 7.59347 44.202C7.96926 47.5371 8.34505 50.7782 8.76781 54.2073C9.51938 60.5487 10.7877 57.4015 14.4516 62.0518C22.0143 71.6344 12.7136 80.1366 12.6197 80.0896C12.4318 79.9956 12.3848 80.3714 12.009 80.6063L15.579 105.831C37.3277 107.381 64.5722 88.9676 79.9794 72.7148C89.7029 62.4746 88.7165 60.7366 94.5882 52.6572L43.1523 25.1777C37.5625 31.0964 33.2879 32.6465 27.5572 29.4523C20.6051 25.6005 20.4172 18.8364 20.9809 13.8572L3.27193 4.36856ZM23.9403 12.7298C23.5645 15.8301 22.3901 16.2998 23.3296 20.1047C25.6782 29.8282 38.8777 31.7071 41.3673 21.9836L101.446 53.7846C92.8502 70.601 83.2206 81.8276 64.9949 94.7923C49.7286 105.69 27.6981 116.541 13.5122 112.266L9.42543 78.8214C18.8671 70.7419 15.6259 65.7627 8.20415 60.2199C5.66759 58.294 5.24483 44.8596 4.68115 40.538C3.78865 33.4451 3.17803 26.9628 2.28553 20.1047C1.76882 16.065 -0.438929 3.75787 0.0777778 0L23.9403 12.7298Z" fill="#E4DED8"/>
<path fill-rule="evenodd" clip-rule="evenodd" d="M59.0779 51.1991C48.1801 53.031 53.9579 66.7473 62.554 65.1502C73.029 63.2243 68.1908 49.6959 59.0779 51.1991ZM56.8232 49.2262C69.0833 45.0456 77.0217 62.8015 64.7147 67.0291C53.0653 71.1158 44.2813 53.5478 56.8232 49.2262Z" fill="#E4DED8"/>
<path fill-rule="evenodd" clip-rule="evenodd" d="M36.6235 40.3046C30.7518 39.9758 33.1475 47.6325 37.3751 47.5386C41.6027 47.4446 41.7906 40.5865 36.6235 40.3046ZM34.7915 38.0499C43.3407 36.077 46.1121 48.1022 38.4555 49.9342C31.3625 51.5782 27.5107 39.741 34.7915 38.0499Z" fill="#E4DED8"/>
<path d="M9.70766 25.0355C8.72122 25.6931 8.11056 26.6796 7.8757 27.76C7.6878 28.8404 7.8757 30.0147 8.53332 31.0011C9.19095 31.9876 10.1773 32.5982 11.2577 32.8331C12.3381 33.021 13.5124 32.8331 14.4989 32.1755C15.4853 31.5179 16.096 30.5314 16.3308 29.451C16.5187 28.3706 16.3308 27.1963 15.6732 26.2098C15.0156 25.2234 14.0291 24.6128 12.9488 24.3779C11.8684 24.143 10.6941 24.3779 9.70766 25.0355ZM9.80155 28.1358C9.8955 27.5721 10.2713 27.0084 10.788 26.6327C11.3047 26.2569 11.9623 26.1629 12.526 26.2569C13.0897 26.3508 13.6534 26.7266 14.0292 27.2433C14.405 27.76 14.4989 28.4176 14.405 28.9813C14.311 29.545 13.9352 30.1087 13.4185 30.4844C12.9018 30.8602 12.2442 30.9542 11.6805 30.8602C11.1168 30.7663 10.5531 30.3905 10.1773 29.8738C9.80156 29.3571 9.7076 28.7464 9.80155 28.1358Z" fill="#E4DED8"/>
<path d="M29.2015 61.3922C28.1681 62.0968 27.5104 63.1302 27.2756 64.3045C27.0407 65.4319 27.2756 66.6532 27.9802 67.6866C28.6848 68.72 29.7182 69.3777 30.8925 69.6125C32.0199 69.8474 33.2412 69.6126 34.2746 68.908C35.308 68.2034 35.9657 67.1699 36.2006 65.9956C36.4354 64.8682 36.2005 63.6469 35.4959 62.6135C34.7913 61.5801 33.7579 60.9225 32.5836 60.6876C31.5032 60.4997 30.2819 60.7346 29.2015 61.3922ZM29.2484 64.6803C29.3894 64.0227 29.7652 63.4121 30.3289 63.0363C30.9395 62.6605 31.5971 62.5196 32.2547 62.6605C32.9124 62.8014 33.523 63.1772 33.8988 63.7409C34.2746 64.3515 34.4155 65.0092 34.2746 65.6668C34.1337 66.3244 33.7579 66.935 33.1943 67.3108C32.5836 67.6866 31.926 67.8275 31.2683 67.6866C30.6107 67.5457 30 67.1699 29.6242 66.6063C29.2015 66.0426 29.1075 65.338 29.2484 64.6803Z" fill="#E4DED8"/>
<path d="M23.8945 79.4796C22.7671 80.2311 22.0156 81.4054 21.7807 82.6737C21.5458 83.942 21.7807 85.3042 22.5323 86.4316C23.2839 87.559 24.4582 88.3105 25.7265 88.5454C26.9947 88.7803 28.357 88.5454 29.4843 87.7938C30.6117 87.0422 31.3633 85.8679 31.5981 84.5996C31.833 83.3314 31.5982 81.9691 30.8466 80.8418C30.095 79.7144 28.9207 78.9628 27.6524 78.728C26.3841 78.4931 25.0688 78.728 23.8945 79.4796ZM23.7066 83.0495C23.8476 82.2979 24.3173 81.5933 25.0219 81.1236C25.7265 80.6539 26.5251 80.513 27.3236 80.6539C28.0752 80.7948 28.7797 81.2645 29.2495 81.9221C29.7192 82.6267 29.8601 83.4253 29.7192 84.2239C29.5783 84.9754 29.1085 85.68 28.4509 86.1498C27.7463 86.6195 26.9478 86.7604 26.1493 86.6195C25.3977 86.4785 24.6931 86.0089 24.2233 85.3512C23.7066 84.6466 23.5657 83.8011 23.7066 83.0495Z" fill="#E4DED8"/>
<path d="M49.0241 72.5275C47.5679 73.5139 46.6754 74.9701 46.3936 76.5203C46.0648 78.1174 46.3936 79.8084 47.333 81.2176C48.3195 82.6738 49.7757 83.5663 51.3258 83.8481C52.9229 84.1769 54.6139 83.8481 56.0231 82.9086C57.4793 81.9222 58.3718 80.466 58.6536 78.9159C58.9824 77.3658 58.6536 75.6277 57.7141 74.2185C56.7277 72.8093 55.2715 71.8699 53.7214 71.588C52.1713 71.2592 50.4803 71.5411 49.0241 72.5275ZM48.5543 76.943C48.7422 75.9096 49.3529 74.9701 50.2454 74.3595C51.1848 73.7488 52.2652 73.561 53.2517 73.7489C54.2381 73.9367 55.1776 74.5474 55.8352 75.4399C56.4459 76.3794 56.6338 77.4597 56.4459 78.4462C56.258 79.4326 55.6473 80.372 54.7548 81.0297C53.8154 81.6403 52.735 81.8282 51.7485 81.6403C50.7151 81.4524 49.8226 80.8418 49.165 79.9493C48.5543 79.0568 48.3664 77.9294 48.5543 76.943Z" fill="#E4DED8"/>
</svg>
