<svg width="47" height="55" viewBox="0 0 47 55" fill="none" xmlns="http://www.w3.org/2000/svg">
<path d="M38.5956 30.7724C38.5956 30.7724 38.3392 30.687 38.2538 30.6015L7.44542 11.4282C7.14631 11.2147 6.93266 10.9158 6.8472 10.5742C6.76174 10.2326 6.84721 9.84822 7.06086 9.5493C7.53089 8.90877 18.5125 -6.16513 45.5606 4.85208C46.1588 5.1083 46.5007 5.74881 46.3297 6.43205L40.1766 29.8329C40.0911 30.26 39.792 30.5588 39.4074 30.7296C39.1511 30.8151 38.852 30.8578 38.5956 30.7724ZM10.1374 9.97635L38.1256 27.3989L43.5095 6.8591C23.1273 -1.04084 13.0431 6.90178 10.1374 9.97635Z" fill="#D5CBC1"/>
<path d="M32.2723 54.856C32.2723 54.856 32.0586 54.7706 31.9305 54.7279L0.865794 36.4939C0.353034 36.195 0.0966567 35.5972 0.267577 35.0421L6.84797 9.97581C6.93343 9.54878 7.23255 9.24984 7.65985 9.07903C8.04442 8.90822 8.47171 8.95098 8.85628 9.20719L39.6646 28.4233C40.1347 28.7222 40.391 29.32 40.2629 29.8751L38.3827 37.0491C38.2545 37.6042 37.7845 37.9886 37.229 38.0313C35.3916 38.1594 33.8534 39.4405 33.3833 41.234C32.9133 42.9848 33.6397 44.8637 35.178 45.8885C35.648 46.1874 35.8617 46.7852 35.7335 47.2976L33.9815 53.9592C33.8961 54.3435 33.5969 54.6852 33.2124 54.856C32.956 54.9842 32.6569 54.9841 32.3578 54.8987L32.2723 54.856ZM3.08771 34.7431L31.7596 51.5679L32.8278 47.4257C30.905 45.7177 30.0503 43.0274 30.734 40.508C31.4177 37.9885 33.4261 36.067 35.9899 35.5119L37.3999 30.1313L8.94176 12.4099L3.08771 34.7431Z" fill="#D5CBC1"/>
<path d="M11.8468 29.1066C9.15484 28.3807 7.53114 25.605 8.21482 22.9148C8.94123 20.2245 11.7187 18.6018 14.4107 19.285C17.1026 20.011 18.7263 22.7867 18.0427 25.4769C17.3163 28.1672 14.5388 29.7899 11.8468 29.1066ZM13.7697 21.8472C12.4878 21.5056 11.1204 22.2742 10.7786 23.598C10.4367 24.9218 11.2059 26.2456 12.5305 26.5872C13.8552 26.9288 15.1798 26.1602 15.5216 24.8364C15.8634 23.5126 15.0943 22.1888 13.7697 21.8472Z" fill="#D5CBC1"/>
<path d="M17.3593 39.9123C15.1801 39.3572 13.8981 37.1367 14.4536 34.9588C15.0091 32.781 17.2311 31.5 19.4103 32.0551C21.5895 32.6102 22.8714 34.8306 22.3159 37.0085C21.7604 39.1863 19.5385 40.4675 17.3593 39.9123ZM18.7694 34.6171C18.0003 34.4036 17.2311 34.8734 17.0174 35.6421C16.8038 36.4107 17.2738 37.1794 18.0429 37.3929C18.8121 37.6064 19.5812 37.1366 19.7949 36.368C20.0085 35.5993 19.5385 34.8307 18.7694 34.6171Z" fill="#D5CBC1"/>
</svg>
