<svg width="94" height="117" viewBox="0 0 94 117" fill="none" xmlns="http://www.w3.org/2000/svg">
<path d="M1.81856 116.218C1.81856 116.218 1.5622 116.218 1.43401 116.176C1.43401 116.176 1.17764 116.09 1.04945 116.005C1.04945 116.005 0.707588 115.706 0.622128 115.493C0.536668 115.322 0.451172 115.108 0.451172 114.895V70.4842C0.451172 70.228 0.53658 69.9718 0.66477 69.7156C0.83569 69.502 1.00667 69.3313 1.26305 69.2031L20.577 61.474L21.3888 61.1324L21.1752 61.9864C21.0898 62.3708 21.047 62.7124 21.0043 63.054C21.0043 63.3956 20.9615 63.6518 20.9615 63.908V64.2069L20.6625 64.3351L3.14318 71.3809V112.93L91.0388 80.4765V36.1088L64.6316 46.699L64.3752 46.8271L64.1616 46.6135C63.8625 46.3573 63.6061 46.1011 63.307 45.9303C63.0506 45.7595 62.7942 45.5887 62.5378 45.4606L61.555 44.9908L62.5378 44.6065L91.8933 32.8207C91.8933 32.8207 92.3206 32.6926 92.5343 32.7353C92.5343 32.7353 92.9616 32.8207 93.1325 32.9488C93.1325 32.9488 93.4744 33.2477 93.5599 33.4185C93.6453 33.5893 93.7308 33.8455 93.7308 34.059V81.3306C93.7308 81.5868 93.6452 81.8857 93.4743 82.0992C93.3034 82.3127 93.0898 82.4835 92.8334 82.6116L2.24589 116.048C2.24589 116.048 2.11762 116.09 2.03216 116.133C1.9467 116.133 1.86125 116.133 1.77579 116.133L1.81856 116.218Z" fill="#D5CBC1"/>
<path d="M1.81909 71.852C1.81909 71.852 1.43454 71.852 1.30635 71.7239C1.30635 71.7239 1.00721 71.5531 0.879022 71.425C0.879022 71.425 0.579839 70.9553 0.537109 70.699C0.537109 70.4428 0.537104 70.1866 0.665294 69.9304L32.9693 1.30767C33.0975 1.05146 33.311 0.83795 33.5247 0.709843C33.7811 0.581736 34.0374 0.539062 34.3366 0.539062C44.8909 1.56392 53.6933 3.8271 60.872 6.56005C70.358 10.1898 77.152 14.7589 81.7241 18.7303C84.7152 21.3351 87.0654 23.8546 88.8601 26.0324C92.3212 30.3026 93.6459 33.4626 93.7314 33.6334C93.7314 33.6334 93.8595 33.975 93.8595 34.1458C93.8595 34.3166 93.8595 34.4874 93.7314 34.6582C93.7314 34.6582 93.5604 34.9572 93.4322 35.0853C93.304 35.2134 93.1758 35.2987 93.0049 35.3842L66.2986 46.1025L66.4696 46.316C66.726 46.6149 66.8114 46.9565 66.8114 47.2982C66.8114 47.6398 66.6405 47.9814 66.3414 48.2376L66.2132 48.323C66.2132 48.323 66.085 48.4084 65.9995 48.4511C65.7431 48.5365 65.444 48.5792 65.1876 48.4938C64.9312 48.4084 64.6749 48.2803 64.4613 48.0668C63.8203 47.2981 63.1794 46.7857 62.5812 46.4441C62.0257 46.1452 61.5129 46.0171 61.0002 46.1025C60.4447 46.1879 59.9747 46.4868 59.5474 46.8711C58.6928 47.6397 58.2227 48.7073 58.18 48.75L57.6672 49.9457L57.3681 50.5435L56.898 50.0738L56.0007 49.1771C54.9752 48.1522 53.9496 47.3835 52.9241 46.8711C51.8986 46.4014 50.8731 46.1879 49.8903 46.2306C46.6001 46.4441 44.25 49.3478 44.0363 49.6041L43.6518 50.1165L43.4381 50.3727L43.1389 50.2446L42.5408 50.0311C40.7461 49.3906 39.165 49.0489 37.7977 49.0916C36.473 49.0916 35.3194 49.4332 34.4221 50.0738C31.2601 52.2943 31.3028 57.5467 31.3028 57.6748V58.8278V59.4256L30.7472 59.2548L29.6364 58.9559C28.3117 58.6143 27.1153 58.4862 26.1325 58.6143C25.1924 58.6997 24.3805 59.0413 23.7822 59.511C23.1413 60.0235 22.7568 60.7494 22.5004 61.4753C21.9876 62.9699 22.0731 64.4218 22.0731 64.4218C22.0731 64.8061 21.9876 65.1478 21.7739 65.404C21.5603 65.6602 21.2185 65.831 20.8766 65.8737C20.4921 65.8737 20.1502 65.7883 19.8938 65.5321C19.6801 65.3613 19.5521 65.1477 19.4666 64.8915L2.54542 71.6812C2.54542 71.6812 2.37451 71.7239 2.28905 71.7666C2.28905 71.7666 2.11815 71.7666 2.03269 71.7666L1.81909 71.852ZM63.863 44.1809L90.5692 33.4626C89.8428 32.1388 88.4755 29.8756 86.2108 27.1426C84.5871 25.1783 82.4934 22.9578 79.8441 20.7373C75.9984 17.4065 70.5289 13.6914 63.0939 10.446C55.7443 7.2433 46.4719 4.55306 34.9348 3.31469L4.5111 67.9661L19.4238 61.9878C19.5947 61.2191 19.8512 60.3651 20.2785 59.511C20.663 58.7851 21.1757 58.0592 21.9021 57.4613C22.7567 56.7354 23.825 56.2229 25.0642 56.0094C26.1325 55.8386 27.2861 55.8386 28.6107 56.0094C28.7389 54.771 29.1236 53.0203 29.8927 51.3549C30.5337 50.0738 31.4309 48.7928 32.7556 47.8533C34.0375 46.9566 35.4903 46.4441 37.1995 46.3587C38.7805 46.2733 40.5325 46.5295 42.4554 47.1701C42.9681 46.6149 43.8227 45.8036 44.9336 45.1204C46.2155 44.309 47.7966 43.6258 49.634 43.4976C50.9159 43.4122 52.1977 43.6258 53.4369 44.0955C54.5478 44.5225 55.6161 45.163 56.6416 46.0597C56.9835 45.59 57.4108 45.1203 57.9236 44.6933C58.65 44.0955 59.5045 43.6258 60.5301 43.455C61.1283 43.3696 61.7266 43.4122 62.3248 43.5403C62.8375 43.6684 63.3502 43.882 63.863 44.1809Z" fill="#D5CBC1"/>
<path d="M15.2352 94.4851C15.2779 94.8267 15.2352 95.2111 15.0216 95.51C14.8507 95.8089 14.5089 96.0225 14.1243 96.0652C13.7824 96.0652 13.4406 96.0224 13.1842 95.8516C12.8851 95.6381 12.6714 95.3392 12.6287 94.9549V94.784V94.357L12.5859 94.1008V93.8018C12.5859 92.9051 12.7568 92.0084 13.0987 91.2398C13.4405 90.4284 13.9533 89.7025 14.5515 89.0619C15.1497 88.4641 15.9189 87.9517 16.7308 87.6101C17.4999 87.2684 18.3545 87.0977 19.2518 87.0977C20.1491 87.0977 21.0038 87.2684 21.8156 87.6101C22.6275 87.9517 23.354 88.4641 23.9949 89.0619C24.5931 89.6598 25.1059 90.4284 25.4477 91.2398C25.7895 92.0084 25.9604 92.9051 25.9604 93.8018C25.9604 94.1862 25.9605 94.5706 25.8323 94.9976C25.7468 95.3819 25.5331 95.6808 25.2768 95.8943C24.9776 96.0651 24.6358 96.1932 24.2513 96.1078C23.8667 96.0224 23.5676 95.8089 23.354 95.5526C23.1831 95.2537 23.0548 94.9121 23.1403 94.5278C23.1403 94.5278 23.1403 94.3144 23.1403 94.1863C23.1403 94.0582 23.1403 93.9299 23.1403 93.8018C23.1403 93.2894 23.012 92.7771 22.8411 92.3074C22.6275 91.8376 22.3284 91.4105 21.9866 91.0262C21.6447 90.6419 21.1746 90.3857 20.7046 90.1722C20.2346 89.9587 19.7219 89.8733 19.2092 89.8733C18.6964 89.8733 18.1836 90.0014 17.7136 90.1722C17.2436 90.3857 16.8162 90.6846 16.4316 91.0262C16.0898 91.4105 15.7907 91.8376 15.5771 92.3074C15.4062 92.7771 15.2779 93.2894 15.2779 93.8018V94.1863V94.2289V94.357V94.5278L15.2352 94.4851Z" fill="#D5CBC1"/>
<path d="M35.917 79.1954C35.917 79.1954 35.6607 79.1954 35.4898 79.1954C35.4898 79.1954 35.2334 79.11 35.0624 79.0672C34.7206 78.8964 34.507 78.5976 34.4215 78.2986C34.3361 77.9997 34.3361 77.7007 34.4215 77.4018L34.4642 77.2737C34.5923 77.0602 36.9426 72.5338 40.9592 71.8505H41.0018C41.6001 71.7651 42.1983 71.7224 42.7966 71.8505C42.6256 70.5695 42.6684 69.3738 42.9247 68.3062C43.2239 66.8971 43.8649 65.6587 44.7195 64.6765C45.1468 64.1641 45.6168 63.6944 46.1723 63.3101C46.685 62.9257 47.2832 62.5841 47.8814 62.3706C48.4797 62.1144 49.1205 61.9436 49.8042 61.8582C50.4452 61.7728 51.0862 61.7301 51.7699 61.8582C53.2227 62.029 54.6327 62.5414 55.9573 63.5663C57.1538 64.463 58.2221 65.7441 59.0767 67.4095C59.2476 67.7511 59.2475 68.0927 59.1621 68.4343C59.0339 68.776 58.8204 69.0749 58.4785 69.2457C58.1367 69.4165 57.752 69.4165 57.4529 69.3311C57.1111 69.203 56.812 68.9895 56.641 68.6479C56.0001 67.3668 55.1883 66.4273 54.3337 65.7868C53.4364 65.0609 52.4108 64.6766 51.428 64.5911C51.0007 64.5911 50.5734 64.5911 50.1461 64.5911C49.7188 64.6766 49.2915 64.762 48.9069 64.9328C48.5223 65.1036 48.0951 65.3171 47.7533 65.5733C47.4114 65.8295 47.0695 66.1284 46.7704 66.4701C46.1295 67.2387 45.6595 68.2209 45.4886 69.3311C45.3176 70.356 45.4031 71.5516 45.7877 72.8327C45.7877 72.9608 45.8304 73.0462 45.8304 73.1316C46.044 73.3024 46.2576 73.4305 46.4713 73.6014C46.7704 73.8149 47.0695 74.0711 47.3259 74.3273C47.5823 74.5835 47.7105 74.9251 47.7533 75.2667C47.7533 75.6083 47.6251 75.9499 47.3687 76.2061C47.1123 76.4623 46.7705 76.5905 46.4286 76.6332C46.0868 76.6332 45.7449 76.5051 45.4886 76.2489C44.7622 75.5656 44.0785 75.0959 43.3521 74.797C42.6684 74.5408 42.0275 74.4554 41.3865 74.5408C38.7373 75.0105 36.8998 78.4267 36.8144 78.5548C36.7289 78.7257 36.6008 78.8965 36.4298 78.9819C36.2589 79.11 36.0452 79.1954 35.8743 79.2381L35.917 79.1954Z" fill="#D5CBC1"/>
<path d="M80.4849 61.4336C80.4849 61.4336 80.7841 61.4336 80.9123 61.4336C80.9123 61.4336 81.1685 61.519 81.3394 61.5617C81.6813 61.7325 81.895 62.0315 82.0231 62.3304C82.1086 62.6293 82.1086 62.9282 82.0231 63.2271L81.9805 63.3552C81.8523 63.5687 79.5021 68.0951 75.4855 68.8211H75.4427C74.3744 68.9919 73.2635 68.8638 72.1953 68.4795C71.1698 68.0951 70.1015 67.4119 69.1187 66.4298C68.8624 66.1735 68.6914 65.8319 68.6914 65.4903C68.6914 65.1487 68.8195 64.8071 69.0332 64.5508C69.2896 64.2946 69.6314 64.1239 69.9733 64.1239C70.3151 64.1239 70.6569 64.252 70.9133 64.5082C71.6397 65.1914 72.3234 65.6611 73.0498 65.96C73.7335 66.2162 74.3745 66.3016 75.0155 66.2162C75.9128 66.0454 76.6819 65.5757 77.3656 64.9779C78.7329 63.7822 79.5875 62.2022 79.5875 62.1595C79.673 61.9887 79.844 61.8179 79.9722 61.6898C79.9722 61.6898 80.3566 61.4763 80.5276 61.4336H80.4849Z" fill="#D5CBC1"/>
</svg>
