<svg width="93" height="104" viewBox="0 0 93 104" fill="none" xmlns="http://www.w3.org/2000/svg">
<path fill-rule="evenodd" clip-rule="evenodd" d="M8.34817 58.8806C6.85262 56.7882 2.96421 52.2191 3.98973 49.5288C6.04077 49.6996 5.99803 50.938 7.15174 53.0731C12.9203 63.8768 25.6111 75.6627 35.439 82.6659C52.1037 94.5798 60.9488 97.3982 78.6817 99.149C78.0835 101.498 77.1862 101.156 74.6651 101.071C50.3945 99.9176 22.0218 78.054 8.39091 58.8806H8.34817ZM89.7061 4.307C90.4752 7.25347 86.4586 34.5403 85.7749 40.5186C85.4331 43.5078 85.0912 46.497 84.7067 49.6142C84.023 55.379 82.8693 52.4753 79.5363 56.7455C72.6568 65.4568 81.1173 73.1859 81.2028 73.1432C81.3737 73.0578 81.4165 73.3994 81.7583 73.6129L78.5108 96.5441C58.7269 97.9533 33.9434 81.214 19.928 66.4389C11.0829 57.0871 12.0229 55.5498 6.63897 48.205L53.4283 23.2242C58.5132 28.6047 62.4016 30.0138 67.6147 27.1101C73.9387 23.6085 74.1096 17.4593 73.5969 12.9329L89.6634 4.34968L89.7061 4.307ZM70.9049 11.908C71.2467 14.7264 72.315 15.1107 71.4604 18.6123C69.3239 27.4517 57.3167 29.1598 55.0521 20.3204L0.400391 49.2299C8.21998 64.5173 16.9796 74.7232 33.5589 86.509C47.4461 96.416 67.4865 106.28 80.391 102.352L84.1085 71.9475C75.5197 64.6027 78.4681 60.0763 85.2194 55.0374C87.5268 53.2866 87.9114 41.0737 88.4242 37.1451C89.236 30.697 89.7916 24.8041 90.6034 18.5696C91.0735 14.8972 93.0818 3.70916 92.6118 0.292969L70.8621 11.8653L70.9049 11.908Z" fill="#D5CBC1"/>
</svg>
