<svg width="218" height="20" viewBox="0 0 218 20" fill="none" xmlns="http://www.w3.org/2000/svg">
<path d="M217.075 2.89612C216.579 0.265736 212.563 1.36173 213.058 3.93731C213.554 6.5129 214.379 11.6093 212.178 13.4724C209.977 15.3356 206.236 14.7328 203.816 14.7328C203.485 14.7328 151.384 15.1164 107.371 14.7328C68.8587 14.4588 61.3213 11.4997 22.6443 14.13C19.8385 14.13 7.84475 15.5 7.3496 15.5C6.85445 15.5 5.69909 15.5 5.25895 15.5C4.81882 15.5 4.92885 13.8012 4.92885 12.9245V2.29332C4.92885 1.74104 4.70859 1.21138 4.31651 0.820855C3.92444 0.430332 3.39268 0.210938 2.8382 0.210938C2.28373 0.210938 1.75196 0.430332 1.35989 0.820855C0.967818 1.21138 0.747554 1.74104 0.747554 2.29332C0.747554 5.4169 0.747554 8.59528 0.747554 11.7189C0.343859 13.8117 0.534393 15.9752 1.29772 17.966C2.12482 18.8633 3.18059 19.5206 4.35278 19.868C5.52496 20.2153 6.76975 20.2398 7.95479 19.9388C9.44025 19.9388 18.353 18.6784 21.379 18.4592C60.4411 15.6644 68.3635 18.4592 107.316 18.9524C152.705 19.2812 161.617 18.9524 207.062 18.9524C208.673 19.1248 210.303 18.9115 211.814 18.33C213.326 17.7486 214.677 16.8159 215.754 15.6096C216.821 13.6673 217.483 11.5302 217.701 9.3267C217.918 7.1232 217.686 4.89865 217.02 2.78652L217.075 2.89612Z" fill="#141E1F"/>
</svg>
