<svg width="218" height="24" viewBox="0 0 218 24" fill="none" xmlns="http://www.w3.org/2000/svg">
<path d="M5.26875 21.1524C5.44012 17.7286 5.86305 14.3219 6.53414 10.9596C6.84602 9.75395 7.56082 8.68997 8.56083 7.94293C9.56085 7.19588 10.7865 6.8103 12.0358 6.84968C74.121 3.17785 136.356 2.72057 198.489 5.47969C209.052 5.86328 212.078 5.91808 212.738 8.71286C213.254 11.4615 213.549 14.2469 213.618 17.0424C213.893 19.6728 218.075 19.7276 217.8 17.0424C217.943 13.0673 217.171 9.1122 215.544 5.47969C213.948 3.1781 212.518 1.91771 204.541 1.69851C119.374 -0.000277169 101.934 -1.15107 16.9324 2.52051C14.4243 2.5788 11.9238 2.81688 9.45005 3.2329C8.20427 3.37668 7.00089 3.77148 5.91318 4.39327C4.82547 5.01505 3.87618 5.85081 3.12308 6.84968C1.23293 11.3394 0.314338 16.1756 0.427248 21.0428C0.427248 23.6732 5.04868 23.7828 5.26875 21.0428V21.1524Z" fill="#141E1F"/>
</svg>
