<svg width="80" height="73" viewBox="0 0 80 73" fill="none" xmlns="http://www.w3.org/2000/svg">
<path d="M80 32.646C80 53.9312 59.9746 73 38.6364 73C17.2981 73 0 59.8256 0 38.5404C0 17.2551 17.2981 0 38.6364 0C59.9746 0 80 11.3607 80 32.646Z" fill="#39BAC9"/>
<path fill-rule="evenodd" clip-rule="evenodd" d="M51.7543 48.8717C52.34 49.4575 53.2898 49.4575 53.8756 48.8717C54.4614 48.2859 54.4614 47.3361 53.8756 46.7503L43.623 36.4978L53.8763 26.2445C54.4621 25.6587 54.4621 24.7089 53.8763 24.1232C53.2905 23.5374 52.3407 23.5374 51.7549 24.1232L41.5017 34.3764L31.2482 24.1229C30.6624 23.5371 29.7126 23.5371 29.1268 24.1229C28.5411 24.7087 28.5411 25.6585 29.1268 26.2443L39.3803 36.4978L29.1275 46.7506C28.5417 47.3364 28.5417 48.2861 29.1275 48.8719C29.7133 49.4577 30.6631 49.4577 31.2489 48.8719L41.5017 38.6191L51.7543 48.8717Z" fill="white"/>
</svg>
