<svg width="130" height="61" viewBox="0 0 130 61" fill="none" xmlns="http://www.w3.org/2000/svg">
<path d="M129.427 27.2795C129.427 45.0658 112.694 61 94.8633 61C77.0327 61 62.5781 49.9913 62.5781 32.205C62.5781 14.4187 77.0327 0 94.8633 0C112.694 0 129.427 9.49319 129.427 27.2795Z" fill="#39BAC9"/>
<path fill-rule="evenodd" clip-rule="evenodd" d="M82.6348 22.144C82.6348 21.4518 83.1959 20.8906 83.8882 20.8906H97.2581C97.9503 20.8906 98.5115 21.4518 98.5115 22.144C98.5115 22.8363 97.9503 23.3975 97.2581 23.3975H83.8882C83.1959 23.3975 82.6348 22.8363 82.6348 22.144ZM82.6348 30.4995C82.6348 29.8073 83.1959 29.2461 83.8882 29.2461H110.628C111.32 29.2461 111.881 29.8073 111.881 30.4995C111.881 31.1918 111.32 31.7529 110.628 31.7529H83.8882C83.1959 31.7529 82.6348 31.1918 82.6348 30.4995ZM83.8882 37.6016C83.1959 37.6016 82.6348 38.1627 82.6348 38.855C82.6348 39.5472 83.1959 40.1084 83.8882 40.1084H103.107C103.8 40.1084 104.361 39.5472 104.361 38.855C104.361 38.1627 103.8 37.6016 103.107 37.6016H83.8882Z" fill="#FAFAFA"/>
<path d="M7.98022 27.6285C8.66274 25.5022 9.55527 24.1109 10.4215 22.0896C10.5528 21.7483 10.6578 21.3808 10.789 21.0396C10.8941 20.3308 11.2616 19.8583 11.9703 19.727C12.6791 19.622 13.4666 19.8058 13.8604 20.4358C13.9916 20.6458 14.0966 21.0396 14.0966 21.3808C14.3329 22.2208 14.4379 23.0346 14.6742 23.9796C15.1467 27.2872 15.2779 30.8573 15.3829 34.1649C15.3829 34.5324 15.3829 34.8737 15.2779 35.3462C14.8054 36.2912 13.6241 36.6587 12.7841 35.95C12.6791 35.8187 12.5478 35.5825 12.4428 35.4775C12.3116 34.8999 12.4428 32.8786 12.4428 32.7474C12.5478 30.7523 12.3116 28.5998 12.0753 26.7097C12.0753 26.3422 11.9703 26.0009 11.8391 25.3972C11.6028 25.7647 11.4978 25.8697 11.4978 26.1059C10.789 27.6547 10.264 29.5973 9.60777 31.2248C9.21401 32.1961 9.18776 33.1411 8.76774 33.9024C8.42648 34.8474 7.3502 35.1099 6.64143 34.7687C6.53643 34.6374 6.40518 34.5324 6.40518 34.4012C6.30018 34.2962 6.32643 34.1649 6.30018 34.0599C6.06392 33.2986 5.64391 30.3061 5.35515 28.626C5.25015 28.0223 4.77763 26.2372 4.41012 25.2922C4.27887 26.2372 4.12136 27.1822 3.93761 28.2323C3.6226 30.0961 3.33384 32.4061 2.99258 34.4012C2.86133 34.6374 2.86133 34.8737 2.75633 35.1099C2.62507 35.8187 2.15256 36.5275 1.44379 36.4225C1.18128 36.37 1.07628 36.2387 0.866274 36.055C0.551265 35.7662 0.446262 35.1362 0.446262 34.7687C0.446262 33.9549 0.918776 33.2461 0.73502 32.4061C0.577516 31.6974 0.73502 30.7261 0.813773 30.0173C1.10253 27.6547 2.04756 25.2134 2.04756 22.6934C2.04756 22.0896 2.31006 21.5121 2.52007 20.9083C2.78258 20.1995 3.75385 19.7008 4.48887 20.0158C5.40765 20.4095 5.67016 21.3546 6.11642 22.2208C6.93019 23.7959 7.53396 26.1847 7.98022 27.6285ZM20.3443 21.7483C20.1081 23.4021 19.5305 24.9247 19.6355 26.5785C20.3443 26.4735 21.0793 26.421 21.7619 26.2372C22.3919 26.0797 23.3631 26.0272 23.5469 26.841C23.6257 27.2085 23.4157 27.681 23.1794 27.9172C22.7069 28.3898 22.1294 28.5998 21.5256 28.836C20.9481 29.1773 20.3443 29.1773 19.5305 29.4135V30.9886C19.6355 31.3298 19.6355 31.9599 19.7668 32.3011C19.8718 32.9049 20.0031 33.3774 20.2393 33.9549C20.3443 34.3224 20.7118 34.5587 21.1843 34.4274C21.5256 34.3224 21.9194 34.2437 22.1294 34.0862C22.6806 33.7187 23.5732 33.7449 23.8882 34.1124C24.2294 34.5062 24.2557 34.8212 24.1244 35.1624C23.6519 36.3437 22.5494 36.6587 21.3156 36.9212C19.6618 37.2625 18.218 36.37 17.5092 34.9524C16.8005 33.4036 16.5642 30.5948 16.5642 28.941C16.5642 27.6285 16.643 26.946 16.7742 25.7647C16.7742 24.9247 16.9842 24.1109 17.0892 23.2709L17.483 21.1446C17.588 20.672 17.5092 20.0945 18.113 19.9633C18.218 19.9633 18.218 19.8583 18.218 19.727C18.4543 19.0182 19.058 18.9132 19.6355 18.9132C20.9481 19.0182 22.1294 19.1495 23.4157 19.3858C23.7832 19.4908 24.2557 19.622 24.3607 20.1995C24.5969 20.8033 24.1244 21.5121 23.4157 21.5121C22.7069 21.3808 21.9981 21.8533 21.2893 21.6171C20.9481 21.5121 20.7118 21.7483 20.3443 21.7483ZM31.5616 29.256C30.8528 29.256 29.514 29.3873 28.9365 29.4923C28.9103 29.8336 28.9103 30.7786 28.9103 31.1198C28.9103 31.8286 29.0153 32.6424 29.0153 33.3511C29.0153 34.1912 29.1728 34.4799 29.2778 35.1362C29.4878 36.475 29.304 37.42 28.4902 37.6563H27.7815C26.6002 37.6563 26.6789 35.7137 26.4427 34.7687C26.0489 32.4061 25.8389 29.151 25.8389 26.6572C25.8389 25.6072 25.7602 24.4522 25.7602 23.4021C25.7602 22.4571 25.7077 21.6171 25.9439 20.8033C26.0752 20.0945 26.6527 19.8583 27.2565 19.9633C28.3065 20.1995 28.5952 20.567 28.5952 21.6171C28.7002 22.2208 28.5952 22.6934 28.5952 23.1659C28.5952 23.7696 28.6477 26.736 28.8053 26.8935C29.5665 26.8147 30.8528 26.7885 31.5616 26.6835C31.5616 26.4472 31.5878 26.211 31.5878 25.9747C31.5878 24.5572 31.7191 22.9296 31.8241 21.5121C31.8241 21.0396 31.8766 20.5408 32.0603 20.0945C32.1653 19.832 32.4279 19.622 32.7691 19.3858C33.2416 19.0182 33.7141 19.1495 34.1867 19.4908C34.5542 19.622 34.7904 20.3308 34.7904 20.6983C34.7904 22.6934 34.4229 24.2421 34.4229 26.0797V30.4898C34.4229 31.0936 34.3704 32.1961 34.3704 32.7999C34.3704 33.2724 34.4229 34.4274 34.4229 34.7687C34.5279 35.3725 34.6067 36.055 34.4229 36.5537C34.1342 37.315 33.4779 37.5775 32.9004 37.3413C32.2966 37.105 32.1653 36.7375 32.0603 36.265C31.9291 35.6875 31.7191 34.0599 31.7191 33.5874C31.7191 32.8261 31.4828 31.4348 31.5878 30.2536C31.5878 30.1486 31.5878 29.4923 31.5616 29.256ZM39.0996 29.9911C39.0996 31.6449 39.0996 33.0099 39.1784 34.5849C39.2046 35.0049 39.0996 35.6087 39.0996 36.0287C39.0996 36.7112 38.7584 37 38.6271 37.0263C38.2859 37.105 37.9709 37.0263 37.6821 36.9737C37.1046 36.8425 36.8683 36.5012 36.6321 36.0287C36.5008 35.7925 36.5008 35.5562 36.5008 35.32C36.3958 34.4799 36.4746 33.6662 36.5008 32.9574C36.5271 31.6711 36.5008 30.1223 36.6321 28.8098C36.7371 27.5235 36.7896 26.211 36.9733 24.9247C37.1308 23.7434 37.2883 22.1421 37.2883 20.9083C37.2883 20.672 37.3408 20.567 37.3408 20.3308C37.3408 19.9895 37.4458 19.5433 37.8134 19.307C38.3121 18.9657 38.8109 19.1758 39.4672 19.5433C39.7822 19.727 39.9397 19.9108 39.9397 20.252C39.9397 20.9608 39.9397 21.8008 39.8084 22.5096C39.7034 22.9821 39.5722 23.9796 39.5722 24.4522C39.4672 25.2659 39.4672 26.1059 39.3359 27.051V27.3922C40.0447 27.3922 41.1734 27.2872 41.7772 27.156C41.7772 26.5785 41.856 25.9484 42.0135 25.2659C42.1972 24.4522 42.3547 23.2184 42.8272 22.3783C42.9585 22.1421 43.0635 21.8008 43.1948 21.4333C43.2998 21.1971 43.326 20.8558 43.536 20.4883C43.956 19.7533 44.5598 19.9633 45.1636 20.1995C45.2161 19.7008 45.7148 19.5433 46.0561 19.5433C47.5786 19.5433 48.8912 19.7533 49.9149 21.3283C50.5187 22.2733 50.86 23.8484 50.9912 25.0297C51.0962 26.1059 51.1225 27.051 50.9912 28.101C50.8862 28.941 50.755 31.1723 50.5975 31.8811C50.335 32.9836 49.8362 33.6662 49.3637 34.5062C48.5237 35.7925 47.4736 36.5012 46.0561 36.6325C44.9798 36.8687 43.326 36.265 42.7485 34.7424C42.381 33.7974 41.9872 32.6949 41.8822 31.7499C41.856 31.5661 41.7772 30.2273 41.7772 30.1223C41.7772 29.7548 41.541 29.6498 41.3047 29.6498H41.1734C40.3597 29.7548 40.0447 29.8861 39.0996 29.9911ZM45.8723 21.7483C45.6361 22.6934 45.3473 24.2159 45.0848 25.0297C44.4285 27.1822 44.6385 30.7261 44.9798 32.9574C45.1111 33.3249 45.2161 33.6662 45.4523 33.9024C45.9248 33.9024 46.2923 33.6662 46.5286 33.3249C47.5786 32.0124 48.0249 29.2823 48.1561 27.6285C48.3924 26.211 48.2349 24.3996 47.7886 23.0871C47.4211 22.0371 46.9749 22.2996 46.4761 22.0633C46.3448 22.0108 46.0298 21.9846 45.8723 21.7483Z" fill="#141E1F"/>
</svg>
