<svg width="32" height="32" viewBox="0 0 32 32" fill="none" xmlns="http://www.w3.org/2000/svg">
<path d="M26.8 20.4C27.5934 18.8292 28.0046 17.0932 28 15.3334V14.6667C27.8467 11.8876 26.6737 9.26265 24.7055 7.29452C22.7374 5.32639 20.1125 4.15336 17.3333 4.00004H16.6667C14.9068 3.99545 13.1708 4.40661 11.6 5.20004C9.71767 6.14079 8.13444 7.58704 7.02763 9.37677C5.92082 11.1665 5.33415 13.229 5.33333 15.3334C5.32875 17.0932 5.73991 18.8292 6.53333 20.4L4 28L11.6 25.4667C13.1708 26.2601 14.9068 26.6713 16.6667 26.6667C18.771 26.6659 20.8335 26.0792 22.6233 24.9724C24.413 23.8656 25.8592 22.2824 26.8 20.4Z" stroke="black" stroke-width="2.66667" stroke-linecap="round" stroke-linejoin="round"/>
</svg>
