<svg width="364" height="84" viewBox="0 0 364 84" fill="none" xmlns="http://www.w3.org/2000/svg">
<path d="M362.297 59.5249C361.656 56.2022 356.585 57.6012 357.226 60.9239C357.809 63.8969 358.858 70.6588 356.118 72.9906C353.612 75.1474 348.599 74.681 345.567 74.7393C345.159 74.7393 233.179 75.9052 177.509 76.0218C128.776 76.1966 78.2947 72.5242 29.4453 76.3716C25.8894 76.663 10.675 78.3535 10.092 78.3535C9.39252 78.3535 8.0518 78.645 7.46887 78.1786C6.65277 77.5374 7.00253 76.1384 7.06083 75.0308C7.11912 70.5423 7.17742 66.0537 7.294 61.5652C7.3523 58.1842 2.10593 58.1842 2.04764 61.5652C1.98934 65.5874 1.93106 69.5513 1.87277 73.5735C1.81447 76.0218 1.23153 79.2279 2.63056 81.443C4.14617 83.833 7.58546 84.2411 11.0247 83.8913C12.9484 83.7164 24.1989 82.0843 28.0462 81.7928C77.362 77.7706 128.427 81.5013 177.626 81.3264C235.044 81.1516 292.404 80.8018 349.823 80.2189C355.361 80.1606 358.567 78.645 360.84 75.8469C364.105 71.7081 363.288 64.3049 362.297 59.5249Z" fill="#141E1F"/>
<path d="M6.18552 28.342C6.53528 24.0866 6.82674 19.6563 7.81772 15.4592C8.69211 11.7285 11.6068 10.3295 14.9878 10.1546C122.013 4.20873 230.263 3.80067 337.406 6.07409C350.813 6.36556 354.544 6.42386 355.418 9.97973C356.234 13.2441 356.234 17.1498 356.526 20.5307C356.875 23.8534 362.122 23.9117 361.772 20.5307C361.306 15.9839 361.83 9.51338 359.09 5.60776C357.05 2.69312 355.243 1.06092 345.1 0.944338C237.55 -0.338105 128.367 -1.2125 20.8753 4.55849C20.0592 4.61678 14.9878 4.79167 11.4319 5.54948C8.22578 6.24899 4.84481 7.58973 3.38749 10.2129C0.472849 15.4593 0.531131 22.5127 0.0064949 28.2837C-0.226677 31.6647 5.89406 31.7229 6.18552 28.342Z" fill="#141E1F"/>
<path d="M105.751 51.427C107.033 56.8482 110.531 59.7046 116.069 59.9378C117.351 59.9961 118.692 59.9961 119.974 59.8795C123.938 59.4131 127.786 58.5387 131.167 56.207C132.682 55.1577 133.265 53.5255 132.391 51.9516C131.4 50.2028 129.826 51.1355 128.543 51.7768C125.396 53.3507 122.015 54.1668 118.517 54.3999C114.378 54.6914 112.804 53.817 111.988 48.6872C111.347 43.8489 112.105 44.3736 113.97 44.0821C117.351 43.5575 122.889 42.858 126.27 42.4499C128.135 42.2167 129.359 41.3423 129.243 39.3021C129.126 36.9704 127.261 37.3201 125.804 37.3201C123.122 37.3784 120.441 37.495 117.818 37.7865C116.01 38.0196 114.262 38.1362 112.338 38.4277C113.679 31.6074 113.912 30.2667 112.804 29.2757C117.643 28.2847 122.598 28.0516 127.552 27.8184C129.359 27.7601 130.584 27.0023 130.584 25.0786C130.584 23.155 129.185 22.6886 127.552 22.7469C123.588 22.8052 119.683 22.7469 115.661 23.1549C112.513 23.4464 109.423 23.9711 106.276 24.4957C104.818 24.7289 103.652 25.545 103.652 27.2355C103.711 28.8094 104.76 29.6838 106.217 30.0918C106.684 30.2084 107.15 30.2084 107.675 30.325C107.325 31.4908 106.975 32.5984 106.684 33.6477C105.051 39.5353 104.294 45.4228 105.751 51.427Z" fill="#141E1F"/>
<path d="M47.28 59.1218C48.1544 60.2877 49.5534 60.2877 50.7193 59.9379C52.2349 59.5299 53.2842 58.4223 54.2752 57.1982C57.4813 53.1177 60.1627 48.6874 62.3196 43.9657C64.9427 38.1947 67.1579 32.3071 67.7991 25.9532C67.974 24.4959 67.6242 23.2134 65.8754 22.8054C64.0684 22.3973 62.6111 22.8637 61.8533 24.6124C61.3869 25.6617 61.212 26.7693 60.9789 27.8769C59.9296 32.7735 58.4723 37.4952 56.024 42.3335C55.6159 41.7505 55.441 41.4591 55.2661 41.1676C52.3515 36.2127 50.3696 30.7915 48.7374 25.312C48.2127 23.4466 47.0469 22.2224 45.0066 22.7471C42.9081 23.2717 42.3251 24.9039 42.6749 26.9442C42.7915 27.5854 42.9081 28.2266 43.1413 28.8095C45.0649 35.28 47.8047 41.4008 51.9434 46.7637C52.7596 47.813 52.8762 47.9296 52.8762 47.9296C51.3605 50.1447 48.8539 53.6423 47.3966 55.7409C46.6388 56.7901 46.4057 58.0142 47.28 59.1218Z" fill="#141E1F"/>
<path d="M90.8263 28.7516C92.9248 28.6933 95.0233 28.7516 97.1219 28.6933C98.6958 28.635 99.9783 27.7606 99.9783 25.9536C100.037 24.1465 98.8707 23.447 97.1802 23.2721C89.9519 22.6309 82.9567 22.7474 75.7867 23.3304C73.1635 23.5052 71.5896 24.0299 71.1816 25.3706C70.7735 26.6531 71.1233 28.0521 72.1725 28.6933C73.2218 29.3928 74.9706 29.3345 76.1948 29.2179C77.827 29.0431 82.2572 28.8099 82.2572 28.8099C82.0823 33.007 82.1406 38.7197 82.1406 42.9168C82.1989 47.4636 82.4904 52.0105 83.0733 56.499C83.4231 59.472 85.8714 60.871 88.0282 59.4137C89.3106 58.5393 89.4855 57.1403 89.4272 55.7412C89.194 50.9612 88.9026 46.1812 88.6111 41.168C88.5528 37.7287 88.4946 32.5406 88.7277 28.8099C88.7277 28.7516 89.4273 28.7516 90.8263 28.7516Z" fill="#141E1F"/>
<path d="M283.485 69.206C285.117 69.7307 286.633 69.3226 287.741 67.8653C290.539 64.3094 289.664 57.4891 285.759 54.8077C284.884 54.2247 284.185 53.875 284.185 53.875C284.709 49.0367 285.059 43.7903 285.001 39.0103C285.001 36.5037 285.117 33.9971 284.943 31.4905C284.709 28.401 283.427 25.7778 280.454 24.4954C275.091 22.1054 269.67 22.8632 264.423 24.7868C262.441 25.4864 261.509 28.1679 263.083 29.5086C263.549 29.9166 264.19 29.9749 264.19 29.9749C264.365 37.4947 263.607 43.2657 261.392 51.6016C261.217 52.3594 260.809 53.875 260.809 53.875C259.993 53.467 259.061 53.1755 257.895 53.5835C256.321 54.1665 256.204 55.6821 256.088 56.9645C255.796 59.8209 255.971 62.6189 256.146 65.4753C256.262 67.1075 257.078 68.2733 259.002 68.3316C260.868 68.3316 261.742 67.5738 261.975 65.7085C262.15 64.3677 262.15 61.9194 262.208 60.2872C262.208 60.2872 262.383 60.1123 263.432 59.9957C268.97 59.4128 274.275 59.3545 279.813 59.8209C282.028 59.9957 282.902 61.3948 282.844 63.435C282.844 64.2511 282.611 65.0089 282.436 65.825C282.261 66.9909 281.678 68.5648 283.485 69.206ZM278.53 34.3469C278.239 40.2344 277.889 47.8708 277.598 53.7584C277.598 53.7584 270.486 53.7584 267.63 53.7584C270.078 46.0054 270.661 29.4503 270.894 29.2754C272.468 27.9347 277.19 28.8673 278.239 31.2574C278.705 32.3066 278.589 33.2976 278.53 34.3469Z" fill="#141E1F"/>
<path d="M350.29 28.928C349.59 25.6053 347.317 23.6817 344.053 22.9239C340.905 22.166 337.932 22.5741 335.017 23.74C334.376 23.9731 333.677 24.2063 333.677 24.2063C332.686 23.4485 331.811 23.0405 330.237 23.3902C328.955 23.6817 328.314 24.6143 327.906 26.6546C326.681 33.1834 326.681 39.7122 327.206 46.2993C327.498 49.622 327.906 52.8864 328.897 56.0925C329.829 59.0071 330.529 60.6394 333.502 60.1147C335.658 59.765 335.95 57.783 335.95 57.783C337.932 61.6303 345.16 59.9981 347.55 58.774C352.272 56.384 354.953 50.7879 353.205 45.8913C351.864 42.1605 348.833 40.47 344.927 39.3042C345.801 38.663 346.443 38.0217 347.142 37.4971C349.999 35.3402 350.99 32.3673 350.29 28.928ZM333.851 38.1383C333.851 37.089 333.793 33.1251 334.201 29.6275C334.201 29.6275 335.658 27.9371 340.264 27.8788C342.595 27.8788 343.586 29.1029 343.353 31.4346C342.945 35.1653 337.874 37.9051 334.668 38.1383C334.26 38.1383 333.851 38.1383 333.851 38.1383ZM346.443 49.0391C346.384 51.2542 345.044 52.7115 343.12 53.7608C341.546 54.6352 338.865 54.3437 337.116 54.5769C336.3 54.6935 335.833 55.0432 335.6 55.393C335.6 55.393 334.143 49.4471 333.968 43.3847C333.968 43.3847 335.017 43.1515 337.116 43.0932C339.331 43.0349 341.255 43.3264 343.237 44.3174C345.219 45.25 346.501 46.7656 346.443 49.0391Z" fill="#141E1F"/>
<path d="M238.074 22.1081C236.15 21.7583 234.868 22.8659 233.76 24.265C229.097 30.0942 226.765 36.7979 226.882 44.5508C226.824 46.4745 226.999 48.6896 227.465 50.7882C228.864 57.7833 233.586 61.5141 240.173 60.6397C244.486 60.0568 247.634 57.5502 249.674 53.8194C253.289 47.5238 254.571 38.7216 251.715 30.852C250.607 27.8208 247.926 24.7896 243.67 24.1483C242.446 23.9735 239.998 24.0318 239.998 24.0318C239.998 23.6237 239.94 22.3996 238.074 22.1081ZM244.137 31.6099C245.419 33.3586 245.885 35.3989 246.119 37.4974C246.643 41.9277 246.06 46.1831 244.37 50.3219C243.903 51.546 243.146 52.5953 242.271 53.5279C239.298 56.5009 236.034 55.7431 234.635 51.7792C233.76 49.2726 233.352 46.7077 233.411 43.5016C233.527 39.5377 234.285 36.2733 236.209 32.6008C238.366 28.6369 241.747 28.462 244.137 31.6099Z" fill="#141E1F"/>
<path d="M304.586 22.1081C302.662 21.7583 301.38 22.8659 300.272 24.265C295.609 30.0942 293.277 36.7979 293.394 44.5508C293.335 46.4745 293.51 48.6896 293.977 50.7882C295.376 57.7833 300.097 61.5141 306.684 60.6397C310.998 60.0568 314.146 57.5502 316.186 53.8194C319.742 47.5238 321.083 38.7216 318.226 30.852C317.119 27.8208 314.437 24.7896 310.182 24.1483C308.958 23.9735 306.51 24.0318 306.51 24.0318C306.51 23.6237 306.393 22.3996 304.586 22.1081ZM310.648 31.6099C311.931 33.3586 312.397 35.3989 312.63 37.4974C313.155 41.9277 312.572 46.1831 310.881 50.3219C310.357 51.546 309.657 52.5953 308.725 53.5279C305.752 56.5009 302.487 55.7431 301.088 51.7792C300.214 49.2726 299.806 46.7077 299.864 43.5016C299.981 39.5377 300.739 36.2733 302.662 32.6008C304.819 28.6369 308.258 28.462 310.648 31.6099Z" fill="#141E1F"/>
<path d="M222.452 36.85C224.434 30.6127 221.927 24.7834 216.389 23.2095C213.241 22.2768 209.802 22.1602 205.722 23.5593C205.722 23.5593 204.964 22.3351 202.691 22.6266C200.709 22.8598 200.3 23.8507 200.009 26.299C199.543 30.5544 199.309 34.8681 199.543 39.1235C199.543 41.6883 200.126 53.9882 201.233 57.4275C201.933 59.5843 203.856 60.6335 205.78 60.0506C207.879 59.3511 207.354 57.6606 207.179 56.2033C206.946 54.163 206.654 51.1901 206.48 49.1498C206.48 49.1498 207.237 49.0333 207.82 48.975C214.64 47.7508 220.528 42.9125 222.452 36.85ZM206.013 43.7286C206.013 39.823 205.722 33.4691 206.246 28.5142C206.246 28.5142 207.004 28.2227 208.112 28.1644C209.336 28.0478 210.56 27.9313 211.726 27.9895C214.64 28.2227 216.331 30.263 216.156 33.2359C215.981 37.9576 212.134 42.3879 206.013 43.7286Z" fill="#141E1F"/>
<path d="M161.36 36.85C163.342 30.6127 160.835 24.7834 155.297 23.2095C152.15 22.2768 148.71 22.1602 144.63 23.5593C144.63 23.5593 143.872 22.3351 141.599 22.6266C139.558 22.8598 139.209 23.8507 138.917 26.299C138.451 30.5544 138.218 34.8681 138.451 39.1235C138.451 41.6883 139.034 53.9882 140.141 57.4275C140.841 59.5843 142.706 60.6335 144.688 60.0506C146.787 59.3511 146.262 57.6606 146.087 56.2033C145.854 54.163 145.563 51.1901 145.388 49.1498C145.388 49.1498 146.145 49.0333 146.728 48.975C153.49 47.7508 159.378 42.9125 161.36 36.85ZM144.921 43.7286C144.921 39.823 144.63 33.4691 145.155 28.5142C145.155 28.5142 145.912 28.2227 147.02 28.1644C148.244 28.0478 149.468 27.9313 150.634 27.9895C153.607 28.2227 155.239 30.263 155.064 33.2359C154.831 37.9576 151.042 42.3879 144.921 43.7286Z" fill="#141E1F"/>
<path d="M16.4445 56.67C16.7359 58.8268 17.2606 59.5846 18.7762 59.7595C20.9913 60.1092 22.4486 58.9434 22.4486 58.9434C24.4306 59.5263 26.8789 59.5263 28.8608 59.1766C35.7977 58.0107 39.8199 52.298 38.8289 45.0697C38.0128 38.8907 33.2328 35.6846 26.0628 36.3841C25.3633 36.4424 23.0316 36.7921 22.3321 37.0253C22.3321 37.0253 22.2738 36.4423 22.3321 35.2182C22.3904 33.4694 22.5652 31.0794 22.7984 28.2814C22.7984 28.2814 23.9059 28.2231 25.305 28.2231C27.5784 28.2814 29.2106 28.1065 31.484 28.1065C34.3987 28.1065 35.856 27.3487 35.7977 25.4833C35.6811 22.5686 33.2328 22.9184 31.4257 22.8601C27.4618 22.7435 23.7893 22.8601 19.8837 23.2099C18.4264 23.3265 16.9691 23.3848 15.8616 24.2591C14.754 25.1335 14.754 27.1738 15.8032 28.1065C15.9781 28.2813 16.4445 28.5728 16.4445 28.5728C15.745 37.2001 15.2203 48.1592 16.4445 56.67ZM22.4486 42.4465C22.4486 42.4465 22.3903 42.155 25.8296 41.6304C29.2106 41.1058 31.1926 42.2716 31.8921 44.9531C33.3494 50.4909 29.3855 54.5714 23.6728 54.0468C23.0316 53.9885 22.6818 53.9302 22.6818 53.9302C22.2738 50.3743 22.2737 44.2536 22.4486 42.4465Z" fill="#141E1F"/>
<path d="M169.636 56.67C169.928 58.8268 170.452 59.5846 171.968 59.7595C174.183 60.1092 175.64 58.9434 175.64 58.9434C177.622 59.5263 180.071 59.5263 182.111 59.1766C189.048 58.0107 193.07 52.298 192.079 45.0697C191.263 38.8907 186.483 35.6846 179.313 36.3841C178.613 36.4424 176.282 36.7921 175.582 37.0253C175.582 37.0253 175.524 36.4423 175.582 35.2182C175.64 33.4694 175.815 31.0794 176.048 28.2814C176.048 28.2814 177.214 28.2231 178.555 28.2231C180.828 28.2814 182.461 28.1065 184.734 28.1065C187.649 28.1065 189.106 27.3487 189.048 25.4833C188.931 22.5686 186.483 22.9184 184.676 22.8601C180.712 22.7435 177.039 22.8601 173.134 23.2099C171.618 23.3265 170.161 23.3848 169.112 24.2591C168.004 25.1335 168.004 27.1738 169.053 28.1065C169.228 28.2813 169.694 28.5728 169.694 28.5728C168.937 37.2001 168.47 48.1592 169.636 56.67ZM175.64 42.4465C175.64 42.4465 175.582 42.155 179.021 41.6304C182.402 41.1058 184.384 42.2716 185.084 44.9531C186.541 50.4909 182.577 54.5714 176.864 54.0468C176.223 53.9885 175.874 53.9302 175.874 53.9302C175.465 50.3743 175.465 44.2536 175.64 42.4465Z" fill="#141E1F"/>
</svg>
